ISO-10303-21;
HEADER;
/* Generated by software containing ST-Developer
 * from STEP Tools, Inc. (www.steptools.com) 
 */
/* OPTION: using custom renumber hook */

FILE_DESCRIPTION(
/* description */ ('STEP AP242 Edition 2',
'CAx-IF Rec.Pracs.---Representation and Presentation of Product Manufa
cturing Information (PMI)---4.0---2014-10-13',
'CAx-IF Rec.Pracs.---3D Tessellated Geometry---0.4---2014-09-14','2;1',
'CAx-IF Rec.Pracs.---User Defined Attributes---1.5---2016-08-15'),
/* implementation_level */ '2;1');

FILE_NAME(
/* name */ 'Part Studio 3 - Part 11',
/* time_stamp */ '2026-09-11T02:36:01Z',
/* author */ (''),
/* organization */ (''),
/* preprocessor_version */ 'ST-DEVELOPER v20',
/* originating_system */ 'ONSHAPE BY PTC INC, 1.220',
/* authorisation */ '  ');

FILE_SCHEMA (('AP242_MANAGED_MODEL_BASED_3D_ENGINEERING_MIM_LF { 1 0 10303 442 3 1 4 }'));
ENDSEC;

DATA;
#10=SHAPE_REPRESENTATION_RELATIONSHIP('','',#486,#11);
#11=ADVANCED_BREP_SHAPE_REPRESENTATION('',(#484),#866);
#12=CIRCLE('',#490,0.0100767891290803);
#13=CIRCLE('',#491,0.0100767891290803);
#14=CIRCLE('',#499,0.00126087990626077);
#15=CIRCLE('',#500,0.00126087990626077);
#16=CIRCLE('',#502,0.00163657520320758);
#17=CIRCLE('',#503,0.00163657520320758);
#18=CYLINDRICAL_SURFACE('',#489,0.0100767891290803);
#19=CYLINDRICAL_SURFACE('',#498,0.00126087990626077);
#20=CYLINDRICAL_SURFACE('',#501,0.00163657520320758);
#21=PLANE('',#488);
#22=PLANE('',#492);
#23=PLANE('',#493);
#24=PLANE('',#494);
#25=PLANE('',#495);
#26=PLANE('',#496);
#27=PLANE('',#497);
#28=PLANE('',#504);
#29=PLANE('',#505);
#30=LINE('',#595,#67);
#31=LINE('',#601,#68);
#32=LINE('',#614,#69);
#33=LINE('',#631,#70);
#34=LINE('',#648,#71);
#35=LINE('',#665,#72);
#36=LINE('',#682,#73);
#37=LINE('',#699,#74);
#38=LINE('',#717,#75);
#39=LINE('',#723,#76);
#40=LINE('',#736,#77);
#41=LINE('',#753,#78);
#42=LINE('',#770,#79);
#43=LINE('',#787,#80);
#44=LINE('',#793,#81);
#45=LINE('',#795,#82);
#46=LINE('',#797,#83);
#47=LINE('',#801,#84);
#48=LINE('',#805,#85);
#49=LINE('',#807,#86);
#50=LINE('',#809,#87);
#51=LINE('',#811,#88);
#52=LINE('',#813,#89);
#53=LINE('',#815,#90);
#54=LINE('',#817,#91);
#55=LINE('',#819,#92);
#56=LINE('',#821,#93);
#57=LINE('',#823,#94);
#58=LINE('',#825,#95);
#59=LINE('',#827,#96);
#60=LINE('',#829,#97);
#61=LINE('',#831,#98);
#62=LINE('',#833,#99);
#63=LINE('',#835,#100);
#64=LINE('',#837,#101);
#65=LINE('',#839,#102);
#66=LINE('',#843,#103);
#67=VECTOR('',#508,1.);
#68=VECTOR('',#509,1.);
#69=VECTOR('',#510,1.);
#70=VECTOR('',#511,1.);
#71=VECTOR('',#512,1.);
#72=VECTOR('',#513,1.);
#73=VECTOR('',#514,1.);
#74=VECTOR('',#515,1.);
#75=VECTOR('',#516,1.);
#76=VECTOR('',#517,1.);
#77=VECTOR('',#518,1.);
#78=VECTOR('',#519,1.);
#79=VECTOR('',#520,1.);
#80=VECTOR('',#521,1.);
#81=VECTOR('',#524,1.);
#82=VECTOR('',#525,1.);
#83=VECTOR('',#526,1.);
#84=VECTOR('',#531,1.);
#85=VECTOR('',#536,1.);
#86=VECTOR('',#537,1.);
#87=VECTOR('',#538,1.);
#88=VECTOR('',#541,1.);
#89=VECTOR('',#542,1.);
#90=VECTOR('',#543,1.);
#91=VECTOR('',#546,1.);
#92=VECTOR('',#547,1.);
#93=VECTOR('',#548,1.);
#94=VECTOR('',#551,1.);
#95=VECTOR('',#552,1.);
#96=VECTOR('',#553,1.);
#97=VECTOR('',#556,1.);
#98=VECTOR('',#557,1.);
#99=VECTOR('',#558,1.);
#100=VECTOR('',#561,1.);
#101=VECTOR('',#562,1.);
#102=VECTOR('',#563,1.);
#103=VECTOR('',#568,1.);
#104=ORIENTED_EDGE('',*,*,#242,.F.);
#105=ORIENTED_EDGE('',*,*,#243,.F.);
#106=ORIENTED_EDGE('',*,*,#244,.T.);
#107=ORIENTED_EDGE('',*,*,#245,.T.);
#108=ORIENTED_EDGE('',*,*,#246,.F.);
#109=ORIENTED_EDGE('',*,*,#247,.F.);
#110=ORIENTED_EDGE('',*,*,#248,.T.);
#111=ORIENTED_EDGE('',*,*,#243,.T.);
#112=ORIENTED_EDGE('',*,*,#249,.F.);
#113=ORIENTED_EDGE('',*,*,#250,.F.);
#114=ORIENTED_EDGE('',*,*,#251,.T.);
#115=ORIENTED_EDGE('',*,*,#247,.T.);
#116=ORIENTED_EDGE('',*,*,#252,.F.);
#117=ORIENTED_EDGE('',*,*,#253,.F.);
#118=ORIENTED_EDGE('',*,*,#254,.T.);
#119=ORIENTED_EDGE('',*,*,#250,.T.);
#120=ORIENTED_EDGE('',*,*,#255,.F.);
#121=ORIENTED_EDGE('',*,*,#256,.F.);
#122=ORIENTED_EDGE('',*,*,#257,.T.);
#123=ORIENTED_EDGE('',*,*,#253,.T.);
#124=ORIENTED_EDGE('',*,*,#258,.F.);
#125=ORIENTED_EDGE('',*,*,#259,.F.);
#126=ORIENTED_EDGE('',*,*,#260,.T.);
#127=ORIENTED_EDGE('',*,*,#256,.T.);
#128=ORIENTED_EDGE('',*,*,#261,.F.);
#129=ORIENTED_EDGE('',*,*,#262,.F.);
#130=ORIENTED_EDGE('',*,*,#263,.T.);
#131=ORIENTED_EDGE('',*,*,#259,.T.);
#132=ORIENTED_EDGE('',*,*,#264,.F.);
#133=ORIENTED_EDGE('',*,*,#265,.F.);
#134=ORIENTED_EDGE('',*,*,#266,.T.);
#135=ORIENTED_EDGE('',*,*,#267,.T.);
#136=ORIENTED_EDGE('',*,*,#268,.F.);
#137=ORIENTED_EDGE('',*,*,#269,.F.);
#138=ORIENTED_EDGE('',*,*,#270,.T.);
#139=ORIENTED_EDGE('',*,*,#265,.T.);
#140=ORIENTED_EDGE('',*,*,#271,.F.);
#141=ORIENTED_EDGE('',*,*,#272,.F.);
#142=ORIENTED_EDGE('',*,*,#273,.T.);
#143=ORIENTED_EDGE('',*,*,#269,.T.);
#144=ORIENTED_EDGE('',*,*,#274,.F.);
#145=ORIENTED_EDGE('',*,*,#275,.F.);
#146=ORIENTED_EDGE('',*,*,#276,.T.);
#147=ORIENTED_EDGE('',*,*,#272,.T.);
#148=ORIENTED_EDGE('',*,*,#277,.F.);
#149=ORIENTED_EDGE('',*,*,#278,.F.);
#150=ORIENTED_EDGE('',*,*,#279,.T.);
#151=ORIENTED_EDGE('',*,*,#275,.T.);
#152=ORIENTED_EDGE('',*,*,#280,.F.);
#153=ORIENTED_EDGE('',*,*,#281,.F.);
#154=ORIENTED_EDGE('',*,*,#282,.T.);
#155=ORIENTED_EDGE('',*,*,#278,.T.);
#156=ORIENTED_EDGE('',*,*,#283,.F.);
#157=ORIENTED_EDGE('',*,*,#284,.F.);
#158=ORIENTED_EDGE('',*,*,#285,.T.);
#159=ORIENTED_EDGE('',*,*,#281,.T.);
#160=ORIENTED_EDGE('',*,*,#286,.F.);
#161=ORIENTED_EDGE('',*,*,#287,.F.);
#162=ORIENTED_EDGE('',*,*,#288,.T.);
#163=ORIENTED_EDGE('',*,*,#284,.T.);
#164=ORIENTED_EDGE('',*,*,#289,.F.);
#165=ORIENTED_EDGE('',*,*,#290,.F.);
#166=ORIENTED_EDGE('',*,*,#291,.T.);
#167=ORIENTED_EDGE('',*,*,#287,.T.);
#168=ORIENTED_EDGE('',*,*,#292,.F.);
#169=ORIENTED_EDGE('',*,*,#293,.F.);
#170=ORIENTED_EDGE('',*,*,#294,.T.);
#171=ORIENTED_EDGE('',*,*,#290,.T.);
#172=ORIENTED_EDGE('',*,*,#295,.F.);
#173=ORIENTED_EDGE('',*,*,#296,.F.);
#174=ORIENTED_EDGE('',*,*,#297,.T.);
#175=ORIENTED_EDGE('',*,*,#293,.T.);
#176=ORIENTED_EDGE('',*,*,#298,.F.);
#177=ORIENTED_EDGE('',*,*,#299,.F.);
#178=ORIENTED_EDGE('',*,*,#300,.T.);
#179=ORIENTED_EDGE('',*,*,#296,.T.);
#180=ORIENTED_EDGE('',*,*,#301,.F.);
#181=ORIENTED_EDGE('',*,*,#302,.F.);
#182=ORIENTED_EDGE('',*,*,#303,.T.);
#183=ORIENTED_EDGE('',*,*,#299,.T.);
#184=ORIENTED_EDGE('',*,*,#304,.F.);
#185=ORIENTED_EDGE('',*,*,#305,.F.);
#186=ORIENTED_EDGE('',*,*,#306,.T.);
#187=ORIENTED_EDGE('',*,*,#302,.T.);
#188=ORIENTED_EDGE('',*,*,#307,.F.);
#189=ORIENTED_EDGE('',*,*,#267,.F.);
#190=ORIENTED_EDGE('',*,*,#308,.T.);
#191=ORIENTED_EDGE('',*,*,#305,.T.);
#192=ORIENTED_EDGE('',*,*,#309,.F.);
#193=ORIENTED_EDGE('',*,*,#245,.F.);
#194=ORIENTED_EDGE('',*,*,#310,.T.);
#195=ORIENTED_EDGE('',*,*,#262,.T.);
#196=ORIENTED_EDGE('',*,*,#266,.F.);
#197=ORIENTED_EDGE('',*,*,#270,.F.);
#198=ORIENTED_EDGE('',*,*,#273,.F.);
#199=ORIENTED_EDGE('',*,*,#276,.F.);
#200=ORIENTED_EDGE('',*,*,#279,.F.);
#201=ORIENTED_EDGE('',*,*,#282,.F.);
#202=ORIENTED_EDGE('',*,*,#285,.F.);
#203=ORIENTED_EDGE('',*,*,#288,.F.);
#204=ORIENTED_EDGE('',*,*,#291,.F.);
#205=ORIENTED_EDGE('',*,*,#294,.F.);
#206=ORIENTED_EDGE('',*,*,#297,.F.);
#207=ORIENTED_EDGE('',*,*,#300,.F.);
#208=ORIENTED_EDGE('',*,*,#303,.F.);
#209=ORIENTED_EDGE('',*,*,#306,.F.);
#210=ORIENTED_EDGE('',*,*,#308,.F.);
#211=ORIENTED_EDGE('',*,*,#244,.F.);
#212=ORIENTED_EDGE('',*,*,#248,.F.);
#213=ORIENTED_EDGE('',*,*,#251,.F.);
#214=ORIENTED_EDGE('',*,*,#254,.F.);
#215=ORIENTED_EDGE('',*,*,#257,.F.);
#216=ORIENTED_EDGE('',*,*,#260,.F.);
#217=ORIENTED_EDGE('',*,*,#263,.F.);
#218=ORIENTED_EDGE('',*,*,#310,.F.);
#219=ORIENTED_EDGE('',*,*,#264,.T.);
#220=ORIENTED_EDGE('',*,*,#307,.T.);
#221=ORIENTED_EDGE('',*,*,#304,.T.);
#222=ORIENTED_EDGE('',*,*,#301,.T.);
#223=ORIENTED_EDGE('',*,*,#298,.T.);
#224=ORIENTED_EDGE('',*,*,#295,.T.);
#225=ORIENTED_EDGE('',*,*,#292,.T.);
#226=ORIENTED_EDGE('',*,*,#289,.T.);
#227=ORIENTED_EDGE('',*,*,#286,.T.);
#228=ORIENTED_EDGE('',*,*,#283,.T.);
#229=ORIENTED_EDGE('',*,*,#280,.T.);
#230=ORIENTED_EDGE('',*,*,#277,.T.);
#231=ORIENTED_EDGE('',*,*,#274,.T.);
#232=ORIENTED_EDGE('',*,*,#271,.T.);
#233=ORIENTED_EDGE('',*,*,#268,.T.);
#234=ORIENTED_EDGE('',*,*,#242,.T.);
#235=ORIENTED_EDGE('',*,*,#309,.T.);
#236=ORIENTED_EDGE('',*,*,#261,.T.);
#237=ORIENTED_EDGE('',*,*,#258,.T.);
#238=ORIENTED_EDGE('',*,*,#255,.T.);
#239=ORIENTED_EDGE('',*,*,#252,.T.);
#240=ORIENTED_EDGE('',*,*,#249,.T.);
#241=ORIENTED_EDGE('',*,*,#246,.T.);
#242=EDGE_CURVE('',#311,#312,#357,.T.);
#243=EDGE_CURVE('',#313,#311,#30,.T.);
#244=EDGE_CURVE('',#313,#314,#358,.T.);
#245=EDGE_CURVE('',#314,#312,#31,.T.);
#246=EDGE_CURVE('',#315,#311,#359,.T.);
#247=EDGE_CURVE('',#316,#315,#32,.T.);
#248=EDGE_CURVE('',#316,#313,#360,.T.);
#249=EDGE_CURVE('',#317,#315,#361,.T.);
#250=EDGE_CURVE('',#318,#317,#33,.T.);
#251=EDGE_CURVE('',#318,#316,#362,.T.);
#252=EDGE_CURVE('',#319,#317,#363,.T.);
#253=EDGE_CURVE('',#320,#319,#34,.T.);
#254=EDGE_CURVE('',#320,#318,#364,.T.);
#255=EDGE_CURVE('',#321,#319,#365,.T.);
#256=EDGE_CURVE('',#322,#321,#35,.T.);
#257=EDGE_CURVE('',#322,#320,#366,.T.);
#258=EDGE_CURVE('',#323,#321,#367,.T.);
#259=EDGE_CURVE('',#324,#323,#36,.T.);
#260=EDGE_CURVE('',#324,#322,#368,.T.);
#261=EDGE_CURVE('',#325,#323,#369,.T.);
#262=EDGE_CURVE('',#326,#325,#37,.T.);
#263=EDGE_CURVE('',#326,#324,#370,.T.);
#264=EDGE_CURVE('',#327,#328,#371,.T.);
#265=EDGE_CURVE('',#329,#327,#38,.T.);
#266=EDGE_CURVE('',#329,#330,#372,.T.);
#267=EDGE_CURVE('',#330,#328,#39,.T.);
#268=EDGE_CURVE('',#331,#327,#373,.T.);
#269=EDGE_CURVE('',#332,#331,#40,.T.);
#270=EDGE_CURVE('',#332,#329,#374,.T.);
#271=EDGE_CURVE('',#333,#331,#375,.T.);
#272=EDGE_CURVE('',#334,#333,#41,.T.);
#273=EDGE_CURVE('',#334,#332,#376,.T.);
#274=EDGE_CURVE('',#335,#333,#377,.T.);
#275=EDGE_CURVE('',#336,#335,#42,.T.);
#276=EDGE_CURVE('',#336,#334,#378,.T.);
#277=EDGE_CURVE('',#337,#335,#379,.T.);
#278=EDGE_CURVE('',#338,#337,#43,.T.);
#279=EDGE_CURVE('',#338,#336,#380,.T.);
#280=EDGE_CURVE('',#339,#337,#44,.T.);
#281=EDGE_CURVE('',#340,#339,#45,.T.);
#282=EDGE_CURVE('',#340,#338,#46,.T.);
#283=EDGE_CURVE('',#341,#339,#12,.T.);
#284=EDGE_CURVE('',#342,#341,#47,.T.);
#285=EDGE_CURVE('',#342,#340,#13,.T.);
#286=EDGE_CURVE('',#343,#341,#48,.T.);
#287=EDGE_CURVE('',#344,#343,#49,.T.);
#288=EDGE_CURVE('',#344,#342,#50,.T.);
#289=EDGE_CURVE('',#345,#343,#51,.T.);
#290=EDGE_CURVE('',#346,#345,#52,.T.);
#291=EDGE_CURVE('',#346,#344,#53,.T.);
#292=EDGE_CURVE('',#347,#345,#54,.T.);
#293=EDGE_CURVE('',#348,#347,#55,.T.);
#294=EDGE_CURVE('',#348,#346,#56,.T.);
#295=EDGE_CURVE('',#349,#347,#57,.T.);
#296=EDGE_CURVE('',#350,#349,#58,.T.);
#297=EDGE_CURVE('',#350,#348,#59,.T.);
#298=EDGE_CURVE('',#351,#349,#60,.T.);
#299=EDGE_CURVE('',#352,#351,#61,.T.);
#300=EDGE_CURVE('',#352,#350,#62,.T.);
#301=EDGE_CURVE('',#353,#351,#63,.T.);
#302=EDGE_CURVE('',#354,#353,#64,.T.);
#303=EDGE_CURVE('',#354,#352,#65,.T.);
#304=EDGE_CURVE('',#355,#353,#14,.T.);
#305=EDGE_CURVE('',#356,#355,#66,.T.);
#306=EDGE_CURVE('',#356,#354,#15,.T.);
#307=EDGE_CURVE('',#328,#355,#16,.T.);
#308=EDGE_CURVE('',#330,#356,#17,.T.);
#309=EDGE_CURVE('',#312,#325,#381,.T.);
#310=EDGE_CURVE('',#314,#326,#382,.T.);
#311=VERTEX_POINT('',#593);
#312=VERTEX_POINT('',#594);
#313=VERTEX_POINT('',#596);
#314=VERTEX_POINT('',#600);
#315=VERTEX_POINT('',#613);
#316=VERTEX_POINT('',#615);
#317=VERTEX_POINT('',#630);
#318=VERTEX_POINT('',#632);
#319=VERTEX_POINT('',#647);
#320=VERTEX_POINT('',#649);
#321=VERTEX_POINT('',#664);
#322=VERTEX_POINT('',#666);
#323=VERTEX_POINT('',#681);
#324=VERTEX_POINT('',#683);
#325=VERTEX_POINT('',#698);
#326=VERTEX_POINT('',#700);
#327=VERTEX_POINT('',#715);
#328=VERTEX_POINT('',#716);
#329=VERTEX_POINT('',#718);
#330=VERTEX_POINT('',#722);
#331=VERTEX_POINT('',#735);
#332=VERTEX_POINT('',#737);
#333=VERTEX_POINT('',#752);
#334=VERTEX_POINT('',#754);
#335=VERTEX_POINT('',#769);
#336=VERTEX_POINT('',#771);
#337=VERTEX_POINT('',#786);
#338=VERTEX_POINT('',#788);
#339=VERTEX_POINT('',#794);
#340=VERTEX_POINT('',#796);
#341=VERTEX_POINT('',#800);
#342=VERTEX_POINT('',#802);
#343=VERTEX_POINT('',#806);
#344=VERTEX_POINT('',#808);
#345=VERTEX_POINT('',#812);
#346=VERTEX_POINT('',#814);
#347=VERTEX_POINT('',#818);
#348=VERTEX_POINT('',#820);
#349=VERTEX_POINT('',#824);
#350=VERTEX_POINT('',#826);
#351=VERTEX_POINT('',#830);
#352=VERTEX_POINT('',#832);
#353=VERTEX_POINT('',#836);
#354=VERTEX_POINT('',#838);
#355=VERTEX_POINT('',#842);
#356=VERTEX_POINT('',#844);
#357=B_SPLINE_CURVE_WITH_KNOTS('',2,(#590,#591,#592),.UNSPECIFIED.,.F.,
 .F.,(3,3),(0.,1.),.PIECEWISE_BEZIER_KNOTS.);
#358=B_SPLINE_CURVE_WITH_KNOTS('',2,(#597,#598,#599),.UNSPECIFIED.,.F.,
 .F.,(3,3),(0.,1.),.PIECEWISE_BEZIER_KNOTS.);
#359=B_SPLINE_CURVE_WITH_KNOTS('',2,(#610,#611,#612),.UNSPECIFIED.,.F.,
 .F.,(3,3),(0.,1.),.PIECEWISE_BEZIER_KNOTS.);
#360=B_SPLINE_CURVE_WITH_KNOTS('',2,(#616,#617,#618),.UNSPECIFIED.,.F.,
 .F.,(3,3),(0.,1.),.PIECEWISE_BEZIER_KNOTS.);
#361=B_SPLINE_CURVE_WITH_KNOTS('',2,(#627,#628,#629),.UNSPECIFIED.,.F.,
 .F.,(3,3),(0.,1.),.PIECEWISE_BEZIER_KNOTS.);
#362=B_SPLINE_CURVE_WITH_KNOTS('',2,(#633,#634,#635),.UNSPECIFIED.,.F.,
 .F.,(3,3),(0.,1.),.PIECEWISE_BEZIER_KNOTS.);
#363=B_SPLINE_CURVE_WITH_KNOTS('',2,(#644,#645,#646),.UNSPECIFIED.,.F.,
 .F.,(3,3),(0.,1.),.PIECEWISE_BEZIER_KNOTS.);
#364=B_SPLINE_CURVE_WITH_KNOTS('',2,(#650,#651,#652),.UNSPECIFIED.,.F.,
 .F.,(3,3),(0.,1.),.PIECEWISE_BEZIER_KNOTS.);
#365=B_SPLINE_CURVE_WITH_KNOTS('',2,(#661,#662,#663),.UNSPECIFIED.,.F.,
 .F.,(3,3),(0.,1.),.PIECEWISE_BEZIER_KNOTS.);
#366=B_SPLINE_CURVE_WITH_KNOTS('',2,(#667,#668,#669),.UNSPECIFIED.,.F.,
 .F.,(3,3),(0.,1.),.PIECEWISE_BEZIER_KNOTS.);
#367=B_SPLINE_CURVE_WITH_KNOTS('',2,(#678,#679,#680),.UNSPECIFIED.,.F.,
 .F.,(3,3),(0.,1.),.PIECEWISE_BEZIER_KNOTS.);
#368=B_SPLINE_CURVE_WITH_KNOTS('',2,(#684,#685,#686),.UNSPECIFIED.,.F.,
 .F.,(3,3),(0.,1.),.PIECEWISE_BEZIER_KNOTS.);
#369=B_SPLINE_CURVE_WITH_KNOTS('',2,(#695,#696,#697),.UNSPECIFIED.,.F.,
 .F.,(3,3),(0.,1.),.PIECEWISE_BEZIER_KNOTS.);
#370=B_SPLINE_CURVE_WITH_KNOTS('',2,(#701,#702,#703),.UNSPECIFIED.,.F.,
 .F.,(3,3),(0.,1.),.PIECEWISE_BEZIER_KNOTS.);
#371=B_SPLINE_CURVE_WITH_KNOTS('',2,(#712,#713,#714),.UNSPECIFIED.,.F.,
 .F.,(3,3),(0.,1.),.PIECEWISE_BEZIER_KNOTS.);
#372=B_SPLINE_CURVE_WITH_KNOTS('',2,(#719,#720,#721),.UNSPECIFIED.,.F.,
 .F.,(3,3),(0.,1.),.PIECEWISE_BEZIER_KNOTS.);
#373=B_SPLINE_CURVE_WITH_KNOTS('',2,(#732,#733,#734),.UNSPECIFIED.,.F.,
 .F.,(3,3),(0.,1.),.PIECEWISE_BEZIER_KNOTS.);
#374=B_SPLINE_CURVE_WITH_KNOTS('',2,(#738,#739,#740),.UNSPECIFIED.,.F.,
 .F.,(3,3),(0.,1.),.PIECEWISE_BEZIER_KNOTS.);
#375=B_SPLINE_CURVE_WITH_KNOTS('',2,(#749,#750,#751),.UNSPECIFIED.,.F.,
 .F.,(3,3),(0.,1.),.PIECEWISE_BEZIER_KNOTS.);
#376=B_SPLINE_CURVE_WITH_KNOTS('',2,(#755,#756,#757),.UNSPECIFIED.,.F.,
 .F.,(3,3),(0.,1.),.PIECEWISE_BEZIER_KNOTS.);
#377=B_SPLINE_CURVE_WITH_KNOTS('',2,(#766,#767,#768),.UNSPECIFIED.,.F.,
 .F.,(3,3),(0.,1.),.PIECEWISE_BEZIER_KNOTS.);
#378=B_SPLINE_CURVE_WITH_KNOTS('',2,(#772,#773,#774),.UNSPECIFIED.,.F.,
 .F.,(3,3),(0.,1.),.PIECEWISE_BEZIER_KNOTS.);
#379=B_SPLINE_CURVE_WITH_KNOTS('',2,(#783,#784,#785),.UNSPECIFIED.,.F.,
 .F.,(3,3),(0.,1.),.PIECEWISE_BEZIER_KNOTS.);
#380=B_SPLINE_CURVE_WITH_KNOTS('',2,(#789,#790,#791),.UNSPECIFIED.,.F.,
 .F.,(3,3),(0.,1.),.PIECEWISE_BEZIER_KNOTS.);
#381=B_SPLINE_CURVE_WITH_KNOTS('',2,(#857,#858,#859),.UNSPECIFIED.,.F.,
 .F.,(3,3),(0.,1.),.PIECEWISE_BEZIER_KNOTS.);
#382=B_SPLINE_CURVE_WITH_KNOTS('',2,(#860,#861,#862),.UNSPECIFIED.,.F.,
 .F.,(3,3),(0.,1.),.PIECEWISE_BEZIER_KNOTS.);
#383=EDGE_LOOP('',(#104,#105,#106,#107));
#384=EDGE_LOOP('',(#108,#109,#110,#111));
#385=EDGE_LOOP('',(#112,#113,#114,#115));
#386=EDGE_LOOP('',(#116,#117,#118,#119));
#387=EDGE_LOOP('',(#120,#121,#122,#123));
#388=EDGE_LOOP('',(#124,#125,#126,#127));
#389=EDGE_LOOP('',(#128,#129,#130,#131));
#390=EDGE_LOOP('',(#132,#133,#134,#135));
#391=EDGE_LOOP('',(#136,#137,#138,#139));
#392=EDGE_LOOP('',(#140,#141,#142,#143));
#393=EDGE_LOOP('',(#144,#145,#146,#147));
#394=EDGE_LOOP('',(#148,#149,#150,#151));
#395=EDGE_LOOP('',(#152,#153,#154,#155));
#396=EDGE_LOOP('',(#156,#157,#158,#159));
#397=EDGE_LOOP('',(#160,#161,#162,#163));
#398=EDGE_LOOP('',(#164,#165,#166,#167));
#399=EDGE_LOOP('',(#168,#169,#170,#171));
#400=EDGE_LOOP('',(#172,#173,#174,#175));
#401=EDGE_LOOP('',(#176,#177,#178,#179));
#402=EDGE_LOOP('',(#180,#181,#182,#183));
#403=EDGE_LOOP('',(#184,#185,#186,#187));
#404=EDGE_LOOP('',(#188,#189,#190,#191));
#405=EDGE_LOOP('',(#192,#193,#194,#195));
#406=EDGE_LOOP('',(#196,#197,#198,#199,#200,#201,#202,#203,#204,#205,#206,
#207,#208,#209,#210));
#407=EDGE_LOOP('',(#211,#212,#213,#214,#215,#216,#217,#218));
#408=EDGE_LOOP('',(#219,#220,#221,#222,#223,#224,#225,#226,#227,#228,#229,
#230,#231,#232,#233));
#409=EDGE_LOOP('',(#234,#235,#236,#237,#238,#239,#240,#241));
#410=FACE_BOUND('',#383,.T.);
#411=FACE_BOUND('',#384,.T.);
#412=FACE_BOUND('',#385,.T.);
#413=FACE_BOUND('',#386,.T.);
#414=FACE_BOUND('',#387,.T.);
#415=FACE_BOUND('',#388,.T.);
#416=FACE_BOUND('',#389,.T.);
#417=FACE_BOUND('',#390,.T.);
#418=FACE_BOUND('',#391,.T.);
#419=FACE_BOUND('',#392,.T.);
#420=FACE_BOUND('',#393,.T.);
#421=FACE_BOUND('',#394,.T.);
#422=FACE_BOUND('',#395,.T.);
#423=FACE_BOUND('',#396,.T.);
#424=FACE_BOUND('',#397,.T.);
#425=FACE_BOUND('',#398,.T.);
#426=FACE_BOUND('',#399,.T.);
#427=FACE_BOUND('',#400,.T.);
#428=FACE_BOUND('',#401,.T.);
#429=FACE_BOUND('',#402,.T.);
#430=FACE_BOUND('',#403,.T.);
#431=FACE_BOUND('',#404,.T.);
#432=FACE_BOUND('',#405,.T.);
#433=FACE_BOUND('',#406,.T.);
#434=FACE_BOUND('',#407,.T.);
#435=FACE_BOUND('',#408,.T.);
#436=FACE_BOUND('',#409,.T.);
#437=B_SPLINE_SURFACE_WITH_KNOTS('',3,1,((#582,#583),(#584,#585),(#586,
#587),(#588,#589)),.SURF_OF_LINEAR_EXTRUSION.,.F.,.F.,.F.,(4,4),(2,2),(0.,
1.),(0.,1.),.PIECEWISE_BEZIER_KNOTS.);
#438=B_SPLINE_SURFACE_WITH_KNOTS('',3,1,((#602,#603),(#604,#605),(#606,
#607),(#608,#609)),.SURF_OF_LINEAR_EXTRUSION.,.F.,.F.,.F.,(4,4),(2,2),(0.,
1.),(0.,1.),.PIECEWISE_BEZIER_KNOTS.);
#439=B_SPLINE_SURFACE_WITH_KNOTS('',3,1,((#619,#620),(#621,#622),(#623,
#624),(#625,#626)),.SURF_OF_LINEAR_EXTRUSION.,.F.,.F.,.F.,(4,4),(2,2),(0.,
1.),(0.,1.),.PIECEWISE_BEZIER_KNOTS.);
#440=B_SPLINE_SURFACE_WITH_KNOTS('',3,1,((#636,#637),(#638,#639),(#640,
#641),(#642,#643)),.SURF_OF_LINEAR_EXTRUSION.,.F.,.F.,.F.,(4,4),(2,2),(0.,
1.),(0.,1.),.PIECEWISE_BEZIER_KNOTS.);
#441=B_SPLINE_SURFACE_WITH_KNOTS('',3,1,((#653,#654),(#655,#656),(#657,
#658),(#659,#660)),.SURF_OF_LINEAR_EXTRUSION.,.F.,.F.,.F.,(4,4),(2,2),(0.,
1.),(0.,1.),.PIECEWISE_BEZIER_KNOTS.);
#442=B_SPLINE_SURFACE_WITH_KNOTS('',3,1,((#670,#671),(#672,#673),(#674,
#675),(#676,#677)),.SURF_OF_LINEAR_EXTRUSION.,.F.,.F.,.F.,(4,4),(2,2),(0.,
1.),(0.,1.),.PIECEWISE_BEZIER_KNOTS.);
#443=B_SPLINE_SURFACE_WITH_KNOTS('',3,1,((#687,#688),(#689,#690),(#691,
#692),(#693,#694)),.SURF_OF_LINEAR_EXTRUSION.,.F.,.F.,.F.,(4,4),(2,2),(0.,
1.),(0.,1.),.PIECEWISE_BEZIER_KNOTS.);
#444=B_SPLINE_SURFACE_WITH_KNOTS('',3,1,((#704,#705),(#706,#707),(#708,
#709),(#710,#711)),.SURF_OF_LINEAR_EXTRUSION.,.F.,.F.,.F.,(4,4),(2,2),(0.,
1.),(0.,1.),.PIECEWISE_BEZIER_KNOTS.);
#445=B_SPLINE_SURFACE_WITH_KNOTS('',3,1,((#724,#725),(#726,#727),(#728,
#729),(#730,#731)),.SURF_OF_LINEAR_EXTRUSION.,.F.,.F.,.F.,(4,4),(2,2),(0.,
1.),(0.,1.),.PIECEWISE_BEZIER_KNOTS.);
#446=B_SPLINE_SURFACE_WITH_KNOTS('',3,1,((#741,#742),(#743,#744),(#745,
#746),(#747,#748)),.SURF_OF_LINEAR_EXTRUSION.,.F.,.F.,.F.,(4,4),(2,2),(0.,
1.),(0.,1.),.PIECEWISE_BEZIER_KNOTS.);
#447=B_SPLINE_SURFACE_WITH_KNOTS('',3,1,((#758,#759),(#760,#761),(#762,
#763),(#764,#765)),.SURF_OF_LINEAR_EXTRUSION.,.F.,.F.,.F.,(4,4),(2,2),(0.,
1.),(0.,1.),.PIECEWISE_BEZIER_KNOTS.);
#448=B_SPLINE_SURFACE_WITH_KNOTS('',3,1,((#775,#776),(#777,#778),(#779,
#780),(#781,#782)),.SURF_OF_LINEAR_EXTRUSION.,.F.,.F.,.F.,(4,4),(2,2),(0.,
1.),(0.,1.),.PIECEWISE_BEZIER_KNOTS.);
#449=B_SPLINE_SURFACE_WITH_KNOTS('',3,1,((#849,#850),(#851,#852),(#853,
#854),(#855,#856)),.SURF_OF_LINEAR_EXTRUSION.,.F.,.F.,.F.,(4,4),(2,2),(0.,
1.),(0.,1.),.PIECEWISE_BEZIER_KNOTS.);
#450=ADVANCED_FACE('',(#410),#437,.T.);
#451=ADVANCED_FACE('',(#411),#438,.T.);
#452=ADVANCED_FACE('',(#412),#439,.T.);
#453=ADVANCED_FACE('',(#413),#440,.T.);
#454=ADVANCED_FACE('',(#414),#441,.T.);
#455=ADVANCED_FACE('',(#415),#442,.T.);
#456=ADVANCED_FACE('',(#416),#443,.T.);
#457=ADVANCED_FACE('',(#417),#444,.T.);
#458=ADVANCED_FACE('',(#418),#445,.T.);
#459=ADVANCED_FACE('',(#419),#446,.T.);
#460=ADVANCED_FACE('',(#420),#447,.T.);
#461=ADVANCED_FACE('',(#421),#448,.T.);
#462=ADVANCED_FACE('',(#422),#21,.T.);
#463=ADVANCED_FACE('',(#423),#18,.T.);
#464=ADVANCED_FACE('',(#424),#22,.T.);
#465=ADVANCED_FACE('',(#425),#23,.T.);
#466=ADVANCED_FACE('',(#426),#24,.T.);
#467=ADVANCED_FACE('',(#427),#25,.T.);
#468=ADVANCED_FACE('',(#428),#26,.T.);
#469=ADVANCED_FACE('',(#429),#27,.T.);
#470=ADVANCED_FACE('',(#430),#19,.T.);
#471=ADVANCED_FACE('',(#431),#20,.T.);
#472=ADVANCED_FACE('',(#432),#449,.T.);
#473=ADVANCED_FACE('',(#433,#434),#28,.T.);
#474=ADVANCED_FACE('',(#435,#436),#29,.F.);
#475=CLOSED_SHELL('',(#450,#451,#452,#453,#454,#455,#456,#457,#458,#459,
#460,#461,#462,#463,#464,#465,#466,#467,#468,#469,#470,#471,#472,#473,#474));
#476=STYLED_ITEM('',(#477),#484);
#477=PRESENTATION_STYLE_ASSIGNMENT((#478));
#478=SURFACE_STYLE_USAGE(.BOTH.,#479);
#479=SURFACE_SIDE_STYLE('',(#480));
#480=SURFACE_STYLE_FILL_AREA(#481);
#481=FILL_AREA_STYLE('',(#482));
#482=FILL_AREA_STYLE_COLOUR('',#483);
#483=COLOUR_RGB('',0.854901960784314,0.129411764705882,0.137254901960784);
#484=MANIFOLD_SOLID_BREP('Part 11',#475);
#485=SHAPE_DEFINITION_REPRESENTATION(#871,#486);
#486=SHAPE_REPRESENTATION('Part 11',(#487),#866);
#487=AXIS2_PLACEMENT_3D('',#581,#506,#507);
#488=AXIS2_PLACEMENT_3D('',#792,#522,#523);
#489=AXIS2_PLACEMENT_3D('',#798,#527,#528);
#490=AXIS2_PLACEMENT_3D('',#799,#529,#530);
#491=AXIS2_PLACEMENT_3D('',#803,#532,#533);
#492=AXIS2_PLACEMENT_3D('',#804,#534,#535);
#493=AXIS2_PLACEMENT_3D('',#810,#539,#540);
#494=AXIS2_PLACEMENT_3D('',#816,#544,#545);
#495=AXIS2_PLACEMENT_3D('',#822,#549,#550);
#496=AXIS2_PLACEMENT_3D('',#828,#554,#555);
#497=AXIS2_PLACEMENT_3D('',#834,#559,#560);
#498=AXIS2_PLACEMENT_3D('',#840,#564,#565);
#499=AXIS2_PLACEMENT_3D('',#841,#566,#567);
#500=AXIS2_PLACEMENT_3D('',#845,#569,#570);
#501=AXIS2_PLACEMENT_3D('',#846,#571,#572);
#502=AXIS2_PLACEMENT_3D('',#847,#573,#574);
#503=AXIS2_PLACEMENT_3D('',#848,#575,#576);
#504=AXIS2_PLACEMENT_3D('',#863,#577,#578);
#505=AXIS2_PLACEMENT_3D('',#864,#579,#580);
#506=DIRECTION('',(0.,0.,1.));
#507=DIRECTION('',(1.,0.,0.));
#508=DIRECTION('',(-1.,0.,-5.55111512312578E-17));
#509=DIRECTION('',(-1.,0.,-5.55111512312578E-17));
#510=DIRECTION('',(-1.,0.,-5.55111512312578E-17));
#511=DIRECTION('',(-1.,0.,-5.55111512312578E-17));
#512=DIRECTION('',(-1.,0.,-5.55111512312578E-17));
#513=DIRECTION('',(-1.,0.,-5.55111512312578E-17));
#514=DIRECTION('',(-1.,0.,-5.55111512312578E-17));
#515=DIRECTION('',(-1.,0.,-5.55111512312578E-17));
#516=DIRECTION('',(-1.,0.,-5.55111512312578E-17));
#517=DIRECTION('',(-1.,0.,-5.55111512312578E-17));
#518=DIRECTION('',(-1.,0.,-5.55111512312578E-17));
#519=DIRECTION('',(-1.,0.,-5.55111512312578E-17));
#520=DIRECTION('',(-1.,0.,-5.55111512312578E-17));
#521=DIRECTION('',(-1.,0.,-5.55111512312578E-17));
#522=DIRECTION('',(-5.55111512312578E-17,0.,1.));
#523=DIRECTION('',(1.,0.,5.55111512312578E-17));
#524=DIRECTION('',(0.,1.,0.));
#525=DIRECTION('',(-1.,0.,-5.55111512312578E-17));
#526=DIRECTION('',(0.,1.,0.));
#527=DIRECTION('',(-1.,0.,-5.55111512312578E-17));
#528=DIRECTION('',(0.,0.999331631269844,-0.0365553107434832));
#529=DIRECTION('',(-1.,0.,-5.55111512312578E-17));
#530=DIRECTION('',(-5.55111512312578E-17,0.,1.));
#531=DIRECTION('',(-1.,0.,-5.55111512312578E-17));
#532=DIRECTION('',(-1.,0.,-5.55111512312578E-17));
#533=DIRECTION('',(-5.55111512312578E-17,0.,1.));
#534=DIRECTION('',(0.,1.,0.));
#535=DIRECTION('',(0.,0.,1.));
#536=DIRECTION('',(5.55111512312578E-17,0.,-1.));
#537=DIRECTION('',(-1.,0.,-5.55111512312578E-17));
#538=DIRECTION('',(5.55111512312578E-17,0.,-1.));
#539=DIRECTION('',(-5.55111512312578E-17,0.,1.));
#540=DIRECTION('',(1.,0.,5.55111512312578E-17));
#541=DIRECTION('',(0.,1.,0.));
#542=DIRECTION('',(-1.,0.,-5.55111512312578E-17));
#543=DIRECTION('',(0.,1.,0.));
#544=DIRECTION('',(0.,-1.,0.));
#545=DIRECTION('',(0.,0.,-1.));
#546=DIRECTION('',(-5.55111512312578E-17,0.,1.));
#547=DIRECTION('',(-1.,0.,-5.55111512312578E-17));
#548=DIRECTION('',(-5.55111512312578E-17,0.,1.));
#549=DIRECTION('',(5.55111512312578E-17,6.66133814775094E-16,-1.));
#550=DIRECTION('',(0.,1.,6.66133814775094E-16));
#551=DIRECTION('',(3.69778549322349E-32,-1.,-6.66133814775094E-16));
#552=DIRECTION('',(-1.,0.,-5.55111512312578E-17));
#553=DIRECTION('',(3.69778549322349E-32,-1.,-6.66133814775094E-16));
#554=DIRECTION('',(1.33196210143151E-17,0.970786493373324,-0.239944960947143));
#555=DIRECTION('',(0.,0.239944960947143,0.970786493373324));
#556=DIRECTION('',(5.3889475846909E-17,-0.239944960947143,-0.970786493373324));
#557=DIRECTION('',(-1.,0.,-5.55111512312578E-17));
#558=DIRECTION('',(5.3889475846909E-17,-0.239944960947143,-0.970786493373324));
#559=DIRECTION('',(5.55111512312578E-17,0.,-1.));
#560=DIRECTION('',(-1.,0.,-5.55111512312578E-17));
#561=DIRECTION('',(0.,-1.,0.));
#562=DIRECTION('',(-1.,0.,-5.55111512312578E-17));
#563=DIRECTION('',(0.,-1.,0.));
#564=DIRECTION('',(-1.,0.,-5.55111512312578E-17));
#565=DIRECTION('',(0.,-0.632771373895255,-0.774338678085185));
#566=DIRECTION('',(-1.,0.,-5.55111512312578E-17));
#567=DIRECTION('',(-5.55111512312578E-17,0.,1.));
#568=DIRECTION('',(-1.,0.,-5.55111512312578E-17));
#569=DIRECTION('',(-1.,0.,-5.55111512312578E-17));
#570=DIRECTION('',(-5.55111512312578E-17,0.,1.));
#571=DIRECTION('',(-1.,0.,-5.55111512312578E-17));
#572=DIRECTION('',(0.,-0.201554764423331,-0.979477246769038));
#573=DIRECTION('',(-1.,0.,-5.55111512312578E-17));
#574=DIRECTION('',(-5.55111512312578E-17,0.,1.));
#575=DIRECTION('',(-1.,0.,-5.55111512312578E-17));
#576=DIRECTION('',(-5.55111512312578E-17,0.,1.));
#577=DIRECTION('',(1.,0.,5.55111512312578E-17));
#578=DIRECTION('',(0.,1.,0.));
#579=DIRECTION('',(1.,0.,5.55111512312578E-17));
#580=DIRECTION('',(0.,1.,0.));
#581=CARTESIAN_POINT('',(0.,0.,0.));
#582=CARTESIAN_POINT('',(0.0634973799720409,0.0203738607377825,-0.0593571129296443));
#583=CARTESIAN_POINT('',(0.0624973799720409,0.0203738607377825,-0.0593571129296443));
#584=CARTESIAN_POINT('',(0.0634973799720409,0.0199833006455375,-0.0593571129296443));
#585=CARTESIAN_POINT('',(0.0624973799720409,0.0199833006455375,-0.0593571129296443));
#586=CARTESIAN_POINT('',(0.0634973799720409,0.0197017811063533,-0.0594690955549631));
#587=CARTESIAN_POINT('',(0.0624973799720409,0.0197017811063533,-0.0594690955549631));
#588=CARTESIAN_POINT('',(0.0634973799720409,0.01952930212023,-0.0596930608056008));
#589=CARTESIAN_POINT('',(0.0624973799720409,0.01952930212023,-0.0596930608056008));
#590=CARTESIAN_POINT('',(0.0624973799720409,0.0203738607377825,-0.0593571129296443));
#591=CARTESIAN_POINT('',(0.0624973799720409,0.019788020599415,-0.0593571129296443));
#592=CARTESIAN_POINT('',(0.0624973799720409,0.01952930212023,-0.0596930608056008));
#593=CARTESIAN_POINT('',(0.0624973799720409,0.0203738607377825,-0.0593571129296443));
#594=CARTESIAN_POINT('',(0.0624973799720409,0.01952930212023,-0.0596930608056008));
#595=CARTESIAN_POINT('',(0.0634973799720409,0.0203738607377825,-0.0593571129296443));
#596=CARTESIAN_POINT('',(0.0634973799720409,0.0203738607377825,-0.0593571129296443));
#597=CARTESIAN_POINT('',(0.0634973799720409,0.0203738607377825,-0.0593571129296443));
#598=CARTESIAN_POINT('',(0.0634973799720409,0.019788020599415,-0.0593571129296443));
#599=CARTESIAN_POINT('',(0.0634973799720409,0.01952930212023,-0.0596930608056008));
#600=CARTESIAN_POINT('',(0.0634973799720409,0.01952930212023,-0.0596930608056008));
#601=CARTESIAN_POINT('',(0.0634973799720409,0.01952930212023,-0.0596930608056008));
#602=CARTESIAN_POINT('',(0.0634973799720409,0.0211731849943689,-0.0597189878173742));
#603=CARTESIAN_POINT('',(0.0624973799720409,0.0211731849943689,-0.0597189878173742));
#604=CARTESIAN_POINT('',(0.0634973799720409,0.0210007060082456,-0.0594777378922209));
#605=CARTESIAN_POINT('',(0.0624973799720409,0.0210007060082456,-0.0594777378922209));
#606=CARTESIAN_POINT('',(0.0634973799720409,0.0207342645893835,-0.0593571129296443));
#607=CARTESIAN_POINT('',(0.0624973799720409,0.0207342645893835,-0.0593571129296443));
#608=CARTESIAN_POINT('',(0.0634973799720409,0.0203738607377825,-0.0593571129296443));
#609=CARTESIAN_POINT('',(0.0624973799720409,0.0203738607377825,-0.0593571129296443));
#610=CARTESIAN_POINT('',(0.0624973799720409,0.0211731849943689,-0.0597189878173742));
#611=CARTESIAN_POINT('',(0.0624973799720409,0.020914466515184,-0.0593571129296443));
#612=CARTESIAN_POINT('',(0.0624973799720409,0.0203738607377825,-0.0593571129296443));
#613=CARTESIAN_POINT('',(0.0624973799720409,0.0211731849943689,-0.0597189878173742));
#614=CARTESIAN_POINT('',(0.0634973799720409,0.0211731849943689,-0.0597189878173742));
#615=CARTESIAN_POINT('',(0.0634973799720409,0.0211731849943689,-0.0597189878173742));
#616=CARTESIAN_POINT('',(0.0634973799720409,0.0211731849943689,-0.0597189878173742));
#617=CARTESIAN_POINT('',(0.0634973799720409,0.020914466515184,-0.0593571129296443));
#618=CARTESIAN_POINT('',(0.0634973799720409,0.0203738607377825,-0.0593571129296443));
#619=CARTESIAN_POINT('',(0.0634973799720409,0.0214319034735538,-0.0608189550828214));
#620=CARTESIAN_POINT('',(0.0624973799720409,0.0214319034735538,-0.0608189550828214));
#621=CARTESIAN_POINT('',(0.0634973799720409,0.0214319034735538,-0.0603268934976765));
#622=CARTESIAN_POINT('',(0.0624973799720409,0.0214319034735538,-0.0603268934976765));
#623=CARTESIAN_POINT('',(0.0634973799720409,0.0213456639804922,-0.0599602377425275));
#624=CARTESIAN_POINT('',(0.0624973799720409,0.0213456639804922,-0.0599602377425275));
#625=CARTESIAN_POINT('',(0.0634973799720409,0.0211731849943689,-0.0597189878173742));
#626=CARTESIAN_POINT('',(0.0624973799720409,0.0211731849943689,-0.0597189878173742));
#627=CARTESIAN_POINT('',(0.0624973799720409,0.0214319034735538,-0.0608189550828214));
#628=CARTESIAN_POINT('',(0.0624973799720409,0.0214319034735538,-0.0600808627051041));
#629=CARTESIAN_POINT('',(0.0624973799720409,0.0211731849943689,-0.0597189878173742));
#630=CARTESIAN_POINT('',(0.0624973799720409,0.0214319034735538,-0.0608189550828214));
#631=CARTESIAN_POINT('',(0.0634973799720409,0.0214319034735538,-0.0608189550828214));
#632=CARTESIAN_POINT('',(0.0634973799720409,0.0214319034735538,-0.0608189550828214));
#633=CARTESIAN_POINT('',(0.0634973799720409,0.0214319034735538,-0.0608189550828214));
#634=CARTESIAN_POINT('',(0.0634973799720409,0.0214319034735538,-0.0600808627051041));
#635=CARTESIAN_POINT('',(0.0634973799720409,0.0211731849943689,-0.0597189878173742));
#636=CARTESIAN_POINT('',(0.0634973799720409,0.0211731849943689,-0.061923887095204));
#637=CARTESIAN_POINT('',(0.0624973799720409,0.0211731849943689,-0.061923887095204));
#638=CARTESIAN_POINT('',(0.0634973799720409,0.0213456639804922,-0.0616675590497287));
#639=CARTESIAN_POINT('',(0.0624973799720409,0.0213456639804922,-0.0616675590497287));
#640=CARTESIAN_POINT('',(0.0634973799720409,0.0214319034735538,-0.0612992483789345));
#641=CARTESIAN_POINT('',(0.0624973799720409,0.0214319034735538,-0.0612992483789345));
#642=CARTESIAN_POINT('',(0.0634973799720409,0.0214319034735538,-0.0608189550828214));
#643=CARTESIAN_POINT('',(0.0624973799720409,0.0214319034735538,-0.0608189550828214));
#644=CARTESIAN_POINT('',(0.0624973799720409,0.0211731849943689,-0.061923887095204));
#645=CARTESIAN_POINT('',(0.0624973799720409,0.0214319034735538,-0.061539395026991));
#646=CARTESIAN_POINT('',(0.0624973799720409,0.0214319034735538,-0.0608189550828214));
#647=CARTESIAN_POINT('',(0.0624973799720409,0.0211731849943689,-0.061923887095204));
#648=CARTESIAN_POINT('',(0.0634973799720409,0.0211731849943689,-0.061923887095204));
#649=CARTESIAN_POINT('',(0.0634973799720409,0.0211731849943689,-0.061923887095204));
#650=CARTESIAN_POINT('',(0.0634973799720409,0.0211731849943689,-0.061923887095204));
#651=CARTESIAN_POINT('',(0.0634973799720409,0.0214319034735538,-0.061539395026991));
#652=CARTESIAN_POINT('',(0.0634973799720409,0.0214319034735538,-0.0608189550828214));
#653=CARTESIAN_POINT('',(0.0634973799720409,0.0203871000629434,-0.062308379163417));
#654=CARTESIAN_POINT('',(0.0624973799720409,0.0203871000629434,-0.062308379163417));
#655=CARTESIAN_POINT('',(0.0634973799720409,0.0207386776977704,-0.062308379163417));
#656=CARTESIAN_POINT('',(0.0624973799720409,0.0207386776977704,-0.062308379163417));
#657=CARTESIAN_POINT('',(0.0634973799720409,0.0210007060082456,-0.0621802151406793));
#658=CARTESIAN_POINT('',(0.0624973799720409,0.0210007060082456,-0.0621802151406793));
#659=CARTESIAN_POINT('',(0.0634973799720409,0.0211731849943689,-0.061923887095204));
#660=CARTESIAN_POINT('',(0.0624973799720409,0.0211731849943689,-0.061923887095204));
#661=CARTESIAN_POINT('',(0.0624973799720409,0.0203871000629434,-0.062308379163417));
#662=CARTESIAN_POINT('',(0.0624973799720409,0.020914466515184,-0.062308379163417));
#663=CARTESIAN_POINT('',(0.0624973799720409,0.0211731849943689,-0.061923887095204));
#664=CARTESIAN_POINT('',(0.0624973799720409,0.0203871000629434,-0.062308379163417));
#665=CARTESIAN_POINT('',(0.0634973799720409,0.0203871000629434,-0.062308379163417));
#666=CARTESIAN_POINT('',(0.0634973799720409,0.0203871000629434,-0.062308379163417));
#667=CARTESIAN_POINT('',(0.0634973799720409,0.0203871000629434,-0.062308379163417));
#668=CARTESIAN_POINT('',(0.0634973799720409,0.020914466515184,-0.062308379163417));
#669=CARTESIAN_POINT('',(0.0634973799720409,0.0211731849943689,-0.061923887095204));
#670=CARTESIAN_POINT('',(0.0634973799720409,0.0195359217828104,-0.0619652599863317));
#671=CARTESIAN_POINT('',(0.0624973799720409,0.0195359217828104,-0.0619652599863317));
#672=CARTESIAN_POINT('',(0.0634973799720409,0.0197128138773207,-0.0621940061043886));
#673=CARTESIAN_POINT('',(0.0624973799720409,0.0197128138773207,-0.0621940061043886));
#674=CARTESIAN_POINT('',(0.0634973799720409,0.0199965399706983,-0.062308379163417));
#675=CARTESIAN_POINT('',(0.0624973799720409,0.0199965399706983,-0.062308379163417));
#676=CARTESIAN_POINT('',(0.0634973799720409,0.0203871000629434,-0.062308379163417));
#677=CARTESIAN_POINT('',(0.0624973799720409,0.0203871000629434,-0.062308379163417));
#678=CARTESIAN_POINT('',(0.0624973799720409,0.0195359217828104,-0.0619652599863317));
#679=CARTESIAN_POINT('',(0.0624973799720409,0.0198012599245758,-0.062308379163417));
#680=CARTESIAN_POINT('',(0.0624973799720409,0.0203871000629434,-0.062308379163417));
#681=CARTESIAN_POINT('',(0.0624973799720409,0.0195359217828104,-0.0619652599863317));
#682=CARTESIAN_POINT('',(0.0634973799720409,0.0195359217828104,-0.0619652599863317));
#683=CARTESIAN_POINT('',(0.0634973799720409,0.0195359217828104,-0.0619652599863317));
#684=CARTESIAN_POINT('',(0.0634973799720409,0.0195359217828104,-0.0619652599863317));
#685=CARTESIAN_POINT('',(0.0634973799720409,0.0198012599245758,-0.062308379163417));
#686=CARTESIAN_POINT('',(0.0634973799720409,0.0203871000629434,-0.062308379163417));
#687=CARTESIAN_POINT('',(0.0634973799720409,0.0192705836410451,-0.0608255747454019));
#688=CARTESIAN_POINT('',(0.0624973799720409,0.0192705836410451,-0.0608255747454019));
#689=CARTESIAN_POINT('',(0.0634973799720409,0.0192705836410451,-0.0613566187879648));
#690=CARTESIAN_POINT('',(0.0624973799720409,0.0192705836410451,-0.0613566187879648));
#691=CARTESIAN_POINT('',(0.0634973799720409,0.0193590296883002,-0.0617365138682748));
#692=CARTESIAN_POINT('',(0.0624973799720409,0.0193590296883002,-0.0617365138682748));
#693=CARTESIAN_POINT('',(0.0634973799720409,0.0195359217828104,-0.0619652599863317));
#694=CARTESIAN_POINT('',(0.0624973799720409,0.0195359217828104,-0.0619652599863317));
#695=CARTESIAN_POINT('',(0.0624973799720409,0.0192705836410451,-0.0608255747454019));
#696=CARTESIAN_POINT('',(0.0624973799720409,0.0192705836410451,-0.0616221408092463));
#697=CARTESIAN_POINT('',(0.0624973799720409,0.0195359217828104,-0.0619652599863317));
#698=CARTESIAN_POINT('',(0.0624973799720409,0.0192705836410451,-0.0608255747454019));
#699=CARTESIAN_POINT('',(0.0634973799720409,0.0192705836410451,-0.0608255747454019));
#700=CARTESIAN_POINT('',(0.0634973799720409,0.0192705836410451,-0.0608255747454019));
#701=CARTESIAN_POINT('',(0.0634973799720409,0.0192705836410451,-0.0608255747454019));
#702=CARTESIAN_POINT('',(0.0634973799720409,0.0192705836410451,-0.0616221408092463));
#703=CARTESIAN_POINT('',(0.0634973799720409,0.0195359217828104,-0.0619652599863317));
#704=CARTESIAN_POINT('',(0.0634973799720409,0.0216100827246769,-0.0622725226577731));
#705=CARTESIAN_POINT('',(0.0624973799720409,0.0216100827246769,-0.0622725226577731));
#706=CARTESIAN_POINT('',(0.0634973799720409,0.0213331601733958,-0.0626163773529229));
#707=CARTESIAN_POINT('',(0.0624973799720409,0.0213331601733958,-0.0626163773529229));
#708=CARTESIAN_POINT('',(0.0634973799720409,0.0209486681051828,-0.0627883047004978));
#709=CARTESIAN_POINT('',(0.0624973799720409,0.0209486681051828,-0.0627883047004978));
#710=CARTESIAN_POINT('',(0.0634973799720409,0.0204566065200379,-0.0627883047004978));
#711=CARTESIAN_POINT('',(0.0624973799720409,0.0204566065200379,-0.0627883047004978));
#712=CARTESIAN_POINT('',(0.0624973799720409,0.0216100827246769,-0.0622725226577731));
#713=CARTESIAN_POINT('',(0.0624973799720409,0.0211946988977553,-0.0627883047004978));
#714=CARTESIAN_POINT('',(0.0624973799720409,0.0204566065200379,-0.0627883047004978));
#715=CARTESIAN_POINT('',(0.0624973799720409,0.0216100827246769,-0.0622725226577731));
#716=CARTESIAN_POINT('',(0.0624973799720409,0.0204566065200379,-0.0627883047004978));
#717=CARTESIAN_POINT('',(0.0634973799720409,0.0216100827246769,-0.0622725226577731));
#718=CARTESIAN_POINT('',(0.0634973799720409,0.0216100827246769,-0.0622725226577731));
#719=CARTESIAN_POINT('',(0.0634973799720409,0.0216100827246769,-0.0622725226577731));
#720=CARTESIAN_POINT('',(0.0634973799720409,0.0211946988977553,-0.0627883047004978));
#721=CARTESIAN_POINT('',(0.0634973799720409,0.0204566065200379,-0.0627883047004978));
#722=CARTESIAN_POINT('',(0.0634973799720409,0.0204566065200379,-0.0627883047004978));
#723=CARTESIAN_POINT('',(0.0634973799720409,0.0204566065200379,-0.0627883047004978));
#724=CARTESIAN_POINT('',(0.0634973799720409,0.0220254665515986,-0.0608255747454019));
#725=CARTESIAN_POINT('',(0.0624973799720409,0.0220254665515986,-0.0608255747454019));
#726=CARTESIAN_POINT('',(0.0634973799720409,0.0220254665515986,-0.0614463519918328));
#727=CARTESIAN_POINT('',(0.0624973799720409,0.0220254665515986,-0.0614463519918328));
#728=CARTESIAN_POINT('',(0.0634973799720409,0.021887005275958,-0.0619286679626232));
#729=CARTESIAN_POINT('',(0.0624973799720409,0.021887005275958,-0.0619286679626232));
#730=CARTESIAN_POINT('',(0.0634973799720409,0.0216100827246769,-0.0622725226577731));
#731=CARTESIAN_POINT('',(0.0624973799720409,0.0216100827246769,-0.0622725226577731));
#732=CARTESIAN_POINT('',(0.0624973799720409,0.0220254665515986,-0.0608255747454019));
#733=CARTESIAN_POINT('',(0.0624973799720409,0.0220254665515986,-0.0617567406150483));
#734=CARTESIAN_POINT('',(0.0624973799720409,0.0216100827246769,-0.0622725226577731));
#735=CARTESIAN_POINT('',(0.0624973799720409,0.0220254665515986,-0.0608255747454019));
#736=CARTESIAN_POINT('',(0.0634973799720409,0.0220254665515986,-0.0608255747454019));
#737=CARTESIAN_POINT('',(0.0634973799720409,0.0220254665515986,-0.0608255747454019));
#738=CARTESIAN_POINT('',(0.0634973799720409,0.0220254665515986,-0.0608255747454019));
#739=CARTESIAN_POINT('',(0.0634973799720409,0.0220254665515986,-0.0617567406150483));
#740=CARTESIAN_POINT('',(0.0634973799720409,0.0216100827246769,-0.0622725226577731));
#741=CARTESIAN_POINT('',(0.0634973799720409,0.0216133925559671,-0.0593869014112562));
#742=CARTESIAN_POINT('',(0.0624973799720409,0.0216133925559671,-0.0593869014112562));
#743=CARTESIAN_POINT('',(0.0634973799720409,0.0218881085530548,-0.0597259752389869));
#744=CARTESIAN_POINT('',(0.0624973799720409,0.0218881085530548,-0.0597259752389869));
#745=CARTESIAN_POINT('',(0.0634973799720409,0.0220254665515986,-0.0602055330170354));
#746=CARTESIAN_POINT('',(0.0624973799720409,0.0220254665515986,-0.0602055330170354));
#747=CARTESIAN_POINT('',(0.0634973799720409,0.0220254665515986,-0.0608255747454019));
#748=CARTESIAN_POINT('',(0.0624973799720409,0.0220254665515986,-0.0608255747454019));
#749=CARTESIAN_POINT('',(0.0624973799720409,0.0216133925559671,-0.0593869014112562));
#750=CARTESIAN_POINT('',(0.0624973799720409,0.0220254665515986,-0.0598955121528522));
#751=CARTESIAN_POINT('',(0.0624973799720409,0.0220254665515986,-0.0608255747454019));
#752=CARTESIAN_POINT('',(0.0624973799720409,0.0216133925559671,-0.0593869014112562));
#753=CARTESIAN_POINT('',(0.0634973799720409,0.0216133925559671,-0.0593869014112562));
#754=CARTESIAN_POINT('',(0.0634973799720409,0.0216133925559671,-0.0593869014112562));
#755=CARTESIAN_POINT('',(0.0634973799720409,0.0216133925559671,-0.0593869014112562));
#756=CARTESIAN_POINT('',(0.0634973799720409,0.0220254665515986,-0.0598955121528522));
#757=CARTESIAN_POINT('',(0.0634973799720409,0.0220254665515986,-0.0608255747454019));
#758=CARTESIAN_POINT('',(0.0634973799720409,0.0204566065200379,-0.0588782906696602));
#759=CARTESIAN_POINT('',(0.0624973799720409,0.0204566065200379,-0.0588782906696602));
#760=CARTESIAN_POINT('',(0.0634973799720409,0.0209530812135698,-0.0588782906696602));
#761=CARTESIAN_POINT('',(0.0624973799720409,0.0209530812135698,-0.0588782906696602));
#762=CARTESIAN_POINT('',(0.0634973799720409,0.0213386765588795,-0.0590478275835255));
#763=CARTESIAN_POINT('',(0.0624973799720409,0.0213386765588795,-0.0590478275835255));
#764=CARTESIAN_POINT('',(0.0634973799720409,0.0216133925559671,-0.0593869014112562));
#765=CARTESIAN_POINT('',(0.0624973799720409,0.0216133925559671,-0.0593869014112562));
#766=CARTESIAN_POINT('',(0.0624973799720409,0.0204566065200379,-0.0588782906696602));
#767=CARTESIAN_POINT('',(0.0624973799720409,0.0212013185603357,-0.0588782906696602));
#768=CARTESIAN_POINT('',(0.0624973799720409,0.0216133925559671,-0.0593869014112562));
#769=CARTESIAN_POINT('',(0.0624973799720409,0.0204566065200379,-0.0588782906696602));
#770=CARTESIAN_POINT('',(0.0634973799720409,0.0204566065200379,-0.0588782906696602));
#771=CARTESIAN_POINT('',(0.0634973799720409,0.0204566065200379,-0.0588782906696602));
#772=CARTESIAN_POINT('',(0.0634973799720409,0.0204566065200379,-0.0588782906696602));
#773=CARTESIAN_POINT('',(0.0634973799720409,0.0212013185603357,-0.0588782906696602));
#774=CARTESIAN_POINT('',(0.0634973799720409,0.0216133925559671,-0.0593869014112562));
#775=CARTESIAN_POINT('',(0.0634973799720409,0.0192705836410451,-0.0594431685431898));
#776=CARTESIAN_POINT('',(0.0624973799720409,0.0192705836410451,-0.0594431685431898));
#777=CARTESIAN_POINT('',(0.0634973799720409,0.0195368411803911,-0.0590665832941701));
#778=CARTESIAN_POINT('',(0.0624973799720409,0.0195368411803911,-0.0590665832941701));
#779=CARTESIAN_POINT('',(0.0634973799720409,0.0199321821400553,-0.0588782906696602));
#780=CARTESIAN_POINT('',(0.0624973799720409,0.0199321821400553,-0.0588782906696602));
#781=CARTESIAN_POINT('',(0.0634973799720409,0.0204566065200379,-0.0588782906696602));
#782=CARTESIAN_POINT('',(0.0624973799720409,0.0204566065200379,-0.0588782906696602));
#783=CARTESIAN_POINT('',(0.0624973799720409,0.0192705836410451,-0.0594431685431898));
#784=CARTESIAN_POINT('',(0.0624973799720409,0.0196699699500641,-0.0588782906696602));
#785=CARTESIAN_POINT('',(0.0624973799720409,0.0204566065200379,-0.0588782906696602));
#786=CARTESIAN_POINT('',(0.0624973799720409,0.0192705836410451,-0.0594431685431898));
#787=CARTESIAN_POINT('',(0.0634973799720409,0.0192705836410451,-0.0594431685431898));
#788=CARTESIAN_POINT('',(0.0634973799720409,0.0192705836410451,-0.0594431685431898));
#789=CARTESIAN_POINT('',(0.0634973799720409,0.0192705836410451,-0.0594431685431898));
#790=CARTESIAN_POINT('',(0.0634973799720409,0.0196699699500641,-0.0588782906696602));
#791=CARTESIAN_POINT('',(0.0634973799720409,0.0204566065200379,-0.0588782906696602));
#792=CARTESIAN_POINT('',(0.0634973799720409,0.0192567926773359,-0.0594431685431898));
#793=CARTESIAN_POINT('',(0.0624973799720409,0.0192567926773359,-0.0594431685431898));
#794=CARTESIAN_POINT('',(0.0624973799720409,0.0192433116530064,-0.0594431685431898));
#795=CARTESIAN_POINT('',(0.0634973799720409,0.0192433116530064,-0.0594431685431898));
#796=CARTESIAN_POINT('',(0.0634973799720409,0.0192433116530064,-0.0594431685431898));
#797=CARTESIAN_POINT('',(0.0634973799720409,0.0192567926773359,-0.0594431685431898));
#798=CARTESIAN_POINT('',(0.0634973799720409,0.00919362101182439,-0.0587046584427251));
#799=CARTESIAN_POINT('',(0.0624973799720409,0.00919362101182439,-0.0587046584427251));
#800=CARTESIAN_POINT('',(0.0624973799720409,0.019270442035496,-0.0586576359111016));
#801=CARTESIAN_POINT('',(0.0634973799720409,0.0192705836410451,-0.0586576352503127));
#802=CARTESIAN_POINT('',(0.0634973797220409,0.019270442035496,-0.0586576359111016));
#803=CARTESIAN_POINT('',(0.0634973799720409,0.00919362101182439,-0.0587046584427251));
#804=CARTESIAN_POINT('',(0.0634973799720409,0.0192705836410451,-0.0580055984861409));
#805=CARTESIAN_POINT('',(0.0624973799720409,0.0192705836410451,-0.0580055984861409));
#806=CARTESIAN_POINT('',(0.0624973799720409,0.0192705836410451,-0.057353561721969));
#807=CARTESIAN_POINT('',(0.0634973799720409,0.0192705836410451,-0.057353561721969));
#808=CARTESIAN_POINT('',(0.0634973799720409,0.0192705836410451,-0.057353561721969));
#809=CARTESIAN_POINT('',(0.0634973799720409,0.0192705836410451,-0.0580055984861409));
#810=CARTESIAN_POINT('',(0.0634973799720409,0.0189842832344417,-0.057353561721969));
#811=CARTESIAN_POINT('',(0.0624973799720409,0.0189842832344417,-0.057353561721969));
#812=CARTESIAN_POINT('',(0.0624973799720409,0.0186979828278384,-0.057353561721969));
#813=CARTESIAN_POINT('',(0.0634973799720409,0.0186979828278384,-0.057353561721969));
#814=CARTESIAN_POINT('',(0.0634973799720409,0.0186979828278384,-0.057353561721969));
#815=CARTESIAN_POINT('',(0.0634973799720409,0.0189842832344417,-0.057353561721969));
#816=CARTESIAN_POINT('',(0.0634973799720409,0.0186979828278384,-0.0600361799826862));
#817=CARTESIAN_POINT('',(0.0624973799720409,0.0186979828278384,-0.0600361799826862));
#818=CARTESIAN_POINT('',(0.0624973799720409,0.0186979828278384,-0.0627187982434034));
#819=CARTESIAN_POINT('',(0.0634973799720409,0.0186979828278384,-0.0627187982434034));
#820=CARTESIAN_POINT('',(0.0634973799720409,0.0186979828278384,-0.0627187982434034));
#821=CARTESIAN_POINT('',(0.0634973799720409,0.0186979828278384,-0.0600361799826862));
#822=CARTESIAN_POINT('',(0.0634973799720409,-0.00571611655438319,-0.0627187982434034));
#823=CARTESIAN_POINT('',(0.0624973799720409,-0.00571611655438319,-0.0627187982434034));
#824=CARTESIAN_POINT('',(0.0624973799720409,0.0191084019078247,-0.0627187982434034));
#825=CARTESIAN_POINT('',(0.0634973799720409,0.0191084019078247,-0.0627187982434034));
#826=CARTESIAN_POINT('',(0.0634973799720409,0.0191084019078247,-0.0627187982434034));
#827=CARTESIAN_POINT('',(0.0634973799720409,-0.00571611655438319,-0.0627187982434034));
#828=CARTESIAN_POINT('',(0.0634973799720409,0.0191685305095969,-0.0624755256435728));
#829=CARTESIAN_POINT('',(0.0624973799720409,0.0191685305095969,-0.0624755256435728));
#830=CARTESIAN_POINT('',(0.0624973799720409,0.0192286591113691,-0.0622322530437422));
#831=CARTESIAN_POINT('',(0.0634973799720409,0.0192286591113691,-0.0622322530437422));
#832=CARTESIAN_POINT('',(0.0634973799720409,0.0192286591113691,-0.0622322530437422));
#833=CARTESIAN_POINT('',(0.0634973799720409,0.0191685305095969,-0.0624755256435728));
#834=CARTESIAN_POINT('',(0.0634973799720409,0.0192496213762071,-0.0622322530437421));
#835=CARTESIAN_POINT('',(0.0624973799720409,0.0192496213762071,-0.0622322530437421));
#836=CARTESIAN_POINT('',(0.0624973799720409,0.0192711999137448,-0.0622322530437421));
#837=CARTESIAN_POINT('',(0.0634973799720409,0.0192711999137448,-0.0622322530437421));
#838=CARTESIAN_POINT('',(0.0634973799720409,0.0192711999137448,-0.0622322530437421));
#839=CARTESIAN_POINT('',(0.0634973799720409,0.0192496213762071,-0.0622322530437421));
#840=CARTESIAN_POINT('',(0.0634973799720409,0.0202994836563114,-0.0615025608601569));
#841=CARTESIAN_POINT('',(0.0624973799720409,0.0202994836563114,-0.0615025608601569));
#842=CARTESIAN_POINT('',(0.0624973799720409,0.0197818326969034,-0.0626523216476125));
#843=CARTESIAN_POINT('',(0.0634973799720409,0.0197819525753829,-0.0626520499790508));
#844=CARTESIAN_POINT('',(0.0634973799720409,0.0197818326969034,-0.0626523216476125));
#845=CARTESIAN_POINT('',(0.0634973799720409,0.0202994836563114,-0.0615025608601569));
#846=CARTESIAN_POINT('',(0.0634973799720409,0.0204330146911702,-0.0611511991888141));
#847=CARTESIAN_POINT('',(0.0624973799720409,0.0204330146911702,-0.0611511991888141));
#848=CARTESIAN_POINT('',(0.0634973799720409,0.0204330146911702,-0.0611511991888141));
#849=CARTESIAN_POINT('',(0.0634973799720409,0.01952930212023,-0.0596930608056008));
#850=CARTESIAN_POINT('',(0.0624973799720409,0.01952930212023,-0.0596930608056008));
#851=CARTESIAN_POINT('',(0.0634973799720409,0.0193568231341068,-0.0599170260562385));
#852=CARTESIAN_POINT('',(0.0624973799720409,0.0193568231341068,-0.0599170260562385));
#853=CARTESIAN_POINT('',(0.0634973799720409,0.0192705836410451,-0.0602945307028389));
#854=CARTESIAN_POINT('',(0.0624973799720409,0.0192705836410451,-0.0602945307028389));
#855=CARTESIAN_POINT('',(0.0634973799720409,0.0192705836410451,-0.0608255747454019));
#856=CARTESIAN_POINT('',(0.0624973799720409,0.0192705836410451,-0.0608255747454019));
#857=CARTESIAN_POINT('',(0.0624973799720409,0.01952930212023,-0.0596930608056008));
#858=CARTESIAN_POINT('',(0.0624973799720409,0.0192705836410451,-0.0600290086815574));
#859=CARTESIAN_POINT('',(0.0624973799720409,0.0192705836410451,-0.0608255747454019));
#860=CARTESIAN_POINT('',(0.0634973799720409,0.01952930212023,-0.0596930608056008));
#861=CARTESIAN_POINT('',(0.0634973799720409,0.0192705836410451,-0.0600290086815574));
#862=CARTESIAN_POINT('',(0.0634973799720409,0.0192705836410451,-0.0608255747454019));
#863=CARTESIAN_POINT('',(0.0634973799720409,0.0287617817841471,-0.0462689973513049));
#864=CARTESIAN_POINT('',(0.0624973799720409,0.0287617817841471,-0.0462689973513049));
#865=MECHANICAL_DESIGN_GEOMETRIC_PRESENTATION_REPRESENTATION('',(#476),
#866);
#866=(
GEOMETRIC_REPRESENTATION_CONTEXT(3)
GLOBAL_UNCERTAINTY_ASSIGNED_CONTEXT((#867))
GLOBAL_UNIT_ASSIGNED_CONTEXT((#870,#869,#868))
REPRESENTATION_CONTEXT('Part 11','TOP_LEVEL_ASSEMBLY_PART')
);
#867=UNCERTAINTY_MEASURE_WITH_UNIT(LENGTH_MEASURE(2.E-5),#870,
'DISTANCE_ACCURACY_VALUE','Maximum Tolerance applied to model');
#868=(
NAMED_UNIT(*)
SI_UNIT($,.STERADIAN.)
SOLID_ANGLE_UNIT()
);
#869=(
NAMED_UNIT(*)
PLANE_ANGLE_UNIT()
SI_UNIT($,.RADIAN.)
);
#870=(
LENGTH_UNIT()
NAMED_UNIT(*)
SI_UNIT($,.METRE.)
);
#871=PRODUCT_DEFINITION_SHAPE('','',#872);
#872=PRODUCT_DEFINITION('','',#874,#873);
#873=PRODUCT_DEFINITION_CONTEXT('',#880,'design');
#874=PRODUCT_DEFINITION_FORMATION_WITH_SPECIFIED_SOURCE('','',#876,
 .NOT_KNOWN.);
#875=PRODUCT_RELATED_PRODUCT_CATEGORY('','',(#876));
#876=PRODUCT('Part 11','Part 11','Part 11',(#878));
#877=PRODUCT_CATEGORY('','');
#878=PRODUCT_CONTEXT('',#880,'mechanical');
#879=APPLICATION_PROTOCOL_DEFINITION('international standard',
'ap242_managed_model_based_3d_engineering',2020,#880);
#880=APPLICATION_CONTEXT('managed model based 3d engineering');
ENDSEC;
END-ISO-10303-21;
