ISO-10303-21;
HEADER;
/* Generated by software containing ST-Developer
 * from STEP Tools, Inc. (www.steptools.com) 
 */
/* OPTION: using custom renumber hook */

FILE_DESCRIPTION(
/* description */ ('STEP AP242 Edition 2',
'CAx-IF Rec.Pracs.---Representation and Presentation of Product Manufa
cturing Information (PMI)---4.0---2014-10-13',
'CAx-IF Rec.Pracs.---3D Tessellated Geometry---0.4---2014-09-14','2;1',
'CAx-IF Rec.Pracs.---User Defined Attributes---1.5---2016-08-15'),
/* implementation_level */ '2;1');

FILE_NAME(
/* name */ 'Part Studio 3 - Part 8',
/* time_stamp */ '2026-09-11T02:35:30Z',
/* author */ (''),
/* organization */ (''),
/* preprocessor_version */ 'ST-DEVELOPER v20',
/* originating_system */ 'ONSHAPE BY PTC INC, 1.220',
/* authorisation */ '  ');

FILE_SCHEMA (('AP242_MANAGED_MODEL_BASED_3D_ENGINEERING_MIM_LF { 1 0 10303 442 3 1 4 }'));
ENDSEC;

DATA;
#10=SHAPE_REPRESENTATION_RELATIONSHIP('','',#82,#11);
#11=ADVANCED_BREP_SHAPE_REPRESENTATION('',(#80),#124);
#12=PLANE('',#87);
#13=PLANE('',#91);
#14=OVER_RIDING_STYLED_ITEM('',(#61),#55,#59);
#15=OVER_RIDING_STYLED_ITEM('',(#62),#56,#59);
#16=ORIENTED_EDGE('',*,*,#24,.F.);
#17=ORIENTED_EDGE('',*,*,#25,.T.);
#18=ORIENTED_EDGE('',*,*,#25,.F.);
#19=ORIENTED_EDGE('',*,*,#26,.T.);
#20=ORIENTED_EDGE('',*,*,#26,.F.);
#21=ORIENTED_EDGE('',*,*,#27,.T.);
#22=ORIENTED_EDGE('',*,*,#24,.T.);
#23=ORIENTED_EDGE('',*,*,#27,.F.);
#24=EDGE_CURVE('',#28,#28,#32,.T.);
#25=EDGE_CURVE('',#29,#29,#33,.T.);
#26=EDGE_CURVE('',#30,#30,#34,.T.);
#27=EDGE_CURVE('',#31,#31,#35,.T.);
#28=VERTEX_POINT('',#113);
#29=VERTEX_POINT('',#115);
#30=VERTEX_POINT('',#118);
#31=VERTEX_POINT('',#121);
#32=CIRCLE('',#85,0.00201795200170522);
#33=CIRCLE('',#86,0.00201795200170522);
#34=CIRCLE('',#88,0.00298022139546047);
#35=CIRCLE('',#90,0.00298022139546047);
#36=EDGE_LOOP('',(#16));
#37=EDGE_LOOP('',(#17));
#38=EDGE_LOOP('',(#18));
#39=EDGE_LOOP('',(#19));
#40=EDGE_LOOP('',(#20));
#41=EDGE_LOOP('',(#21));
#42=EDGE_LOOP('',(#22));
#43=EDGE_LOOP('',(#23));
#44=FACE_BOUND('',#36,.T.);
#45=FACE_BOUND('',#37,.T.);
#46=FACE_BOUND('',#38,.T.);
#47=FACE_BOUND('',#39,.T.);
#48=FACE_BOUND('',#40,.T.);
#49=FACE_BOUND('',#41,.T.);
#50=FACE_BOUND('',#42,.T.);
#51=FACE_BOUND('',#43,.T.);
#52=CYLINDRICAL_SURFACE('',#84,0.00201795200170522);
#53=CYLINDRICAL_SURFACE('',#89,0.00298022139546047);
#54=ADVANCED_FACE('',(#44,#45),#52,.F.);
#55=ADVANCED_FACE('Face appearance 6',(#46,#47),#12,.T.);
#56=ADVANCED_FACE('Face appearance 6',(#48,#49),#53,.T.);
#57=ADVANCED_FACE('',(#50,#51),#13,.F.);
#58=CLOSED_SHELL('',(#54,#55,#56,#57));
#59=STYLED_ITEM('',(#60),#80);
#60=PRESENTATION_STYLE_ASSIGNMENT((#63));
#61=PRESENTATION_STYLE_ASSIGNMENT((#64));
#62=PRESENTATION_STYLE_ASSIGNMENT((#65));
#63=SURFACE_STYLE_USAGE(.BOTH.,#66);
#64=SURFACE_STYLE_USAGE(.BOTH.,#67);
#65=SURFACE_STYLE_USAGE(.BOTH.,#68);
#66=SURFACE_SIDE_STYLE('',(#69));
#67=SURFACE_SIDE_STYLE('',(#70));
#68=SURFACE_SIDE_STYLE('',(#71));
#69=SURFACE_STYLE_FILL_AREA(#72);
#70=SURFACE_STYLE_FILL_AREA(#73);
#71=SURFACE_STYLE_FILL_AREA(#74);
#72=FILL_AREA_STYLE('',(#75));
#73=FILL_AREA_STYLE('',(#76));
#74=FILL_AREA_STYLE('',(#77));
#75=FILL_AREA_STYLE_COLOUR('',#78);
#76=FILL_AREA_STYLE_COLOUR('',#79);
#77=FILL_AREA_STYLE_COLOUR('',#79);
#78=COLOUR_RGB('',0.854901960784314,0.129411764705882,0.137254901960784);
#79=COLOUR_RGB('',0.0823529411764706,0.0862745098039216,0.0862745098039216);
#80=MANIFOLD_SOLID_BREP('Part 8',#58);
#81=SHAPE_DEFINITION_REPRESENTATION(#129,#82);
#82=SHAPE_REPRESENTATION('Part 8',(#83),#124);
#83=AXIS2_PLACEMENT_3D('',#110,#92,#93);
#84=AXIS2_PLACEMENT_3D('',#111,#94,#95);
#85=AXIS2_PLACEMENT_3D('',#112,#96,#97);
#86=AXIS2_PLACEMENT_3D('',#114,#98,#99);
#87=AXIS2_PLACEMENT_3D('',#116,#100,#101);
#88=AXIS2_PLACEMENT_3D('',#117,#102,#103);
#89=AXIS2_PLACEMENT_3D('',#119,#104,#105);
#90=AXIS2_PLACEMENT_3D('',#120,#106,#107);
#91=AXIS2_PLACEMENT_3D('',#122,#108,#109);
#92=DIRECTION('',(0.,0.,1.));
#93=DIRECTION('',(1.,0.,0.));
#94=DIRECTION('',(-5.55111512312578E-17,-6.66133814775094E-16,1.));
#95=DIRECTION('',(0.,-1.,-6.66133814775094E-16));
#96=DIRECTION('',(-5.55111512312578E-17,-6.66133814775094E-16,1.));
#97=DIRECTION('',(0.,-1.,-6.66133814775094E-16));
#98=DIRECTION('',(-5.55111512312578E-17,-6.66133814775094E-16,1.));
#99=DIRECTION('',(0.,-1.,-6.66133814775094E-16));
#100=DIRECTION('',(-5.55111512312578E-17,-6.66133814775094E-16,1.));
#101=DIRECTION('',(1.,-3.69778549322349E-32,5.55111512312578E-17));
#102=DIRECTION('',(-5.55111512312578E-17,-6.66133814775094E-16,1.));
#103=DIRECTION('',(0.,-1.,-6.66133814775094E-16));
#104=DIRECTION('',(5.55111512312578E-17,6.66133814775094E-16,-1.));
#105=DIRECTION('',(0.,1.,6.66133814775094E-16));
#106=DIRECTION('',(-5.55111512312578E-17,-6.66133814775094E-16,1.));
#107=DIRECTION('',(0.,-1.,-6.66133814775094E-16));
#108=DIRECTION('',(-5.55111512312578E-17,-6.66133814775094E-16,1.));
#109=DIRECTION('',(1.,-3.69778549322349E-32,5.55111512312578E-17));
#110=CARTESIAN_POINT('',(0.,0.,0.));
#111=CARTESIAN_POINT('',(-0.0256,0.0480813719332218,-0.00171879824340338));
#112=CARTESIAN_POINT('',(-0.0256,0.0480813719332218,-0.00171879824340338));
#113=CARTESIAN_POINT('',(-0.0256,0.0460634199315166,-0.00171879824340338));
#114=CARTESIAN_POINT('',(-0.0256,0.0480813719332218,0.0232812017565967));
#115=CARTESIAN_POINT('',(-0.0256,0.0460634199315166,0.0232812017565967));
#116=CARTESIAN_POINT('',(0.00771956604791182,0.0480813719332218,0.0232812017565967));
#117=CARTESIAN_POINT('',(-0.0256,0.0480813719332218,0.0232812017565967));
#118=CARTESIAN_POINT('',(-0.0256,0.0451011505377613,0.0232812017565966));
#119=CARTESIAN_POINT('',(-0.0256,0.0480813719332218,0.0232812017565967));
#120=CARTESIAN_POINT('',(-0.0256,0.0480813719332218,-0.00171879824340338));
#121=CARTESIAN_POINT('',(-0.0256,0.0451011505377613,-0.00171879824340338));
#122=CARTESIAN_POINT('',(0.00771956604791182,0.0480813719332218,-0.00171879824340337));
#123=MECHANICAL_DESIGN_GEOMETRIC_PRESENTATION_REPRESENTATION('',(#59,#14,
#15),#124);
#124=(
GEOMETRIC_REPRESENTATION_CONTEXT(3)
GLOBAL_UNCERTAINTY_ASSIGNED_CONTEXT((#125))
GLOBAL_UNIT_ASSIGNED_CONTEXT((#128,#127,#126))
REPRESENTATION_CONTEXT('Part 8','TOP_LEVEL_ASSEMBLY_PART')
);
#125=UNCERTAINTY_MEASURE_WITH_UNIT(LENGTH_MEASURE(1.E-8),#128,
'DISTANCE_ACCURACY_VALUE','Maximum Tolerance applied to model');
#126=(
NAMED_UNIT(*)
SI_UNIT($,.STERADIAN.)
SOLID_ANGLE_UNIT()
);
#127=(
NAMED_UNIT(*)
PLANE_ANGLE_UNIT()
SI_UNIT($,.RADIAN.)
);
#128=(
LENGTH_UNIT()
NAMED_UNIT(*)
SI_UNIT($,.METRE.)
);
#129=PRODUCT_DEFINITION_SHAPE('','',#130);
#130=PRODUCT_DEFINITION('','',#132,#131);
#131=PRODUCT_DEFINITION_CONTEXT('',#138,'design');
#132=PRODUCT_DEFINITION_FORMATION_WITH_SPECIFIED_SOURCE('','',#134,
 .NOT_KNOWN.);
#133=PRODUCT_RELATED_PRODUCT_CATEGORY('','',(#134));
#134=PRODUCT('Part 8','Part 8','Part 8',(#136));
#135=PRODUCT_CATEGORY('','');
#136=PRODUCT_CONTEXT('',#138,'mechanical');
#137=APPLICATION_PROTOCOL_DEFINITION('international standard',
'ap242_managed_model_based_3d_engineering',2020,#138);
#138=APPLICATION_CONTEXT('managed model based 3d engineering');
ENDSEC;
END-ISO-10303-21;
