ISO-10303-21;
HEADER;
/* Generated by software containing ST-Developer
 * from STEP Tools, Inc. (www.steptools.com) 
 */
/* OPTION: using custom renumber hook */

FILE_DESCRIPTION(
/* description */ ('STEP AP242 Edition 2',
'CAx-IF Rec.Pracs.---Representation and Presentation of Product Manufa
cturing Information (PMI)---4.0---2014-10-13',
'CAx-IF Rec.Pracs.---3D Tessellated Geometry---0.4---2014-09-14','2;1',
'CAx-IF Rec.Pracs.---User Defined Attributes---1.5---2016-08-15'),
/* implementation_level */ '2;1');

FILE_NAME(
/* name */ 'Part Studio 3 - Part 10',
/* time_stamp */ '2026-09-11T02:35:46Z',
/* author */ (''),
/* organization */ (''),
/* preprocessor_version */ 'ST-DEVELOPER v20',
/* originating_system */ 'ONSHAPE BY PTC INC, 1.220',
/* authorisation */ '  ');

FILE_SCHEMA (('AP242_MANAGED_MODEL_BASED_3D_ENGINEERING_MIM_LF { 1 0 10303 442 3 1 4 }'));
ENDSEC;

DATA;
#10=SHAPE_REPRESENTATION_RELATIONSHIP('','',#299,#11);
#11=ADVANCED_BREP_SHAPE_REPRESENTATION('',(#297),#457);
#12=OVER_RIDING_STYLED_ITEM('',(#285),#281,#283);
#13=COLOUR_RGB('',0.0823529411764706,0.0862745098039216,0.0862745098039216);
#14=ORIENTED_EDGE('',*,*,#86,.F.);
#15=ORIENTED_EDGE('',*,*,#87,.F.);
#16=ORIENTED_EDGE('',*,*,#88,.T.);
#17=ORIENTED_EDGE('',*,*,#89,.T.);
#18=ORIENTED_EDGE('',*,*,#90,.T.);
#19=ORIENTED_EDGE('',*,*,#91,.F.);
#20=ORIENTED_EDGE('',*,*,#92,.F.);
#21=ORIENTED_EDGE('',*,*,#87,.T.);
#22=ORIENTED_EDGE('',*,*,#93,.T.);
#23=ORIENTED_EDGE('',*,*,#94,.F.);
#24=ORIENTED_EDGE('',*,*,#95,.F.);
#25=ORIENTED_EDGE('',*,*,#91,.T.);
#26=ORIENTED_EDGE('',*,*,#96,.F.);
#27=ORIENTED_EDGE('',*,*,#97,.F.);
#28=ORIENTED_EDGE('',*,*,#98,.T.);
#29=ORIENTED_EDGE('',*,*,#99,.T.);
#30=ORIENTED_EDGE('',*,*,#100,.T.);
#31=ORIENTED_EDGE('',*,*,#101,.F.);
#32=ORIENTED_EDGE('',*,*,#102,.F.);
#33=ORIENTED_EDGE('',*,*,#97,.T.);
#34=ORIENTED_EDGE('',*,*,#103,.T.);
#35=ORIENTED_EDGE('',*,*,#104,.F.);
#36=ORIENTED_EDGE('',*,*,#105,.F.);
#37=ORIENTED_EDGE('',*,*,#101,.T.);
#38=ORIENTED_EDGE('',*,*,#106,.T.);
#39=ORIENTED_EDGE('',*,*,#107,.F.);
#40=ORIENTED_EDGE('',*,*,#108,.F.);
#41=ORIENTED_EDGE('',*,*,#109,.T.);
#42=ORIENTED_EDGE('',*,*,#110,.T.);
#43=ORIENTED_EDGE('',*,*,#111,.F.);
#44=ORIENTED_EDGE('',*,*,#112,.F.);
#45=ORIENTED_EDGE('',*,*,#107,.T.);
#46=ORIENTED_EDGE('',*,*,#113,.F.);
#47=ORIENTED_EDGE('',*,*,#114,.F.);
#48=ORIENTED_EDGE('',*,*,#115,.T.);
#49=ORIENTED_EDGE('',*,*,#111,.T.);
#50=ORIENTED_EDGE('',*,*,#116,.F.);
#51=ORIENTED_EDGE('',*,*,#99,.F.);
#52=ORIENTED_EDGE('',*,*,#117,.T.);
#53=ORIENTED_EDGE('',*,*,#104,.T.);
#54=ORIENTED_EDGE('',*,*,#118,.F.);
#55=ORIENTED_EDGE('',*,*,#109,.F.);
#56=ORIENTED_EDGE('',*,*,#119,.T.);
#57=ORIENTED_EDGE('',*,*,#114,.T.);
#58=ORIENTED_EDGE('',*,*,#120,.F.);
#59=ORIENTED_EDGE('',*,*,#89,.F.);
#60=ORIENTED_EDGE('',*,*,#121,.T.);
#61=ORIENTED_EDGE('',*,*,#94,.T.);
#62=ORIENTED_EDGE('',*,*,#108,.T.);
#63=ORIENTED_EDGE('',*,*,#112,.T.);
#64=ORIENTED_EDGE('',*,*,#115,.F.);
#65=ORIENTED_EDGE('',*,*,#119,.F.);
#66=ORIENTED_EDGE('',*,*,#98,.F.);
#67=ORIENTED_EDGE('',*,*,#102,.T.);
#68=ORIENTED_EDGE('',*,*,#105,.T.);
#69=ORIENTED_EDGE('',*,*,#117,.F.);
#70=ORIENTED_EDGE('',*,*,#88,.F.);
#71=ORIENTED_EDGE('',*,*,#92,.T.);
#72=ORIENTED_EDGE('',*,*,#95,.T.);
#73=ORIENTED_EDGE('',*,*,#121,.F.);
#74=ORIENTED_EDGE('',*,*,#106,.F.);
#75=ORIENTED_EDGE('',*,*,#118,.T.);
#76=ORIENTED_EDGE('',*,*,#113,.T.);
#77=ORIENTED_EDGE('',*,*,#110,.F.);
#78=ORIENTED_EDGE('',*,*,#96,.T.);
#79=ORIENTED_EDGE('',*,*,#116,.T.);
#80=ORIENTED_EDGE('',*,*,#103,.F.);
#81=ORIENTED_EDGE('',*,*,#100,.F.);
#82=ORIENTED_EDGE('',*,*,#86,.T.);
#83=ORIENTED_EDGE('',*,*,#120,.T.);
#84=ORIENTED_EDGE('',*,*,#93,.F.);
#85=ORIENTED_EDGE('',*,*,#90,.F.);
#86=EDGE_CURVE('',#122,#123,#146,.T.);
#87=EDGE_CURVE('',#124,#122,#147,.T.);
#88=EDGE_CURVE('',#124,#125,#148,.T.);
#89=EDGE_CURVE('',#125,#123,#149,.T.);
#90=EDGE_CURVE('',#122,#126,#150,.T.);
#91=EDGE_CURVE('',#127,#126,#151,.T.);
#92=EDGE_CURVE('',#124,#127,#152,.T.);
#93=EDGE_CURVE('',#126,#128,#153,.T.);
#94=EDGE_CURVE('',#129,#128,#154,.T.);
#95=EDGE_CURVE('',#127,#129,#155,.T.);
#96=EDGE_CURVE('',#130,#131,#156,.T.);
#97=EDGE_CURVE('',#132,#130,#157,.T.);
#98=EDGE_CURVE('',#132,#133,#158,.T.);
#99=EDGE_CURVE('',#133,#131,#159,.T.);
#100=EDGE_CURVE('',#130,#134,#160,.T.);
#101=EDGE_CURVE('',#135,#134,#161,.T.);
#102=EDGE_CURVE('',#132,#135,#162,.T.);
#103=EDGE_CURVE('',#134,#136,#163,.T.);
#104=EDGE_CURVE('',#137,#136,#164,.T.);
#105=EDGE_CURVE('',#135,#137,#165,.T.);
#106=EDGE_CURVE('',#138,#139,#166,.T.);
#107=EDGE_CURVE('',#140,#139,#167,.T.);
#108=EDGE_CURVE('',#141,#140,#168,.T.);
#109=EDGE_CURVE('',#141,#138,#169,.T.);
#110=EDGE_CURVE('',#139,#142,#170,.T.);
#111=EDGE_CURVE('',#143,#142,#171,.T.);
#112=EDGE_CURVE('',#140,#143,#172,.T.);
#113=EDGE_CURVE('',#144,#142,#173,.T.);
#114=EDGE_CURVE('',#145,#144,#174,.T.);
#115=EDGE_CURVE('',#145,#143,#175,.T.);
#116=EDGE_CURVE('',#131,#136,#176,.T.);
#117=EDGE_CURVE('',#133,#137,#177,.T.);
#118=EDGE_CURVE('',#138,#144,#178,.T.);
#119=EDGE_CURVE('',#141,#145,#179,.T.);
#120=EDGE_CURVE('',#123,#128,#180,.T.);
#121=EDGE_CURVE('',#125,#129,#181,.T.);
#122=VERTEX_POINT('',#384);
#123=VERTEX_POINT('',#385);
#124=VERTEX_POINT('',#387);
#125=VERTEX_POINT('',#389);
#126=VERTEX_POINT('',#393);
#127=VERTEX_POINT('',#395);
#128=VERTEX_POINT('',#399);
#129=VERTEX_POINT('',#401);
#130=VERTEX_POINT('',#405);
#131=VERTEX_POINT('',#406);
#132=VERTEX_POINT('',#408);
#133=VERTEX_POINT('',#410);
#134=VERTEX_POINT('',#414);
#135=VERTEX_POINT('',#416);
#136=VERTEX_POINT('',#420);
#137=VERTEX_POINT('',#422);
#138=VERTEX_POINT('',#426);
#139=VERTEX_POINT('',#427);
#140=VERTEX_POINT('',#429);
#141=VERTEX_POINT('',#431);
#142=VERTEX_POINT('',#435);
#143=VERTEX_POINT('',#437);
#144=VERTEX_POINT('',#441);
#145=VERTEX_POINT('',#443);
#146=LINE('',#383,#182);
#147=LINE('',#386,#183);
#148=LINE('',#388,#184);
#149=LINE('',#390,#185);
#150=LINE('',#392,#186);
#151=LINE('',#394,#187);
#152=LINE('',#396,#188);
#153=LINE('',#398,#189);
#154=LINE('',#400,#190);
#155=LINE('',#402,#191);
#156=LINE('',#404,#192);
#157=LINE('',#407,#193);
#158=LINE('',#409,#194);
#159=LINE('',#411,#195);
#160=LINE('',#413,#196);
#161=LINE('',#415,#197);
#162=LINE('',#417,#198);
#163=LINE('',#419,#199);
#164=LINE('',#421,#200);
#165=LINE('',#423,#201);
#166=LINE('',#425,#202);
#167=LINE('',#428,#203);
#168=LINE('',#430,#204);
#169=LINE('',#432,#205);
#170=LINE('',#434,#206);
#171=LINE('',#436,#207);
#172=LINE('',#438,#208);
#173=LINE('',#440,#209);
#174=LINE('',#442,#210);
#175=LINE('',#444,#211);
#176=LINE('',#446,#212);
#177=LINE('',#447,#213);
#178=LINE('',#449,#214);
#179=LINE('',#450,#215);
#180=LINE('',#452,#216);
#181=LINE('',#453,#217);
#182=VECTOR('',#319,1.);
#183=VECTOR('',#320,1.);
#184=VECTOR('',#321,1.);
#185=VECTOR('',#322,1.);
#186=VECTOR('',#325,1.);
#187=VECTOR('',#326,1.);
#188=VECTOR('',#327,1.);
#189=VECTOR('',#330,1.);
#190=VECTOR('',#331,1.);
#191=VECTOR('',#332,1.);
#192=VECTOR('',#335,1.);
#193=VECTOR('',#336,1.);
#194=VECTOR('',#337,1.);
#195=VECTOR('',#338,1.);
#196=VECTOR('',#341,1.);
#197=VECTOR('',#342,1.);
#198=VECTOR('',#343,1.);
#199=VECTOR('',#346,1.);
#200=VECTOR('',#347,1.);
#201=VECTOR('',#348,1.);
#202=VECTOR('',#351,1.);
#203=VECTOR('',#352,1.);
#204=VECTOR('',#353,1.);
#205=VECTOR('',#354,1.);
#206=VECTOR('',#357,1.);
#207=VECTOR('',#358,1.);
#208=VECTOR('',#359,1.);
#209=VECTOR('',#362,1.);
#210=VECTOR('',#363,1.);
#211=VECTOR('',#364,1.);
#212=VECTOR('',#367,1.);
#213=VECTOR('',#368,1.);
#214=VECTOR('',#371,1.);
#215=VECTOR('',#372,1.);
#216=VECTOR('',#375,1.);
#217=VECTOR('',#376,1.);
#218=EDGE_LOOP('',(#14,#15,#16,#17));
#219=EDGE_LOOP('',(#18,#19,#20,#21));
#220=EDGE_LOOP('',(#22,#23,#24,#25));
#221=EDGE_LOOP('',(#26,#27,#28,#29));
#222=EDGE_LOOP('',(#30,#31,#32,#33));
#223=EDGE_LOOP('',(#34,#35,#36,#37));
#224=EDGE_LOOP('',(#38,#39,#40,#41));
#225=EDGE_LOOP('',(#42,#43,#44,#45));
#226=EDGE_LOOP('',(#46,#47,#48,#49));
#227=EDGE_LOOP('',(#50,#51,#52,#53));
#228=EDGE_LOOP('',(#54,#55,#56,#57));
#229=EDGE_LOOP('',(#58,#59,#60,#61));
#230=EDGE_LOOP('',(#62,#63,#64,#65));
#231=EDGE_LOOP('',(#66,#67,#68,#69));
#232=EDGE_LOOP('',(#70,#71,#72,#73));
#233=EDGE_LOOP('',(#74,#75,#76,#77));
#234=EDGE_LOOP('',(#78,#79,#80,#81));
#235=EDGE_LOOP('',(#82,#83,#84,#85));
#236=FACE_BOUND('',#218,.T.);
#237=FACE_BOUND('',#219,.T.);
#238=FACE_BOUND('',#220,.T.);
#239=FACE_BOUND('',#221,.T.);
#240=FACE_BOUND('',#222,.T.);
#241=FACE_BOUND('',#223,.T.);
#242=FACE_BOUND('',#224,.T.);
#243=FACE_BOUND('',#225,.T.);
#244=FACE_BOUND('',#226,.T.);
#245=FACE_BOUND('',#227,.T.);
#246=FACE_BOUND('',#228,.T.);
#247=FACE_BOUND('',#229,.T.);
#248=FACE_BOUND('',#230,.T.);
#249=FACE_BOUND('',#231,.T.);
#250=FACE_BOUND('',#232,.T.);
#251=FACE_BOUND('',#233,.T.);
#252=FACE_BOUND('',#234,.T.);
#253=FACE_BOUND('',#235,.T.);
#254=PLANE('',#301);
#255=PLANE('',#302);
#256=PLANE('',#303);
#257=PLANE('',#304);
#258=PLANE('',#305);
#259=PLANE('',#306);
#260=PLANE('',#307);
#261=PLANE('',#308);
#262=PLANE('',#309);
#263=PLANE('',#310);
#264=PLANE('',#311);
#265=PLANE('',#312);
#266=PLANE('',#313);
#267=PLANE('',#314);
#268=ADVANCED_FACE('',(#236),#254,.T.);
#269=ADVANCED_FACE('',(#237),#255,.F.);
#270=ADVANCED_FACE('',(#238),#256,.F.);
#271=ADVANCED_FACE('',(#239),#257,.T.);
#272=ADVANCED_FACE('',(#240),#258,.F.);
#273=ADVANCED_FACE('',(#241),#259,.F.);
#274=ADVANCED_FACE('',(#242),#260,.F.);
#275=ADVANCED_FACE('',(#243),#261,.F.);
#276=ADVANCED_FACE('',(#244),#262,.T.);
#277=ADVANCED_FACE('',(#245),#263,.T.);
#278=ADVANCED_FACE('',(#246),#264,.T.);
#279=ADVANCED_FACE('',(#247),#265,.T.);
#280=ADVANCED_FACE('',(#248,#249,#250),#266,.T.);
#281=ADVANCED_FACE('Face appearance 5',(#251,#252,#253),#267,.F.);
#282=CLOSED_SHELL('',(#268,#269,#270,#271,#272,#273,#274,#275,#276,#277,
#278,#279,#280,#281));
#283=STYLED_ITEM('',(#284),#297);
#284=PRESENTATION_STYLE_ASSIGNMENT((#286));
#285=PRESENTATION_STYLE_ASSIGNMENT((#287));
#286=SURFACE_STYLE_USAGE(.BOTH.,#288);
#287=SURFACE_STYLE_USAGE(.BOTH.,#289);
#288=SURFACE_SIDE_STYLE('',(#290));
#289=SURFACE_SIDE_STYLE('',(#291));
#290=SURFACE_STYLE_FILL_AREA(#292);
#291=SURFACE_STYLE_FILL_AREA(#293);
#292=FILL_AREA_STYLE('',(#294));
#293=FILL_AREA_STYLE('',(#295));
#294=FILL_AREA_STYLE_COLOUR('',#296);
#295=FILL_AREA_STYLE_COLOUR('',#13);
#296=DRAUGHTING_PRE_DEFINED_COLOUR('black');
#297=MANIFOLD_SOLID_BREP('Part 10',#282);
#298=SHAPE_DEFINITION_REPRESENTATION(#462,#299);
#299=SHAPE_REPRESENTATION('Part 10',(#300),#457);
#300=AXIS2_PLACEMENT_3D('',#381,#315,#316);
#301=AXIS2_PLACEMENT_3D('',#382,#317,#318);
#302=AXIS2_PLACEMENT_3D('',#391,#323,#324);
#303=AXIS2_PLACEMENT_3D('',#397,#328,#329);
#304=AXIS2_PLACEMENT_3D('',#403,#333,#334);
#305=AXIS2_PLACEMENT_3D('',#412,#339,#340);
#306=AXIS2_PLACEMENT_3D('',#418,#344,#345);
#307=AXIS2_PLACEMENT_3D('',#424,#349,#350);
#308=AXIS2_PLACEMENT_3D('',#433,#355,#356);
#309=AXIS2_PLACEMENT_3D('',#439,#360,#361);
#310=AXIS2_PLACEMENT_3D('',#445,#365,#366);
#311=AXIS2_PLACEMENT_3D('',#448,#369,#370);
#312=AXIS2_PLACEMENT_3D('',#451,#373,#374);
#313=AXIS2_PLACEMENT_3D('',#454,#377,#378);
#314=AXIS2_PLACEMENT_3D('',#455,#379,#380);
#315=DIRECTION('',(0.,0.,1.));
#316=DIRECTION('',(1.,0.,0.));
#317=DIRECTION('',(-1.13861214791428E-15,1.,6.66133814775094E-16));
#318=DIRECTION('',(-1.,-1.13861214791428E-15,0.));
#319=DIRECTION('',(-1.,-1.13861214791428E-15,-5.55111512312585E-17));
#320=DIRECTION('',(-5.55111512312578E-17,-6.66133814775094E-16,1.));
#321=DIRECTION('',(-1.,-1.13861214791428E-15,-5.55111512312585E-17));
#322=DIRECTION('',(-5.55111512312578E-17,-6.66133814775094E-16,1.));
#323=DIRECTION('',(-1.,-1.23526972651786E-15,-5.55111512312586E-17));
#324=DIRECTION('',(1.23526972651786E-15,-1.,0.));
#325=DIRECTION('',(1.23526972651786E-15,-1.,-6.66133814775094E-16));
#326=DIRECTION('',(-5.55111512312578E-17,-6.66133814775094E-16,1.));
#327=DIRECTION('',(1.23526972651786E-15,-1.,-6.66133814775094E-16));
#328=DIRECTION('',(1.21365914830467E-16,1.,6.66133814775094E-16));
#329=DIRECTION('',(0.,-6.66133814775094E-16,1.));
#330=DIRECTION('',(-1.,1.21365914830467E-16,-5.55111512312577E-17));
#331=DIRECTION('',(-5.55111512312578E-17,-6.66133814775094E-16,1.));
#332=DIRECTION('',(-1.,1.21365914830467E-16,-5.55111512312577E-17));
#333=DIRECTION('',(1.,0.,5.55111512312578E-17));
#334=DIRECTION('',(5.55111512312578E-17,0.,-1.));
#335=DIRECTION('',(-3.69778549322349E-32,1.,6.66133814775094E-16));
#336=DIRECTION('',(-5.55111512312578E-17,-6.66133814775094E-16,1.));
#337=DIRECTION('',(-3.69778549322349E-32,1.,6.66133814775094E-16));
#338=DIRECTION('',(-5.55111512312578E-17,-6.66133814775094E-16,1.));
#339=DIRECTION('',(-7.12737256024586E-48,-1.,-6.66133814775094E-16));
#340=DIRECTION('',(0.,6.66133814775094E-16,-1.));
#341=DIRECTION('',(1.,-3.69778549322349E-32,5.55111512312578E-17));
#342=DIRECTION('',(-5.55111512312578E-17,-6.66133814775094E-16,1.));
#343=DIRECTION('',(1.,-3.69778549322349E-32,5.55111512312578E-17));
#344=DIRECTION('',(1.,0.,5.55111512312578E-17));
#345=DIRECTION('',(5.55111512312578E-17,0.,-1.));
#346=DIRECTION('',(-3.69778549322349E-32,1.,6.66133814775094E-16));
#347=DIRECTION('',(-5.55111512312578E-17,-6.66133814775094E-16,1.));
#348=DIRECTION('',(-3.69778549322349E-32,1.,6.66133814775094E-16));
#349=DIRECTION('',(-7.12737256024586E-48,-1.,-6.66133814775094E-16));
#350=DIRECTION('',(0.,6.66133814775094E-16,-1.));
#351=DIRECTION('',(1.,-3.69778549322349E-32,5.55111512312578E-17));
#352=DIRECTION('',(-5.55111512312578E-17,-6.66133814775094E-16,1.));
#353=DIRECTION('',(1.,-3.69778549322349E-32,5.55111512312578E-17));
#354=DIRECTION('',(-5.55111512312578E-17,-6.66133814775094E-16,1.));
#355=DIRECTION('',(1.,-8.55968864172104E-32,5.55111512312578E-17));
#356=DIRECTION('',(5.55111512312578E-17,0.,-1.));
#357=DIRECTION('',(4.86190314849755E-32,1.,6.66133814775094E-16));
#358=DIRECTION('',(-5.55111512312578E-17,-6.66133814775094E-16,1.));
#359=DIRECTION('',(4.86190314849755E-32,1.,6.66133814775094E-16));
#360=DIRECTION('',(-7.12737256024586E-48,-1.,-6.66133814775094E-16));
#361=DIRECTION('',(0.,6.66133814775094E-16,-1.));
#362=DIRECTION('',(1.,-3.69778549322349E-32,5.55111512312578E-17));
#363=DIRECTION('',(-5.55111512312578E-17,-6.66133814775094E-16,1.));
#364=DIRECTION('',(1.,-3.69778549322349E-32,5.55111512312578E-17));
#365=DIRECTION('',(-7.12737256024586E-48,-1.,-6.66133814775094E-16));
#366=DIRECTION('',(0.,6.66133814775094E-16,-1.));
#367=DIRECTION('',(1.,-3.69778549322349E-32,5.55111512312578E-17));
#368=DIRECTION('',(1.,-3.69778549322349E-32,5.55111512312578E-17));
#369=DIRECTION('',(1.,0.,5.55111512312578E-17));
#370=DIRECTION('',(5.55111512312578E-17,0.,-1.));
#371=DIRECTION('',(-3.69778549322349E-32,1.,6.66133814775094E-16));
#372=DIRECTION('',(-3.69778549322349E-32,1.,6.66133814775094E-16));
#373=DIRECTION('',(-1.,-1.00601384704006E-15,-5.55111512312585E-17));
#374=DIRECTION('',(1.00601384704006E-15,-1.,0.));
#375=DIRECTION('',(1.00601384704006E-15,-1.,-6.66133814775094E-16));
#376=DIRECTION('',(1.00601384704006E-15,-1.,-6.66133814775094E-16));
#377=DIRECTION('',(5.55111512312578E-17,6.66133814775094E-16,-1.));
#378=DIRECTION('',(1.,-3.69778549322349E-32,5.55111512312578E-17));
#379=DIRECTION('',(5.55111512312578E-17,6.66133814775094E-16,-1.));
#380=DIRECTION('',(1.,-3.69778549322349E-32,5.55111512312578E-17));
#381=CARTESIAN_POINT('',(0.,0.,0.));
#382=CARTESIAN_POINT('',(0.00405072529067601,0.0632488513424994,-0.0657187982434034));
#383=CARTESIAN_POINT('',(0.00405072529067601,0.0632488513424994,-0.0627187982434034));
#384=CARTESIAN_POINT('',(0.0624973799720408,0.0632488513424995,-0.0627187982434034));
#385=CARTESIAN_POINT('',(-0.0447026200279593,0.0632488513424993,-0.0627187982434034));
#386=CARTESIAN_POINT('',(0.0624973799720408,0.0632488513424995,-0.0657187982434034));
#387=CARTESIAN_POINT('',(0.0624973799720408,0.0632488513424995,-0.0657187982434034));
#388=CARTESIAN_POINT('',(0.00405072529067601,0.0632488513424994,-0.0657187982434034));
#389=CARTESIAN_POINT('',(-0.0447026200279593,0.0632488513424993,-0.0657187982434034));
#390=CARTESIAN_POINT('',(-0.0447026200279593,0.0632488513424993,-0.0657187982434034));
#391=CARTESIAN_POINT('',(0.0624973799720408,0.0287709530039691,-0.0657187982434034));
#392=CARTESIAN_POINT('',(0.0624973799720408,0.0287709530039691,-0.0627187982434034));
#393=CARTESIAN_POINT('',(0.0624973799720409,-0.00572528777420521,-0.0627187982434034));
#394=CARTESIAN_POINT('',(0.0624973799720409,-0.00572528777420521,-0.0657187982434034));
#395=CARTESIAN_POINT('',(0.0624973799720409,-0.00572528777420521,-0.0657187982434034));
#396=CARTESIAN_POINT('',(0.0624973799720408,0.0287709530039691,-0.0657187982434034));
#397=CARTESIAN_POINT('',(0.00889737997204079,-0.0057252877742052,-0.0657187982434034));
#398=CARTESIAN_POINT('',(0.00889737997204079,-0.0057252877742052,-0.0627187982434034));
#399=CARTESIAN_POINT('',(-0.0447026200279593,-0.0057252877742052,-0.0627187982434034));
#400=CARTESIAN_POINT('',(-0.0447026200279593,-0.0057252877742052,-0.0657187982434034));
#401=CARTESIAN_POINT('',(-0.0447026200279593,-0.0057252877742052,-0.0657187982434034));
#402=CARTESIAN_POINT('',(0.00889737997204079,-0.0057252877742052,-0.0657187982434034));
#403=CARTESIAN_POINT('',(-0.0367026200279593,0.054647053603083,-0.0657187982434034));
#404=CARTESIAN_POINT('',(-0.0367026200279593,0.054647053603083,-0.0627187982434034));
#405=CARTESIAN_POINT('',(-0.0367026200279593,0.0540452558636665,-0.0627187982434034));
#406=CARTESIAN_POINT('',(-0.0367026200279593,0.0552488513424994,-0.0627187982434034));
#407=CARTESIAN_POINT('',(-0.0367026200279593,0.0540452558636665,-0.0657187982434034));
#408=CARTESIAN_POINT('',(-0.0367026200279593,0.0540452558636665,-0.0657187982434034));
#409=CARTESIAN_POINT('',(-0.0367026200279593,0.054647053603083,-0.0657187982434034));
#410=CARTESIAN_POINT('',(-0.0367026200279593,0.0552488513424994,-0.0657187982434034));
#411=CARTESIAN_POINT('',(-0.0367026200279593,0.0552488513424994,-0.0657187982434034));
#412=CARTESIAN_POINT('',(-0.0358459219622114,0.0540452558636665,-0.0657187982434034));
#413=CARTESIAN_POINT('',(-0.0358459219622114,0.0540452558636665,-0.0627187982434034));
#414=CARTESIAN_POINT('',(-0.0349892238964635,0.0540452558636665,-0.0627187982434034));
#415=CARTESIAN_POINT('',(-0.0349892238964635,0.0540452558636665,-0.0657187982434034));
#416=CARTESIAN_POINT('',(-0.0349892238964635,0.0540452558636665,-0.0657187982434034));
#417=CARTESIAN_POINT('',(-0.0358459219622114,0.0540452558636665,-0.0657187982434034));
#418=CARTESIAN_POINT('',(-0.0349892238964635,0.054647053603083,-0.0657187982434034));
#419=CARTESIAN_POINT('',(-0.0349892238964635,0.054647053603083,-0.0627187982434034));
#420=CARTESIAN_POINT('',(-0.0349892238964635,0.0552488513424994,-0.0627187982434034));
#421=CARTESIAN_POINT('',(-0.0349892238964635,0.0552488513424994,-0.0657187982434034));
#422=CARTESIAN_POINT('',(-0.0349892238964635,0.0552488513424994,-0.0657187982434034));
#423=CARTESIAN_POINT('',(-0.0349892238964635,0.054647053603083,-0.0657187982434034));
#424=CARTESIAN_POINT('',(-0.0368995502708558,0.0446516386262747,-0.0657187982434034));
#425=CARTESIAN_POINT('',(-0.0368995502708558,0.0446516386262747,-0.0627187982434034));
#426=CARTESIAN_POINT('',(-0.0370964805137523,0.0446516386262747,-0.0627187982434034));
#427=CARTESIAN_POINT('',(-0.0367026200279593,0.0446516386262747,-0.0627187982434034));
#428=CARTESIAN_POINT('',(-0.0367026200279593,0.0446516386262747,-0.0657187982434034));
#429=CARTESIAN_POINT('',(-0.0367026200279593,0.0446516386262747,-0.0657187982434034));
#430=CARTESIAN_POINT('',(-0.0368995502708558,0.0446516386262747,-0.0657187982434034));
#431=CARTESIAN_POINT('',(-0.0370964805137523,0.0446516386262747,-0.0657187982434034));
#432=CARTESIAN_POINT('',(-0.0370964805137523,0.0446516386262747,-0.0657187982434034));
#433=CARTESIAN_POINT('',(-0.0367026200279593,0.0491516386262746,-0.0657187982434034));
#434=CARTESIAN_POINT('',(-0.0367026200279593,0.0491516386262746,-0.0627187982434034));
#435=CARTESIAN_POINT('',(-0.0367026200279593,0.0536516386262746,-0.0627187982434034));
#436=CARTESIAN_POINT('',(-0.0367026200279593,0.0536516386262746,-0.0657187982434034));
#437=CARTESIAN_POINT('',(-0.0367026200279593,0.0536516386262746,-0.0657187982434034));
#438=CARTESIAN_POINT('',(-0.0367026200279593,0.0491516386262746,-0.0657187982434034));
#439=CARTESIAN_POINT('',(-0.0368995502708558,0.0536516386262746,-0.0657187982434034));
#440=CARTESIAN_POINT('',(-0.0368995502708558,0.0536516386262746,-0.0627187982434034));
#441=CARTESIAN_POINT('',(-0.0370964805137523,0.0536516386262746,-0.0627187982434034));
#442=CARTESIAN_POINT('',(-0.0370964805137523,0.0536516386262746,-0.0657187982434034));
#443=CARTESIAN_POINT('',(-0.0370964805137523,0.0536516386262746,-0.0657187982434034));
#444=CARTESIAN_POINT('',(-0.0368995502708558,0.0536516386262746,-0.0657187982434034));
#445=CARTESIAN_POINT('',(-0.0358426157670715,0.0552488513424994,-0.0657187982434034));
#446=CARTESIAN_POINT('',(-0.0358426157670715,0.0552488513424994,-0.0627187982434034));
#447=CARTESIAN_POINT('',(-0.0358426157670715,0.0552488513424994,-0.0657187982434034));
#448=CARTESIAN_POINT('',(-0.0370964805137523,0.0491516386262746,-0.0657187982434034));
#449=CARTESIAN_POINT('',(-0.0370964805137523,0.0491516386262746,-0.0627187982434034));
#450=CARTESIAN_POINT('',(-0.0370964805137523,0.0491516386262746,-0.0657187982434034));
#451=CARTESIAN_POINT('',(-0.0447026200279592,0.028761781784147,-0.0657187982434034));
#452=CARTESIAN_POINT('',(-0.0447026200279592,0.028761781784147,-0.0627187982434034));
#453=CARTESIAN_POINT('',(-0.0447026200279592,0.028761781784147,-0.0657187982434034));
#454=CARTESIAN_POINT('',(0.00890165329401707,0.0287617817841472,-0.0657187982434034));
#455=CARTESIAN_POINT('',(0.00890165329401707,0.0287617817841472,-0.0627187982434034));
#456=MECHANICAL_DESIGN_GEOMETRIC_PRESENTATION_REPRESENTATION('',(#283,#12),
#457);
#457=(
GEOMETRIC_REPRESENTATION_CONTEXT(3)
GLOBAL_UNCERTAINTY_ASSIGNED_CONTEXT((#458))
GLOBAL_UNIT_ASSIGNED_CONTEXT((#461,#460,#459))
REPRESENTATION_CONTEXT('Part 10','TOP_LEVEL_ASSEMBLY_PART')
);
#458=UNCERTAINTY_MEASURE_WITH_UNIT(LENGTH_MEASURE(1.E-8),#461,
'DISTANCE_ACCURACY_VALUE','Maximum Tolerance applied to model');
#459=(
NAMED_UNIT(*)
SI_UNIT($,.STERADIAN.)
SOLID_ANGLE_UNIT()
);
#460=(
NAMED_UNIT(*)
PLANE_ANGLE_UNIT()
SI_UNIT($,.RADIAN.)
);
#461=(
LENGTH_UNIT()
NAMED_UNIT(*)
SI_UNIT($,.METRE.)
);
#462=PRODUCT_DEFINITION_SHAPE('','',#463);
#463=PRODUCT_DEFINITION('','',#465,#464);
#464=PRODUCT_DEFINITION_CONTEXT('',#471,'design');
#465=PRODUCT_DEFINITION_FORMATION_WITH_SPECIFIED_SOURCE('','',#467,
 .NOT_KNOWN.);
#466=PRODUCT_RELATED_PRODUCT_CATEGORY('','',(#467));
#467=PRODUCT('Part 10','Part 10','Part 10',(#469));
#468=PRODUCT_CATEGORY('','');
#469=PRODUCT_CONTEXT('',#471,'mechanical');
#470=APPLICATION_PROTOCOL_DEFINITION('international standard',
'ap242_managed_model_based_3d_engineering',2020,#471);
#471=APPLICATION_CONTEXT('managed model based 3d engineering');
ENDSEC;
END-ISO-10303-21;
