ISO-10303-21;
HEADER;
/* Generated by software containing ST-Developer
 * from STEP Tools, Inc. (www.steptools.com) 
 */
/* OPTION: using custom renumber hook */

FILE_DESCRIPTION(
/* description */ ('STEP AP242 Edition 2',
'CAx-IF Rec.Pracs.---Representation and Presentation of Product Manufa
cturing Information (PMI)---4.0---2014-10-13',
'CAx-IF Rec.Pracs.---3D Tessellated Geometry---0.4---2014-09-14','2;1',
'CAx-IF Rec.Pracs.---User Defined Attributes---1.5---2016-08-15'),
/* implementation_level */ '2;1');

FILE_NAME(
/* name */ 'Part Studio 3 - Part 7',
/* time_stamp */ '2026-09-11T02:35:24Z',
/* author */ (''),
/* organization */ (''),
/* preprocessor_version */ 'ST-DEVELOPER v20',
/* originating_system */ 'ONSHAPE BY PTC INC, 1.220',
/* authorisation */ '  ');

FILE_SCHEMA (('AP242_MANAGED_MODEL_BASED_3D_ENGINEERING_MIM_LF { 1 0 10303 442 3 1 4 }'));
ENDSEC;

DATA;
#10=SHAPE_REPRESENTATION_RELATIONSHIP('','',#509,#11);
#11=ADVANCED_BREP_SHAPE_REPRESENTATION('',(#507),#819);
#12=OVER_RIDING_STYLED_ITEM('',(#458),#447,#456);
#13=OVER_RIDING_STYLED_ITEM('',(#459),#448,#456);
#14=OVER_RIDING_STYLED_ITEM('',(#460),#449,#456);
#15=OVER_RIDING_STYLED_ITEM('',(#461),#450,#456);
#16=OVER_RIDING_STYLED_ITEM('',(#462),#452,#456);
#17=OVER_RIDING_STYLED_ITEM('',(#463),#453,#456);
#18=OVER_RIDING_STYLED_ITEM('',(#464),#454,#456);
#19=CIRCLE('',#518,0.0023);
#20=CIRCLE('',#519,0.0023);
#21=CIRCLE('',#521,0.0023);
#22=CIRCLE('',#522,0.0023);
#23=CIRCLE('',#524,0.0023);
#24=CIRCLE('',#525,0.0023);
#25=CIRCLE('',#527,0.0023);
#26=CIRCLE('',#528,0.0023);
#27=CIRCLE('',#531,0.0023);
#28=CIRCLE('',#532,0.0023);
#29=CIRCLE('',#534,0.0023);
#30=CIRCLE('',#535,0.0023);
#31=CIRCLE('',#537,0.0023);
#32=CIRCLE('',#538,0.0023);
#33=CIRCLE('',#540,0.0023);
#34=CIRCLE('',#541,0.0023);
#35=CIRCLE('',#544,0.00380442188578309);
#36=CIRCLE('',#545,0.00380442188578309);
#37=CIRCLE('',#548,0.00380442188578309);
#38=CIRCLE('',#550,0.00298022139546047);
#39=CIRCLE('',#552,0.00380442188578309);
#40=CIRCLE('',#554,0.00302101247650838);
#41=CIRCLE('',#556,0.00298022139546047);
#42=CIRCLE('',#559,0.00302101247650838);
#43=CYLINDRICAL_SURFACE('',#517,0.0023);
#44=CYLINDRICAL_SURFACE('',#520,0.0023);
#45=CYLINDRICAL_SURFACE('',#523,0.0023);
#46=CYLINDRICAL_SURFACE('',#526,0.0023);
#47=CYLINDRICAL_SURFACE('',#530,0.0023);
#48=CYLINDRICAL_SURFACE('',#533,0.0023);
#49=CYLINDRICAL_SURFACE('',#536,0.0023);
#50=CYLINDRICAL_SURFACE('',#539,0.0023);
#51=CYLINDRICAL_SURFACE('',#547,0.00380442188578309);
#52=CYLINDRICAL_SURFACE('',#551,0.00380442188578309);
#53=CYLINDRICAL_SURFACE('',#555,0.00298022139546047);
#54=CYLINDRICAL_SURFACE('',#558,0.00302101247650838);
#55=ORIENTED_EDGE('',*,*,#167,.F.);
#56=ORIENTED_EDGE('',*,*,#168,.F.);
#57=ORIENTED_EDGE('',*,*,#169,.T.);
#58=ORIENTED_EDGE('',*,*,#170,.T.);
#59=ORIENTED_EDGE('',*,*,#171,.T.);
#60=ORIENTED_EDGE('',*,*,#172,.F.);
#61=ORIENTED_EDGE('',*,*,#173,.F.);
#62=ORIENTED_EDGE('',*,*,#168,.T.);
#63=ORIENTED_EDGE('',*,*,#174,.T.);
#64=ORIENTED_EDGE('',*,*,#175,.F.);
#65=ORIENTED_EDGE('',*,*,#176,.F.);
#66=ORIENTED_EDGE('',*,*,#172,.T.);
#67=ORIENTED_EDGE('',*,*,#177,.F.);
#68=ORIENTED_EDGE('',*,*,#178,.F.);
#69=ORIENTED_EDGE('',*,*,#179,.T.);
#70=ORIENTED_EDGE('',*,*,#180,.T.);
#71=ORIENTED_EDGE('',*,*,#181,.T.);
#72=ORIENTED_EDGE('',*,*,#182,.F.);
#73=ORIENTED_EDGE('',*,*,#183,.F.);
#74=ORIENTED_EDGE('',*,*,#178,.T.);
#75=ORIENTED_EDGE('',*,*,#184,.T.);
#76=ORIENTED_EDGE('',*,*,#185,.F.);
#77=ORIENTED_EDGE('',*,*,#186,.F.);
#78=ORIENTED_EDGE('',*,*,#182,.T.);
#79=ORIENTED_EDGE('',*,*,#187,.F.);
#80=ORIENTED_EDGE('',*,*,#188,.F.);
#81=ORIENTED_EDGE('',*,*,#189,.T.);
#82=ORIENTED_EDGE('',*,*,#190,.T.);
#83=ORIENTED_EDGE('',*,*,#191,.F.);
#84=ORIENTED_EDGE('',*,*,#192,.F.);
#85=ORIENTED_EDGE('',*,*,#193,.T.);
#86=ORIENTED_EDGE('',*,*,#194,.T.);
#87=ORIENTED_EDGE('',*,*,#195,.F.);
#88=ORIENTED_EDGE('',*,*,#196,.F.);
#89=ORIENTED_EDGE('',*,*,#197,.T.);
#90=ORIENTED_EDGE('',*,*,#198,.T.);
#91=ORIENTED_EDGE('',*,*,#199,.F.);
#92=ORIENTED_EDGE('',*,*,#200,.F.);
#93=ORIENTED_EDGE('',*,*,#201,.T.);
#94=ORIENTED_EDGE('',*,*,#202,.T.);
#95=ORIENTED_EDGE('',*,*,#203,.F.);
#96=ORIENTED_EDGE('',*,*,#180,.F.);
#97=ORIENTED_EDGE('',*,*,#204,.T.);
#98=ORIENTED_EDGE('',*,*,#185,.T.);
#99=ORIENTED_EDGE('',*,*,#205,.T.);
#100=ORIENTED_EDGE('',*,*,#190,.F.);
#101=ORIENTED_EDGE('',*,*,#206,.F.);
#102=ORIENTED_EDGE('',*,*,#188,.T.);
#103=ORIENTED_EDGE('',*,*,#207,.T.);
#104=ORIENTED_EDGE('',*,*,#194,.F.);
#105=ORIENTED_EDGE('',*,*,#208,.F.);
#106=ORIENTED_EDGE('',*,*,#192,.T.);
#107=ORIENTED_EDGE('',*,*,#209,.T.);
#108=ORIENTED_EDGE('',*,*,#198,.F.);
#109=ORIENTED_EDGE('',*,*,#210,.F.);
#110=ORIENTED_EDGE('',*,*,#196,.T.);
#111=ORIENTED_EDGE('',*,*,#211,.T.);
#112=ORIENTED_EDGE('',*,*,#202,.F.);
#113=ORIENTED_EDGE('',*,*,#212,.F.);
#114=ORIENTED_EDGE('',*,*,#200,.T.);
#115=ORIENTED_EDGE('',*,*,#213,.F.);
#116=ORIENTED_EDGE('',*,*,#170,.F.);
#117=ORIENTED_EDGE('',*,*,#214,.T.);
#118=ORIENTED_EDGE('',*,*,#175,.T.);
#119=ORIENTED_EDGE('',*,*,#215,.F.);
#120=ORIENTED_EDGE('',*,*,#216,.F.);
#121=ORIENTED_EDGE('',*,*,#201,.F.);
#122=ORIENTED_EDGE('',*,*,#212,.T.);
#123=ORIENTED_EDGE('',*,*,#197,.F.);
#124=ORIENTED_EDGE('',*,*,#210,.T.);
#125=ORIENTED_EDGE('',*,*,#193,.F.);
#126=ORIENTED_EDGE('',*,*,#208,.T.);
#127=ORIENTED_EDGE('',*,*,#189,.F.);
#128=ORIENTED_EDGE('',*,*,#206,.T.);
#129=ORIENTED_EDGE('',*,*,#179,.F.);
#130=ORIENTED_EDGE('',*,*,#183,.T.);
#131=ORIENTED_EDGE('',*,*,#186,.T.);
#132=ORIENTED_EDGE('',*,*,#204,.F.);
#133=ORIENTED_EDGE('',*,*,#169,.F.);
#134=ORIENTED_EDGE('',*,*,#173,.T.);
#135=ORIENTED_EDGE('',*,*,#176,.T.);
#136=ORIENTED_EDGE('',*,*,#214,.F.);
#137=ORIENTED_EDGE('',*,*,#199,.T.);
#138=ORIENTED_EDGE('',*,*,#211,.F.);
#139=ORIENTED_EDGE('',*,*,#195,.T.);
#140=ORIENTED_EDGE('',*,*,#209,.F.);
#141=ORIENTED_EDGE('',*,*,#191,.T.);
#142=ORIENTED_EDGE('',*,*,#207,.F.);
#143=ORIENTED_EDGE('',*,*,#187,.T.);
#144=ORIENTED_EDGE('',*,*,#205,.F.);
#145=ORIENTED_EDGE('',*,*,#177,.T.);
#146=ORIENTED_EDGE('',*,*,#203,.T.);
#147=ORIENTED_EDGE('',*,*,#184,.F.);
#148=ORIENTED_EDGE('',*,*,#181,.F.);
#149=ORIENTED_EDGE('',*,*,#167,.T.);
#150=ORIENTED_EDGE('',*,*,#213,.T.);
#151=ORIENTED_EDGE('',*,*,#174,.F.);
#152=ORIENTED_EDGE('',*,*,#171,.F.);
#153=ORIENTED_EDGE('',*,*,#217,.F.);
#154=ORIENTED_EDGE('',*,*,#216,.T.);
#155=ORIENTED_EDGE('',*,*,#218,.F.);
#156=ORIENTED_EDGE('',*,*,#217,.T.);
#157=ORIENTED_EDGE('',*,*,#219,.F.);
#158=ORIENTED_EDGE('',*,*,#215,.T.);
#159=ORIENTED_EDGE('',*,*,#220,.F.);
#160=ORIENTED_EDGE('',*,*,#219,.T.);
#161=ORIENTED_EDGE('',*,*,#221,.F.);
#162=ORIENTED_EDGE('',*,*,#218,.T.);
#163=ORIENTED_EDGE('',*,*,#221,.T.);
#164=ORIENTED_EDGE('',*,*,#222,.F.);
#165=ORIENTED_EDGE('',*,*,#220,.T.);
#166=ORIENTED_EDGE('',*,*,#222,.T.);
#167=EDGE_CURVE('',#223,#224,#263,.T.);
#168=EDGE_CURVE('',#225,#223,#264,.T.);
#169=EDGE_CURVE('',#225,#226,#265,.T.);
#170=EDGE_CURVE('',#226,#224,#266,.T.);
#171=EDGE_CURVE('',#223,#227,#267,.T.);
#172=EDGE_CURVE('',#228,#227,#268,.T.);
#173=EDGE_CURVE('',#225,#228,#269,.T.);
#174=EDGE_CURVE('',#227,#229,#270,.T.);
#175=EDGE_CURVE('',#230,#229,#271,.T.);
#176=EDGE_CURVE('',#228,#230,#272,.T.);
#177=EDGE_CURVE('',#231,#232,#273,.T.);
#178=EDGE_CURVE('',#233,#231,#274,.T.);
#179=EDGE_CURVE('',#233,#234,#275,.T.);
#180=EDGE_CURVE('',#234,#232,#276,.T.);
#181=EDGE_CURVE('',#231,#235,#277,.T.);
#182=EDGE_CURVE('',#236,#235,#278,.T.);
#183=EDGE_CURVE('',#233,#236,#279,.T.);
#184=EDGE_CURVE('',#235,#237,#280,.T.);
#185=EDGE_CURVE('',#238,#237,#281,.T.);
#186=EDGE_CURVE('',#236,#238,#282,.T.);
#187=EDGE_CURVE('',#239,#240,#19,.T.);
#188=EDGE_CURVE('',#241,#239,#283,.T.);
#189=EDGE_CURVE('',#241,#242,#20,.T.);
#190=EDGE_CURVE('',#242,#240,#284,.T.);
#191=EDGE_CURVE('',#243,#244,#21,.T.);
#192=EDGE_CURVE('',#245,#243,#285,.T.);
#193=EDGE_CURVE('',#245,#246,#22,.T.);
#194=EDGE_CURVE('',#246,#244,#286,.T.);
#195=EDGE_CURVE('',#247,#248,#23,.T.);
#196=EDGE_CURVE('',#249,#247,#287,.T.);
#197=EDGE_CURVE('',#249,#250,#24,.T.);
#198=EDGE_CURVE('',#250,#248,#288,.T.);
#199=EDGE_CURVE('',#251,#252,#25,.T.);
#200=EDGE_CURVE('',#253,#251,#289,.T.);
#201=EDGE_CURVE('',#253,#254,#26,.T.);
#202=EDGE_CURVE('',#254,#252,#290,.T.);
#203=EDGE_CURVE('',#232,#237,#291,.T.);
#204=EDGE_CURVE('',#234,#238,#292,.T.);
#205=EDGE_CURVE('',#239,#240,#27,.T.);
#206=EDGE_CURVE('',#241,#242,#28,.T.);
#207=EDGE_CURVE('',#243,#244,#29,.T.);
#208=EDGE_CURVE('',#245,#246,#30,.T.);
#209=EDGE_CURVE('',#247,#248,#31,.T.);
#210=EDGE_CURVE('',#249,#250,#32,.T.);
#211=EDGE_CURVE('',#251,#252,#33,.T.);
#212=EDGE_CURVE('',#253,#254,#34,.T.);
#213=EDGE_CURVE('',#224,#229,#293,.T.);
#214=EDGE_CURVE('',#226,#230,#294,.T.);
#215=EDGE_CURVE('',#255,#255,#35,.T.);
#216=EDGE_CURVE('',#256,#256,#36,.T.);
#217=EDGE_CURVE('',#257,#257,#37,.T.);
#218=EDGE_CURVE('',#258,#258,#38,.T.);
#219=EDGE_CURVE('',#259,#259,#39,.T.);
#220=EDGE_CURVE('',#260,#260,#40,.T.);
#221=EDGE_CURVE('',#261,#261,#41,.T.);
#222=EDGE_CURVE('',#262,#262,#42,.T.);
#223=VERTEX_POINT('',#698);
#224=VERTEX_POINT('',#699);
#225=VERTEX_POINT('',#701);
#226=VERTEX_POINT('',#703);
#227=VERTEX_POINT('',#707);
#228=VERTEX_POINT('',#709);
#229=VERTEX_POINT('',#713);
#230=VERTEX_POINT('',#715);
#231=VERTEX_POINT('',#719);
#232=VERTEX_POINT('',#720);
#233=VERTEX_POINT('',#722);
#234=VERTEX_POINT('',#724);
#235=VERTEX_POINT('',#728);
#236=VERTEX_POINT('',#730);
#237=VERTEX_POINT('',#734);
#238=VERTEX_POINT('',#736);
#239=VERTEX_POINT('',#740);
#240=VERTEX_POINT('',#741);
#241=VERTEX_POINT('',#743);
#242=VERTEX_POINT('',#745);
#243=VERTEX_POINT('',#749);
#244=VERTEX_POINT('',#750);
#245=VERTEX_POINT('',#752);
#246=VERTEX_POINT('',#754);
#247=VERTEX_POINT('',#758);
#248=VERTEX_POINT('',#759);
#249=VERTEX_POINT('',#761);
#250=VERTEX_POINT('',#763);
#251=VERTEX_POINT('',#767);
#252=VERTEX_POINT('',#768);
#253=VERTEX_POINT('',#770);
#254=VERTEX_POINT('',#772);
#255=VERTEX_POINT('',#794);
#256=VERTEX_POINT('',#796);
#257=VERTEX_POINT('',#800);
#258=VERTEX_POINT('',#803);
#259=VERTEX_POINT('',#806);
#260=VERTEX_POINT('',#809);
#261=VERTEX_POINT('',#812);
#262=VERTEX_POINT('',#816);
#263=LINE('',#697,#295);
#264=LINE('',#700,#296);
#265=LINE('',#702,#297);
#266=LINE('',#704,#298);
#267=LINE('',#706,#299);
#268=LINE('',#708,#300);
#269=LINE('',#710,#301);
#270=LINE('',#712,#302);
#271=LINE('',#714,#303);
#272=LINE('',#716,#304);
#273=LINE('',#718,#305);
#274=LINE('',#721,#306);
#275=LINE('',#723,#307);
#276=LINE('',#725,#308);
#277=LINE('',#727,#309);
#278=LINE('',#729,#310);
#279=LINE('',#731,#311);
#280=LINE('',#733,#312);
#281=LINE('',#735,#313);
#282=LINE('',#737,#314);
#283=LINE('',#742,#315);
#284=LINE('',#746,#316);
#285=LINE('',#751,#317);
#286=LINE('',#755,#318);
#287=LINE('',#760,#319);
#288=LINE('',#764,#320);
#289=LINE('',#769,#321);
#290=LINE('',#773,#322);
#291=LINE('',#775,#323);
#292=LINE('',#776,#324);
#293=LINE('',#790,#325);
#294=LINE('',#791,#326);
#295=VECTOR('',#565,1.);
#296=VECTOR('',#566,1.);
#297=VECTOR('',#567,1.);
#298=VECTOR('',#568,1.);
#299=VECTOR('',#571,1.);
#300=VECTOR('',#572,1.);
#301=VECTOR('',#573,1.);
#302=VECTOR('',#576,1.);
#303=VECTOR('',#577,1.);
#304=VECTOR('',#578,1.);
#305=VECTOR('',#581,1.);
#306=VECTOR('',#582,1.);
#307=VECTOR('',#583,1.);
#308=VECTOR('',#584,1.);
#309=VECTOR('',#587,1.);
#310=VECTOR('',#588,1.);
#311=VECTOR('',#589,1.);
#312=VECTOR('',#592,1.);
#313=VECTOR('',#593,1.);
#314=VECTOR('',#594,1.);
#315=VECTOR('',#599,1.);
#316=VECTOR('',#602,1.);
#317=VECTOR('',#607,1.);
#318=VECTOR('',#610,1.);
#319=VECTOR('',#615,1.);
#320=VECTOR('',#618,1.);
#321=VECTOR('',#623,1.);
#322=VECTOR('',#626,1.);
#323=VECTOR('',#629,1.);
#324=VECTOR('',#630,1.);
#325=VECTOR('',#657,1.);
#326=VECTOR('',#658,1.);
#327=EDGE_LOOP('',(#55,#56,#57,#58));
#328=EDGE_LOOP('',(#59,#60,#61,#62));
#329=EDGE_LOOP('',(#63,#64,#65,#66));
#330=EDGE_LOOP('',(#67,#68,#69,#70));
#331=EDGE_LOOP('',(#71,#72,#73,#74));
#332=EDGE_LOOP('',(#75,#76,#77,#78));
#333=EDGE_LOOP('',(#79,#80,#81,#82));
#334=EDGE_LOOP('',(#83,#84,#85,#86));
#335=EDGE_LOOP('',(#87,#88,#89,#90));
#336=EDGE_LOOP('',(#91,#92,#93,#94));
#337=EDGE_LOOP('',(#95,#96,#97,#98));
#338=EDGE_LOOP('',(#99,#100,#101,#102));
#339=EDGE_LOOP('',(#103,#104,#105,#106));
#340=EDGE_LOOP('',(#107,#108,#109,#110));
#341=EDGE_LOOP('',(#111,#112,#113,#114));
#342=EDGE_LOOP('',(#115,#116,#117,#118));
#343=EDGE_LOOP('',(#119));
#344=EDGE_LOOP('',(#120));
#345=EDGE_LOOP('',(#121,#122));
#346=EDGE_LOOP('',(#123,#124));
#347=EDGE_LOOP('',(#125,#126));
#348=EDGE_LOOP('',(#127,#128));
#349=EDGE_LOOP('',(#129,#130,#131,#132));
#350=EDGE_LOOP('',(#133,#134,#135,#136));
#351=EDGE_LOOP('',(#137,#138));
#352=EDGE_LOOP('',(#139,#140));
#353=EDGE_LOOP('',(#141,#142));
#354=EDGE_LOOP('',(#143,#144));
#355=EDGE_LOOP('',(#145,#146,#147,#148));
#356=EDGE_LOOP('',(#149,#150,#151,#152));
#357=EDGE_LOOP('',(#153));
#358=EDGE_LOOP('',(#154));
#359=EDGE_LOOP('',(#155));
#360=EDGE_LOOP('',(#156));
#361=EDGE_LOOP('',(#157));
#362=EDGE_LOOP('',(#158));
#363=EDGE_LOOP('',(#159));
#364=EDGE_LOOP('',(#160));
#365=EDGE_LOOP('',(#161));
#366=EDGE_LOOP('',(#162));
#367=EDGE_LOOP('',(#163));
#368=EDGE_LOOP('',(#164));
#369=EDGE_LOOP('',(#165));
#370=EDGE_LOOP('',(#166));
#371=FACE_BOUND('',#327,.T.);
#372=FACE_BOUND('',#328,.T.);
#373=FACE_BOUND('',#329,.T.);
#374=FACE_BOUND('',#330,.T.);
#375=FACE_BOUND('',#331,.T.);
#376=FACE_BOUND('',#332,.T.);
#377=FACE_BOUND('',#333,.T.);
#378=FACE_BOUND('',#334,.T.);
#379=FACE_BOUND('',#335,.T.);
#380=FACE_BOUND('',#336,.T.);
#381=FACE_BOUND('',#337,.T.);
#382=FACE_BOUND('',#338,.T.);
#383=FACE_BOUND('',#339,.T.);
#384=FACE_BOUND('',#340,.T.);
#385=FACE_BOUND('',#341,.T.);
#386=FACE_BOUND('',#342,.T.);
#387=FACE_BOUND('',#343,.T.);
#388=FACE_BOUND('',#344,.T.);
#389=FACE_BOUND('',#345,.T.);
#390=FACE_BOUND('',#346,.T.);
#391=FACE_BOUND('',#347,.T.);
#392=FACE_BOUND('',#348,.T.);
#393=FACE_BOUND('',#349,.T.);
#394=FACE_BOUND('',#350,.T.);
#395=FACE_BOUND('',#351,.T.);
#396=FACE_BOUND('',#352,.T.);
#397=FACE_BOUND('',#353,.T.);
#398=FACE_BOUND('',#354,.T.);
#399=FACE_BOUND('',#355,.T.);
#400=FACE_BOUND('',#356,.T.);
#401=FACE_BOUND('',#357,.T.);
#402=FACE_BOUND('',#358,.T.);
#403=FACE_BOUND('',#359,.T.);
#404=FACE_BOUND('',#360,.T.);
#405=FACE_BOUND('',#361,.T.);
#406=FACE_BOUND('',#362,.T.);
#407=FACE_BOUND('',#363,.T.);
#408=FACE_BOUND('',#364,.T.);
#409=FACE_BOUND('',#365,.T.);
#410=FACE_BOUND('',#366,.T.);
#411=FACE_BOUND('',#367,.T.);
#412=FACE_BOUND('',#368,.T.);
#413=FACE_BOUND('',#369,.T.);
#414=FACE_BOUND('',#370,.T.);
#415=PLANE('',#511);
#416=PLANE('',#512);
#417=PLANE('',#513);
#418=PLANE('',#514);
#419=PLANE('',#515);
#420=PLANE('',#516);
#421=PLANE('',#529);
#422=PLANE('',#542);
#423=PLANE('',#543);
#424=PLANE('',#546);
#425=PLANE('',#549);
#426=PLANE('',#553);
#427=PLANE('',#557);
#428=PLANE('',#560);
#429=ADVANCED_FACE('',(#371),#415,.T.);
#430=ADVANCED_FACE('',(#372),#416,.F.);
#431=ADVANCED_FACE('',(#373),#417,.F.);
#432=ADVANCED_FACE('',(#374),#418,.T.);
#433=ADVANCED_FACE('',(#375),#419,.F.);
#434=ADVANCED_FACE('',(#376),#420,.F.);
#435=ADVANCED_FACE('',(#377),#43,.F.);
#436=ADVANCED_FACE('',(#378),#44,.F.);
#437=ADVANCED_FACE('',(#379),#45,.F.);
#438=ADVANCED_FACE('',(#380),#46,.F.);
#439=ADVANCED_FACE('',(#381),#421,.T.);
#440=ADVANCED_FACE('',(#382),#47,.F.);
#441=ADVANCED_FACE('',(#383),#48,.F.);
#442=ADVANCED_FACE('',(#384),#49,.F.);
#443=ADVANCED_FACE('',(#385),#50,.F.);
#444=ADVANCED_FACE('',(#386),#422,.T.);
#445=ADVANCED_FACE('',(#387,#388,#389,#390,#391,#392,#393,#394),#423,.T.);
#446=ADVANCED_FACE('',(#395,#396,#397,#398,#399,#400),#424,.F.);
#447=ADVANCED_FACE('Face appearance 6',(#401,#402),#51,.T.);
#448=ADVANCED_FACE('Face appearance 6',(#403,#404),#425,.T.);
#449=ADVANCED_FACE('Face appearance 6',(#405,#406),#52,.T.);
#450=ADVANCED_FACE('Face appearance 6',(#407,#408),#426,.T.);
#451=ADVANCED_FACE('',(#409,#410),#53,.F.);
#452=ADVANCED_FACE('Face appearance 5',(#411),#427,.T.);
#453=ADVANCED_FACE('Face appearance 6',(#412,#413),#54,.F.);
#454=ADVANCED_FACE('Face appearance 5',(#414),#428,.T.);
#455=CLOSED_SHELL('',(#429,#430,#431,#432,#433,#434,#435,#436,#437,#438,
#439,#440,#441,#442,#443,#444,#445,#446,#447,#448,#449,#450,#451,#452,#453,
#454));
#456=STYLED_ITEM('',(#457),#507);
#457=PRESENTATION_STYLE_ASSIGNMENT((#465));
#458=PRESENTATION_STYLE_ASSIGNMENT((#466));
#459=PRESENTATION_STYLE_ASSIGNMENT((#467));
#460=PRESENTATION_STYLE_ASSIGNMENT((#468));
#461=PRESENTATION_STYLE_ASSIGNMENT((#469));
#462=PRESENTATION_STYLE_ASSIGNMENT((#470));
#463=PRESENTATION_STYLE_ASSIGNMENT((#471));
#464=PRESENTATION_STYLE_ASSIGNMENT((#472));
#465=SURFACE_STYLE_USAGE(.BOTH.,#473);
#466=SURFACE_STYLE_USAGE(.BOTH.,#474);
#467=SURFACE_STYLE_USAGE(.BOTH.,#475);
#468=SURFACE_STYLE_USAGE(.BOTH.,#476);
#469=SURFACE_STYLE_USAGE(.BOTH.,#477);
#470=SURFACE_STYLE_USAGE(.BOTH.,#478);
#471=SURFACE_STYLE_USAGE(.BOTH.,#479);
#472=SURFACE_STYLE_USAGE(.BOTH.,#480);
#473=SURFACE_SIDE_STYLE('',(#481));
#474=SURFACE_SIDE_STYLE('',(#482));
#475=SURFACE_SIDE_STYLE('',(#483));
#476=SURFACE_SIDE_STYLE('',(#484));
#477=SURFACE_SIDE_STYLE('',(#485));
#478=SURFACE_SIDE_STYLE('',(#486));
#479=SURFACE_SIDE_STYLE('',(#487));
#480=SURFACE_SIDE_STYLE('',(#488));
#481=SURFACE_STYLE_FILL_AREA(#489);
#482=SURFACE_STYLE_FILL_AREA(#490);
#483=SURFACE_STYLE_FILL_AREA(#491);
#484=SURFACE_STYLE_FILL_AREA(#492);
#485=SURFACE_STYLE_FILL_AREA(#493);
#486=SURFACE_STYLE_FILL_AREA(#494);
#487=SURFACE_STYLE_FILL_AREA(#495);
#488=SURFACE_STYLE_FILL_AREA(#496);
#489=FILL_AREA_STYLE('',(#497));
#490=FILL_AREA_STYLE('',(#498));
#491=FILL_AREA_STYLE('',(#499));
#492=FILL_AREA_STYLE('',(#500));
#493=FILL_AREA_STYLE('',(#501));
#494=FILL_AREA_STYLE('',(#502));
#495=FILL_AREA_STYLE('',(#503));
#496=FILL_AREA_STYLE('',(#504));
#497=FILL_AREA_STYLE_COLOUR('',#505);
#498=FILL_AREA_STYLE_COLOUR('',#506);
#499=FILL_AREA_STYLE_COLOUR('',#506);
#500=FILL_AREA_STYLE_COLOUR('',#506);
#501=FILL_AREA_STYLE_COLOUR('',#506);
#502=FILL_AREA_STYLE_COLOUR('',#506);
#503=FILL_AREA_STYLE_COLOUR('',#506);
#504=FILL_AREA_STYLE_COLOUR('',#506);
#505=COLOUR_RGB('',0.854901960784314,0.129411764705882,0.137254901960784);
#506=COLOUR_RGB('',0.0823529411764706,0.0862745098039216,0.0862745098039216);
#507=MANIFOLD_SOLID_BREP('Part 7',#455);
#508=SHAPE_DEFINITION_REPRESENTATION(#824,#509);
#509=SHAPE_REPRESENTATION('Part 7',(#510),#819);
#510=AXIS2_PLACEMENT_3D('',#695,#561,#562);
#511=AXIS2_PLACEMENT_3D('',#696,#563,#564);
#512=AXIS2_PLACEMENT_3D('',#705,#569,#570);
#513=AXIS2_PLACEMENT_3D('',#711,#574,#575);
#514=AXIS2_PLACEMENT_3D('',#717,#579,#580);
#515=AXIS2_PLACEMENT_3D('',#726,#585,#586);
#516=AXIS2_PLACEMENT_3D('',#732,#590,#591);
#517=AXIS2_PLACEMENT_3D('',#738,#595,#596);
#518=AXIS2_PLACEMENT_3D('',#739,#597,#598);
#519=AXIS2_PLACEMENT_3D('',#744,#600,#601);
#520=AXIS2_PLACEMENT_3D('',#747,#603,#604);
#521=AXIS2_PLACEMENT_3D('',#748,#605,#606);
#522=AXIS2_PLACEMENT_3D('',#753,#608,#609);
#523=AXIS2_PLACEMENT_3D('',#756,#611,#612);
#524=AXIS2_PLACEMENT_3D('',#757,#613,#614);
#525=AXIS2_PLACEMENT_3D('',#762,#616,#617);
#526=AXIS2_PLACEMENT_3D('',#765,#619,#620);
#527=AXIS2_PLACEMENT_3D('',#766,#621,#622);
#528=AXIS2_PLACEMENT_3D('',#771,#624,#625);
#529=AXIS2_PLACEMENT_3D('',#774,#627,#628);
#530=AXIS2_PLACEMENT_3D('',#777,#631,#632);
#531=AXIS2_PLACEMENT_3D('',#778,#633,#634);
#532=AXIS2_PLACEMENT_3D('',#779,#635,#636);
#533=AXIS2_PLACEMENT_3D('',#780,#637,#638);
#534=AXIS2_PLACEMENT_3D('',#781,#639,#640);
#535=AXIS2_PLACEMENT_3D('',#782,#641,#642);
#536=AXIS2_PLACEMENT_3D('',#783,#643,#644);
#537=AXIS2_PLACEMENT_3D('',#784,#645,#646);
#538=AXIS2_PLACEMENT_3D('',#785,#647,#648);
#539=AXIS2_PLACEMENT_3D('',#786,#649,#650);
#540=AXIS2_PLACEMENT_3D('',#787,#651,#652);
#541=AXIS2_PLACEMENT_3D('',#788,#653,#654);
#542=AXIS2_PLACEMENT_3D('',#789,#655,#656);
#543=AXIS2_PLACEMENT_3D('',#792,#659,#660);
#544=AXIS2_PLACEMENT_3D('',#793,#661,#662);
#545=AXIS2_PLACEMENT_3D('',#795,#663,#664);
#546=AXIS2_PLACEMENT_3D('',#797,#665,#666);
#547=AXIS2_PLACEMENT_3D('',#798,#667,#668);
#548=AXIS2_PLACEMENT_3D('',#799,#669,#670);
#549=AXIS2_PLACEMENT_3D('',#801,#671,#672);
#550=AXIS2_PLACEMENT_3D('',#802,#673,#674);
#551=AXIS2_PLACEMENT_3D('',#804,#675,#676);
#552=AXIS2_PLACEMENT_3D('',#805,#677,#678);
#553=AXIS2_PLACEMENT_3D('',#807,#679,#680);
#554=AXIS2_PLACEMENT_3D('',#808,#681,#682);
#555=AXIS2_PLACEMENT_3D('',#810,#683,#684);
#556=AXIS2_PLACEMENT_3D('',#811,#685,#686);
#557=AXIS2_PLACEMENT_3D('',#813,#687,#688);
#558=AXIS2_PLACEMENT_3D('',#814,#689,#690);
#559=AXIS2_PLACEMENT_3D('',#815,#691,#692);
#560=AXIS2_PLACEMENT_3D('',#817,#693,#694);
#561=DIRECTION('',(0.,0.,1.));
#562=DIRECTION('',(1.,0.,0.));
#563=DIRECTION('',(1.,-4.20279311377465E-32,5.55111512312578E-17));
#564=DIRECTION('',(5.55111512312578E-17,0.,-1.));
#565=DIRECTION('',(-5.05007620551162E-33,-1.,-6.66133814775094E-16));
#566=DIRECTION('',(5.55111512312578E-17,6.66133814775094E-16,-1.));
#567=DIRECTION('',(-5.05007620551162E-33,-1.,-6.66133814775094E-16));
#568=DIRECTION('',(5.55111512312578E-17,6.66133814775094E-16,-1.));
#569=DIRECTION('',(-5.86131355126727E-32,1.,6.66133814775094E-16));
#570=DIRECTION('',(0.,-6.66133814775094E-16,1.));
#571=DIRECTION('',(1.,2.16352805804378E-32,5.55111512312578E-17));
#572=DIRECTION('',(5.55111512312578E-17,6.66133814775094E-16,-1.));
#573=DIRECTION('',(1.,2.16352805804378E-32,5.55111512312578E-17));
#574=DIRECTION('',(1.,-4.20279311377465E-32,5.55111512312578E-17));
#575=DIRECTION('',(5.55111512312578E-17,0.,-1.));
#576=DIRECTION('',(-5.05007620551162E-33,-1.,-6.66133814775094E-16));
#577=DIRECTION('',(5.55111512312578E-17,6.66133814775094E-16,-1.));
#578=DIRECTION('',(-5.05007620551162E-33,-1.,-6.66133814775094E-16));
#579=DIRECTION('',(1.,1.23526972651786E-15,5.55111512312586E-17));
#580=DIRECTION('',(-1.23526972651786E-15,1.,0.));
#581=DIRECTION('',(1.23526972651786E-15,-1.,-6.66133814775094E-16));
#582=DIRECTION('',(5.55111512312578E-17,6.66133814775094E-16,-1.));
#583=DIRECTION('',(1.23526972651786E-15,-1.,-6.66133814775094E-16));
#584=DIRECTION('',(5.55111512312578E-17,6.66133814775094E-16,-1.));
#585=DIRECTION('',(1.13861214791428E-15,-1.,-6.66133814775094E-16));
#586=DIRECTION('',(1.,1.13861214791428E-15,0.));
#587=DIRECTION('',(-1.,-1.13861214791428E-15,-5.55111512312585E-17));
#588=DIRECTION('',(5.55111512312578E-17,6.66133814775094E-16,-1.));
#589=DIRECTION('',(-1.,-1.13861214791428E-15,-5.55111512312585E-17));
#590=DIRECTION('',(1.,1.00601384704006E-15,5.55111512312585E-17));
#591=DIRECTION('',(-1.00601384704006E-15,1.,0.));
#592=DIRECTION('',(1.00601384704006E-15,-1.,-6.66133814775094E-16));
#593=DIRECTION('',(5.55111512312578E-17,6.66133814775094E-16,-1.));
#594=DIRECTION('',(1.00601384704006E-15,-1.,-6.66133814775094E-16));
#595=DIRECTION('',(5.55111512312578E-17,6.66133814775094E-16,-1.));
#596=DIRECTION('',(0.,1.,6.66133814775094E-16));
#597=DIRECTION('',(-5.55111512312578E-17,-6.66133814775094E-16,1.));
#598=DIRECTION('',(0.,-1.,-6.66133814775094E-16));
#599=DIRECTION('',(5.55111512312578E-17,6.66133814775094E-16,-1.));
#600=DIRECTION('',(-5.55111512312578E-17,-6.66133814775094E-16,1.));
#601=DIRECTION('',(0.,-1.,-6.66133814775094E-16));
#602=DIRECTION('',(5.55111512312578E-17,6.66133814775094E-16,-1.));
#603=DIRECTION('',(5.55111512312578E-17,6.66133814775094E-16,-1.));
#604=DIRECTION('',(0.,1.,6.66133814775094E-16));
#605=DIRECTION('',(-5.55111512312578E-17,-6.66133814775094E-16,1.));
#606=DIRECTION('',(0.,-1.,-6.66133814775094E-16));
#607=DIRECTION('',(5.55111512312578E-17,6.66133814775094E-16,-1.));
#608=DIRECTION('',(-5.55111512312578E-17,-6.66133814775094E-16,1.));
#609=DIRECTION('',(0.,-1.,-6.66133814775094E-16));
#610=DIRECTION('',(5.55111512312578E-17,6.66133814775094E-16,-1.));
#611=DIRECTION('',(5.55111512312578E-17,6.66133814775094E-16,-1.));
#612=DIRECTION('',(0.,1.,6.66133814775094E-16));
#613=DIRECTION('',(-5.55111512312578E-17,-6.66133814775094E-16,1.));
#614=DIRECTION('',(0.,-1.,-6.66133814775094E-16));
#615=DIRECTION('',(5.55111512312578E-17,6.66133814775094E-16,-1.));
#616=DIRECTION('',(-5.55111512312578E-17,-6.66133814775094E-16,1.));
#617=DIRECTION('',(0.,-1.,-6.66133814775094E-16));
#618=DIRECTION('',(5.55111512312578E-17,6.66133814775094E-16,-1.));
#619=DIRECTION('',(5.55111512312578E-17,6.66133814775094E-16,-1.));
#620=DIRECTION('',(0.,1.,6.66133814775094E-16));
#621=DIRECTION('',(-5.55111512312578E-17,-6.66133814775094E-16,1.));
#622=DIRECTION('',(0.,-1.,-6.66133814775094E-16));
#623=DIRECTION('',(5.55111512312578E-17,6.66133814775094E-16,-1.));
#624=DIRECTION('',(-5.55111512312578E-17,-6.66133814775094E-16,1.));
#625=DIRECTION('',(0.,-1.,-6.66133814775094E-16));
#626=DIRECTION('',(5.55111512312578E-17,6.66133814775094E-16,-1.));
#627=DIRECTION('',(-1.21365914830467E-16,-1.,-6.66133814775094E-16));
#628=DIRECTION('',(0.,6.66133814775094E-16,-1.));
#629=DIRECTION('',(-1.,1.21365914830467E-16,-5.55111512312577E-17));
#630=DIRECTION('',(-1.,1.21365914830467E-16,-5.55111512312577E-17));
#631=DIRECTION('',(5.55111512312578E-17,6.66133814775094E-16,-1.));
#632=DIRECTION('',(0.,1.,6.66133814775094E-16));
#633=DIRECTION('',(5.55111512312578E-17,6.66133814775094E-16,-1.));
#634=DIRECTION('',(0.,1.,6.66133814775094E-16));
#635=DIRECTION('',(5.55111512312578E-17,6.66133814775094E-16,-1.));
#636=DIRECTION('',(0.,1.,6.66133814775094E-16));
#637=DIRECTION('',(5.55111512312578E-17,6.66133814775094E-16,-1.));
#638=DIRECTION('',(0.,1.,6.66133814775094E-16));
#639=DIRECTION('',(5.55111512312578E-17,6.66133814775094E-16,-1.));
#640=DIRECTION('',(0.,1.,6.66133814775094E-16));
#641=DIRECTION('',(5.55111512312578E-17,6.66133814775094E-16,-1.));
#642=DIRECTION('',(0.,1.,6.66133814775094E-16));
#643=DIRECTION('',(5.55111512312578E-17,6.66133814775094E-16,-1.));
#644=DIRECTION('',(0.,1.,6.66133814775094E-16));
#645=DIRECTION('',(5.55111512312578E-17,6.66133814775094E-16,-1.));
#646=DIRECTION('',(0.,1.,6.66133814775094E-16));
#647=DIRECTION('',(5.55111512312578E-17,6.66133814775094E-16,-1.));
#648=DIRECTION('',(0.,1.,6.66133814775094E-16));
#649=DIRECTION('',(5.55111512312578E-17,6.66133814775094E-16,-1.));
#650=DIRECTION('',(0.,1.,6.66133814775094E-16));
#651=DIRECTION('',(5.55111512312578E-17,6.66133814775094E-16,-1.));
#652=DIRECTION('',(0.,1.,6.66133814775094E-16));
#653=DIRECTION('',(5.55111512312578E-17,6.66133814775094E-16,-1.));
#654=DIRECTION('',(0.,1.,6.66133814775094E-16));
#655=DIRECTION('',(-5.86131355126727E-32,1.,6.66133814775094E-16));
#656=DIRECTION('',(0.,-6.66133814775094E-16,1.));
#657=DIRECTION('',(1.,2.16352805804378E-32,5.55111512312578E-17));
#658=DIRECTION('',(1.,2.16352805804378E-32,5.55111512312578E-17));
#659=DIRECTION('',(-5.55111512312578E-17,-6.66133814775094E-16,1.));
#660=DIRECTION('',(1.,-3.69778549322349E-32,5.55111512312578E-17));
#661=DIRECTION('',(-5.55111512312578E-17,-6.66133814775094E-16,1.));
#662=DIRECTION('',(0.,-1.,-6.66133814775094E-16));
#663=DIRECTION('',(-5.55111512312578E-17,-6.66133814775094E-16,1.));
#664=DIRECTION('',(0.,-1.,-6.66133814775094E-16));
#665=DIRECTION('',(-5.55111512312578E-17,-6.66133814775094E-16,1.));
#666=DIRECTION('',(1.,-3.69778549322349E-32,5.55111512312578E-17));
#667=DIRECTION('',(5.55111512312578E-17,6.66133814775094E-16,-1.));
#668=DIRECTION('',(0.,1.,6.66133814775094E-16));
#669=DIRECTION('',(-5.55111512312578E-17,-6.66133814775094E-16,1.));
#670=DIRECTION('',(0.,-1.,-6.66133814775094E-16));
#671=DIRECTION('',(-5.55111512312578E-17,-6.66133814775094E-16,1.));
#672=DIRECTION('',(1.,-3.69778549322349E-32,5.55111512312578E-17));
#673=DIRECTION('',(-5.55111512312578E-17,-6.66133814775094E-16,1.));
#674=DIRECTION('',(0.,-1.,-6.66133814775094E-16));
#675=DIRECTION('',(5.55111512312578E-17,6.66133814775094E-16,-1.));
#676=DIRECTION('',(0.,1.,6.66133814775094E-16));
#677=DIRECTION('',(-5.55111512312578E-17,-6.66133814775094E-16,1.));
#678=DIRECTION('',(0.,-1.,-6.66133814775094E-16));
#679=DIRECTION('',(-5.55111512312578E-17,-6.66133814775094E-16,1.));
#680=DIRECTION('',(1.,-3.69778549322349E-32,5.55111512312578E-17));
#681=DIRECTION('',(-5.55111512312578E-17,-6.66133814775094E-16,1.));
#682=DIRECTION('',(0.,-1.,-6.66133814775094E-16));
#683=DIRECTION('',(-5.55111512312578E-17,-6.66133814775094E-16,1.));
#684=DIRECTION('',(0.,-1.,-6.66133814775094E-16));
#685=DIRECTION('',(-5.55111512312578E-17,-6.66133814775094E-16,1.));
#686=DIRECTION('',(0.,-1.,-6.66133814775094E-16));
#687=DIRECTION('',(-5.55111512312578E-17,-6.66133814775094E-16,1.));
#688=DIRECTION('',(1.,-3.69778549322349E-32,5.55111512312578E-17));
#689=DIRECTION('',(-5.55111512312578E-17,-6.66133814775094E-16,1.));
#690=DIRECTION('',(0.,-1.,-6.66133814775094E-16));
#691=DIRECTION('',(-5.55111512312578E-17,-6.66133814775094E-16,1.));
#692=DIRECTION('',(0.,-1.,-6.66133814775094E-16));
#693=DIRECTION('',(-5.55111512312578E-17,-6.66133814775094E-16,1.));
#694=DIRECTION('',(1.,-3.69778549322349E-32,5.55111512312578E-17));
#695=CARTESIAN_POINT('',(0.,0.,0.));
#696=CARTESIAN_POINT('',(-0.0310326200279592,0.0233138513424994,-0.0267187982434034));
#697=CARTESIAN_POINT('',(-0.0310326200279592,0.0233138513424994,-0.0297187982434034));
#698=CARTESIAN_POINT('',(-0.0310326200279592,0.0324788513424994,-0.0297187982434034));
#699=CARTESIAN_POINT('',(-0.0310326200279592,0.0141488513424994,-0.0297187982434034));
#700=CARTESIAN_POINT('',(-0.0310326200279592,0.0324788513424994,-0.0267187982434034));
#701=CARTESIAN_POINT('',(-0.0310326200279592,0.0324788513424994,-0.0267187982434034));
#702=CARTESIAN_POINT('',(-0.0310326200279592,0.0233138513424994,-0.0267187982434034));
#703=CARTESIAN_POINT('',(-0.0310326200279592,0.0141488513424994,-0.0267187982434034));
#704=CARTESIAN_POINT('',(-0.0310326200279592,0.0141488513424994,-0.0267187982434034));
#705=CARTESIAN_POINT('',(0.00839737997204083,0.0324788513424994,-0.0267187982434034));
#706=CARTESIAN_POINT('',(0.00839737997204083,0.0324788513424994,-0.0297187982434034));
#707=CARTESIAN_POINT('',(0.0478273799720409,0.0324788513424994,-0.0297187982434034));
#708=CARTESIAN_POINT('',(0.0478273799720409,0.0324788513424994,-0.0267187982434034));
#709=CARTESIAN_POINT('',(0.0478273799720409,0.0324788513424994,-0.0267187982434034));
#710=CARTESIAN_POINT('',(0.00839737997204083,0.0324788513424994,-0.0267187982434034));
#711=CARTESIAN_POINT('',(0.0478273799720409,0.0233138513424994,-0.0267187982434034));
#712=CARTESIAN_POINT('',(0.0478273799720409,0.0233138513424994,-0.0297187982434034));
#713=CARTESIAN_POINT('',(0.0478273799720409,0.0141488513424994,-0.0297187982434034));
#714=CARTESIAN_POINT('',(0.0478273799720409,0.0141488513424994,-0.0267187982434034));
#715=CARTESIAN_POINT('',(0.0478273799720409,0.0141488513424994,-0.0267187982434034));
#716=CARTESIAN_POINT('',(0.0478273799720409,0.0233138513424994,-0.0267187982434034));
#717=CARTESIAN_POINT('',(0.0624973799720408,0.0287709530039691,-0.0267187982434034));
#718=CARTESIAN_POINT('',(0.0624973799720408,0.0287709530039691,-0.0297187982434034));
#719=CARTESIAN_POINT('',(0.0624973799720408,0.0632488513424994,-0.0297187982434034));
#720=CARTESIAN_POINT('',(0.0624973799720409,-0.00572528777420523,-0.0297187982434034));
#721=CARTESIAN_POINT('',(0.0624973799720408,0.0632488513424994,-0.0267187982434034));
#722=CARTESIAN_POINT('',(0.0624973799720408,0.0632488513424994,-0.0267187982434034));
#723=CARTESIAN_POINT('',(0.0624973799720408,0.0287709530039691,-0.0267187982434034));
#724=CARTESIAN_POINT('',(0.0624973799720409,-0.00572528777420523,-0.0267187982434034));
#725=CARTESIAN_POINT('',(0.0624973799720409,-0.00572528777420523,-0.0267187982434034));
#726=CARTESIAN_POINT('',(0.00405072529067601,0.0632488513424994,-0.0267187982434034));
#727=CARTESIAN_POINT('',(0.00405072529067601,0.0632488513424994,-0.0297187982434034));
#728=CARTESIAN_POINT('',(-0.0447026200279593,0.0632488513424993,-0.0297187982434034));
#729=CARTESIAN_POINT('',(-0.0447026200279593,0.0632488513424993,-0.0267187982434034));
#730=CARTESIAN_POINT('',(-0.0447026200279593,0.0632488513424993,-0.0267187982434034));
#731=CARTESIAN_POINT('',(0.00405072529067601,0.0632488513424994,-0.0267187982434034));
#732=CARTESIAN_POINT('',(-0.0447026200279592,0.028761781784147,-0.0267187982434034));
#733=CARTESIAN_POINT('',(-0.0447026200279592,0.028761781784147,-0.0297187982434034));
#734=CARTESIAN_POINT('',(-0.0447026200279593,-0.00572528777420522,-0.0297187982434034));
#735=CARTESIAN_POINT('',(-0.0447026200279593,-0.00572528777420522,-0.0267187982434034));
#736=CARTESIAN_POINT('',(-0.0447026200279593,-0.00572528777420522,-0.0267187982434034));
#737=CARTESIAN_POINT('',(-0.0447026200279592,0.028761781784147,-0.0267187982434034));
#738=CARTESIAN_POINT('',(-0.040101068943739,-0.00108827445395291,-0.0267187982434034));
#739=CARTESIAN_POINT('',(-0.040101068943739,-0.00108827445395291,-0.0297187982434034));
#740=CARTESIAN_POINT('',(-0.0394918884847242,0.00112958468683004,-0.0297187982434034));
#741=CARTESIAN_POINT('',(-0.0406907113651334,-0.00331140778663723,-0.0297187982434034));
#742=CARTESIAN_POINT('',(-0.0394918884847242,0.00112958468683004,-0.0267187982434034));
#743=CARTESIAN_POINT('',(-0.0394918884847242,0.00112958468683004,-0.0267187982434034));
#744=CARTESIAN_POINT('',(-0.040101068943739,-0.00108827445395291,-0.0267187982434034));
#745=CARTESIAN_POINT('',(-0.0406907113651334,-0.00331140778663723,-0.0267187982434034));
#746=CARTESIAN_POINT('',(-0.0406907113651334,-0.00331140778663723,-0.0267187982434034));
#747=CARTESIAN_POINT('',(0.0574027979397774,-0.00108827445395291,-0.0267187982434034));
#748=CARTESIAN_POINT('',(0.0574027979397774,-0.00108827445395291,-0.0297187982434034));
#749=CARTESIAN_POINT('',(0.0596980906555725,-0.000941198457210546,-0.0297187982434034));
#750=CARTESIAN_POINT('',(0.0551087778935161,-0.00125402133130356,-0.0297187982434034));
#751=CARTESIAN_POINT('',(0.0596980906555725,-0.000941198457210548,-0.0267187982434034));
#752=CARTESIAN_POINT('',(0.0596980906555725,-0.000941198457210548,-0.0267187982434034));
#753=CARTESIAN_POINT('',(0.0574027979397774,-0.00108827445395291,-0.0267187982434034));
#754=CARTESIAN_POINT('',(0.0551087778935161,-0.00125402133130356,-0.0267187982434034));
#755=CARTESIAN_POINT('',(0.0551087778935161,-0.00125402133130356,-0.0267187982434034));
#756=CARTESIAN_POINT('',(0.0574027979397774,0.0586548854533161,-0.0267187982434034));
#757=CARTESIAN_POINT('',(0.0574027979397774,0.0586548854533161,-0.0297187982434034));
#758=CARTESIAN_POINT('',(0.0596539213896583,0.059126524312398,-0.0297187982434034));
#759=CARTESIAN_POINT('',(0.0551529471594303,0.0581772124834175,-0.0297187982434034));
#760=CARTESIAN_POINT('',(0.0596539213896583,0.059126524312398,-0.0267187982434034));
#761=CARTESIAN_POINT('',(0.0596539213896583,0.059126524312398,-0.0267187982434034));
#762=CARTESIAN_POINT('',(0.0574027979397774,0.0586548854533161,-0.0267187982434034));
#763=CARTESIAN_POINT('',(0.0551529471594303,0.0581772124834175,-0.0267187982434034));
#764=CARTESIAN_POINT('',(0.0551529471594303,0.0581772124834175,-0.0267187982434034));
#765=CARTESIAN_POINT('',(-0.040101068943739,0.0586548854533161,-0.0267187982434034));
#766=CARTESIAN_POINT('',(-0.040101068943739,0.0586548854533161,-0.0297187982434034));
#767=CARTESIAN_POINT('',(-0.0384998017667588,0.0603059285865885,-0.0297187982434034));
#768=CARTESIAN_POINT('',(-0.0416923470801275,0.0569942127303957,-0.0297187982434034));
#769=CARTESIAN_POINT('',(-0.0384998017667588,0.0603059285865885,-0.0267187982434034));
#770=CARTESIAN_POINT('',(-0.0384998017667588,0.0603059285865885,-0.0267187982434034));
#771=CARTESIAN_POINT('',(-0.040101068943739,0.0586548854533161,-0.0267187982434034));
#772=CARTESIAN_POINT('',(-0.0416923470801275,0.0569942127303957,-0.0267187982434034));
#773=CARTESIAN_POINT('',(-0.0416923470801275,0.0569942127303957,-0.0267187982434034));
#774=CARTESIAN_POINT('',(0.00889737997204079,-0.00572528777420523,-0.0267187982434034));
#775=CARTESIAN_POINT('',(0.00889737997204079,-0.00572528777420523,-0.0297187982434034));
#776=CARTESIAN_POINT('',(0.00889737997204079,-0.00572528777420523,-0.0267187982434034));
#777=CARTESIAN_POINT('',(-0.0400815309061186,-0.00109354864585427,-0.0267187982434034));
#778=CARTESIAN_POINT('',(-0.0400815309061186,-0.00109354864585427,-0.0297187982434034));
#779=CARTESIAN_POINT('',(-0.0400815309061186,-0.00109354864585427,-0.0267187982434034));
#780=CARTESIAN_POINT('',(0.0574040706093113,-0.00110694533456119,-0.0267187982434034));
#781=CARTESIAN_POINT('',(0.0574040706093113,-0.00110694533456119,-0.0297187982434034));
#782=CARTESIAN_POINT('',(0.0574040706093113,-0.00110694533456119,-0.0267187982434034));
#783=CARTESIAN_POINT('',(0.0574040706093113,0.0586488513424994,-0.0267187982434034));
#784=CARTESIAN_POINT('',(0.0574040706093113,0.0586488513424994,-0.0297187982434034));
#785=CARTESIAN_POINT('',(0.0574040706093113,0.0586488513424994,-0.0267187982434034));
#786=CARTESIAN_POINT('',(-0.0400910799031457,0.0586452558636665,-0.0267187982434034));
#787=CARTESIAN_POINT('',(-0.0400910799031457,0.0586452558636665,-0.0297187982434034));
#788=CARTESIAN_POINT('',(-0.0400910799031457,0.0586452558636665,-0.0267187982434034));
#789=CARTESIAN_POINT('',(0.00839737997204083,0.0141488513424994,-0.0267187982434034));
#790=CARTESIAN_POINT('',(0.00839737997204083,0.0141488513424994,-0.0297187982434034));
#791=CARTESIAN_POINT('',(0.00839737997204083,0.0141488513424994,-0.0267187982434034));
#792=CARTESIAN_POINT('',(0.00889737997204082,0.0287617817841471,-0.0267187982434034));
#793=CARTESIAN_POINT('',(0.0418225415050983,0.0480813719332218,-0.0267187982434034));
#794=CARTESIAN_POINT('',(0.0418225415050983,0.0442769500474387,-0.0267187982434034));
#795=CARTESIAN_POINT('',(-0.0256,0.0480813719332218,-0.0267187982434034));
#796=CARTESIAN_POINT('',(-0.0256,0.0442769500474387,-0.0267187982434034));
#797=CARTESIAN_POINT('',(0.00889737997204082,0.0287617817841471,-0.0297187982434034));
#798=CARTESIAN_POINT('',(-0.0256,0.0480813719332218,-0.00171879824340338));
#799=CARTESIAN_POINT('',(-0.0256,0.0480813719332218,-0.00171879824340338));
#800=CARTESIAN_POINT('',(-0.0256,0.0442769500474387,-0.00171879824340338));
#801=CARTESIAN_POINT('',(0.00889737997204082,0.0287617817841471,-0.00171879824340339));
#802=CARTESIAN_POINT('',(-0.0256,0.0480813719332218,-0.00171879824340338));
#803=CARTESIAN_POINT('',(-0.0256,0.0451011505377613,-0.00171879824340338));
#804=CARTESIAN_POINT('',(0.0418225415050983,0.0480813719332218,-0.00171879824340337));
#805=CARTESIAN_POINT('',(0.0418225415050983,0.0480813719332218,-0.00171879824340337));
#806=CARTESIAN_POINT('',(0.0418225415050983,0.0442769500474387,-0.00171879824340337));
#807=CARTESIAN_POINT('',(0.00889737997204082,0.0287617817841471,-0.00171879824340339));
#808=CARTESIAN_POINT('',(0.0418225415050983,0.0480813719332218,-0.00171879824340337));
#809=CARTESIAN_POINT('',(0.0418225415050983,0.0450603594567134,-0.00171879824340337));
#810=CARTESIAN_POINT('',(-0.0256,0.0480813719332218,-0.0267187982434034));
#811=CARTESIAN_POINT('',(-0.0256,0.0480813719332218,-0.0267187982434034));
#812=CARTESIAN_POINT('',(-0.0256,0.0451011505377613,-0.0267187982434034));
#813=CARTESIAN_POINT('',(0.00771956604791183,0.0480813719332218,-0.0267187982434034));
#814=CARTESIAN_POINT('',(0.0418225415050983,0.0480813719332218,-0.0267187982434034));
#815=CARTESIAN_POINT('',(0.0418225415050983,0.0480813719332218,-0.0267187982434034));
#816=CARTESIAN_POINT('',(0.0418225415050983,0.0450603594567134,-0.0267187982434034));
#817=CARTESIAN_POINT('',(0.00771956604791183,0.0480813719332218,-0.0267187982434034));
#818=MECHANICAL_DESIGN_GEOMETRIC_PRESENTATION_REPRESENTATION('',(#456,#12,
#13,#14,#15,#16,#17,#18),#819);
#819=(
GEOMETRIC_REPRESENTATION_CONTEXT(3)
GLOBAL_UNCERTAINTY_ASSIGNED_CONTEXT((#820))
GLOBAL_UNIT_ASSIGNED_CONTEXT((#823,#822,#821))
REPRESENTATION_CONTEXT('Part 7','TOP_LEVEL_ASSEMBLY_PART')
);
#820=UNCERTAINTY_MEASURE_WITH_UNIT(LENGTH_MEASURE(1.E-8),#823,
'DISTANCE_ACCURACY_VALUE','Maximum Tolerance applied to model');
#821=(
NAMED_UNIT(*)
SI_UNIT($,.STERADIAN.)
SOLID_ANGLE_UNIT()
);
#822=(
NAMED_UNIT(*)
PLANE_ANGLE_UNIT()
SI_UNIT($,.RADIAN.)
);
#823=(
LENGTH_UNIT()
NAMED_UNIT(*)
SI_UNIT($,.METRE.)
);
#824=PRODUCT_DEFINITION_SHAPE('','',#825);
#825=PRODUCT_DEFINITION('','',#827,#826);
#826=PRODUCT_DEFINITION_CONTEXT('',#833,'design');
#827=PRODUCT_DEFINITION_FORMATION_WITH_SPECIFIED_SOURCE('','',#829,
 .NOT_KNOWN.);
#828=PRODUCT_RELATED_PRODUCT_CATEGORY('','',(#829));
#829=PRODUCT('Part 7','Part 7','Part 7',(#831));
#830=PRODUCT_CATEGORY('','');
#831=PRODUCT_CONTEXT('',#833,'mechanical');
#832=APPLICATION_PROTOCOL_DEFINITION('international standard',
'ap242_managed_model_based_3d_engineering',2020,#833);
#833=APPLICATION_CONTEXT('managed model based 3d engineering');
ENDSEC;
END-ISO-10303-21;
