ISO-10303-21;
HEADER;
/* Generated by software containing ST-Developer
 * from STEP Tools, Inc. (www.steptools.com) 
 */
/* OPTION: using custom renumber hook */

FILE_DESCRIPTION(
/* description */ ('STEP AP242 Edition 2',
'CAx-IF Rec.Pracs.---Representation and Presentation of Product Manufa
cturing Information (PMI)---4.0---2014-10-13',
'CAx-IF Rec.Pracs.---3D Tessellated Geometry---0.4---2014-09-14','2;1',
'CAx-IF Rec.Pracs.---User Defined Attributes---1.5---2016-08-15'),
/* implementation_level */ '2;1');

FILE_NAME(
/* name */ 'Part Studio 3 - Part 3',
/* time_stamp */ '2026-09-14T01:59:31Z',
/* author */ (''),
/* organization */ (''),
/* preprocessor_version */ 'ST-DEVELOPER v20',
/* originating_system */ 'ONSHAPE BY PTC INC, 1.220',
/* authorisation */ '  ');

FILE_SCHEMA (('AP242_MANAGED_MODEL_BASED_3D_ENGINEERING_MIM_LF { 1 0 10303 442 3 1 4 }'));
ENDSEC;

DATA;
#10=SHAPE_REPRESENTATION_RELATIONSHIP('','',#90,#11);
#11=ADVANCED_BREP_SHAPE_REPRESENTATION('',(#88),#132);
#12=PLANE('',#95);
#13=PLANE('',#99);
#14=ORIENTED_EDGE('',*,*,#22,.F.);
#15=ORIENTED_EDGE('',*,*,#23,.T.);
#16=ORIENTED_EDGE('',*,*,#23,.F.);
#17=ORIENTED_EDGE('',*,*,#24,.T.);
#18=ORIENTED_EDGE('',*,*,#24,.F.);
#19=ORIENTED_EDGE('',*,*,#25,.T.);
#20=ORIENTED_EDGE('',*,*,#22,.T.);
#21=ORIENTED_EDGE('',*,*,#25,.F.);
#22=EDGE_CURVE('',#26,#26,#30,.T.);
#23=EDGE_CURVE('',#27,#27,#31,.T.);
#24=EDGE_CURVE('',#28,#28,#32,.T.);
#25=EDGE_CURVE('',#29,#29,#33,.T.);
#26=VERTEX_POINT('',#121);
#27=VERTEX_POINT('',#123);
#28=VERTEX_POINT('',#126);
#29=VERTEX_POINT('',#129);
#30=CIRCLE('',#93,0.00201795200170522);
#31=CIRCLE('',#94,0.00201795200170522);
#32=CIRCLE('',#96,0.00298022139546047);
#33=CIRCLE('',#98,0.00298022139546047);
#34=EDGE_LOOP('',(#14));
#35=EDGE_LOOP('',(#15));
#36=EDGE_LOOP('',(#16));
#37=EDGE_LOOP('',(#17));
#38=EDGE_LOOP('',(#18));
#39=EDGE_LOOP('',(#19));
#40=EDGE_LOOP('',(#20));
#41=EDGE_LOOP('',(#21));
#42=FACE_BOUND('',#34,.T.);
#43=FACE_BOUND('',#35,.T.);
#44=FACE_BOUND('',#36,.T.);
#45=FACE_BOUND('',#37,.T.);
#46=FACE_BOUND('',#38,.T.);
#47=FACE_BOUND('',#39,.T.);
#48=FACE_BOUND('',#40,.T.);
#49=FACE_BOUND('',#41,.T.);
#50=CYLINDRICAL_SURFACE('',#92,0.00201795200170522);
#51=CYLINDRICAL_SURFACE('',#97,0.00298022139546047);
#52=OVER_RIDING_STYLED_ITEM('',(#62),#55,#60);
#53=OVER_RIDING_STYLED_ITEM('',(#63),#56,#60);
#54=OVER_RIDING_STYLED_ITEM('',(#64),#57,#60);
#55=ADVANCED_FACE('Face appearance 7',(#42,#43),#50,.F.);
#56=ADVANCED_FACE('Face appearance 6',(#44,#45),#12,.T.);
#57=ADVANCED_FACE('Face appearance 6',(#46,#47),#51,.T.);
#58=ADVANCED_FACE('',(#48,#49),#13,.F.);
#59=CLOSED_SHELL('',(#55,#56,#57,#58));
#60=STYLED_ITEM('',(#61),#88);
#61=PRESENTATION_STYLE_ASSIGNMENT((#65));
#62=PRESENTATION_STYLE_ASSIGNMENT((#66));
#63=PRESENTATION_STYLE_ASSIGNMENT((#67));
#64=PRESENTATION_STYLE_ASSIGNMENT((#68));
#65=SURFACE_STYLE_USAGE(.BOTH.,#69);
#66=SURFACE_STYLE_USAGE(.BOTH.,#70);
#67=SURFACE_STYLE_USAGE(.BOTH.,#71);
#68=SURFACE_STYLE_USAGE(.BOTH.,#72);
#69=SURFACE_SIDE_STYLE('',(#73));
#70=SURFACE_SIDE_STYLE('',(#74));
#71=SURFACE_SIDE_STYLE('',(#75));
#72=SURFACE_SIDE_STYLE('',(#76));
#73=SURFACE_STYLE_FILL_AREA(#77);
#74=SURFACE_STYLE_FILL_AREA(#78);
#75=SURFACE_STYLE_FILL_AREA(#79);
#76=SURFACE_STYLE_FILL_AREA(#80);
#77=FILL_AREA_STYLE('',(#81));
#78=FILL_AREA_STYLE('',(#82));
#79=FILL_AREA_STYLE('',(#83));
#80=FILL_AREA_STYLE('',(#84));
#81=FILL_AREA_STYLE_COLOUR('',#85);
#82=FILL_AREA_STYLE_COLOUR('',#86);
#83=FILL_AREA_STYLE_COLOUR('',#87);
#84=FILL_AREA_STYLE_COLOUR('',#87);
#85=COLOUR_RGB('',0.854901960784314,0.129411764705882,0.137254901960784);
#86=COLOUR_RGB('',0.752941176470588,0.12156862745098,0.129411764705882);
#87=COLOUR_RGB('',0.0823529411764706,0.0862745098039216,0.0862745098039216);
#88=MANIFOLD_SOLID_BREP('Part 3',#59);
#89=SHAPE_DEFINITION_REPRESENTATION(#137,#90);
#90=SHAPE_REPRESENTATION('Part 3',(#91),#132);
#91=AXIS2_PLACEMENT_3D('',#118,#100,#101);
#92=AXIS2_PLACEMENT_3D('',#119,#102,#103);
#93=AXIS2_PLACEMENT_3D('',#120,#104,#105);
#94=AXIS2_PLACEMENT_3D('',#122,#106,#107);
#95=AXIS2_PLACEMENT_3D('',#124,#108,#109);
#96=AXIS2_PLACEMENT_3D('',#125,#110,#111);
#97=AXIS2_PLACEMENT_3D('',#127,#112,#113);
#98=AXIS2_PLACEMENT_3D('',#128,#114,#115);
#99=AXIS2_PLACEMENT_3D('',#130,#116,#117);
#100=DIRECTION('',(0.,0.,1.));
#101=DIRECTION('',(1.,0.,0.));
#102=DIRECTION('',(-5.55111512312578E-17,-6.66133814775094E-16,1.));
#103=DIRECTION('',(0.,-1.,-6.66133814775094E-16));
#104=DIRECTION('',(-5.55111512312578E-17,-6.66133814775094E-16,1.));
#105=DIRECTION('',(0.,-1.,-6.66133814775094E-16));
#106=DIRECTION('',(-5.55111512312578E-17,-6.66133814775094E-16,1.));
#107=DIRECTION('',(0.,-1.,-6.66133814775094E-16));
#108=DIRECTION('',(-5.55111512312578E-17,-6.66133814775094E-16,1.));
#109=DIRECTION('',(1.,-3.69778549322349E-32,5.55111512312578E-17));
#110=DIRECTION('',(-5.55111512312578E-17,-6.66133814775094E-16,1.));
#111=DIRECTION('',(0.,-1.,-6.66133814775094E-16));
#112=DIRECTION('',(5.55111512312578E-17,6.66133814775094E-16,-1.));
#113=DIRECTION('',(0.,1.,6.66133814775094E-16));
#114=DIRECTION('',(-5.55111512312578E-17,-6.66133814775094E-16,1.));
#115=DIRECTION('',(0.,-1.,-6.66133814775094E-16));
#116=DIRECTION('',(-5.55111512312578E-17,-6.66133814775094E-16,1.));
#117=DIRECTION('',(1.,-3.69778549322349E-32,5.55111512312578E-17));
#118=CARTESIAN_POINT('',(0.,0.,0.));
#119=CARTESIAN_POINT('',(-0.0256,0.0480813719332218,-0.00171879824340338));
#120=CARTESIAN_POINT('',(-0.0256,0.0480813719332218,-0.00171879824340338));
#121=CARTESIAN_POINT('',(-0.0256,0.0460634199315166,-0.00171879824340338));
#122=CARTESIAN_POINT('',(-0.0256,0.0480813719332218,0.0232812017565967));
#123=CARTESIAN_POINT('',(-0.0256,0.0460634199315166,0.0232812017565967));
#124=CARTESIAN_POINT('',(0.00771956604791182,0.0480813719332218,0.0232812017565967));
#125=CARTESIAN_POINT('',(-0.0256,0.0480813719332218,0.0232812017565967));
#126=CARTESIAN_POINT('',(-0.0256,0.0451011505377613,0.0232812017565966));
#127=CARTESIAN_POINT('',(-0.0256,0.0480813719332218,0.0232812017565967));
#128=CARTESIAN_POINT('',(-0.0256,0.0480813719332218,-0.00171879824340338));
#129=CARTESIAN_POINT('',(-0.0256,0.0451011505377613,-0.00171879824340338));
#130=CARTESIAN_POINT('',(0.00771956604791182,0.0480813719332218,-0.00171879824340337));
#131=MECHANICAL_DESIGN_GEOMETRIC_PRESENTATION_REPRESENTATION('',(#60,#52,
#53,#54),#132);
#132=(
GEOMETRIC_REPRESENTATION_CONTEXT(3)
GLOBAL_UNCERTAINTY_ASSIGNED_CONTEXT((#133))
GLOBAL_UNIT_ASSIGNED_CONTEXT((#136,#135,#134))
REPRESENTATION_CONTEXT('Part 3','TOP_LEVEL_ASSEMBLY_PART')
);
#133=UNCERTAINTY_MEASURE_WITH_UNIT(LENGTH_MEASURE(1.E-8),#136,
'DISTANCE_ACCURACY_VALUE','Maximum Tolerance applied to model');
#134=(
NAMED_UNIT(*)
SI_UNIT($,.STERADIAN.)
SOLID_ANGLE_UNIT()
);
#135=(
NAMED_UNIT(*)
PLANE_ANGLE_UNIT()
SI_UNIT($,.RADIAN.)
);
#136=(
LENGTH_UNIT()
NAMED_UNIT(*)
SI_UNIT($,.METRE.)
);
#137=PRODUCT_DEFINITION_SHAPE('','',#138);
#138=PRODUCT_DEFINITION('','',#140,#139);
#139=PRODUCT_DEFINITION_CONTEXT('',#146,'design');
#140=PRODUCT_DEFINITION_FORMATION_WITH_SPECIFIED_SOURCE('','',#142,
 .NOT_KNOWN.);
#141=PRODUCT_RELATED_PRODUCT_CATEGORY('','',(#142));
#142=PRODUCT('Part 3','Part 3','Part 3',(#144));
#143=PRODUCT_CATEGORY('','');
#144=PRODUCT_CONTEXT('',#146,'mechanical');
#145=APPLICATION_PROTOCOL_DEFINITION('international standard',
'ap242_managed_model_based_3d_engineering',2020,#146);
#146=APPLICATION_CONTEXT('managed model based 3d engineering');
ENDSEC;
END-ISO-10303-21;
