ISO-10303-21;
HEADER;
/* Generated by software containing ST-Developer
 * from STEP Tools, Inc. (www.steptools.com) 
 */
/* OPTION: using custom renumber hook */

FILE_DESCRIPTION(
/* description */ ('STEP AP242 Edition 2',
'CAx-IF Rec.Pracs.---Representation and Presentation of Product Manufa
cturing Information (PMI)---4.0---2014-10-13',
'CAx-IF Rec.Pracs.---3D Tessellated Geometry---0.4---2014-09-14','2;1',
'CAx-IF Rec.Pracs.---User Defined Attributes---1.5---2016-08-15'),
/* implementation_level */ '2;1');

FILE_NAME(
/* name */ 'Part Studio 3 - Part 17',
/* time_stamp */ '2026-09-11T02:36:39Z',
/* author */ (''),
/* organization */ (''),
/* preprocessor_version */ 'ST-DEVELOPER v20',
/* originating_system */ 'ONSHAPE BY PTC INC, 1.220',
/* authorisation */ '  ');

FILE_SCHEMA (('AP242_MANAGED_MODEL_BASED_3D_ENGINEERING_MIM_LF { 1 0 10303 442 3 1 4 }'));
ENDSEC;

DATA;
#10=SHAPE_REPRESENTATION_RELATIONSHIP('','',#183,#11);
#11=ADVANCED_BREP_SHAPE_REPRESENTATION('',(#181),#339);
#12=PLANE('',#188);
#13=PLANE('',#189);
#14=CIRCLE('',#186,0.000408141385833877);
#15=CIRCLE('',#187,0.000408141385833877);
#16=CYLINDRICAL_SURFACE('',#185,0.000408141385833877);
#17=LINE('',#224,#25);
#18=LINE('',#230,#26);
#19=LINE('',#243,#27);
#20=LINE('',#260,#28);
#21=LINE('',#277,#29);
#22=LINE('',#294,#30);
#23=LINE('',#311,#31);
#24=LINE('',#328,#32);
#25=VECTOR('',#192,1.);
#26=VECTOR('',#193,1.);
#27=VECTOR('',#194,1.);
#28=VECTOR('',#195,1.);
#29=VECTOR('',#196,1.);
#30=VECTOR('',#197,1.);
#31=VECTOR('',#198,1.);
#32=VECTOR('',#199,1.);
#33=ORIENTED_EDGE('',*,*,#81,.F.);
#34=ORIENTED_EDGE('',*,*,#82,.F.);
#35=ORIENTED_EDGE('',*,*,#83,.T.);
#36=ORIENTED_EDGE('',*,*,#84,.T.);
#37=ORIENTED_EDGE('',*,*,#85,.F.);
#38=ORIENTED_EDGE('',*,*,#86,.F.);
#39=ORIENTED_EDGE('',*,*,#87,.T.);
#40=ORIENTED_EDGE('',*,*,#82,.T.);
#41=ORIENTED_EDGE('',*,*,#88,.F.);
#42=ORIENTED_EDGE('',*,*,#89,.F.);
#43=ORIENTED_EDGE('',*,*,#90,.T.);
#44=ORIENTED_EDGE('',*,*,#86,.T.);
#45=ORIENTED_EDGE('',*,*,#91,.F.);
#46=ORIENTED_EDGE('',*,*,#92,.F.);
#47=ORIENTED_EDGE('',*,*,#93,.T.);
#48=ORIENTED_EDGE('',*,*,#89,.T.);
#49=ORIENTED_EDGE('',*,*,#94,.F.);
#50=ORIENTED_EDGE('',*,*,#95,.F.);
#51=ORIENTED_EDGE('',*,*,#96,.T.);
#52=ORIENTED_EDGE('',*,*,#92,.T.);
#53=ORIENTED_EDGE('',*,*,#97,.F.);
#54=ORIENTED_EDGE('',*,*,#98,.F.);
#55=ORIENTED_EDGE('',*,*,#99,.T.);
#56=ORIENTED_EDGE('',*,*,#95,.T.);
#57=ORIENTED_EDGE('',*,*,#100,.F.);
#58=ORIENTED_EDGE('',*,*,#101,.F.);
#59=ORIENTED_EDGE('',*,*,#102,.T.);
#60=ORIENTED_EDGE('',*,*,#98,.T.);
#61=ORIENTED_EDGE('',*,*,#103,.F.);
#62=ORIENTED_EDGE('',*,*,#84,.F.);
#63=ORIENTED_EDGE('',*,*,#104,.T.);
#64=ORIENTED_EDGE('',*,*,#101,.T.);
#65=ORIENTED_EDGE('',*,*,#83,.F.);
#66=ORIENTED_EDGE('',*,*,#87,.F.);
#67=ORIENTED_EDGE('',*,*,#90,.F.);
#68=ORIENTED_EDGE('',*,*,#93,.F.);
#69=ORIENTED_EDGE('',*,*,#96,.F.);
#70=ORIENTED_EDGE('',*,*,#99,.F.);
#71=ORIENTED_EDGE('',*,*,#102,.F.);
#72=ORIENTED_EDGE('',*,*,#104,.F.);
#73=ORIENTED_EDGE('',*,*,#81,.T.);
#74=ORIENTED_EDGE('',*,*,#103,.T.);
#75=ORIENTED_EDGE('',*,*,#100,.T.);
#76=ORIENTED_EDGE('',*,*,#97,.T.);
#77=ORIENTED_EDGE('',*,*,#94,.T.);
#78=ORIENTED_EDGE('',*,*,#91,.T.);
#79=ORIENTED_EDGE('',*,*,#88,.T.);
#80=ORIENTED_EDGE('',*,*,#85,.T.);
#81=EDGE_CURVE('',#105,#106,#121,.T.);
#82=EDGE_CURVE('',#107,#105,#17,.T.);
#83=EDGE_CURVE('',#107,#108,#122,.T.);
#84=EDGE_CURVE('',#108,#106,#18,.T.);
#85=EDGE_CURVE('',#109,#105,#123,.T.);
#86=EDGE_CURVE('',#110,#109,#19,.T.);
#87=EDGE_CURVE('',#110,#107,#124,.T.);
#88=EDGE_CURVE('',#111,#109,#125,.T.);
#89=EDGE_CURVE('',#112,#111,#20,.T.);
#90=EDGE_CURVE('',#112,#110,#126,.T.);
#91=EDGE_CURVE('',#113,#111,#127,.T.);
#92=EDGE_CURVE('',#114,#113,#21,.T.);
#93=EDGE_CURVE('',#114,#112,#128,.T.);
#94=EDGE_CURVE('',#115,#113,#129,.T.);
#95=EDGE_CURVE('',#116,#115,#22,.T.);
#96=EDGE_CURVE('',#116,#114,#130,.T.);
#97=EDGE_CURVE('',#117,#115,#131,.T.);
#98=EDGE_CURVE('',#118,#117,#23,.T.);
#99=EDGE_CURVE('',#118,#116,#132,.T.);
#100=EDGE_CURVE('',#119,#117,#133,.T.);
#101=EDGE_CURVE('',#120,#119,#24,.T.);
#102=EDGE_CURVE('',#120,#118,#134,.T.);
#103=EDGE_CURVE('',#106,#119,#14,.T.);
#104=EDGE_CURVE('',#108,#120,#15,.T.);
#105=VERTEX_POINT('',#222);
#106=VERTEX_POINT('',#223);
#107=VERTEX_POINT('',#225);
#108=VERTEX_POINT('',#229);
#109=VERTEX_POINT('',#242);
#110=VERTEX_POINT('',#244);
#111=VERTEX_POINT('',#259);
#112=VERTEX_POINT('',#261);
#113=VERTEX_POINT('',#276);
#114=VERTEX_POINT('',#278);
#115=VERTEX_POINT('',#293);
#116=VERTEX_POINT('',#295);
#117=VERTEX_POINT('',#310);
#118=VERTEX_POINT('',#312);
#119=VERTEX_POINT('',#327);
#120=VERTEX_POINT('',#329);
#121=B_SPLINE_CURVE_WITH_KNOTS('',2,(#219,#220,#221),.UNSPECIFIED.,.F.,
 .F.,(3,3),(0.,1.),.PIECEWISE_BEZIER_KNOTS.);
#122=B_SPLINE_CURVE_WITH_KNOTS('',2,(#226,#227,#228),.UNSPECIFIED.,.F.,
 .F.,(3,3),(0.,1.),.PIECEWISE_BEZIER_KNOTS.);
#123=B_SPLINE_CURVE_WITH_KNOTS('',2,(#239,#240,#241),.UNSPECIFIED.,.F.,
 .F.,(3,3),(0.,1.),.PIECEWISE_BEZIER_KNOTS.);
#124=B_SPLINE_CURVE_WITH_KNOTS('',2,(#245,#246,#247),.UNSPECIFIED.,.F.,
 .F.,(3,3),(0.,1.),.PIECEWISE_BEZIER_KNOTS.);
#125=B_SPLINE_CURVE_WITH_KNOTS('',2,(#256,#257,#258),.UNSPECIFIED.,.F.,
 .F.,(3,3),(0.,1.),.PIECEWISE_BEZIER_KNOTS.);
#126=B_SPLINE_CURVE_WITH_KNOTS('',2,(#262,#263,#264),.UNSPECIFIED.,.F.,
 .F.,(3,3),(0.,1.),.PIECEWISE_BEZIER_KNOTS.);
#127=B_SPLINE_CURVE_WITH_KNOTS('',2,(#273,#274,#275),.UNSPECIFIED.,.F.,
 .F.,(3,3),(0.,1.),.PIECEWISE_BEZIER_KNOTS.);
#128=B_SPLINE_CURVE_WITH_KNOTS('',2,(#279,#280,#281),.UNSPECIFIED.,.F.,
 .F.,(3,3),(0.,1.),.PIECEWISE_BEZIER_KNOTS.);
#129=B_SPLINE_CURVE_WITH_KNOTS('',2,(#290,#291,#292),.UNSPECIFIED.,.F.,
 .F.,(3,3),(0.,1.),.PIECEWISE_BEZIER_KNOTS.);
#130=B_SPLINE_CURVE_WITH_KNOTS('',2,(#296,#297,#298),.UNSPECIFIED.,.F.,
 .F.,(3,3),(0.,1.),.PIECEWISE_BEZIER_KNOTS.);
#131=B_SPLINE_CURVE_WITH_KNOTS('',2,(#307,#308,#309),.UNSPECIFIED.,.F.,
 .F.,(3,3),(0.,1.),.PIECEWISE_BEZIER_KNOTS.);
#132=B_SPLINE_CURVE_WITH_KNOTS('',2,(#313,#314,#315),.UNSPECIFIED.,.F.,
 .F.,(3,3),(0.,1.),.PIECEWISE_BEZIER_KNOTS.);
#133=B_SPLINE_CURVE_WITH_KNOTS('',2,(#324,#325,#326),.UNSPECIFIED.,.F.,
 .F.,(3,3),(0.,1.),.PIECEWISE_BEZIER_KNOTS.);
#134=B_SPLINE_CURVE_WITH_KNOTS('',2,(#330,#331,#332),.UNSPECIFIED.,.F.,
 .F.,(3,3),(0.,1.),.PIECEWISE_BEZIER_KNOTS.);
#135=EDGE_LOOP('',(#33,#34,#35,#36));
#136=EDGE_LOOP('',(#37,#38,#39,#40));
#137=EDGE_LOOP('',(#41,#42,#43,#44));
#138=EDGE_LOOP('',(#45,#46,#47,#48));
#139=EDGE_LOOP('',(#49,#50,#51,#52));
#140=EDGE_LOOP('',(#53,#54,#55,#56));
#141=EDGE_LOOP('',(#57,#58,#59,#60));
#142=EDGE_LOOP('',(#61,#62,#63,#64));
#143=EDGE_LOOP('',(#65,#66,#67,#68,#69,#70,#71,#72));
#144=EDGE_LOOP('',(#73,#74,#75,#76,#77,#78,#79,#80));
#145=FACE_BOUND('',#135,.T.);
#146=FACE_BOUND('',#136,.T.);
#147=FACE_BOUND('',#137,.T.);
#148=FACE_BOUND('',#138,.T.);
#149=FACE_BOUND('',#139,.T.);
#150=FACE_BOUND('',#140,.T.);
#151=FACE_BOUND('',#141,.T.);
#152=FACE_BOUND('',#142,.T.);
#153=FACE_BOUND('',#143,.T.);
#154=FACE_BOUND('',#144,.T.);
#155=B_SPLINE_SURFACE_WITH_KNOTS('',3,1,((#211,#212),(#213,#214),(#215,
#216),(#217,#218)),.SURF_OF_LINEAR_EXTRUSION.,.F.,.F.,.F.,(4,4),(2,2),(0.,
1.),(0.,1.),.PIECEWISE_BEZIER_KNOTS.);
#156=B_SPLINE_SURFACE_WITH_KNOTS('',3,1,((#231,#232),(#233,#234),(#235,
#236),(#237,#238)),.SURF_OF_LINEAR_EXTRUSION.,.F.,.F.,.F.,(4,4),(2,2),(0.,
1.),(0.,1.),.PIECEWISE_BEZIER_KNOTS.);
#157=B_SPLINE_SURFACE_WITH_KNOTS('',3,1,((#248,#249),(#250,#251),(#252,
#253),(#254,#255)),.SURF_OF_LINEAR_EXTRUSION.,.F.,.F.,.F.,(4,4),(2,2),(0.,
1.),(0.,1.),.PIECEWISE_BEZIER_KNOTS.);
#158=B_SPLINE_SURFACE_WITH_KNOTS('',3,1,((#265,#266),(#267,#268),(#269,
#270),(#271,#272)),.SURF_OF_LINEAR_EXTRUSION.,.F.,.F.,.F.,(4,4),(2,2),(0.,
1.),(0.,1.),.PIECEWISE_BEZIER_KNOTS.);
#159=B_SPLINE_SURFACE_WITH_KNOTS('',3,1,((#282,#283),(#284,#285),(#286,
#287),(#288,#289)),.SURF_OF_LINEAR_EXTRUSION.,.F.,.F.,.F.,(4,4),(2,2),(0.,
1.),(0.,1.),.PIECEWISE_BEZIER_KNOTS.);
#160=B_SPLINE_SURFACE_WITH_KNOTS('',3,1,((#299,#300),(#301,#302),(#303,
#304),(#305,#306)),.SURF_OF_LINEAR_EXTRUSION.,.F.,.F.,.F.,(4,4),(2,2),(0.,
1.),(0.,1.),.PIECEWISE_BEZIER_KNOTS.);
#161=B_SPLINE_SURFACE_WITH_KNOTS('',3,1,((#316,#317),(#318,#319),(#320,
#321),(#322,#323)),.SURF_OF_LINEAR_EXTRUSION.,.F.,.F.,.F.,(4,4),(2,2),(0.,
1.),(0.,1.),.PIECEWISE_BEZIER_KNOTS.);
#162=ADVANCED_FACE('',(#145),#155,.T.);
#163=ADVANCED_FACE('',(#146),#156,.T.);
#164=ADVANCED_FACE('',(#147),#157,.T.);
#165=ADVANCED_FACE('',(#148),#158,.T.);
#166=ADVANCED_FACE('',(#149),#159,.T.);
#167=ADVANCED_FACE('',(#150),#160,.T.);
#168=ADVANCED_FACE('',(#151),#161,.T.);
#169=ADVANCED_FACE('',(#152),#16,.T.);
#170=ADVANCED_FACE('',(#153),#12,.T.);
#171=ADVANCED_FACE('',(#154),#13,.F.);
#172=CLOSED_SHELL('',(#162,#163,#164,#165,#166,#167,#168,#169,#170,#171));
#173=STYLED_ITEM('',(#174),#181);
#174=PRESENTATION_STYLE_ASSIGNMENT((#175));
#175=SURFACE_STYLE_USAGE(.BOTH.,#176);
#176=SURFACE_SIDE_STYLE('',(#177));
#177=SURFACE_STYLE_FILL_AREA(#178);
#178=FILL_AREA_STYLE('',(#179));
#179=FILL_AREA_STYLE_COLOUR('',#180);
#180=COLOUR_RGB('',0.854901960784314,0.129411764705882,0.137254901960784);
#181=MANIFOLD_SOLID_BREP('Part 17',#172);
#182=SHAPE_DEFINITION_REPRESENTATION(#344,#183);
#183=SHAPE_REPRESENTATION('Part 17',(#184),#339);
#184=AXIS2_PLACEMENT_3D('',#210,#190,#191);
#185=AXIS2_PLACEMENT_3D('',#333,#200,#201);
#186=AXIS2_PLACEMENT_3D('',#334,#202,#203);
#187=AXIS2_PLACEMENT_3D('',#335,#204,#205);
#188=AXIS2_PLACEMENT_3D('',#336,#206,#207);
#189=AXIS2_PLACEMENT_3D('',#337,#208,#209);
#190=DIRECTION('',(0.,0.,1.));
#191=DIRECTION('',(1.,0.,0.));
#192=DIRECTION('',(-1.,0.,-5.55111512312578E-17));
#193=DIRECTION('',(-1.,0.,-5.55111512312578E-17));
#194=DIRECTION('',(-1.,0.,-5.55111512312578E-17));
#195=DIRECTION('',(-1.,0.,-5.55111512312578E-17));
#196=DIRECTION('',(-1.,0.,-5.55111512312578E-17));
#197=DIRECTION('',(-1.,0.,-5.55111512312578E-17));
#198=DIRECTION('',(-1.,0.,-5.55111512312578E-17));
#199=DIRECTION('',(-1.,0.,-5.55111512312578E-17));
#200=DIRECTION('',(-1.,0.,-5.55111512312578E-17));
#201=DIRECTION('',(0.,-0.35635180155295,-0.934351857455192));
#202=DIRECTION('',(-1.,0.,-5.55111512312578E-17));
#203=DIRECTION('',(-5.55111512312578E-17,0.,1.));
#204=DIRECTION('',(-1.,0.,-5.55111512312578E-17));
#205=DIRECTION('',(-5.55111512312578E-17,0.,1.));
#206=DIRECTION('',(1.,0.,5.55111512312578E-17));
#207=DIRECTION('',(0.,1.,0.));
#208=DIRECTION('',(1.,0.,5.55111512312578E-17));
#209=DIRECTION('',(0.,1.,0.));
#210=CARTESIAN_POINT('',(0.,0.,0.));
#211=CARTESIAN_POINT('',(0.0634973799720409,0.0373268166062507,-0.0626983876171137));
#212=CARTESIAN_POINT('',(0.0624973799720409,0.0373268166062507,-0.0626983876171137));
#213=CARTESIAN_POINT('',(0.0634973799720409,0.037251058245608,-0.0627789268451756));
#214=CARTESIAN_POINT('',(0.0624973799720409,0.037251058245608,-0.0627789268451756));
#215=CARTESIAN_POINT('',(0.0634973799720409,0.0371477179575469,-0.0628191964592065));
#216=CARTESIAN_POINT('',(0.0624973799720409,0.0371477179575469,-0.0628191964592065));
#217=CARTESIAN_POINT('',(0.0634973799720409,0.0370167957420674,-0.0628191964592065));
#218=CARTESIAN_POINT('',(0.0624973799720409,0.0370167957420674,-0.0628191964592065));
#219=CARTESIAN_POINT('',(0.0624973799720409,0.0373268166062507,-0.0626983876171137));
#220=CARTESIAN_POINT('',(0.0624973799720409,0.0372131790652867,-0.0628191964592065));
#221=CARTESIAN_POINT('',(0.0624973799720409,0.0370167957420674,-0.0628191964592065));
#222=CARTESIAN_POINT('',(0.0624973799720409,0.0373268166062507,-0.0626983876171137));
#223=CARTESIAN_POINT('',(0.0624973799720409,0.0370167957420674,-0.0628191964592065));
#224=CARTESIAN_POINT('',(0.0634973799720409,0.0373268166062507,-0.0626983876171137));
#225=CARTESIAN_POINT('',(0.0634973799720409,0.0373268166062507,-0.0626983876171137));
#226=CARTESIAN_POINT('',(0.0634973799720409,0.0373268166062507,-0.0626983876171137));
#227=CARTESIAN_POINT('',(0.0634973799720409,0.0372131790652867,-0.0628191964592065));
#228=CARTESIAN_POINT('',(0.0634973799720409,0.0370167957420674,-0.0628191964592065));
#229=CARTESIAN_POINT('',(0.0634973799720409,0.0370167957420674,-0.0628191964592065));
#230=CARTESIAN_POINT('',(0.0634973799720409,0.0370167957420674,-0.0628191964592065));
#231=CARTESIAN_POINT('',(0.0634973799720409,0.0374404541472146,-0.0623536135243833));
#232=CARTESIAN_POINT('',(0.0624973799720409,0.0374404541472146,-0.0623536135243833));
#233=CARTESIAN_POINT('',(0.0634973799720409,0.0374404541472146,-0.0625029236914751));
#234=CARTESIAN_POINT('',(0.0624973799720409,0.0374404541472146,-0.0625029236914751));
#235=CARTESIAN_POINT('',(0.0634973799720409,0.0374025749668933,-0.0626178483890519));
#236=CARTESIAN_POINT('',(0.0624973799720409,0.0374025749668933,-0.0626178483890519));
#237=CARTESIAN_POINT('',(0.0634973799720409,0.0373268166062507,-0.0626983876171137));
#238=CARTESIAN_POINT('',(0.0624973799720409,0.0373268166062507,-0.0626983876171137));
#239=CARTESIAN_POINT('',(0.0624973799720409,0.0374404541472146,-0.0623536135243833));
#240=CARTESIAN_POINT('',(0.0624973799720409,0.0374404541472146,-0.062577578775021));
#241=CARTESIAN_POINT('',(0.0624973799720409,0.0373268166062507,-0.0626983876171137));
#242=CARTESIAN_POINT('',(0.0624973799720409,0.0374404541472146,-0.0623536135243833));
#243=CARTESIAN_POINT('',(0.0634973799720409,0.0374404541472146,-0.0623536135243833));
#244=CARTESIAN_POINT('',(0.0634973799720409,0.0374404541472146,-0.0623536135243833));
#245=CARTESIAN_POINT('',(0.0634973799720409,0.0374404541472146,-0.0623536135243833));
#246=CARTESIAN_POINT('',(0.0634973799720409,0.0374404541472146,-0.062577578775021));
#247=CARTESIAN_POINT('',(0.0634973799720409,0.0373268166062507,-0.0626983876171137));
#248=CARTESIAN_POINT('',(0.0634973799720409,0.0373284715218958,-0.0620033230461691));
#249=CARTESIAN_POINT('',(0.0624973799720409,0.0373284715218958,-0.0620033230461691));
#250=CARTESIAN_POINT('',(0.0634973799720409,0.0374031266054417,-0.062082391238102));
#251=CARTESIAN_POINT('',(0.0624973799720409,0.0374031266054417,-0.062082391238102));
#252=CARTESIAN_POINT('',(0.0634973799720409,0.0374404541472146,-0.06219915473084));
#253=CARTESIAN_POINT('',(0.0624973799720409,0.0374404541472146,-0.06219915473084));
#254=CARTESIAN_POINT('',(0.0634973799720409,0.0374404541472146,-0.0623536135243833));
#255=CARTESIAN_POINT('',(0.0624973799720409,0.0374404541472146,-0.0623536135243833));
#256=CARTESIAN_POINT('',(0.0624973799720409,0.0373284715218958,-0.0620033230461691));
#257=CARTESIAN_POINT('',(0.0624973799720409,0.0374404541472146,-0.0621219253340684));
#258=CARTESIAN_POINT('',(0.0624973799720409,0.0374404541472146,-0.0623536135243833));
#259=CARTESIAN_POINT('',(0.0624973799720409,0.0373284715218958,-0.0620033230461691));
#260=CARTESIAN_POINT('',(0.0634973799720409,0.0373284715218958,-0.0620033230461691));
#261=CARTESIAN_POINT('',(0.0634973799720409,0.0373284715218958,-0.0620033230461691));
#262=CARTESIAN_POINT('',(0.0634973799720409,0.0373284715218958,-0.0620033230461691));
#263=CARTESIAN_POINT('',(0.0634973799720409,0.0374404541472146,-0.0621219253340684));
#264=CARTESIAN_POINT('',(0.0634973799720409,0.0374404541472146,-0.0623536135243833));
#265=CARTESIAN_POINT('',(0.0634973799720409,0.0370167957420674,-0.0618847207582698));
#266=CARTESIAN_POINT('',(0.0624973799720409,0.0370167957420674,-0.0618847207582698));
#267=CARTESIAN_POINT('',(0.0634973799720409,0.0371499245117404,-0.0618847207582698));
#268=CARTESIAN_POINT('',(0.0624973799720409,0.0371499245117404,-0.0618847207582698));
#269=CARTESIAN_POINT('',(0.0634973799720409,0.0372538164383499,-0.0619242548542362));
#270=CARTESIAN_POINT('',(0.0624973799720409,0.0372538164383499,-0.0619242548542362));
#271=CARTESIAN_POINT('',(0.0634973799720409,0.0373284715218958,-0.0620033230461691));
#272=CARTESIAN_POINT('',(0.0624973799720409,0.0373284715218958,-0.0620033230461691));
#273=CARTESIAN_POINT('',(0.0624973799720409,0.0370167957420674,-0.0618847207582698));
#274=CARTESIAN_POINT('',(0.0624973799720409,0.0372164888965769,-0.0618847207582698));
#275=CARTESIAN_POINT('',(0.0624973799720409,0.0373284715218958,-0.0620033230461691));
#276=CARTESIAN_POINT('',(0.0624973799720409,0.0370167957420674,-0.0618847207582698));
#277=CARTESIAN_POINT('',(0.0634973799720409,0.0370167957420674,-0.0618847207582698));
#278=CARTESIAN_POINT('',(0.0634973799720409,0.0370167957420674,-0.0618847207582698));
#279=CARTESIAN_POINT('',(0.0634973799720409,0.0370167957420674,-0.0618847207582698));
#280=CARTESIAN_POINT('',(0.0634973799720409,0.0372164888965769,-0.0618847207582698));
#281=CARTESIAN_POINT('',(0.0634973799720409,0.0373284715218958,-0.0620033230461691));
#282=CARTESIAN_POINT('',(0.0634973799720409,0.0367150494561097,-0.0620033230461691));
#283=CARTESIAN_POINT('',(0.0624973799720409,0.0367150494561097,-0.0620033230461691));
#284=CARTESIAN_POINT('',(0.0634973799720409,0.0367852914312687,-0.0619242548542362));
#285=CARTESIAN_POINT('',(0.0624973799720409,0.0367852914312687,-0.0619242548542362));
#286=CARTESIAN_POINT('',(0.0634973799720409,0.0368858735265879,-0.0618847207582698));
#287=CARTESIAN_POINT('',(0.0624973799720409,0.0368858735265879,-0.0618847207582698));
#288=CARTESIAN_POINT('',(0.0634973799720409,0.0370167957420674,-0.0618847207582698));
#289=CARTESIAN_POINT('',(0.0624973799720409,0.0370167957420674,-0.0618847207582698));
#290=CARTESIAN_POINT('',(0.0624973799720409,0.0367150494561097,-0.0620033230461691));
#291=CARTESIAN_POINT('',(0.0624973799720409,0.0368204124188482,-0.0618847207582698));
#292=CARTESIAN_POINT('',(0.0624973799720409,0.0370167957420674,-0.0618847207582698));
#293=CARTESIAN_POINT('',(0.0624973799720409,0.0367150494561097,-0.0620033230461691));
#294=CARTESIAN_POINT('',(0.0634973799720409,0.0367150494561097,-0.0620033230461691));
#295=CARTESIAN_POINT('',(0.0634973799720409,0.0367150494561097,-0.0620033230461691));
#296=CARTESIAN_POINT('',(0.0634973799720409,0.0367150494561097,-0.0620033230461691));
#297=CARTESIAN_POINT('',(0.0634973799720409,0.0368204124188482,-0.0618847207582698));
#298=CARTESIAN_POINT('',(0.0634973799720409,0.0370167957420674,-0.0618847207582698));
#299=CARTESIAN_POINT('',(0.0634973799720409,0.0366096864933713,-0.0623536135243833));
#300=CARTESIAN_POINT('',(0.0624973799720409,0.0366096864933713,-0.0623536135243833));
#301=CARTESIAN_POINT('',(0.0634973799720409,0.0366096864933713,-0.06219915473084));
#302=CARTESIAN_POINT('',(0.0624973799720409,0.0366096864933713,-0.06219915473084));
#303=CARTESIAN_POINT('',(0.0634973799720409,0.0366448074809508,-0.062082391238102));
#304=CARTESIAN_POINT('',(0.0624973799720409,0.0366448074809508,-0.062082391238102));
#305=CARTESIAN_POINT('',(0.0634973799720409,0.0367150494561097,-0.0620033230461691));
#306=CARTESIAN_POINT('',(0.0624973799720409,0.0367150494561097,-0.0620033230461691));
#307=CARTESIAN_POINT('',(0.0624973799720409,0.0366096864933713,-0.0623536135243833));
#308=CARTESIAN_POINT('',(0.0624973799720409,0.0366096864933713,-0.0621219253340684));
#309=CARTESIAN_POINT('',(0.0624973799720409,0.0367150494561097,-0.0620033230461691));
#310=CARTESIAN_POINT('',(0.0624973799720409,0.0366096864933713,-0.0623536135243833));
#311=CARTESIAN_POINT('',(0.0634973799720409,0.0366096864933713,-0.0623536135243833));
#312=CARTESIAN_POINT('',(0.0634973799720409,0.0366096864933713,-0.0623536135243833));
#313=CARTESIAN_POINT('',(0.0634973799720409,0.0366096864933713,-0.0623536135243833));
#314=CARTESIAN_POINT('',(0.0634973799720409,0.0366096864933713,-0.0621219253340684));
#315=CARTESIAN_POINT('',(0.0634973799720409,0.0367150494561097,-0.0620033230461691));
#316=CARTESIAN_POINT('',(0.0634973799720409,0.0367249789499803,-0.0627105236651779));
#317=CARTESIAN_POINT('',(0.0624973799720409,0.0367249789499803,-0.0627105236651779));
#318=CARTESIAN_POINT('',(0.0634973799720409,0.036648117312241,-0.0626380751358254));
#319=CARTESIAN_POINT('',(0.0624973799720409,0.036648117312241,-0.0626380751358254));
#320=CARTESIAN_POINT('',(0.0634973799720409,0.0366096864933713,-0.0625191050888939));
#321=CARTESIAN_POINT('',(0.0624973799720409,0.0366096864933713,-0.0625191050888939));
#322=CARTESIAN_POINT('',(0.0634973799720409,0.0366096864933713,-0.0623536135243833));
#323=CARTESIAN_POINT('',(0.0624973799720409,0.0366096864933713,-0.0623536135243833));
#324=CARTESIAN_POINT('',(0.0624973799720409,0.0367249789499803,-0.0627105236651779));
#325=CARTESIAN_POINT('',(0.0624973799720409,0.0366096864933713,-0.0626018508711492));
#326=CARTESIAN_POINT('',(0.0624973799720409,0.0366096864933713,-0.0623536135243833));
#327=CARTESIAN_POINT('',(0.0624973799720409,0.0367249789499803,-0.0627105236651779));
#328=CARTESIAN_POINT('',(0.0634973799720409,0.0367249789499803,-0.0627105236651779));
#329=CARTESIAN_POINT('',(0.0634973799720409,0.0367249789499803,-0.0627105236651779));
#330=CARTESIAN_POINT('',(0.0634973799720409,0.0367249789499803,-0.0627105236651779));
#331=CARTESIAN_POINT('',(0.0634973799720409,0.0366096864933713,-0.0626018508711492));
#332=CARTESIAN_POINT('',(0.0634973799720409,0.0366096864933713,-0.0623536135243833));
#333=CARTESIAN_POINT('',(0.0634973799720409,0.0370010692274815,-0.0624105549186433));
#334=CARTESIAN_POINT('',(0.0624973799720409,0.0370010692274815,-0.0624105549186433));
#335=CARTESIAN_POINT('',(0.0634973799720409,0.0370010692274815,-0.0624105549186433));
#336=CARTESIAN_POINT('',(0.0634973799720409,0.0287617817841471,-0.0462689973513049));
#337=CARTESIAN_POINT('',(0.0624973799720409,0.0287617817841471,-0.0462689973513049));
#338=MECHANICAL_DESIGN_GEOMETRIC_PRESENTATION_REPRESENTATION('',(#173),
#339);
#339=(
GEOMETRIC_REPRESENTATION_CONTEXT(3)
GLOBAL_UNCERTAINTY_ASSIGNED_CONTEXT((#340))
GLOBAL_UNIT_ASSIGNED_CONTEXT((#343,#342,#341))
REPRESENTATION_CONTEXT('Part 17','TOP_LEVEL_ASSEMBLY_PART')
);
#340=UNCERTAINTY_MEASURE_WITH_UNIT(LENGTH_MEASURE(2.E-5),#343,
'DISTANCE_ACCURACY_VALUE','Maximum Tolerance applied to model');
#341=(
NAMED_UNIT(*)
SI_UNIT($,.STERADIAN.)
SOLID_ANGLE_UNIT()
);
#342=(
NAMED_UNIT(*)
PLANE_ANGLE_UNIT()
SI_UNIT($,.RADIAN.)
);
#343=(
LENGTH_UNIT()
NAMED_UNIT(*)
SI_UNIT($,.METRE.)
);
#344=PRODUCT_DEFINITION_SHAPE('','',#345);
#345=PRODUCT_DEFINITION('','',#347,#346);
#346=PRODUCT_DEFINITION_CONTEXT('',#353,'design');
#347=PRODUCT_DEFINITION_FORMATION_WITH_SPECIFIED_SOURCE('','',#349,
 .NOT_KNOWN.);
#348=PRODUCT_RELATED_PRODUCT_CATEGORY('','',(#349));
#349=PRODUCT('Part 17','Part 17','Part 17',(#351));
#350=PRODUCT_CATEGORY('','');
#351=PRODUCT_CONTEXT('',#353,'mechanical');
#352=APPLICATION_PROTOCOL_DEFINITION('international standard',
'ap242_managed_model_based_3d_engineering',2020,#353);
#353=APPLICATION_CONTEXT('managed model based 3d engineering');
ENDSEC;
END-ISO-10303-21;
