ISO-10303-21;
HEADER;
/* Generated by software containing ST-Developer
 * from STEP Tools, Inc. (www.steptools.com) 
 */
/* OPTION: using custom renumber hook */

FILE_DESCRIPTION(
/* description */ ('STEP AP242 Edition 2',
'CAx-IF Rec.Pracs.---Representation and Presentation of Product Manufa
cturing Information (PMI)---4.0---2014-10-13',
'CAx-IF Rec.Pracs.---3D Tessellated Geometry---0.4---2014-09-14','2;1',
'CAx-IF Rec.Pracs.---User Defined Attributes---1.5---2016-08-15'),
/* implementation_level */ '2;1');

FILE_NAME(
/* name */ 'Part Studio 3 - Part 14',
/* time_stamp */ '2026-09-11T02:36:13Z',
/* author */ (''),
/* organization */ (''),
/* preprocessor_version */ 'ST-DEVELOPER v20',
/* originating_system */ 'ONSHAPE BY PTC INC, 1.220',
/* authorisation */ '  ');

FILE_SCHEMA (('AP242_MANAGED_MODEL_BASED_3D_ENGINEERING_MIM_LF { 1 0 10303 442 3 1 4 }'));
ENDSEC;

DATA;
#10=SHAPE_REPRESENTATION_RELATIONSHIP('','',#241,#11);
#11=ADVANCED_BREP_SHAPE_REPRESENTATION('',(#239),#375);
#12=ORIENTED_EDGE('',*,*,#72,.F.);
#13=ORIENTED_EDGE('',*,*,#73,.F.);
#14=ORIENTED_EDGE('',*,*,#74,.T.);
#15=ORIENTED_EDGE('',*,*,#75,.T.);
#16=ORIENTED_EDGE('',*,*,#76,.F.);
#17=ORIENTED_EDGE('',*,*,#77,.F.);
#18=ORIENTED_EDGE('',*,*,#78,.T.);
#19=ORIENTED_EDGE('',*,*,#73,.T.);
#20=ORIENTED_EDGE('',*,*,#79,.F.);
#21=ORIENTED_EDGE('',*,*,#80,.F.);
#22=ORIENTED_EDGE('',*,*,#81,.T.);
#23=ORIENTED_EDGE('',*,*,#77,.T.);
#24=ORIENTED_EDGE('',*,*,#82,.F.);
#25=ORIENTED_EDGE('',*,*,#83,.F.);
#26=ORIENTED_EDGE('',*,*,#84,.T.);
#27=ORIENTED_EDGE('',*,*,#80,.T.);
#28=ORIENTED_EDGE('',*,*,#85,.F.);
#29=ORIENTED_EDGE('',*,*,#86,.F.);
#30=ORIENTED_EDGE('',*,*,#87,.T.);
#31=ORIENTED_EDGE('',*,*,#83,.T.);
#32=ORIENTED_EDGE('',*,*,#88,.F.);
#33=ORIENTED_EDGE('',*,*,#89,.F.);
#34=ORIENTED_EDGE('',*,*,#90,.T.);
#35=ORIENTED_EDGE('',*,*,#86,.T.);
#36=ORIENTED_EDGE('',*,*,#91,.F.);
#37=ORIENTED_EDGE('',*,*,#92,.F.);
#38=ORIENTED_EDGE('',*,*,#93,.T.);
#39=ORIENTED_EDGE('',*,*,#89,.T.);
#40=ORIENTED_EDGE('',*,*,#94,.F.);
#41=ORIENTED_EDGE('',*,*,#95,.F.);
#42=ORIENTED_EDGE('',*,*,#96,.T.);
#43=ORIENTED_EDGE('',*,*,#92,.T.);
#44=ORIENTED_EDGE('',*,*,#97,.F.);
#45=ORIENTED_EDGE('',*,*,#98,.F.);
#46=ORIENTED_EDGE('',*,*,#99,.T.);
#47=ORIENTED_EDGE('',*,*,#95,.T.);
#48=ORIENTED_EDGE('',*,*,#100,.F.);
#49=ORIENTED_EDGE('',*,*,#75,.F.);
#50=ORIENTED_EDGE('',*,*,#101,.T.);
#51=ORIENTED_EDGE('',*,*,#98,.T.);
#52=ORIENTED_EDGE('',*,*,#74,.F.);
#53=ORIENTED_EDGE('',*,*,#78,.F.);
#54=ORIENTED_EDGE('',*,*,#81,.F.);
#55=ORIENTED_EDGE('',*,*,#84,.F.);
#56=ORIENTED_EDGE('',*,*,#87,.F.);
#57=ORIENTED_EDGE('',*,*,#90,.F.);
#58=ORIENTED_EDGE('',*,*,#93,.F.);
#59=ORIENTED_EDGE('',*,*,#96,.F.);
#60=ORIENTED_EDGE('',*,*,#99,.F.);
#61=ORIENTED_EDGE('',*,*,#101,.F.);
#62=ORIENTED_EDGE('',*,*,#72,.T.);
#63=ORIENTED_EDGE('',*,*,#100,.T.);
#64=ORIENTED_EDGE('',*,*,#97,.T.);
#65=ORIENTED_EDGE('',*,*,#94,.T.);
#66=ORIENTED_EDGE('',*,*,#91,.T.);
#67=ORIENTED_EDGE('',*,*,#88,.T.);
#68=ORIENTED_EDGE('',*,*,#85,.T.);
#69=ORIENTED_EDGE('',*,*,#82,.T.);
#70=ORIENTED_EDGE('',*,*,#79,.T.);
#71=ORIENTED_EDGE('',*,*,#76,.T.);
#72=EDGE_CURVE('',#102,#103,#122,.T.);
#73=EDGE_CURVE('',#104,#102,#123,.T.);
#74=EDGE_CURVE('',#104,#105,#124,.T.);
#75=EDGE_CURVE('',#105,#103,#125,.T.);
#76=EDGE_CURVE('',#106,#102,#126,.T.);
#77=EDGE_CURVE('',#107,#106,#127,.T.);
#78=EDGE_CURVE('',#107,#104,#128,.T.);
#79=EDGE_CURVE('',#108,#106,#129,.T.);
#80=EDGE_CURVE('',#109,#108,#130,.T.);
#81=EDGE_CURVE('',#109,#107,#131,.T.);
#82=EDGE_CURVE('',#110,#108,#132,.T.);
#83=EDGE_CURVE('',#111,#110,#133,.T.);
#84=EDGE_CURVE('',#111,#109,#134,.T.);
#85=EDGE_CURVE('',#112,#110,#135,.T.);
#86=EDGE_CURVE('',#113,#112,#136,.T.);
#87=EDGE_CURVE('',#113,#111,#137,.T.);
#88=EDGE_CURVE('',#114,#112,#138,.T.);
#89=EDGE_CURVE('',#115,#114,#139,.T.);
#90=EDGE_CURVE('',#115,#113,#140,.T.);
#91=EDGE_CURVE('',#116,#114,#141,.T.);
#92=EDGE_CURVE('',#117,#116,#142,.T.);
#93=EDGE_CURVE('',#117,#115,#143,.T.);
#94=EDGE_CURVE('',#118,#116,#144,.T.);
#95=EDGE_CURVE('',#119,#118,#145,.T.);
#96=EDGE_CURVE('',#119,#117,#146,.T.);
#97=EDGE_CURVE('',#120,#118,#147,.T.);
#98=EDGE_CURVE('',#121,#120,#148,.T.);
#99=EDGE_CURVE('',#121,#119,#149,.T.);
#100=EDGE_CURVE('',#103,#120,#150,.T.);
#101=EDGE_CURVE('',#105,#121,#151,.T.);
#102=VERTEX_POINT('',#314);
#103=VERTEX_POINT('',#315);
#104=VERTEX_POINT('',#317);
#105=VERTEX_POINT('',#319);
#106=VERTEX_POINT('',#323);
#107=VERTEX_POINT('',#325);
#108=VERTEX_POINT('',#329);
#109=VERTEX_POINT('',#331);
#110=VERTEX_POINT('',#335);
#111=VERTEX_POINT('',#337);
#112=VERTEX_POINT('',#341);
#113=VERTEX_POINT('',#343);
#114=VERTEX_POINT('',#347);
#115=VERTEX_POINT('',#349);
#116=VERTEX_POINT('',#353);
#117=VERTEX_POINT('',#355);
#118=VERTEX_POINT('',#359);
#119=VERTEX_POINT('',#361);
#120=VERTEX_POINT('',#365);
#121=VERTEX_POINT('',#367);
#122=LINE('',#313,#152);
#123=LINE('',#316,#153);
#124=LINE('',#318,#154);
#125=LINE('',#320,#155);
#126=LINE('',#322,#156);
#127=LINE('',#324,#157);
#128=LINE('',#326,#158);
#129=LINE('',#328,#159);
#130=LINE('',#330,#160);
#131=LINE('',#332,#161);
#132=LINE('',#334,#162);
#133=LINE('',#336,#163);
#134=LINE('',#338,#164);
#135=LINE('',#340,#165);
#136=LINE('',#342,#166);
#137=LINE('',#344,#167);
#138=LINE('',#346,#168);
#139=LINE('',#348,#169);
#140=LINE('',#350,#170);
#141=LINE('',#352,#171);
#142=LINE('',#354,#172);
#143=LINE('',#356,#173);
#144=LINE('',#358,#174);
#145=LINE('',#360,#175);
#146=LINE('',#362,#176);
#147=LINE('',#364,#177);
#148=LINE('',#366,#178);
#149=LINE('',#368,#179);
#150=LINE('',#370,#180);
#151=LINE('',#371,#181);
#152=VECTOR('',#259,1.);
#153=VECTOR('',#260,1.);
#154=VECTOR('',#261,1.);
#155=VECTOR('',#262,1.);
#156=VECTOR('',#265,1.);
#157=VECTOR('',#266,1.);
#158=VECTOR('',#267,1.);
#159=VECTOR('',#270,1.);
#160=VECTOR('',#271,1.);
#161=VECTOR('',#272,1.);
#162=VECTOR('',#275,1.);
#163=VECTOR('',#276,1.);
#164=VECTOR('',#277,1.);
#165=VECTOR('',#280,1.);
#166=VECTOR('',#281,1.);
#167=VECTOR('',#282,1.);
#168=VECTOR('',#285,1.);
#169=VECTOR('',#286,1.);
#170=VECTOR('',#287,1.);
#171=VECTOR('',#290,1.);
#172=VECTOR('',#291,1.);
#173=VECTOR('',#292,1.);
#174=VECTOR('',#295,1.);
#175=VECTOR('',#296,1.);
#176=VECTOR('',#297,1.);
#177=VECTOR('',#300,1.);
#178=VECTOR('',#301,1.);
#179=VECTOR('',#302,1.);
#180=VECTOR('',#305,1.);
#181=VECTOR('',#306,1.);
#182=EDGE_LOOP('',(#12,#13,#14,#15));
#183=EDGE_LOOP('',(#16,#17,#18,#19));
#184=EDGE_LOOP('',(#20,#21,#22,#23));
#185=EDGE_LOOP('',(#24,#25,#26,#27));
#186=EDGE_LOOP('',(#28,#29,#30,#31));
#187=EDGE_LOOP('',(#32,#33,#34,#35));
#188=EDGE_LOOP('',(#36,#37,#38,#39));
#189=EDGE_LOOP('',(#40,#41,#42,#43));
#190=EDGE_LOOP('',(#44,#45,#46,#47));
#191=EDGE_LOOP('',(#48,#49,#50,#51));
#192=EDGE_LOOP('',(#52,#53,#54,#55,#56,#57,#58,#59,#60,#61));
#193=EDGE_LOOP('',(#62,#63,#64,#65,#66,#67,#68,#69,#70,#71));
#194=FACE_BOUND('',#182,.T.);
#195=FACE_BOUND('',#183,.T.);
#196=FACE_BOUND('',#184,.T.);
#197=FACE_BOUND('',#185,.T.);
#198=FACE_BOUND('',#186,.T.);
#199=FACE_BOUND('',#187,.T.);
#200=FACE_BOUND('',#188,.T.);
#201=FACE_BOUND('',#189,.T.);
#202=FACE_BOUND('',#190,.T.);
#203=FACE_BOUND('',#191,.T.);
#204=FACE_BOUND('',#192,.T.);
#205=FACE_BOUND('',#193,.T.);
#206=PLANE('',#243);
#207=PLANE('',#244);
#208=PLANE('',#245);
#209=PLANE('',#246);
#210=PLANE('',#247);
#211=PLANE('',#248);
#212=PLANE('',#249);
#213=PLANE('',#250);
#214=PLANE('',#251);
#215=PLANE('',#252);
#216=PLANE('',#253);
#217=PLANE('',#254);
#218=ADVANCED_FACE('',(#194),#206,.T.);
#219=ADVANCED_FACE('',(#195),#207,.T.);
#220=ADVANCED_FACE('',(#196),#208,.T.);
#221=ADVANCED_FACE('',(#197),#209,.T.);
#222=ADVANCED_FACE('',(#198),#210,.T.);
#223=ADVANCED_FACE('',(#199),#211,.T.);
#224=ADVANCED_FACE('',(#200),#212,.T.);
#225=ADVANCED_FACE('',(#201),#213,.T.);
#226=ADVANCED_FACE('',(#202),#214,.T.);
#227=ADVANCED_FACE('',(#203),#215,.T.);
#228=ADVANCED_FACE('',(#204),#216,.T.);
#229=ADVANCED_FACE('',(#205),#217,.F.);
#230=CLOSED_SHELL('',(#218,#219,#220,#221,#222,#223,#224,#225,#226,#227,
#228,#229));
#231=STYLED_ITEM('',(#232),#239);
#232=PRESENTATION_STYLE_ASSIGNMENT((#233));
#233=SURFACE_STYLE_USAGE(.BOTH.,#234);
#234=SURFACE_SIDE_STYLE('',(#235));
#235=SURFACE_STYLE_FILL_AREA(#236);
#236=FILL_AREA_STYLE('',(#237));
#237=FILL_AREA_STYLE_COLOUR('',#238);
#238=COLOUR_RGB('',0.854901960784314,0.129411764705882,0.137254901960784);
#239=MANIFOLD_SOLID_BREP('Part 14',#230);
#240=SHAPE_DEFINITION_REPRESENTATION(#380,#241);
#241=SHAPE_REPRESENTATION('Part 14',(#242),#375);
#242=AXIS2_PLACEMENT_3D('',#311,#255,#256);
#243=AXIS2_PLACEMENT_3D('',#312,#257,#258);
#244=AXIS2_PLACEMENT_3D('',#321,#263,#264);
#245=AXIS2_PLACEMENT_3D('',#327,#268,#269);
#246=AXIS2_PLACEMENT_3D('',#333,#273,#274);
#247=AXIS2_PLACEMENT_3D('',#339,#278,#279);
#248=AXIS2_PLACEMENT_3D('',#345,#283,#284);
#249=AXIS2_PLACEMENT_3D('',#351,#288,#289);
#250=AXIS2_PLACEMENT_3D('',#357,#293,#294);
#251=AXIS2_PLACEMENT_3D('',#363,#298,#299);
#252=AXIS2_PLACEMENT_3D('',#369,#303,#304);
#253=AXIS2_PLACEMENT_3D('',#372,#307,#308);
#254=AXIS2_PLACEMENT_3D('',#373,#309,#310);
#255=DIRECTION('',(0.,0.,1.));
#256=DIRECTION('',(1.,0.,0.));
#257=DIRECTION('',(0.,-1.,0.));
#258=DIRECTION('',(0.,0.,-1.));
#259=DIRECTION('',(-5.55111512312578E-17,0.,1.));
#260=DIRECTION('',(-1.,0.,-5.55111512312578E-17));
#261=DIRECTION('',(-5.55111512312578E-17,0.,1.));
#262=DIRECTION('',(-1.,0.,-5.55111512312578E-17));
#263=DIRECTION('',(5.55111512312578E-17,6.66133814775094E-16,-1.));
#264=DIRECTION('',(0.,1.,6.66133814775094E-16));
#265=DIRECTION('',(3.69778549322349E-32,-1.,-6.66133814775094E-16));
#266=DIRECTION('',(-1.,0.,-5.55111512312578E-17));
#267=DIRECTION('',(3.69778549322349E-32,-1.,-6.66133814775094E-16));
#268=DIRECTION('',(0.,1.,0.));
#269=DIRECTION('',(0.,0.,1.));
#270=DIRECTION('',(5.55111512312578E-17,0.,-1.));
#271=DIRECTION('',(-1.,0.,-5.55111512312578E-17));
#272=DIRECTION('',(5.55111512312578E-17,0.,-1.));
#273=DIRECTION('',(-5.55111512312578E-17,0.,1.));
#274=DIRECTION('',(1.,0.,5.55111512312578E-17));
#275=DIRECTION('',(0.,1.,0.));
#276=DIRECTION('',(-1.,0.,-5.55111512312578E-17));
#277=DIRECTION('',(0.,1.,0.));
#278=DIRECTION('',(3.19578913900626E-17,0.817659456773378,-0.575702191023332));
#279=DIRECTION('',(0.,0.575702191023332,0.817659456773378));
#280=DIRECTION('',(4.5389217760615E-17,-0.575702191023332,-0.817659456773378));
#281=DIRECTION('',(-1.,0.,-5.55111512312578E-17));
#282=DIRECTION('',(4.5389217760615E-17,-0.575702191023332,-0.817659456773378));
#283=DIRECTION('',(0.,1.,0.));
#284=DIRECTION('',(0.,0.,1.));
#285=DIRECTION('',(5.55111512312578E-17,0.,-1.));
#286=DIRECTION('',(-1.,0.,-5.55111512312578E-17));
#287=DIRECTION('',(5.55111512312578E-17,0.,-1.));
#288=DIRECTION('',(-5.55111512312578E-17,0.,1.));
#289=DIRECTION('',(1.,0.,5.55111512312578E-17));
#290=DIRECTION('',(0.,1.,0.));
#291=DIRECTION('',(-1.,0.,-5.55111512312578E-17));
#292=DIRECTION('',(0.,1.,0.));
#293=DIRECTION('',(0.,-1.,0.));
#294=DIRECTION('',(0.,0.,-1.));
#295=DIRECTION('',(-5.55111512312578E-17,0.,1.));
#296=DIRECTION('',(-1.,0.,-5.55111512312578E-17));
#297=DIRECTION('',(-5.55111512312578E-17,0.,1.));
#298=DIRECTION('',(5.55111512312578E-17,0.,-1.));
#299=DIRECTION('',(-1.,0.,-5.55111512312578E-17));
#300=DIRECTION('',(0.,-1.,0.));
#301=DIRECTION('',(-1.,0.,-5.55111512312578E-17));
#302=DIRECTION('',(0.,-1.,0.));
#303=DIRECTION('',(-3.18415582405837E-17,-0.819130979151988,0.573606519308756));
#304=DIRECTION('',(0.,-0.573606519308756,-0.819130979151988));
#305=DIRECTION('',(-4.54709036619142E-17,0.573606519308756,0.819130979151988));
#306=DIRECTION('',(-4.54709036619142E-17,0.573606519308756,0.819130979151988));
#307=DIRECTION('',(1.,0.,5.55111512312578E-17));
#308=DIRECTION('',(0.,1.,0.));
#309=DIRECTION('',(1.,0.,5.55111512312578E-17));
#310=DIRECTION('',(0.,1.,0.));
#311=CARTESIAN_POINT('',(0.,0.,0.));
#312=CARTESIAN_POINT('',(0.0634973799720409,0.029307095390066,-0.0625240698358292));
#313=CARTESIAN_POINT('',(0.0624973799720409,0.029307095390066,-0.0625240698358292));
#314=CARTESIAN_POINT('',(0.0624973799720409,0.029307095390066,-0.0627187982434034));
#315=CARTESIAN_POINT('',(0.0624973799720409,0.029307095390066,-0.062329341428255));
#316=CARTESIAN_POINT('',(0.0634973799720409,0.029307095390066,-0.0627187982434034));
#317=CARTESIAN_POINT('',(0.0634973799720409,0.029307095390066,-0.0627187982434034));
#318=CARTESIAN_POINT('',(0.0634973799720409,0.029307095390066,-0.0625240698358292));
#319=CARTESIAN_POINT('',(0.0634973799720409,0.029307095390066,-0.062329341428255));
#320=CARTESIAN_POINT('',(0.0634973799720409,0.029307095390066,-0.062329341428255));
#321=CARTESIAN_POINT('',(0.0634973799720409,-0.00571611655438319,-0.0627187982434034));
#322=CARTESIAN_POINT('',(0.0624973799720409,-0.00571611655438319,-0.0627187982434034));
#323=CARTESIAN_POINT('',(0.0624973799720409,0.0320487389754585,-0.0627187982434034));
#324=CARTESIAN_POINT('',(0.0634973799720409,0.0320487389754585,-0.0627187982434034));
#325=CARTESIAN_POINT('',(0.0634973799720409,0.0320487389754585,-0.0627187982434034));
#326=CARTESIAN_POINT('',(0.0634973799720409,-0.00571611655438319,-0.0627187982434034));
#327=CARTESIAN_POINT('',(0.0634973799720409,0.0320487389754585,-0.0624964879084108));
#328=CARTESIAN_POINT('',(0.0624973799720409,0.0320487389754585,-0.0624964879084108));
#329=CARTESIAN_POINT('',(0.0624973799720409,0.0320487389754585,-0.0622741775734182));
#330=CARTESIAN_POINT('',(0.0634973799720409,0.0320487389754585,-0.0622741775734182));
#331=CARTESIAN_POINT('',(0.0634973799720409,0.0320487389754585,-0.0622741775734182));
#332=CARTESIAN_POINT('',(0.0634973799720409,0.0320487389754585,-0.0624964879084108));
#333=CARTESIAN_POINT('',(0.0634973799720409,0.0310055904804933,-0.0622741775734182));
#334=CARTESIAN_POINT('',(0.0624973799720409,0.0310055904804933,-0.0622741775734182));
#335=CARTESIAN_POINT('',(0.0624973799720409,0.029962441985528,-0.0622741775734182));
#336=CARTESIAN_POINT('',(0.0634973799720409,0.029962441985528,-0.0622741775734182));
#337=CARTESIAN_POINT('',(0.0634973799720409,0.029962441985528,-0.0622741775734182));
#338=CARTESIAN_POINT('',(0.0634973799720409,0.0310055904804933,-0.0622741775734182));
#339=CARTESIAN_POINT('',(0.0634973799720409,0.0309796634687199,-0.0608294362152404));
#340=CARTESIAN_POINT('',(0.0624973799720409,0.0309796634687199,-0.0608294362152404));
#341=CARTESIAN_POINT('',(0.0624973799720409,0.0319968849519119,-0.0593846948570627));
#342=CARTESIAN_POINT('',(0.0634973799720409,0.0319968849519119,-0.0593846948570627));
#343=CARTESIAN_POINT('',(0.0634973799720409,0.0319968849519119,-0.0593846948570627));
#344=CARTESIAN_POINT('',(0.0634973799720409,0.0309796634687199,-0.0608294362152404));
#345=CARTESIAN_POINT('',(0.0634973799720409,0.0319968849519119,-0.0591623845220701));
#346=CARTESIAN_POINT('',(0.0624973799720409,0.0319968849519119,-0.0591623845220701));
#347=CARTESIAN_POINT('',(0.0624973799720409,0.0319968849519119,-0.0589400741870775));
#348=CARTESIAN_POINT('',(0.0634973799720409,0.0319968849519119,-0.0589400741870775));
#349=CARTESIAN_POINT('',(0.0634973799720409,0.0319968849519119,-0.0589400741870775));
#350=CARTESIAN_POINT('',(0.0634973799720409,0.0319968849519119,-0.0591623845220701));
#351=CARTESIAN_POINT('',(0.0634973799720409,0.0307159802425997,-0.0589400741870775));
#352=CARTESIAN_POINT('',(0.0624973799720409,0.0307159802425997,-0.0589400741870775));
#353=CARTESIAN_POINT('',(0.0624973799720409,0.0294350755332875,-0.0589400741870775));
#354=CARTESIAN_POINT('',(0.0634973799720409,0.0294350755332875,-0.0589400741870775));
#355=CARTESIAN_POINT('',(0.0634973799720409,0.0294350755332875,-0.0589400741870775));
#356=CARTESIAN_POINT('',(0.0634973799720409,0.0307159802425997,-0.0589400741870775));
#357=CARTESIAN_POINT('',(0.0634973799720409,0.0294350755332875,-0.0591623845220701));
#358=CARTESIAN_POINT('',(0.0624973799720409,0.0294350755332875,-0.0591623845220701));
#359=CARTESIAN_POINT('',(0.0624973799720409,0.0294350755332875,-0.0593846948570627));
#360=CARTESIAN_POINT('',(0.0634973799720409,0.0294350755332875,-0.0593846948570627));
#361=CARTESIAN_POINT('',(0.0634973799720409,0.0294350755332875,-0.0593846948570627));
#362=CARTESIAN_POINT('',(0.0634973799720409,0.0294350755332875,-0.0591623845220701));
#363=CARTESIAN_POINT('',(0.0634973799720409,0.0304020979085779,-0.0593846948570627));
#364=CARTESIAN_POINT('',(0.0624973799720409,0.0304020979085779,-0.0593846948570627));
#365=CARTESIAN_POINT('',(0.0624973799720409,0.0313691202838683,-0.0593846948570627));
#366=CARTESIAN_POINT('',(0.0634973799720409,0.0313691202838683,-0.0593846948570627));
#367=CARTESIAN_POINT('',(0.0634973799720409,0.0313691202838683,-0.0593846948570627));
#368=CARTESIAN_POINT('',(0.0634973799720409,0.0304020979085779,-0.0593846948570627));
#369=CARTESIAN_POINT('',(0.0634973799720409,0.0303381078369671,-0.0608570181426589));
#370=CARTESIAN_POINT('',(0.0624973799720409,0.0303381078369671,-0.0608570181426589));
#371=CARTESIAN_POINT('',(0.0634973799720409,0.0303381078369671,-0.0608570181426589));
#372=CARTESIAN_POINT('',(0.0634973799720409,0.0287617817841471,-0.0462689973513049));
#373=CARTESIAN_POINT('',(0.0624973799720409,0.0287617817841471,-0.0462689973513049));
#374=MECHANICAL_DESIGN_GEOMETRIC_PRESENTATION_REPRESENTATION('',(#231),
#375);
#375=(
GEOMETRIC_REPRESENTATION_CONTEXT(3)
GLOBAL_UNCERTAINTY_ASSIGNED_CONTEXT((#376))
GLOBAL_UNIT_ASSIGNED_CONTEXT((#379,#378,#377))
REPRESENTATION_CONTEXT('Part 14','TOP_LEVEL_ASSEMBLY_PART')
);
#376=UNCERTAINTY_MEASURE_WITH_UNIT(LENGTH_MEASURE(1.E-8),#379,
'DISTANCE_ACCURACY_VALUE','Maximum Tolerance applied to model');
#377=(
NAMED_UNIT(*)
SI_UNIT($,.STERADIAN.)
SOLID_ANGLE_UNIT()
);
#378=(
NAMED_UNIT(*)
PLANE_ANGLE_UNIT()
SI_UNIT($,.RADIAN.)
);
#379=(
LENGTH_UNIT()
NAMED_UNIT(*)
SI_UNIT($,.METRE.)
);
#380=PRODUCT_DEFINITION_SHAPE('','',#381);
#381=PRODUCT_DEFINITION('','',#383,#382);
#382=PRODUCT_DEFINITION_CONTEXT('',#389,'design');
#383=PRODUCT_DEFINITION_FORMATION_WITH_SPECIFIED_SOURCE('','',#385,
 .NOT_KNOWN.);
#384=PRODUCT_RELATED_PRODUCT_CATEGORY('','',(#385));
#385=PRODUCT('Part 14','Part 14','Part 14',(#387));
#386=PRODUCT_CATEGORY('','');
#387=PRODUCT_CONTEXT('',#389,'mechanical');
#388=APPLICATION_PROTOCOL_DEFINITION('international standard',
'ap242_managed_model_based_3d_engineering',2020,#389);
#389=APPLICATION_CONTEXT('managed model based 3d engineering');
ENDSEC;
END-ISO-10303-21;
