G04 #@! TF.GenerationSoftware,KiCad,Pcbnew,10.0.6*
G04 #@! TF.CreationDate,2026-09-10T22:31:49-04:00*
G04 #@! TF.ProjectId,Blare-stardance,426c6172-652d-4737-9461-7264616e6365,rev?*
G04 #@! TF.SameCoordinates,Original*
G04 #@! TF.FileFunction,Soldermask,Bot*
G04 #@! TF.FilePolarity,Negative*
%FSLAX46Y46*%
G04 Gerber Fmt 4.6, Leading zero omitted, Abs format (unit mm)*
G04 Created by KiCad (PCBNEW 10.0.6) date 2026-09-10 22:31:49*
%MOMM*%
%LPD*%
G01*
G04 APERTURE LIST*
G04 Aperture macros list*
%AMRoundRect*
0 Rectangle with rounded corners*
0 $1 Rounding radius*
0 $2 $3 $4 $5 $6 $7 $8 $9 X,Y pos of 4 corners*
0 Add a 4 corners polygon primitive as box body*
4,1,4,$2,$3,$4,$5,$6,$7,$8,$9,$2,$3,0*
0 Add four circle primitives for the rounded corners*
1,1,$1+$1,$2,$3*
1,1,$1+$1,$4,$5*
1,1,$1+$1,$6,$7*
1,1,$1+$1,$8,$9*
0 Add four rect primitives between the rounded corners*
20,1,$1+$1,$2,$3,$4,$5,0*
20,1,$1+$1,$4,$5,$6,$7,0*
20,1,$1+$1,$6,$7,$8,$9,0*
20,1,$1+$1,$8,$9,$2,$3,0*%
G04 Aperture macros list end*
%ADD10C,3.200000*%
%ADD11R,2.000000X2.000000*%
%ADD12C,2.000000*%
%ADD13C,1.700000*%
%ADD14C,4.000000*%
%ADD15C,2.200000*%
%ADD16R,1.700000X1.700000*%
%ADD17C,1.524000*%
%ADD18RoundRect,0.152400X-1.063600X-0.609600X1.063600X-0.609600X1.063600X0.609600X-1.063600X0.609600X0*%
%ADD19RoundRect,0.152400X1.063600X0.609600X-1.063600X0.609600X-1.063600X-0.609600X1.063600X-0.609600X0*%
G04 APERTURE END LIST*
D10*
X122000000Y-134000000D03*
D11*
X194490000Y-110610000D03*
D12*
X194490000Y-103010000D03*
D10*
X122000000Y-95500000D03*
D13*
X167420000Y-122500000D03*
D14*
X172500000Y-122500000D03*
D13*
X177580000Y-122500000D03*
D15*
X175040000Y-117420000D03*
X168690000Y-119960000D03*
D13*
X186420000Y-122500000D03*
D14*
X191500000Y-122500000D03*
D13*
X196580000Y-122500000D03*
D15*
X194040000Y-117420000D03*
X187690000Y-119960000D03*
D13*
X148490000Y-122390000D03*
D14*
X153570000Y-122390000D03*
D13*
X158650000Y-122390000D03*
D15*
X156110000Y-117310000D03*
X149760000Y-119850000D03*
D16*
X148700000Y-109500000D03*
D13*
X146160000Y-109500000D03*
X143620000Y-109500000D03*
X141080000Y-109500000D03*
X138540000Y-109500000D03*
X136000000Y-109500000D03*
X133460000Y-109500000D03*
X130920000Y-109500000D03*
D10*
X204000000Y-95500000D03*
X204000000Y-134000000D03*
D13*
X129420000Y-122500000D03*
D14*
X134500000Y-122500000D03*
D13*
X139580000Y-122500000D03*
D15*
X137040000Y-117420000D03*
X130690000Y-119960000D03*
D17*
X170550000Y-94700000D03*
D18*
X171385000Y-94700000D03*
D17*
X170550000Y-97240000D03*
D18*
X171385000Y-97240000D03*
D17*
X170550000Y-99780000D03*
D18*
X171385000Y-99780000D03*
D17*
X170550000Y-102320000D03*
D18*
X171385000Y-102320000D03*
D17*
X170550000Y-104860000D03*
D18*
X171385000Y-104860000D03*
D17*
X170550000Y-107400000D03*
D18*
X171385000Y-107400000D03*
D17*
X170550000Y-109940000D03*
D18*
X171385000Y-109940000D03*
D19*
X154475000Y-109940000D03*
D17*
X155310000Y-109940000D03*
D19*
X154475000Y-107400000D03*
D17*
X155310000Y-107400000D03*
D19*
X154475000Y-104860000D03*
D17*
X155310000Y-104860000D03*
D19*
X154475000Y-102320000D03*
D17*
X155310000Y-102320000D03*
D19*
X154475000Y-99780000D03*
D17*
X155310000Y-99780000D03*
D19*
X154475000Y-97240000D03*
D17*
X155310000Y-97240000D03*
D19*
X154475000Y-94700000D03*
D17*
X155310000Y-94700000D03*
M02*
