%TF.GenerationSoftware,KiCad,Pcbnew,10.0.6*%
%TF.CreationDate,2026-09-10T22:29:21-04:00*%
%TF.ProjectId,Blare-stardance,426c6172-652d-4737-9461-7264616e6365,rev?*%
%TF.SameCoordinates,Original*%
%TF.FileFunction,Drillmap*%
%TF.FilePolarity,Positive*%
%FSLAX45Y45*%
G04 Gerber Fmt 4.5, Leading zero omitted, Abs format (unit mm)*
G04 Created by KiCad (PCBNEW 10.0.6) date 2026-09-10 22:29:21*
%MOMM*%
%LPD*%
G01*
G04 APERTURE LIST*
%ADD10C,0.050000*%
%ADD11C,0.200000*%
%ADD12C,0.170000*%
%ADD13C,0.320000*%
%ADD14C,0.400000*%
G04 APERTURE END LIST*
D10*
X11750000Y-9000000D02*
X20750000Y-9000000D01*
X20750000Y-13750000D01*
X11750000Y-13750000D01*
X11750000Y-9000000D01*
D11*
D12*
X12857000Y-12165000D02*
X13027000Y-12335000D01*
X13027000Y-12165000D02*
X12857000Y-12335000D01*
X13873000Y-12165000D02*
X14043000Y-12335000D01*
X14043000Y-12165000D02*
X13873000Y-12335000D01*
X14764000Y-12154000D02*
X14934000Y-12324000D01*
X14934000Y-12154000D02*
X14764000Y-12324000D01*
X15780000Y-12154000D02*
X15950000Y-12324000D01*
X15950000Y-12154000D02*
X15780000Y-12324000D01*
X16657000Y-12165000D02*
X16827000Y-12335000D01*
X16827000Y-12165000D02*
X16657000Y-12335000D01*
X17673000Y-12165000D02*
X17843000Y-12335000D01*
X17843000Y-12165000D02*
X17673000Y-12335000D01*
X18557000Y-12165000D02*
X18727000Y-12335000D01*
X18727000Y-12165000D02*
X18557000Y-12335000D01*
X19573000Y-12165000D02*
X19743000Y-12335000D01*
X19743000Y-12165000D02*
X19573000Y-12335000D01*
D13*
X12360000Y-9550000D02*
G75*
G02*
X12040000Y-9550000I-160000J0D01*
G01*
X12040000Y-9550000D02*
G75*
G02*
X12360000Y-9550000I160000J0D01*
G01*
X12360000Y-13400000D02*
G75*
G02*
X12040000Y-13400000I-160000J0D01*
G01*
X12040000Y-13400000D02*
G75*
G02*
X12360000Y-13400000I160000J0D01*
G01*
X20560000Y-9550000D02*
G75*
G02*
X20240000Y-9550000I-160000J0D01*
G01*
X20240000Y-9550000D02*
G75*
G02*
X20560000Y-9550000I160000J0D01*
G01*
X20560000Y-13400000D02*
G75*
G02*
X20240000Y-13400000I-160000J0D01*
G01*
X20240000Y-13400000D02*
G75*
G02*
X20560000Y-13400000I160000J0D01*
G01*
D14*
X13450000Y-12050000D02*
X13450000Y-12450000D01*
X13250000Y-12250000D02*
X13650000Y-12250000D01*
X15357000Y-12039000D02*
X15357000Y-12439000D01*
X15157000Y-12239000D02*
X15557000Y-12239000D01*
X17250000Y-12050000D02*
X17250000Y-12450000D01*
X17050000Y-12250000D02*
X17450000Y-12250000D01*
X19150000Y-12050000D02*
X19150000Y-12450000D01*
X18950000Y-12250000D02*
X19350000Y-12250000D01*
D11*
X12008277Y-14063984D02*
X12008277Y-13863984D01*
X12008277Y-13863984D02*
X12055896Y-13863984D01*
X12055896Y-13863984D02*
X12084467Y-13873508D01*
X12084467Y-13873508D02*
X12103515Y-13892555D01*
X12103515Y-13892555D02*
X12113039Y-13911603D01*
X12113039Y-13911603D02*
X12122562Y-13949698D01*
X12122562Y-13949698D02*
X12122562Y-13978269D01*
X12122562Y-13978269D02*
X12113039Y-14016365D01*
X12113039Y-14016365D02*
X12103515Y-14035412D01*
X12103515Y-14035412D02*
X12084467Y-14054460D01*
X12084467Y-14054460D02*
X12055896Y-14063984D01*
X12055896Y-14063984D02*
X12008277Y-14063984D01*
X12208277Y-14063984D02*
X12208277Y-13930650D01*
X12208277Y-13968746D02*
X12217801Y-13949698D01*
X12217801Y-13949698D02*
X12227324Y-13940174D01*
X12227324Y-13940174D02*
X12246372Y-13930650D01*
X12246372Y-13930650D02*
X12265420Y-13930650D01*
X12332086Y-14063984D02*
X12332086Y-13930650D01*
X12332086Y-13863984D02*
X12322562Y-13873508D01*
X12322562Y-13873508D02*
X12332086Y-13883031D01*
X12332086Y-13883031D02*
X12341610Y-13873508D01*
X12341610Y-13873508D02*
X12332086Y-13863984D01*
X12332086Y-13863984D02*
X12332086Y-13883031D01*
X12455896Y-14063984D02*
X12436848Y-14054460D01*
X12436848Y-14054460D02*
X12427324Y-14035412D01*
X12427324Y-14035412D02*
X12427324Y-13863984D01*
X12560658Y-14063984D02*
X12541610Y-14054460D01*
X12541610Y-14054460D02*
X12532086Y-14035412D01*
X12532086Y-14035412D02*
X12532086Y-13863984D01*
X12789229Y-14063984D02*
X12789229Y-13863984D01*
X12789229Y-13863984D02*
X12855896Y-14006841D01*
X12855896Y-14006841D02*
X12922562Y-13863984D01*
X12922562Y-13863984D02*
X12922562Y-14063984D01*
X13103515Y-14063984D02*
X13103515Y-13959222D01*
X13103515Y-13959222D02*
X13093991Y-13940174D01*
X13093991Y-13940174D02*
X13074943Y-13930650D01*
X13074943Y-13930650D02*
X13036848Y-13930650D01*
X13036848Y-13930650D02*
X13017801Y-13940174D01*
X13103515Y-14054460D02*
X13084467Y-14063984D01*
X13084467Y-14063984D02*
X13036848Y-14063984D01*
X13036848Y-14063984D02*
X13017801Y-14054460D01*
X13017801Y-14054460D02*
X13008277Y-14035412D01*
X13008277Y-14035412D02*
X13008277Y-14016365D01*
X13008277Y-14016365D02*
X13017801Y-13997317D01*
X13017801Y-13997317D02*
X13036848Y-13987793D01*
X13036848Y-13987793D02*
X13084467Y-13987793D01*
X13084467Y-13987793D02*
X13103515Y-13978269D01*
X13198753Y-13930650D02*
X13198753Y-14130650D01*
X13198753Y-13940174D02*
X13217801Y-13930650D01*
X13217801Y-13930650D02*
X13255896Y-13930650D01*
X13255896Y-13930650D02*
X13274943Y-13940174D01*
X13274943Y-13940174D02*
X13284467Y-13949698D01*
X13284467Y-13949698D02*
X13293991Y-13968746D01*
X13293991Y-13968746D02*
X13293991Y-14025888D01*
X13293991Y-14025888D02*
X13284467Y-14044936D01*
X13284467Y-14044936D02*
X13274943Y-14054460D01*
X13274943Y-14054460D02*
X13255896Y-14063984D01*
X13255896Y-14063984D02*
X13217801Y-14063984D01*
X13217801Y-14063984D02*
X13198753Y-14054460D01*
X13379705Y-14044936D02*
X13389229Y-14054460D01*
X13389229Y-14054460D02*
X13379705Y-14063984D01*
X13379705Y-14063984D02*
X13370182Y-14054460D01*
X13370182Y-14054460D02*
X13379705Y-14044936D01*
X13379705Y-14044936D02*
X13379705Y-14063984D01*
X13379705Y-13940174D02*
X13389229Y-13949698D01*
X13389229Y-13949698D02*
X13379705Y-13959222D01*
X13379705Y-13959222D02*
X13370182Y-13949698D01*
X13370182Y-13949698D02*
X13379705Y-13940174D01*
X13379705Y-13940174D02*
X13379705Y-13959222D01*
D12*
X11577500Y-14307500D02*
X11747500Y-14477500D01*
X11747500Y-14307500D02*
X11577500Y-14477500D01*
D11*
X12113039Y-14483984D02*
X11998753Y-14483984D01*
X12055896Y-14483984D02*
X12055896Y-14283984D01*
X12055896Y-14283984D02*
X12036848Y-14312555D01*
X12036848Y-14312555D02*
X12017801Y-14331603D01*
X12017801Y-14331603D02*
X11998753Y-14341127D01*
X12198753Y-14464936D02*
X12208277Y-14474460D01*
X12208277Y-14474460D02*
X12198753Y-14483984D01*
X12198753Y-14483984D02*
X12189229Y-14474460D01*
X12189229Y-14474460D02*
X12198753Y-14464936D01*
X12198753Y-14464936D02*
X12198753Y-14483984D01*
X12274943Y-14283984D02*
X12408277Y-14283984D01*
X12408277Y-14283984D02*
X12322562Y-14483984D01*
X12522562Y-14283984D02*
X12541610Y-14283984D01*
X12541610Y-14283984D02*
X12560658Y-14293508D01*
X12560658Y-14293508D02*
X12570182Y-14303031D01*
X12570182Y-14303031D02*
X12579705Y-14322079D01*
X12579705Y-14322079D02*
X12589229Y-14360174D01*
X12589229Y-14360174D02*
X12589229Y-14407793D01*
X12589229Y-14407793D02*
X12579705Y-14445888D01*
X12579705Y-14445888D02*
X12570182Y-14464936D01*
X12570182Y-14464936D02*
X12560658Y-14474460D01*
X12560658Y-14474460D02*
X12541610Y-14483984D01*
X12541610Y-14483984D02*
X12522562Y-14483984D01*
X12522562Y-14483984D02*
X12503515Y-14474460D01*
X12503515Y-14474460D02*
X12493991Y-14464936D01*
X12493991Y-14464936D02*
X12484467Y-14445888D01*
X12484467Y-14445888D02*
X12474943Y-14407793D01*
X12474943Y-14407793D02*
X12474943Y-14360174D01*
X12474943Y-14360174D02*
X12484467Y-14322079D01*
X12484467Y-14322079D02*
X12493991Y-14303031D01*
X12493991Y-14303031D02*
X12503515Y-14293508D01*
X12503515Y-14293508D02*
X12522562Y-14283984D01*
X12713039Y-14283984D02*
X12732086Y-14283984D01*
X12732086Y-14283984D02*
X12751134Y-14293508D01*
X12751134Y-14293508D02*
X12760658Y-14303031D01*
X12760658Y-14303031D02*
X12770182Y-14322079D01*
X12770182Y-14322079D02*
X12779705Y-14360174D01*
X12779705Y-14360174D02*
X12779705Y-14407793D01*
X12779705Y-14407793D02*
X12770182Y-14445888D01*
X12770182Y-14445888D02*
X12760658Y-14464936D01*
X12760658Y-14464936D02*
X12751134Y-14474460D01*
X12751134Y-14474460D02*
X12732086Y-14483984D01*
X12732086Y-14483984D02*
X12713039Y-14483984D01*
X12713039Y-14483984D02*
X12693991Y-14474460D01*
X12693991Y-14474460D02*
X12684467Y-14464936D01*
X12684467Y-14464936D02*
X12674943Y-14445888D01*
X12674943Y-14445888D02*
X12665420Y-14407793D01*
X12665420Y-14407793D02*
X12665420Y-14360174D01*
X12665420Y-14360174D02*
X12674943Y-14322079D01*
X12674943Y-14322079D02*
X12684467Y-14303031D01*
X12684467Y-14303031D02*
X12693991Y-14293508D01*
X12693991Y-14293508D02*
X12713039Y-14283984D01*
X12865420Y-14483984D02*
X12865420Y-14350650D01*
X12865420Y-14369698D02*
X12874943Y-14360174D01*
X12874943Y-14360174D02*
X12893991Y-14350650D01*
X12893991Y-14350650D02*
X12922563Y-14350650D01*
X12922563Y-14350650D02*
X12941610Y-14360174D01*
X12941610Y-14360174D02*
X12951134Y-14379222D01*
X12951134Y-14379222D02*
X12951134Y-14483984D01*
X12951134Y-14379222D02*
X12960658Y-14360174D01*
X12960658Y-14360174D02*
X12979705Y-14350650D01*
X12979705Y-14350650D02*
X13008277Y-14350650D01*
X13008277Y-14350650D02*
X13027324Y-14360174D01*
X13027324Y-14360174D02*
X13036848Y-14379222D01*
X13036848Y-14379222D02*
X13036848Y-14483984D01*
X13132086Y-14483984D02*
X13132086Y-14350650D01*
X13132086Y-14369698D02*
X13141610Y-14360174D01*
X13141610Y-14360174D02*
X13160658Y-14350650D01*
X13160658Y-14350650D02*
X13189229Y-14350650D01*
X13189229Y-14350650D02*
X13208277Y-14360174D01*
X13208277Y-14360174D02*
X13217801Y-14379222D01*
X13217801Y-14379222D02*
X13217801Y-14483984D01*
X13217801Y-14379222D02*
X13227324Y-14360174D01*
X13227324Y-14360174D02*
X13246372Y-14350650D01*
X13246372Y-14350650D02*
X13274943Y-14350650D01*
X13274943Y-14350650D02*
X13293991Y-14360174D01*
X13293991Y-14360174D02*
X13303515Y-14379222D01*
X13303515Y-14379222D02*
X13303515Y-14483984D01*
X13693991Y-14274460D02*
X13522563Y-14531603D01*
X13951134Y-14283984D02*
X13970182Y-14283984D01*
X13970182Y-14283984D02*
X13989229Y-14293508D01*
X13989229Y-14293508D02*
X13998753Y-14303031D01*
X13998753Y-14303031D02*
X14008277Y-14322079D01*
X14008277Y-14322079D02*
X14017801Y-14360174D01*
X14017801Y-14360174D02*
X14017801Y-14407793D01*
X14017801Y-14407793D02*
X14008277Y-14445888D01*
X14008277Y-14445888D02*
X13998753Y-14464936D01*
X13998753Y-14464936D02*
X13989229Y-14474460D01*
X13989229Y-14474460D02*
X13970182Y-14483984D01*
X13970182Y-14483984D02*
X13951134Y-14483984D01*
X13951134Y-14483984D02*
X13932086Y-14474460D01*
X13932086Y-14474460D02*
X13922563Y-14464936D01*
X13922563Y-14464936D02*
X13913039Y-14445888D01*
X13913039Y-14445888D02*
X13903515Y-14407793D01*
X13903515Y-14407793D02*
X13903515Y-14360174D01*
X13903515Y-14360174D02*
X13913039Y-14322079D01*
X13913039Y-14322079D02*
X13922563Y-14303031D01*
X13922563Y-14303031D02*
X13932086Y-14293508D01*
X13932086Y-14293508D02*
X13951134Y-14283984D01*
X14103515Y-14464936D02*
X14113039Y-14474460D01*
X14113039Y-14474460D02*
X14103515Y-14483984D01*
X14103515Y-14483984D02*
X14093991Y-14474460D01*
X14093991Y-14474460D02*
X14103515Y-14464936D01*
X14103515Y-14464936D02*
X14103515Y-14483984D01*
X14236848Y-14283984D02*
X14255896Y-14283984D01*
X14255896Y-14283984D02*
X14274944Y-14293508D01*
X14274944Y-14293508D02*
X14284467Y-14303031D01*
X14284467Y-14303031D02*
X14293991Y-14322079D01*
X14293991Y-14322079D02*
X14303515Y-14360174D01*
X14303515Y-14360174D02*
X14303515Y-14407793D01*
X14303515Y-14407793D02*
X14293991Y-14445888D01*
X14293991Y-14445888D02*
X14284467Y-14464936D01*
X14284467Y-14464936D02*
X14274944Y-14474460D01*
X14274944Y-14474460D02*
X14255896Y-14483984D01*
X14255896Y-14483984D02*
X14236848Y-14483984D01*
X14236848Y-14483984D02*
X14217801Y-14474460D01*
X14217801Y-14474460D02*
X14208277Y-14464936D01*
X14208277Y-14464936D02*
X14198753Y-14445888D01*
X14198753Y-14445888D02*
X14189229Y-14407793D01*
X14189229Y-14407793D02*
X14189229Y-14360174D01*
X14189229Y-14360174D02*
X14198753Y-14322079D01*
X14198753Y-14322079D02*
X14208277Y-14303031D01*
X14208277Y-14303031D02*
X14217801Y-14293508D01*
X14217801Y-14293508D02*
X14236848Y-14283984D01*
X14474944Y-14283984D02*
X14436848Y-14283984D01*
X14436848Y-14283984D02*
X14417801Y-14293508D01*
X14417801Y-14293508D02*
X14408277Y-14303031D01*
X14408277Y-14303031D02*
X14389229Y-14331603D01*
X14389229Y-14331603D02*
X14379706Y-14369698D01*
X14379706Y-14369698D02*
X14379706Y-14445888D01*
X14379706Y-14445888D02*
X14389229Y-14464936D01*
X14389229Y-14464936D02*
X14398753Y-14474460D01*
X14398753Y-14474460D02*
X14417801Y-14483984D01*
X14417801Y-14483984D02*
X14455896Y-14483984D01*
X14455896Y-14483984D02*
X14474944Y-14474460D01*
X14474944Y-14474460D02*
X14484467Y-14464936D01*
X14484467Y-14464936D02*
X14493991Y-14445888D01*
X14493991Y-14445888D02*
X14493991Y-14398269D01*
X14493991Y-14398269D02*
X14484467Y-14379222D01*
X14484467Y-14379222D02*
X14474944Y-14369698D01*
X14474944Y-14369698D02*
X14455896Y-14360174D01*
X14455896Y-14360174D02*
X14417801Y-14360174D01*
X14417801Y-14360174D02*
X14398753Y-14369698D01*
X14398753Y-14369698D02*
X14389229Y-14379222D01*
X14389229Y-14379222D02*
X14379706Y-14398269D01*
X14665420Y-14283984D02*
X14627325Y-14283984D01*
X14627325Y-14283984D02*
X14608277Y-14293508D01*
X14608277Y-14293508D02*
X14598753Y-14303031D01*
X14598753Y-14303031D02*
X14579706Y-14331603D01*
X14579706Y-14331603D02*
X14570182Y-14369698D01*
X14570182Y-14369698D02*
X14570182Y-14445888D01*
X14570182Y-14445888D02*
X14579706Y-14464936D01*
X14579706Y-14464936D02*
X14589229Y-14474460D01*
X14589229Y-14474460D02*
X14608277Y-14483984D01*
X14608277Y-14483984D02*
X14646372Y-14483984D01*
X14646372Y-14483984D02*
X14665420Y-14474460D01*
X14665420Y-14474460D02*
X14674944Y-14464936D01*
X14674944Y-14464936D02*
X14684467Y-14445888D01*
X14684467Y-14445888D02*
X14684467Y-14398269D01*
X14684467Y-14398269D02*
X14674944Y-14379222D01*
X14674944Y-14379222D02*
X14665420Y-14369698D01*
X14665420Y-14369698D02*
X14646372Y-14360174D01*
X14646372Y-14360174D02*
X14608277Y-14360174D01*
X14608277Y-14360174D02*
X14589229Y-14369698D01*
X14589229Y-14369698D02*
X14579706Y-14379222D01*
X14579706Y-14379222D02*
X14570182Y-14398269D01*
X14779706Y-14483984D02*
X14817801Y-14483984D01*
X14817801Y-14483984D02*
X14836848Y-14474460D01*
X14836848Y-14474460D02*
X14846372Y-14464936D01*
X14846372Y-14464936D02*
X14865420Y-14436365D01*
X14865420Y-14436365D02*
X14874944Y-14398269D01*
X14874944Y-14398269D02*
X14874944Y-14322079D01*
X14874944Y-14322079D02*
X14865420Y-14303031D01*
X14865420Y-14303031D02*
X14855896Y-14293508D01*
X14855896Y-14293508D02*
X14836848Y-14283984D01*
X14836848Y-14283984D02*
X14798753Y-14283984D01*
X14798753Y-14283984D02*
X14779706Y-14293508D01*
X14779706Y-14293508D02*
X14770182Y-14303031D01*
X14770182Y-14303031D02*
X14760658Y-14322079D01*
X14760658Y-14322079D02*
X14760658Y-14369698D01*
X14760658Y-14369698D02*
X14770182Y-14388746D01*
X14770182Y-14388746D02*
X14779706Y-14398269D01*
X14779706Y-14398269D02*
X14798753Y-14407793D01*
X14798753Y-14407793D02*
X14836848Y-14407793D01*
X14836848Y-14407793D02*
X14855896Y-14398269D01*
X14855896Y-14398269D02*
X14865420Y-14388746D01*
X14865420Y-14388746D02*
X14874944Y-14369698D01*
X14951134Y-14283984D02*
X14951134Y-14322079D01*
X15027325Y-14283984D02*
X15027325Y-14322079D01*
X15322563Y-14560174D02*
X15313039Y-14550650D01*
X15313039Y-14550650D02*
X15293991Y-14522079D01*
X15293991Y-14522079D02*
X15284468Y-14503031D01*
X15284468Y-14503031D02*
X15274944Y-14474460D01*
X15274944Y-14474460D02*
X15265420Y-14426841D01*
X15265420Y-14426841D02*
X15265420Y-14388746D01*
X15265420Y-14388746D02*
X15274944Y-14341127D01*
X15274944Y-14341127D02*
X15284468Y-14312555D01*
X15284468Y-14312555D02*
X15293991Y-14293508D01*
X15293991Y-14293508D02*
X15313039Y-14264936D01*
X15313039Y-14264936D02*
X15322563Y-14255412D01*
X15427325Y-14369698D02*
X15408277Y-14360174D01*
X15408277Y-14360174D02*
X15398753Y-14350650D01*
X15398753Y-14350650D02*
X15389229Y-14331603D01*
X15389229Y-14331603D02*
X15389229Y-14322079D01*
X15389229Y-14322079D02*
X15398753Y-14303031D01*
X15398753Y-14303031D02*
X15408277Y-14293508D01*
X15408277Y-14293508D02*
X15427325Y-14283984D01*
X15427325Y-14283984D02*
X15465420Y-14283984D01*
X15465420Y-14283984D02*
X15484468Y-14293508D01*
X15484468Y-14293508D02*
X15493991Y-14303031D01*
X15493991Y-14303031D02*
X15503515Y-14322079D01*
X15503515Y-14322079D02*
X15503515Y-14331603D01*
X15503515Y-14331603D02*
X15493991Y-14350650D01*
X15493991Y-14350650D02*
X15484468Y-14360174D01*
X15484468Y-14360174D02*
X15465420Y-14369698D01*
X15465420Y-14369698D02*
X15427325Y-14369698D01*
X15427325Y-14369698D02*
X15408277Y-14379222D01*
X15408277Y-14379222D02*
X15398753Y-14388746D01*
X15398753Y-14388746D02*
X15389229Y-14407793D01*
X15389229Y-14407793D02*
X15389229Y-14445888D01*
X15389229Y-14445888D02*
X15398753Y-14464936D01*
X15398753Y-14464936D02*
X15408277Y-14474460D01*
X15408277Y-14474460D02*
X15427325Y-14483984D01*
X15427325Y-14483984D02*
X15465420Y-14483984D01*
X15465420Y-14483984D02*
X15484468Y-14474460D01*
X15484468Y-14474460D02*
X15493991Y-14464936D01*
X15493991Y-14464936D02*
X15503515Y-14445888D01*
X15503515Y-14445888D02*
X15503515Y-14407793D01*
X15503515Y-14407793D02*
X15493991Y-14388746D01*
X15493991Y-14388746D02*
X15484468Y-14379222D01*
X15484468Y-14379222D02*
X15465420Y-14369698D01*
X15741610Y-14483984D02*
X15741610Y-14283984D01*
X15827325Y-14483984D02*
X15827325Y-14379222D01*
X15827325Y-14379222D02*
X15817801Y-14360174D01*
X15817801Y-14360174D02*
X15798753Y-14350650D01*
X15798753Y-14350650D02*
X15770182Y-14350650D01*
X15770182Y-14350650D02*
X15751134Y-14360174D01*
X15751134Y-14360174D02*
X15741610Y-14369698D01*
X15951134Y-14483984D02*
X15932087Y-14474460D01*
X15932087Y-14474460D02*
X15922563Y-14464936D01*
X15922563Y-14464936D02*
X15913039Y-14445888D01*
X15913039Y-14445888D02*
X15913039Y-14388746D01*
X15913039Y-14388746D02*
X15922563Y-14369698D01*
X15922563Y-14369698D02*
X15932087Y-14360174D01*
X15932087Y-14360174D02*
X15951134Y-14350650D01*
X15951134Y-14350650D02*
X15979706Y-14350650D01*
X15979706Y-14350650D02*
X15998753Y-14360174D01*
X15998753Y-14360174D02*
X16008277Y-14369698D01*
X16008277Y-14369698D02*
X16017801Y-14388746D01*
X16017801Y-14388746D02*
X16017801Y-14445888D01*
X16017801Y-14445888D02*
X16008277Y-14464936D01*
X16008277Y-14464936D02*
X15998753Y-14474460D01*
X15998753Y-14474460D02*
X15979706Y-14483984D01*
X15979706Y-14483984D02*
X15951134Y-14483984D01*
X16132087Y-14483984D02*
X16113039Y-14474460D01*
X16113039Y-14474460D02*
X16103515Y-14455412D01*
X16103515Y-14455412D02*
X16103515Y-14283984D01*
X16284468Y-14474460D02*
X16265420Y-14483984D01*
X16265420Y-14483984D02*
X16227325Y-14483984D01*
X16227325Y-14483984D02*
X16208277Y-14474460D01*
X16208277Y-14474460D02*
X16198753Y-14455412D01*
X16198753Y-14455412D02*
X16198753Y-14379222D01*
X16198753Y-14379222D02*
X16208277Y-14360174D01*
X16208277Y-14360174D02*
X16227325Y-14350650D01*
X16227325Y-14350650D02*
X16265420Y-14350650D01*
X16265420Y-14350650D02*
X16284468Y-14360174D01*
X16284468Y-14360174D02*
X16293991Y-14379222D01*
X16293991Y-14379222D02*
X16293991Y-14398269D01*
X16293991Y-14398269D02*
X16198753Y-14417317D01*
X16370182Y-14474460D02*
X16389230Y-14483984D01*
X16389230Y-14483984D02*
X16427325Y-14483984D01*
X16427325Y-14483984D02*
X16446372Y-14474460D01*
X16446372Y-14474460D02*
X16455896Y-14455412D01*
X16455896Y-14455412D02*
X16455896Y-14445888D01*
X16455896Y-14445888D02*
X16446372Y-14426841D01*
X16446372Y-14426841D02*
X16427325Y-14417317D01*
X16427325Y-14417317D02*
X16398753Y-14417317D01*
X16398753Y-14417317D02*
X16379706Y-14407793D01*
X16379706Y-14407793D02*
X16370182Y-14388746D01*
X16370182Y-14388746D02*
X16370182Y-14379222D01*
X16370182Y-14379222D02*
X16379706Y-14360174D01*
X16379706Y-14360174D02*
X16398753Y-14350650D01*
X16398753Y-14350650D02*
X16427325Y-14350650D01*
X16427325Y-14350650D02*
X16446372Y-14360174D01*
X16522563Y-14560174D02*
X16532087Y-14550650D01*
X16532087Y-14550650D02*
X16551134Y-14522079D01*
X16551134Y-14522079D02*
X16560658Y-14503031D01*
X16560658Y-14503031D02*
X16570182Y-14474460D01*
X16570182Y-14474460D02*
X16579706Y-14426841D01*
X16579706Y-14426841D02*
X16579706Y-14388746D01*
X16579706Y-14388746D02*
X16570182Y-14341127D01*
X16570182Y-14341127D02*
X16560658Y-14312555D01*
X16560658Y-14312555D02*
X16551134Y-14293508D01*
X16551134Y-14293508D02*
X16532087Y-14264936D01*
X16532087Y-14264936D02*
X16522563Y-14255412D01*
X16884468Y-14560174D02*
X16874944Y-14550650D01*
X16874944Y-14550650D02*
X16855896Y-14522079D01*
X16855896Y-14522079D02*
X16846373Y-14503031D01*
X16846373Y-14503031D02*
X16836849Y-14474460D01*
X16836849Y-14474460D02*
X16827325Y-14426841D01*
X16827325Y-14426841D02*
X16827325Y-14388746D01*
X16827325Y-14388746D02*
X16836849Y-14341127D01*
X16836849Y-14341127D02*
X16846373Y-14312555D01*
X16846373Y-14312555D02*
X16855896Y-14293508D01*
X16855896Y-14293508D02*
X16874944Y-14264936D01*
X16874944Y-14264936D02*
X16884468Y-14255412D01*
X16960658Y-14350650D02*
X16960658Y-14483984D01*
X16960658Y-14369698D02*
X16970182Y-14360174D01*
X16970182Y-14360174D02*
X16989230Y-14350650D01*
X16989230Y-14350650D02*
X17017801Y-14350650D01*
X17017801Y-14350650D02*
X17036849Y-14360174D01*
X17036849Y-14360174D02*
X17046373Y-14379222D01*
X17046373Y-14379222D02*
X17046373Y-14483984D01*
X17170182Y-14483984D02*
X17151134Y-14474460D01*
X17151134Y-14474460D02*
X17141611Y-14464936D01*
X17141611Y-14464936D02*
X17132087Y-14445888D01*
X17132087Y-14445888D02*
X17132087Y-14388746D01*
X17132087Y-14388746D02*
X17141611Y-14369698D01*
X17141611Y-14369698D02*
X17151134Y-14360174D01*
X17151134Y-14360174D02*
X17170182Y-14350650D01*
X17170182Y-14350650D02*
X17198754Y-14350650D01*
X17198754Y-14350650D02*
X17217801Y-14360174D01*
X17217801Y-14360174D02*
X17227325Y-14369698D01*
X17227325Y-14369698D02*
X17236849Y-14388746D01*
X17236849Y-14388746D02*
X17236849Y-14445888D01*
X17236849Y-14445888D02*
X17227325Y-14464936D01*
X17227325Y-14464936D02*
X17217801Y-14474460D01*
X17217801Y-14474460D02*
X17198754Y-14483984D01*
X17198754Y-14483984D02*
X17170182Y-14483984D01*
X17293992Y-14350650D02*
X17370182Y-14350650D01*
X17322563Y-14283984D02*
X17322563Y-14455412D01*
X17322563Y-14455412D02*
X17332087Y-14474460D01*
X17332087Y-14474460D02*
X17351134Y-14483984D01*
X17351134Y-14483984D02*
X17370182Y-14483984D01*
X17589230Y-14350650D02*
X17589230Y-14550650D01*
X17589230Y-14360174D02*
X17608277Y-14350650D01*
X17608277Y-14350650D02*
X17646373Y-14350650D01*
X17646373Y-14350650D02*
X17665420Y-14360174D01*
X17665420Y-14360174D02*
X17674944Y-14369698D01*
X17674944Y-14369698D02*
X17684468Y-14388746D01*
X17684468Y-14388746D02*
X17684468Y-14445888D01*
X17684468Y-14445888D02*
X17674944Y-14464936D01*
X17674944Y-14464936D02*
X17665420Y-14474460D01*
X17665420Y-14474460D02*
X17646373Y-14483984D01*
X17646373Y-14483984D02*
X17608277Y-14483984D01*
X17608277Y-14483984D02*
X17589230Y-14474460D01*
X17798754Y-14483984D02*
X17779706Y-14474460D01*
X17779706Y-14474460D02*
X17770182Y-14455412D01*
X17770182Y-14455412D02*
X17770182Y-14283984D01*
X17960658Y-14483984D02*
X17960658Y-14379222D01*
X17960658Y-14379222D02*
X17951135Y-14360174D01*
X17951135Y-14360174D02*
X17932087Y-14350650D01*
X17932087Y-14350650D02*
X17893992Y-14350650D01*
X17893992Y-14350650D02*
X17874944Y-14360174D01*
X17960658Y-14474460D02*
X17941611Y-14483984D01*
X17941611Y-14483984D02*
X17893992Y-14483984D01*
X17893992Y-14483984D02*
X17874944Y-14474460D01*
X17874944Y-14474460D02*
X17865420Y-14455412D01*
X17865420Y-14455412D02*
X17865420Y-14436365D01*
X17865420Y-14436365D02*
X17874944Y-14417317D01*
X17874944Y-14417317D02*
X17893992Y-14407793D01*
X17893992Y-14407793D02*
X17941611Y-14407793D01*
X17941611Y-14407793D02*
X17960658Y-14398269D01*
X18027325Y-14350650D02*
X18103515Y-14350650D01*
X18055896Y-14283984D02*
X18055896Y-14455412D01*
X18055896Y-14455412D02*
X18065420Y-14474460D01*
X18065420Y-14474460D02*
X18084468Y-14483984D01*
X18084468Y-14483984D02*
X18103515Y-14483984D01*
X18246373Y-14474460D02*
X18227325Y-14483984D01*
X18227325Y-14483984D02*
X18189230Y-14483984D01*
X18189230Y-14483984D02*
X18170182Y-14474460D01*
X18170182Y-14474460D02*
X18160658Y-14455412D01*
X18160658Y-14455412D02*
X18160658Y-14379222D01*
X18160658Y-14379222D02*
X18170182Y-14360174D01*
X18170182Y-14360174D02*
X18189230Y-14350650D01*
X18189230Y-14350650D02*
X18227325Y-14350650D01*
X18227325Y-14350650D02*
X18246373Y-14360174D01*
X18246373Y-14360174D02*
X18255896Y-14379222D01*
X18255896Y-14379222D02*
X18255896Y-14398269D01*
X18255896Y-14398269D02*
X18160658Y-14417317D01*
X18427325Y-14483984D02*
X18427325Y-14283984D01*
X18427325Y-14474460D02*
X18408277Y-14483984D01*
X18408277Y-14483984D02*
X18370182Y-14483984D01*
X18370182Y-14483984D02*
X18351135Y-14474460D01*
X18351135Y-14474460D02*
X18341611Y-14464936D01*
X18341611Y-14464936D02*
X18332087Y-14445888D01*
X18332087Y-14445888D02*
X18332087Y-14388746D01*
X18332087Y-14388746D02*
X18341611Y-14369698D01*
X18341611Y-14369698D02*
X18351135Y-14360174D01*
X18351135Y-14360174D02*
X18370182Y-14350650D01*
X18370182Y-14350650D02*
X18408277Y-14350650D01*
X18408277Y-14350650D02*
X18427325Y-14360174D01*
X18503516Y-14560174D02*
X18513039Y-14550650D01*
X18513039Y-14550650D02*
X18532087Y-14522079D01*
X18532087Y-14522079D02*
X18541611Y-14503031D01*
X18541611Y-14503031D02*
X18551135Y-14474460D01*
X18551135Y-14474460D02*
X18560658Y-14426841D01*
X18560658Y-14426841D02*
X18560658Y-14388746D01*
X18560658Y-14388746D02*
X18551135Y-14341127D01*
X18551135Y-14341127D02*
X18541611Y-14312555D01*
X18541611Y-14312555D02*
X18532087Y-14293508D01*
X18532087Y-14293508D02*
X18513039Y-14264936D01*
X18513039Y-14264936D02*
X18503516Y-14255412D01*
X11747500Y-14682500D02*
G75*
G02*
X11547500Y-14682500I-100000J0D01*
G01*
X11547500Y-14682500D02*
G75*
G02*
X11747500Y-14682500I100000J0D01*
G01*
X11989229Y-14573984D02*
X12113039Y-14573984D01*
X12113039Y-14573984D02*
X12046372Y-14650174D01*
X12046372Y-14650174D02*
X12074943Y-14650174D01*
X12074943Y-14650174D02*
X12093991Y-14659698D01*
X12093991Y-14659698D02*
X12103515Y-14669222D01*
X12103515Y-14669222D02*
X12113039Y-14688269D01*
X12113039Y-14688269D02*
X12113039Y-14735888D01*
X12113039Y-14735888D02*
X12103515Y-14754936D01*
X12103515Y-14754936D02*
X12093991Y-14764460D01*
X12093991Y-14764460D02*
X12074943Y-14773984D01*
X12074943Y-14773984D02*
X12017801Y-14773984D01*
X12017801Y-14773984D02*
X11998753Y-14764460D01*
X11998753Y-14764460D02*
X11989229Y-14754936D01*
X12198753Y-14754936D02*
X12208277Y-14764460D01*
X12208277Y-14764460D02*
X12198753Y-14773984D01*
X12198753Y-14773984D02*
X12189229Y-14764460D01*
X12189229Y-14764460D02*
X12198753Y-14754936D01*
X12198753Y-14754936D02*
X12198753Y-14773984D01*
X12284467Y-14593031D02*
X12293991Y-14583508D01*
X12293991Y-14583508D02*
X12313039Y-14573984D01*
X12313039Y-14573984D02*
X12360658Y-14573984D01*
X12360658Y-14573984D02*
X12379705Y-14583508D01*
X12379705Y-14583508D02*
X12389229Y-14593031D01*
X12389229Y-14593031D02*
X12398753Y-14612079D01*
X12398753Y-14612079D02*
X12398753Y-14631127D01*
X12398753Y-14631127D02*
X12389229Y-14659698D01*
X12389229Y-14659698D02*
X12274943Y-14773984D01*
X12274943Y-14773984D02*
X12398753Y-14773984D01*
X12522562Y-14573984D02*
X12541610Y-14573984D01*
X12541610Y-14573984D02*
X12560658Y-14583508D01*
X12560658Y-14583508D02*
X12570182Y-14593031D01*
X12570182Y-14593031D02*
X12579705Y-14612079D01*
X12579705Y-14612079D02*
X12589229Y-14650174D01*
X12589229Y-14650174D02*
X12589229Y-14697793D01*
X12589229Y-14697793D02*
X12579705Y-14735888D01*
X12579705Y-14735888D02*
X12570182Y-14754936D01*
X12570182Y-14754936D02*
X12560658Y-14764460D01*
X12560658Y-14764460D02*
X12541610Y-14773984D01*
X12541610Y-14773984D02*
X12522562Y-14773984D01*
X12522562Y-14773984D02*
X12503515Y-14764460D01*
X12503515Y-14764460D02*
X12493991Y-14754936D01*
X12493991Y-14754936D02*
X12484467Y-14735888D01*
X12484467Y-14735888D02*
X12474943Y-14697793D01*
X12474943Y-14697793D02*
X12474943Y-14650174D01*
X12474943Y-14650174D02*
X12484467Y-14612079D01*
X12484467Y-14612079D02*
X12493991Y-14593031D01*
X12493991Y-14593031D02*
X12503515Y-14583508D01*
X12503515Y-14583508D02*
X12522562Y-14573984D01*
X12713039Y-14573984D02*
X12732086Y-14573984D01*
X12732086Y-14573984D02*
X12751134Y-14583508D01*
X12751134Y-14583508D02*
X12760658Y-14593031D01*
X12760658Y-14593031D02*
X12770182Y-14612079D01*
X12770182Y-14612079D02*
X12779705Y-14650174D01*
X12779705Y-14650174D02*
X12779705Y-14697793D01*
X12779705Y-14697793D02*
X12770182Y-14735888D01*
X12770182Y-14735888D02*
X12760658Y-14754936D01*
X12760658Y-14754936D02*
X12751134Y-14764460D01*
X12751134Y-14764460D02*
X12732086Y-14773984D01*
X12732086Y-14773984D02*
X12713039Y-14773984D01*
X12713039Y-14773984D02*
X12693991Y-14764460D01*
X12693991Y-14764460D02*
X12684467Y-14754936D01*
X12684467Y-14754936D02*
X12674943Y-14735888D01*
X12674943Y-14735888D02*
X12665420Y-14697793D01*
X12665420Y-14697793D02*
X12665420Y-14650174D01*
X12665420Y-14650174D02*
X12674943Y-14612079D01*
X12674943Y-14612079D02*
X12684467Y-14593031D01*
X12684467Y-14593031D02*
X12693991Y-14583508D01*
X12693991Y-14583508D02*
X12713039Y-14573984D01*
X12865420Y-14773984D02*
X12865420Y-14640650D01*
X12865420Y-14659698D02*
X12874943Y-14650174D01*
X12874943Y-14650174D02*
X12893991Y-14640650D01*
X12893991Y-14640650D02*
X12922563Y-14640650D01*
X12922563Y-14640650D02*
X12941610Y-14650174D01*
X12941610Y-14650174D02*
X12951134Y-14669222D01*
X12951134Y-14669222D02*
X12951134Y-14773984D01*
X12951134Y-14669222D02*
X12960658Y-14650174D01*
X12960658Y-14650174D02*
X12979705Y-14640650D01*
X12979705Y-14640650D02*
X13008277Y-14640650D01*
X13008277Y-14640650D02*
X13027324Y-14650174D01*
X13027324Y-14650174D02*
X13036848Y-14669222D01*
X13036848Y-14669222D02*
X13036848Y-14773984D01*
X13132086Y-14773984D02*
X13132086Y-14640650D01*
X13132086Y-14659698D02*
X13141610Y-14650174D01*
X13141610Y-14650174D02*
X13160658Y-14640650D01*
X13160658Y-14640650D02*
X13189229Y-14640650D01*
X13189229Y-14640650D02*
X13208277Y-14650174D01*
X13208277Y-14650174D02*
X13217801Y-14669222D01*
X13217801Y-14669222D02*
X13217801Y-14773984D01*
X13217801Y-14669222D02*
X13227324Y-14650174D01*
X13227324Y-14650174D02*
X13246372Y-14640650D01*
X13246372Y-14640650D02*
X13274943Y-14640650D01*
X13274943Y-14640650D02*
X13293991Y-14650174D01*
X13293991Y-14650174D02*
X13303515Y-14669222D01*
X13303515Y-14669222D02*
X13303515Y-14773984D01*
X13693991Y-14564460D02*
X13522563Y-14821603D01*
X13951134Y-14573984D02*
X13970182Y-14573984D01*
X13970182Y-14573984D02*
X13989229Y-14583508D01*
X13989229Y-14583508D02*
X13998753Y-14593031D01*
X13998753Y-14593031D02*
X14008277Y-14612079D01*
X14008277Y-14612079D02*
X14017801Y-14650174D01*
X14017801Y-14650174D02*
X14017801Y-14697793D01*
X14017801Y-14697793D02*
X14008277Y-14735888D01*
X14008277Y-14735888D02*
X13998753Y-14754936D01*
X13998753Y-14754936D02*
X13989229Y-14764460D01*
X13989229Y-14764460D02*
X13970182Y-14773984D01*
X13970182Y-14773984D02*
X13951134Y-14773984D01*
X13951134Y-14773984D02*
X13932086Y-14764460D01*
X13932086Y-14764460D02*
X13922563Y-14754936D01*
X13922563Y-14754936D02*
X13913039Y-14735888D01*
X13913039Y-14735888D02*
X13903515Y-14697793D01*
X13903515Y-14697793D02*
X13903515Y-14650174D01*
X13903515Y-14650174D02*
X13913039Y-14612079D01*
X13913039Y-14612079D02*
X13922563Y-14593031D01*
X13922563Y-14593031D02*
X13932086Y-14583508D01*
X13932086Y-14583508D02*
X13951134Y-14573984D01*
X14103515Y-14754936D02*
X14113039Y-14764460D01*
X14113039Y-14764460D02*
X14103515Y-14773984D01*
X14103515Y-14773984D02*
X14093991Y-14764460D01*
X14093991Y-14764460D02*
X14103515Y-14754936D01*
X14103515Y-14754936D02*
X14103515Y-14773984D01*
X14303515Y-14773984D02*
X14189229Y-14773984D01*
X14246372Y-14773984D02*
X14246372Y-14573984D01*
X14246372Y-14573984D02*
X14227325Y-14602555D01*
X14227325Y-14602555D02*
X14208277Y-14621603D01*
X14208277Y-14621603D02*
X14189229Y-14631127D01*
X14379706Y-14593031D02*
X14389229Y-14583508D01*
X14389229Y-14583508D02*
X14408277Y-14573984D01*
X14408277Y-14573984D02*
X14455896Y-14573984D01*
X14455896Y-14573984D02*
X14474944Y-14583508D01*
X14474944Y-14583508D02*
X14484467Y-14593031D01*
X14484467Y-14593031D02*
X14493991Y-14612079D01*
X14493991Y-14612079D02*
X14493991Y-14631127D01*
X14493991Y-14631127D02*
X14484467Y-14659698D01*
X14484467Y-14659698D02*
X14370182Y-14773984D01*
X14370182Y-14773984D02*
X14493991Y-14773984D01*
X14665420Y-14573984D02*
X14627325Y-14573984D01*
X14627325Y-14573984D02*
X14608277Y-14583508D01*
X14608277Y-14583508D02*
X14598753Y-14593031D01*
X14598753Y-14593031D02*
X14579706Y-14621603D01*
X14579706Y-14621603D02*
X14570182Y-14659698D01*
X14570182Y-14659698D02*
X14570182Y-14735888D01*
X14570182Y-14735888D02*
X14579706Y-14754936D01*
X14579706Y-14754936D02*
X14589229Y-14764460D01*
X14589229Y-14764460D02*
X14608277Y-14773984D01*
X14608277Y-14773984D02*
X14646372Y-14773984D01*
X14646372Y-14773984D02*
X14665420Y-14764460D01*
X14665420Y-14764460D02*
X14674944Y-14754936D01*
X14674944Y-14754936D02*
X14684467Y-14735888D01*
X14684467Y-14735888D02*
X14684467Y-14688269D01*
X14684467Y-14688269D02*
X14674944Y-14669222D01*
X14674944Y-14669222D02*
X14665420Y-14659698D01*
X14665420Y-14659698D02*
X14646372Y-14650174D01*
X14646372Y-14650174D02*
X14608277Y-14650174D01*
X14608277Y-14650174D02*
X14589229Y-14659698D01*
X14589229Y-14659698D02*
X14579706Y-14669222D01*
X14579706Y-14669222D02*
X14570182Y-14688269D01*
X14808277Y-14573984D02*
X14827325Y-14573984D01*
X14827325Y-14573984D02*
X14846372Y-14583508D01*
X14846372Y-14583508D02*
X14855896Y-14593031D01*
X14855896Y-14593031D02*
X14865420Y-14612079D01*
X14865420Y-14612079D02*
X14874944Y-14650174D01*
X14874944Y-14650174D02*
X14874944Y-14697793D01*
X14874944Y-14697793D02*
X14865420Y-14735888D01*
X14865420Y-14735888D02*
X14855896Y-14754936D01*
X14855896Y-14754936D02*
X14846372Y-14764460D01*
X14846372Y-14764460D02*
X14827325Y-14773984D01*
X14827325Y-14773984D02*
X14808277Y-14773984D01*
X14808277Y-14773984D02*
X14789229Y-14764460D01*
X14789229Y-14764460D02*
X14779706Y-14754936D01*
X14779706Y-14754936D02*
X14770182Y-14735888D01*
X14770182Y-14735888D02*
X14760658Y-14697793D01*
X14760658Y-14697793D02*
X14760658Y-14650174D01*
X14760658Y-14650174D02*
X14770182Y-14612079D01*
X14770182Y-14612079D02*
X14779706Y-14593031D01*
X14779706Y-14593031D02*
X14789229Y-14583508D01*
X14789229Y-14583508D02*
X14808277Y-14573984D01*
X14951134Y-14573984D02*
X14951134Y-14612079D01*
X15027325Y-14573984D02*
X15027325Y-14612079D01*
X15322563Y-14850174D02*
X15313039Y-14840650D01*
X15313039Y-14840650D02*
X15293991Y-14812079D01*
X15293991Y-14812079D02*
X15284468Y-14793031D01*
X15284468Y-14793031D02*
X15274944Y-14764460D01*
X15274944Y-14764460D02*
X15265420Y-14716841D01*
X15265420Y-14716841D02*
X15265420Y-14678746D01*
X15265420Y-14678746D02*
X15274944Y-14631127D01*
X15274944Y-14631127D02*
X15284468Y-14602555D01*
X15284468Y-14602555D02*
X15293991Y-14583508D01*
X15293991Y-14583508D02*
X15313039Y-14554936D01*
X15313039Y-14554936D02*
X15322563Y-14545412D01*
X15484468Y-14640650D02*
X15484468Y-14773984D01*
X15436848Y-14564460D02*
X15389229Y-14707317D01*
X15389229Y-14707317D02*
X15513039Y-14707317D01*
X15741610Y-14773984D02*
X15741610Y-14573984D01*
X15827325Y-14773984D02*
X15827325Y-14669222D01*
X15827325Y-14669222D02*
X15817801Y-14650174D01*
X15817801Y-14650174D02*
X15798753Y-14640650D01*
X15798753Y-14640650D02*
X15770182Y-14640650D01*
X15770182Y-14640650D02*
X15751134Y-14650174D01*
X15751134Y-14650174D02*
X15741610Y-14659698D01*
X15951134Y-14773984D02*
X15932087Y-14764460D01*
X15932087Y-14764460D02*
X15922563Y-14754936D01*
X15922563Y-14754936D02*
X15913039Y-14735888D01*
X15913039Y-14735888D02*
X15913039Y-14678746D01*
X15913039Y-14678746D02*
X15922563Y-14659698D01*
X15922563Y-14659698D02*
X15932087Y-14650174D01*
X15932087Y-14650174D02*
X15951134Y-14640650D01*
X15951134Y-14640650D02*
X15979706Y-14640650D01*
X15979706Y-14640650D02*
X15998753Y-14650174D01*
X15998753Y-14650174D02*
X16008277Y-14659698D01*
X16008277Y-14659698D02*
X16017801Y-14678746D01*
X16017801Y-14678746D02*
X16017801Y-14735888D01*
X16017801Y-14735888D02*
X16008277Y-14754936D01*
X16008277Y-14754936D02*
X15998753Y-14764460D01*
X15998753Y-14764460D02*
X15979706Y-14773984D01*
X15979706Y-14773984D02*
X15951134Y-14773984D01*
X16132087Y-14773984D02*
X16113039Y-14764460D01*
X16113039Y-14764460D02*
X16103515Y-14745412D01*
X16103515Y-14745412D02*
X16103515Y-14573984D01*
X16284468Y-14764460D02*
X16265420Y-14773984D01*
X16265420Y-14773984D02*
X16227325Y-14773984D01*
X16227325Y-14773984D02*
X16208277Y-14764460D01*
X16208277Y-14764460D02*
X16198753Y-14745412D01*
X16198753Y-14745412D02*
X16198753Y-14669222D01*
X16198753Y-14669222D02*
X16208277Y-14650174D01*
X16208277Y-14650174D02*
X16227325Y-14640650D01*
X16227325Y-14640650D02*
X16265420Y-14640650D01*
X16265420Y-14640650D02*
X16284468Y-14650174D01*
X16284468Y-14650174D02*
X16293991Y-14669222D01*
X16293991Y-14669222D02*
X16293991Y-14688269D01*
X16293991Y-14688269D02*
X16198753Y-14707317D01*
X16370182Y-14764460D02*
X16389230Y-14773984D01*
X16389230Y-14773984D02*
X16427325Y-14773984D01*
X16427325Y-14773984D02*
X16446372Y-14764460D01*
X16446372Y-14764460D02*
X16455896Y-14745412D01*
X16455896Y-14745412D02*
X16455896Y-14735888D01*
X16455896Y-14735888D02*
X16446372Y-14716841D01*
X16446372Y-14716841D02*
X16427325Y-14707317D01*
X16427325Y-14707317D02*
X16398753Y-14707317D01*
X16398753Y-14707317D02*
X16379706Y-14697793D01*
X16379706Y-14697793D02*
X16370182Y-14678746D01*
X16370182Y-14678746D02*
X16370182Y-14669222D01*
X16370182Y-14669222D02*
X16379706Y-14650174D01*
X16379706Y-14650174D02*
X16398753Y-14640650D01*
X16398753Y-14640650D02*
X16427325Y-14640650D01*
X16427325Y-14640650D02*
X16446372Y-14650174D01*
X16522563Y-14850174D02*
X16532087Y-14840650D01*
X16532087Y-14840650D02*
X16551134Y-14812079D01*
X16551134Y-14812079D02*
X16560658Y-14793031D01*
X16560658Y-14793031D02*
X16570182Y-14764460D01*
X16570182Y-14764460D02*
X16579706Y-14716841D01*
X16579706Y-14716841D02*
X16579706Y-14678746D01*
X16579706Y-14678746D02*
X16570182Y-14631127D01*
X16570182Y-14631127D02*
X16560658Y-14602555D01*
X16560658Y-14602555D02*
X16551134Y-14583508D01*
X16551134Y-14583508D02*
X16532087Y-14554936D01*
X16532087Y-14554936D02*
X16522563Y-14545412D01*
X16884468Y-14850174D02*
X16874944Y-14840650D01*
X16874944Y-14840650D02*
X16855896Y-14812079D01*
X16855896Y-14812079D02*
X16846373Y-14793031D01*
X16846373Y-14793031D02*
X16836849Y-14764460D01*
X16836849Y-14764460D02*
X16827325Y-14716841D01*
X16827325Y-14716841D02*
X16827325Y-14678746D01*
X16827325Y-14678746D02*
X16836849Y-14631127D01*
X16836849Y-14631127D02*
X16846373Y-14602555D01*
X16846373Y-14602555D02*
X16855896Y-14583508D01*
X16855896Y-14583508D02*
X16874944Y-14554936D01*
X16874944Y-14554936D02*
X16884468Y-14545412D01*
X16960658Y-14640650D02*
X16960658Y-14773984D01*
X16960658Y-14659698D02*
X16970182Y-14650174D01*
X16970182Y-14650174D02*
X16989230Y-14640650D01*
X16989230Y-14640650D02*
X17017801Y-14640650D01*
X17017801Y-14640650D02*
X17036849Y-14650174D01*
X17036849Y-14650174D02*
X17046373Y-14669222D01*
X17046373Y-14669222D02*
X17046373Y-14773984D01*
X17170182Y-14773984D02*
X17151134Y-14764460D01*
X17151134Y-14764460D02*
X17141611Y-14754936D01*
X17141611Y-14754936D02*
X17132087Y-14735888D01*
X17132087Y-14735888D02*
X17132087Y-14678746D01*
X17132087Y-14678746D02*
X17141611Y-14659698D01*
X17141611Y-14659698D02*
X17151134Y-14650174D01*
X17151134Y-14650174D02*
X17170182Y-14640650D01*
X17170182Y-14640650D02*
X17198754Y-14640650D01*
X17198754Y-14640650D02*
X17217801Y-14650174D01*
X17217801Y-14650174D02*
X17227325Y-14659698D01*
X17227325Y-14659698D02*
X17236849Y-14678746D01*
X17236849Y-14678746D02*
X17236849Y-14735888D01*
X17236849Y-14735888D02*
X17227325Y-14754936D01*
X17227325Y-14754936D02*
X17217801Y-14764460D01*
X17217801Y-14764460D02*
X17198754Y-14773984D01*
X17198754Y-14773984D02*
X17170182Y-14773984D01*
X17293992Y-14640650D02*
X17370182Y-14640650D01*
X17322563Y-14573984D02*
X17322563Y-14745412D01*
X17322563Y-14745412D02*
X17332087Y-14764460D01*
X17332087Y-14764460D02*
X17351134Y-14773984D01*
X17351134Y-14773984D02*
X17370182Y-14773984D01*
X17589230Y-14640650D02*
X17589230Y-14840650D01*
X17589230Y-14650174D02*
X17608277Y-14640650D01*
X17608277Y-14640650D02*
X17646373Y-14640650D01*
X17646373Y-14640650D02*
X17665420Y-14650174D01*
X17665420Y-14650174D02*
X17674944Y-14659698D01*
X17674944Y-14659698D02*
X17684468Y-14678746D01*
X17684468Y-14678746D02*
X17684468Y-14735888D01*
X17684468Y-14735888D02*
X17674944Y-14754936D01*
X17674944Y-14754936D02*
X17665420Y-14764460D01*
X17665420Y-14764460D02*
X17646373Y-14773984D01*
X17646373Y-14773984D02*
X17608277Y-14773984D01*
X17608277Y-14773984D02*
X17589230Y-14764460D01*
X17798754Y-14773984D02*
X17779706Y-14764460D01*
X17779706Y-14764460D02*
X17770182Y-14745412D01*
X17770182Y-14745412D02*
X17770182Y-14573984D01*
X17960658Y-14773984D02*
X17960658Y-14669222D01*
X17960658Y-14669222D02*
X17951135Y-14650174D01*
X17951135Y-14650174D02*
X17932087Y-14640650D01*
X17932087Y-14640650D02*
X17893992Y-14640650D01*
X17893992Y-14640650D02*
X17874944Y-14650174D01*
X17960658Y-14764460D02*
X17941611Y-14773984D01*
X17941611Y-14773984D02*
X17893992Y-14773984D01*
X17893992Y-14773984D02*
X17874944Y-14764460D01*
X17874944Y-14764460D02*
X17865420Y-14745412D01*
X17865420Y-14745412D02*
X17865420Y-14726365D01*
X17865420Y-14726365D02*
X17874944Y-14707317D01*
X17874944Y-14707317D02*
X17893992Y-14697793D01*
X17893992Y-14697793D02*
X17941611Y-14697793D01*
X17941611Y-14697793D02*
X17960658Y-14688269D01*
X18027325Y-14640650D02*
X18103515Y-14640650D01*
X18055896Y-14573984D02*
X18055896Y-14745412D01*
X18055896Y-14745412D02*
X18065420Y-14764460D01*
X18065420Y-14764460D02*
X18084468Y-14773984D01*
X18084468Y-14773984D02*
X18103515Y-14773984D01*
X18246373Y-14764460D02*
X18227325Y-14773984D01*
X18227325Y-14773984D02*
X18189230Y-14773984D01*
X18189230Y-14773984D02*
X18170182Y-14764460D01*
X18170182Y-14764460D02*
X18160658Y-14745412D01*
X18160658Y-14745412D02*
X18160658Y-14669222D01*
X18160658Y-14669222D02*
X18170182Y-14650174D01*
X18170182Y-14650174D02*
X18189230Y-14640650D01*
X18189230Y-14640650D02*
X18227325Y-14640650D01*
X18227325Y-14640650D02*
X18246373Y-14650174D01*
X18246373Y-14650174D02*
X18255896Y-14669222D01*
X18255896Y-14669222D02*
X18255896Y-14688269D01*
X18255896Y-14688269D02*
X18160658Y-14707317D01*
X18427325Y-14773984D02*
X18427325Y-14573984D01*
X18427325Y-14764460D02*
X18408277Y-14773984D01*
X18408277Y-14773984D02*
X18370182Y-14773984D01*
X18370182Y-14773984D02*
X18351135Y-14764460D01*
X18351135Y-14764460D02*
X18341611Y-14754936D01*
X18341611Y-14754936D02*
X18332087Y-14735888D01*
X18332087Y-14735888D02*
X18332087Y-14678746D01*
X18332087Y-14678746D02*
X18341611Y-14659698D01*
X18341611Y-14659698D02*
X18351135Y-14650174D01*
X18351135Y-14650174D02*
X18370182Y-14640650D01*
X18370182Y-14640650D02*
X18408277Y-14640650D01*
X18408277Y-14640650D02*
X18427325Y-14650174D01*
X18503516Y-14850174D02*
X18513039Y-14840650D01*
X18513039Y-14840650D02*
X18532087Y-14812079D01*
X18532087Y-14812079D02*
X18541611Y-14793031D01*
X18541611Y-14793031D02*
X18551135Y-14764460D01*
X18551135Y-14764460D02*
X18560658Y-14716841D01*
X18560658Y-14716841D02*
X18560658Y-14678746D01*
X18560658Y-14678746D02*
X18551135Y-14631127D01*
X18551135Y-14631127D02*
X18541611Y-14602555D01*
X18541611Y-14602555D02*
X18532087Y-14583508D01*
X18532087Y-14583508D02*
X18513039Y-14554936D01*
X18513039Y-14554936D02*
X18503516Y-14545412D01*
X11647500Y-14902500D02*
X11647500Y-15102500D01*
X11547500Y-15002500D02*
X11747500Y-15002500D01*
X12093991Y-14960650D02*
X12093991Y-15093984D01*
X12046372Y-14884460D02*
X11998753Y-15027317D01*
X11998753Y-15027317D02*
X12122562Y-15027317D01*
X12198753Y-15074936D02*
X12208277Y-15084460D01*
X12208277Y-15084460D02*
X12198753Y-15093984D01*
X12198753Y-15093984D02*
X12189229Y-15084460D01*
X12189229Y-15084460D02*
X12198753Y-15074936D01*
X12198753Y-15074936D02*
X12198753Y-15093984D01*
X12332086Y-14893984D02*
X12351134Y-14893984D01*
X12351134Y-14893984D02*
X12370182Y-14903508D01*
X12370182Y-14903508D02*
X12379705Y-14913031D01*
X12379705Y-14913031D02*
X12389229Y-14932079D01*
X12389229Y-14932079D02*
X12398753Y-14970174D01*
X12398753Y-14970174D02*
X12398753Y-15017793D01*
X12398753Y-15017793D02*
X12389229Y-15055888D01*
X12389229Y-15055888D02*
X12379705Y-15074936D01*
X12379705Y-15074936D02*
X12370182Y-15084460D01*
X12370182Y-15084460D02*
X12351134Y-15093984D01*
X12351134Y-15093984D02*
X12332086Y-15093984D01*
X12332086Y-15093984D02*
X12313039Y-15084460D01*
X12313039Y-15084460D02*
X12303515Y-15074936D01*
X12303515Y-15074936D02*
X12293991Y-15055888D01*
X12293991Y-15055888D02*
X12284467Y-15017793D01*
X12284467Y-15017793D02*
X12284467Y-14970174D01*
X12284467Y-14970174D02*
X12293991Y-14932079D01*
X12293991Y-14932079D02*
X12303515Y-14913031D01*
X12303515Y-14913031D02*
X12313039Y-14903508D01*
X12313039Y-14903508D02*
X12332086Y-14893984D01*
X12522562Y-14893984D02*
X12541610Y-14893984D01*
X12541610Y-14893984D02*
X12560658Y-14903508D01*
X12560658Y-14903508D02*
X12570182Y-14913031D01*
X12570182Y-14913031D02*
X12579705Y-14932079D01*
X12579705Y-14932079D02*
X12589229Y-14970174D01*
X12589229Y-14970174D02*
X12589229Y-15017793D01*
X12589229Y-15017793D02*
X12579705Y-15055888D01*
X12579705Y-15055888D02*
X12570182Y-15074936D01*
X12570182Y-15074936D02*
X12560658Y-15084460D01*
X12560658Y-15084460D02*
X12541610Y-15093984D01*
X12541610Y-15093984D02*
X12522562Y-15093984D01*
X12522562Y-15093984D02*
X12503515Y-15084460D01*
X12503515Y-15084460D02*
X12493991Y-15074936D01*
X12493991Y-15074936D02*
X12484467Y-15055888D01*
X12484467Y-15055888D02*
X12474943Y-15017793D01*
X12474943Y-15017793D02*
X12474943Y-14970174D01*
X12474943Y-14970174D02*
X12484467Y-14932079D01*
X12484467Y-14932079D02*
X12493991Y-14913031D01*
X12493991Y-14913031D02*
X12503515Y-14903508D01*
X12503515Y-14903508D02*
X12522562Y-14893984D01*
X12713039Y-14893984D02*
X12732086Y-14893984D01*
X12732086Y-14893984D02*
X12751134Y-14903508D01*
X12751134Y-14903508D02*
X12760658Y-14913031D01*
X12760658Y-14913031D02*
X12770182Y-14932079D01*
X12770182Y-14932079D02*
X12779705Y-14970174D01*
X12779705Y-14970174D02*
X12779705Y-15017793D01*
X12779705Y-15017793D02*
X12770182Y-15055888D01*
X12770182Y-15055888D02*
X12760658Y-15074936D01*
X12760658Y-15074936D02*
X12751134Y-15084460D01*
X12751134Y-15084460D02*
X12732086Y-15093984D01*
X12732086Y-15093984D02*
X12713039Y-15093984D01*
X12713039Y-15093984D02*
X12693991Y-15084460D01*
X12693991Y-15084460D02*
X12684467Y-15074936D01*
X12684467Y-15074936D02*
X12674943Y-15055888D01*
X12674943Y-15055888D02*
X12665420Y-15017793D01*
X12665420Y-15017793D02*
X12665420Y-14970174D01*
X12665420Y-14970174D02*
X12674943Y-14932079D01*
X12674943Y-14932079D02*
X12684467Y-14913031D01*
X12684467Y-14913031D02*
X12693991Y-14903508D01*
X12693991Y-14903508D02*
X12713039Y-14893984D01*
X12865420Y-15093984D02*
X12865420Y-14960650D01*
X12865420Y-14979698D02*
X12874943Y-14970174D01*
X12874943Y-14970174D02*
X12893991Y-14960650D01*
X12893991Y-14960650D02*
X12922563Y-14960650D01*
X12922563Y-14960650D02*
X12941610Y-14970174D01*
X12941610Y-14970174D02*
X12951134Y-14989222D01*
X12951134Y-14989222D02*
X12951134Y-15093984D01*
X12951134Y-14989222D02*
X12960658Y-14970174D01*
X12960658Y-14970174D02*
X12979705Y-14960650D01*
X12979705Y-14960650D02*
X13008277Y-14960650D01*
X13008277Y-14960650D02*
X13027324Y-14970174D01*
X13027324Y-14970174D02*
X13036848Y-14989222D01*
X13036848Y-14989222D02*
X13036848Y-15093984D01*
X13132086Y-15093984D02*
X13132086Y-14960650D01*
X13132086Y-14979698D02*
X13141610Y-14970174D01*
X13141610Y-14970174D02*
X13160658Y-14960650D01*
X13160658Y-14960650D02*
X13189229Y-14960650D01*
X13189229Y-14960650D02*
X13208277Y-14970174D01*
X13208277Y-14970174D02*
X13217801Y-14989222D01*
X13217801Y-14989222D02*
X13217801Y-15093984D01*
X13217801Y-14989222D02*
X13227324Y-14970174D01*
X13227324Y-14970174D02*
X13246372Y-14960650D01*
X13246372Y-14960650D02*
X13274943Y-14960650D01*
X13274943Y-14960650D02*
X13293991Y-14970174D01*
X13293991Y-14970174D02*
X13303515Y-14989222D01*
X13303515Y-14989222D02*
X13303515Y-15093984D01*
X13693991Y-14884460D02*
X13522563Y-15141603D01*
X13951134Y-14893984D02*
X13970182Y-14893984D01*
X13970182Y-14893984D02*
X13989229Y-14903508D01*
X13989229Y-14903508D02*
X13998753Y-14913031D01*
X13998753Y-14913031D02*
X14008277Y-14932079D01*
X14008277Y-14932079D02*
X14017801Y-14970174D01*
X14017801Y-14970174D02*
X14017801Y-15017793D01*
X14017801Y-15017793D02*
X14008277Y-15055888D01*
X14008277Y-15055888D02*
X13998753Y-15074936D01*
X13998753Y-15074936D02*
X13989229Y-15084460D01*
X13989229Y-15084460D02*
X13970182Y-15093984D01*
X13970182Y-15093984D02*
X13951134Y-15093984D01*
X13951134Y-15093984D02*
X13932086Y-15084460D01*
X13932086Y-15084460D02*
X13922563Y-15074936D01*
X13922563Y-15074936D02*
X13913039Y-15055888D01*
X13913039Y-15055888D02*
X13903515Y-15017793D01*
X13903515Y-15017793D02*
X13903515Y-14970174D01*
X13903515Y-14970174D02*
X13913039Y-14932079D01*
X13913039Y-14932079D02*
X13922563Y-14913031D01*
X13922563Y-14913031D02*
X13932086Y-14903508D01*
X13932086Y-14903508D02*
X13951134Y-14893984D01*
X14103515Y-15074936D02*
X14113039Y-15084460D01*
X14113039Y-15084460D02*
X14103515Y-15093984D01*
X14103515Y-15093984D02*
X14093991Y-15084460D01*
X14093991Y-15084460D02*
X14103515Y-15074936D01*
X14103515Y-15074936D02*
X14103515Y-15093984D01*
X14303515Y-15093984D02*
X14189229Y-15093984D01*
X14246372Y-15093984D02*
X14246372Y-14893984D01*
X14246372Y-14893984D02*
X14227325Y-14922555D01*
X14227325Y-14922555D02*
X14208277Y-14941603D01*
X14208277Y-14941603D02*
X14189229Y-14951127D01*
X14484467Y-14893984D02*
X14389229Y-14893984D01*
X14389229Y-14893984D02*
X14379706Y-14989222D01*
X14379706Y-14989222D02*
X14389229Y-14979698D01*
X14389229Y-14979698D02*
X14408277Y-14970174D01*
X14408277Y-14970174D02*
X14455896Y-14970174D01*
X14455896Y-14970174D02*
X14474944Y-14979698D01*
X14474944Y-14979698D02*
X14484467Y-14989222D01*
X14484467Y-14989222D02*
X14493991Y-15008269D01*
X14493991Y-15008269D02*
X14493991Y-15055888D01*
X14493991Y-15055888D02*
X14484467Y-15074936D01*
X14484467Y-15074936D02*
X14474944Y-15084460D01*
X14474944Y-15084460D02*
X14455896Y-15093984D01*
X14455896Y-15093984D02*
X14408277Y-15093984D01*
X14408277Y-15093984D02*
X14389229Y-15084460D01*
X14389229Y-15084460D02*
X14379706Y-15074936D01*
X14560658Y-14893984D02*
X14693991Y-14893984D01*
X14693991Y-14893984D02*
X14608277Y-15093984D01*
X14865420Y-14893984D02*
X14770182Y-14893984D01*
X14770182Y-14893984D02*
X14760658Y-14989222D01*
X14760658Y-14989222D02*
X14770182Y-14979698D01*
X14770182Y-14979698D02*
X14789229Y-14970174D01*
X14789229Y-14970174D02*
X14836848Y-14970174D01*
X14836848Y-14970174D02*
X14855896Y-14979698D01*
X14855896Y-14979698D02*
X14865420Y-14989222D01*
X14865420Y-14989222D02*
X14874944Y-15008269D01*
X14874944Y-15008269D02*
X14874944Y-15055888D01*
X14874944Y-15055888D02*
X14865420Y-15074936D01*
X14865420Y-15074936D02*
X14855896Y-15084460D01*
X14855896Y-15084460D02*
X14836848Y-15093984D01*
X14836848Y-15093984D02*
X14789229Y-15093984D01*
X14789229Y-15093984D02*
X14770182Y-15084460D01*
X14770182Y-15084460D02*
X14760658Y-15074936D01*
X14951134Y-14893984D02*
X14951134Y-14932079D01*
X15027325Y-14893984D02*
X15027325Y-14932079D01*
X15322563Y-15170174D02*
X15313039Y-15160650D01*
X15313039Y-15160650D02*
X15293991Y-15132079D01*
X15293991Y-15132079D02*
X15284468Y-15113031D01*
X15284468Y-15113031D02*
X15274944Y-15084460D01*
X15274944Y-15084460D02*
X15265420Y-15036841D01*
X15265420Y-15036841D02*
X15265420Y-14998746D01*
X15265420Y-14998746D02*
X15274944Y-14951127D01*
X15274944Y-14951127D02*
X15284468Y-14922555D01*
X15284468Y-14922555D02*
X15293991Y-14903508D01*
X15293991Y-14903508D02*
X15313039Y-14874936D01*
X15313039Y-14874936D02*
X15322563Y-14865412D01*
X15484468Y-14960650D02*
X15484468Y-15093984D01*
X15436848Y-14884460D02*
X15389229Y-15027317D01*
X15389229Y-15027317D02*
X15513039Y-15027317D01*
X15741610Y-15093984D02*
X15741610Y-14893984D01*
X15827325Y-15093984D02*
X15827325Y-14989222D01*
X15827325Y-14989222D02*
X15817801Y-14970174D01*
X15817801Y-14970174D02*
X15798753Y-14960650D01*
X15798753Y-14960650D02*
X15770182Y-14960650D01*
X15770182Y-14960650D02*
X15751134Y-14970174D01*
X15751134Y-14970174D02*
X15741610Y-14979698D01*
X15951134Y-15093984D02*
X15932087Y-15084460D01*
X15932087Y-15084460D02*
X15922563Y-15074936D01*
X15922563Y-15074936D02*
X15913039Y-15055888D01*
X15913039Y-15055888D02*
X15913039Y-14998746D01*
X15913039Y-14998746D02*
X15922563Y-14979698D01*
X15922563Y-14979698D02*
X15932087Y-14970174D01*
X15932087Y-14970174D02*
X15951134Y-14960650D01*
X15951134Y-14960650D02*
X15979706Y-14960650D01*
X15979706Y-14960650D02*
X15998753Y-14970174D01*
X15998753Y-14970174D02*
X16008277Y-14979698D01*
X16008277Y-14979698D02*
X16017801Y-14998746D01*
X16017801Y-14998746D02*
X16017801Y-15055888D01*
X16017801Y-15055888D02*
X16008277Y-15074936D01*
X16008277Y-15074936D02*
X15998753Y-15084460D01*
X15998753Y-15084460D02*
X15979706Y-15093984D01*
X15979706Y-15093984D02*
X15951134Y-15093984D01*
X16132087Y-15093984D02*
X16113039Y-15084460D01*
X16113039Y-15084460D02*
X16103515Y-15065412D01*
X16103515Y-15065412D02*
X16103515Y-14893984D01*
X16284468Y-15084460D02*
X16265420Y-15093984D01*
X16265420Y-15093984D02*
X16227325Y-15093984D01*
X16227325Y-15093984D02*
X16208277Y-15084460D01*
X16208277Y-15084460D02*
X16198753Y-15065412D01*
X16198753Y-15065412D02*
X16198753Y-14989222D01*
X16198753Y-14989222D02*
X16208277Y-14970174D01*
X16208277Y-14970174D02*
X16227325Y-14960650D01*
X16227325Y-14960650D02*
X16265420Y-14960650D01*
X16265420Y-14960650D02*
X16284468Y-14970174D01*
X16284468Y-14970174D02*
X16293991Y-14989222D01*
X16293991Y-14989222D02*
X16293991Y-15008269D01*
X16293991Y-15008269D02*
X16198753Y-15027317D01*
X16370182Y-15084460D02*
X16389230Y-15093984D01*
X16389230Y-15093984D02*
X16427325Y-15093984D01*
X16427325Y-15093984D02*
X16446372Y-15084460D01*
X16446372Y-15084460D02*
X16455896Y-15065412D01*
X16455896Y-15065412D02*
X16455896Y-15055888D01*
X16455896Y-15055888D02*
X16446372Y-15036841D01*
X16446372Y-15036841D02*
X16427325Y-15027317D01*
X16427325Y-15027317D02*
X16398753Y-15027317D01*
X16398753Y-15027317D02*
X16379706Y-15017793D01*
X16379706Y-15017793D02*
X16370182Y-14998746D01*
X16370182Y-14998746D02*
X16370182Y-14989222D01*
X16370182Y-14989222D02*
X16379706Y-14970174D01*
X16379706Y-14970174D02*
X16398753Y-14960650D01*
X16398753Y-14960650D02*
X16427325Y-14960650D01*
X16427325Y-14960650D02*
X16446372Y-14970174D01*
X16522563Y-15170174D02*
X16532087Y-15160650D01*
X16532087Y-15160650D02*
X16551134Y-15132079D01*
X16551134Y-15132079D02*
X16560658Y-15113031D01*
X16560658Y-15113031D02*
X16570182Y-15084460D01*
X16570182Y-15084460D02*
X16579706Y-15036841D01*
X16579706Y-15036841D02*
X16579706Y-14998746D01*
X16579706Y-14998746D02*
X16570182Y-14951127D01*
X16570182Y-14951127D02*
X16560658Y-14922555D01*
X16560658Y-14922555D02*
X16551134Y-14903508D01*
X16551134Y-14903508D02*
X16532087Y-14874936D01*
X16532087Y-14874936D02*
X16522563Y-14865412D01*
X16884468Y-15170174D02*
X16874944Y-15160650D01*
X16874944Y-15160650D02*
X16855896Y-15132079D01*
X16855896Y-15132079D02*
X16846373Y-15113031D01*
X16846373Y-15113031D02*
X16836849Y-15084460D01*
X16836849Y-15084460D02*
X16827325Y-15036841D01*
X16827325Y-15036841D02*
X16827325Y-14998746D01*
X16827325Y-14998746D02*
X16836849Y-14951127D01*
X16836849Y-14951127D02*
X16846373Y-14922555D01*
X16846373Y-14922555D02*
X16855896Y-14903508D01*
X16855896Y-14903508D02*
X16874944Y-14874936D01*
X16874944Y-14874936D02*
X16884468Y-14865412D01*
X16960658Y-14960650D02*
X16960658Y-15093984D01*
X16960658Y-14979698D02*
X16970182Y-14970174D01*
X16970182Y-14970174D02*
X16989230Y-14960650D01*
X16989230Y-14960650D02*
X17017801Y-14960650D01*
X17017801Y-14960650D02*
X17036849Y-14970174D01*
X17036849Y-14970174D02*
X17046373Y-14989222D01*
X17046373Y-14989222D02*
X17046373Y-15093984D01*
X17170182Y-15093984D02*
X17151134Y-15084460D01*
X17151134Y-15084460D02*
X17141611Y-15074936D01*
X17141611Y-15074936D02*
X17132087Y-15055888D01*
X17132087Y-15055888D02*
X17132087Y-14998746D01*
X17132087Y-14998746D02*
X17141611Y-14979698D01*
X17141611Y-14979698D02*
X17151134Y-14970174D01*
X17151134Y-14970174D02*
X17170182Y-14960650D01*
X17170182Y-14960650D02*
X17198754Y-14960650D01*
X17198754Y-14960650D02*
X17217801Y-14970174D01*
X17217801Y-14970174D02*
X17227325Y-14979698D01*
X17227325Y-14979698D02*
X17236849Y-14998746D01*
X17236849Y-14998746D02*
X17236849Y-15055888D01*
X17236849Y-15055888D02*
X17227325Y-15074936D01*
X17227325Y-15074936D02*
X17217801Y-15084460D01*
X17217801Y-15084460D02*
X17198754Y-15093984D01*
X17198754Y-15093984D02*
X17170182Y-15093984D01*
X17293992Y-14960650D02*
X17370182Y-14960650D01*
X17322563Y-14893984D02*
X17322563Y-15065412D01*
X17322563Y-15065412D02*
X17332087Y-15084460D01*
X17332087Y-15084460D02*
X17351134Y-15093984D01*
X17351134Y-15093984D02*
X17370182Y-15093984D01*
X17589230Y-14960650D02*
X17589230Y-15160650D01*
X17589230Y-14970174D02*
X17608277Y-14960650D01*
X17608277Y-14960650D02*
X17646373Y-14960650D01*
X17646373Y-14960650D02*
X17665420Y-14970174D01*
X17665420Y-14970174D02*
X17674944Y-14979698D01*
X17674944Y-14979698D02*
X17684468Y-14998746D01*
X17684468Y-14998746D02*
X17684468Y-15055888D01*
X17684468Y-15055888D02*
X17674944Y-15074936D01*
X17674944Y-15074936D02*
X17665420Y-15084460D01*
X17665420Y-15084460D02*
X17646373Y-15093984D01*
X17646373Y-15093984D02*
X17608277Y-15093984D01*
X17608277Y-15093984D02*
X17589230Y-15084460D01*
X17798754Y-15093984D02*
X17779706Y-15084460D01*
X17779706Y-15084460D02*
X17770182Y-15065412D01*
X17770182Y-15065412D02*
X17770182Y-14893984D01*
X17960658Y-15093984D02*
X17960658Y-14989222D01*
X17960658Y-14989222D02*
X17951135Y-14970174D01*
X17951135Y-14970174D02*
X17932087Y-14960650D01*
X17932087Y-14960650D02*
X17893992Y-14960650D01*
X17893992Y-14960650D02*
X17874944Y-14970174D01*
X17960658Y-15084460D02*
X17941611Y-15093984D01*
X17941611Y-15093984D02*
X17893992Y-15093984D01*
X17893992Y-15093984D02*
X17874944Y-15084460D01*
X17874944Y-15084460D02*
X17865420Y-15065412D01*
X17865420Y-15065412D02*
X17865420Y-15046365D01*
X17865420Y-15046365D02*
X17874944Y-15027317D01*
X17874944Y-15027317D02*
X17893992Y-15017793D01*
X17893992Y-15017793D02*
X17941611Y-15017793D01*
X17941611Y-15017793D02*
X17960658Y-15008269D01*
X18027325Y-14960650D02*
X18103515Y-14960650D01*
X18055896Y-14893984D02*
X18055896Y-15065412D01*
X18055896Y-15065412D02*
X18065420Y-15084460D01*
X18065420Y-15084460D02*
X18084468Y-15093984D01*
X18084468Y-15093984D02*
X18103515Y-15093984D01*
X18246373Y-15084460D02*
X18227325Y-15093984D01*
X18227325Y-15093984D02*
X18189230Y-15093984D01*
X18189230Y-15093984D02*
X18170182Y-15084460D01*
X18170182Y-15084460D02*
X18160658Y-15065412D01*
X18160658Y-15065412D02*
X18160658Y-14989222D01*
X18160658Y-14989222D02*
X18170182Y-14970174D01*
X18170182Y-14970174D02*
X18189230Y-14960650D01*
X18189230Y-14960650D02*
X18227325Y-14960650D01*
X18227325Y-14960650D02*
X18246373Y-14970174D01*
X18246373Y-14970174D02*
X18255896Y-14989222D01*
X18255896Y-14989222D02*
X18255896Y-15008269D01*
X18255896Y-15008269D02*
X18160658Y-15027317D01*
X18427325Y-15093984D02*
X18427325Y-14893984D01*
X18427325Y-15084460D02*
X18408277Y-15093984D01*
X18408277Y-15093984D02*
X18370182Y-15093984D01*
X18370182Y-15093984D02*
X18351135Y-15084460D01*
X18351135Y-15084460D02*
X18341611Y-15074936D01*
X18341611Y-15074936D02*
X18332087Y-15055888D01*
X18332087Y-15055888D02*
X18332087Y-14998746D01*
X18332087Y-14998746D02*
X18341611Y-14979698D01*
X18341611Y-14979698D02*
X18351135Y-14970174D01*
X18351135Y-14970174D02*
X18370182Y-14960650D01*
X18370182Y-14960650D02*
X18408277Y-14960650D01*
X18408277Y-14960650D02*
X18427325Y-14970174D01*
X18503516Y-15170174D02*
X18513039Y-15160650D01*
X18513039Y-15160650D02*
X18532087Y-15132079D01*
X18532087Y-15132079D02*
X18541611Y-15113031D01*
X18541611Y-15113031D02*
X18551135Y-15084460D01*
X18551135Y-15084460D02*
X18560658Y-15036841D01*
X18560658Y-15036841D02*
X18560658Y-14998746D01*
X18560658Y-14998746D02*
X18551135Y-14951127D01*
X18551135Y-14951127D02*
X18541611Y-14922555D01*
X18541611Y-14922555D02*
X18532087Y-14903508D01*
X18532087Y-14903508D02*
X18513039Y-14874936D01*
X18513039Y-14874936D02*
X18503516Y-14865412D01*
M02*
