ISO-10303-21;
HEADER;
/* Generated by software containing ST-Developer
 * from STEP Tools, Inc. (www.steptools.com) 
 */
/* OPTION: using custom renumber hook */

FILE_DESCRIPTION(
/* description */ ('STEP AP242 Edition 2',
'CAx-IF Rec.Pracs.---Representation and Presentation of Product Manufa
cturing Information (PMI)---4.0---2014-10-13',
'CAx-IF Rec.Pracs.---3D Tessellated Geometry---0.4---2014-09-14','2;1',
'CAx-IF Rec.Pracs.---User Defined Attributes---1.5---2016-08-15'),
/* implementation_level */ '2;1');

FILE_NAME(
/* name */ 'Part Studio 3 - Part 2',
/* time_stamp */ '2026-09-24T03:02:19Z',
/* author */ (''),
/* organization */ (''),
/* preprocessor_version */ 'ST-DEVELOPER v20',
/* originating_system */ 'ONSHAPE BY PTC INC, 1.221',
/* authorisation */ '  ');

FILE_SCHEMA (('AP242_MANAGED_MODEL_BASED_3D_ENGINEERING_MIM_LF { 1 0 10303 442 3 1 4 }'));
ENDSEC;

DATA;
#10=SHAPE_REPRESENTATION_RELATIONSHIP('','',#587,#11);
#11=ADVANCED_BREP_SHAPE_REPRESENTATION('',(#585),#897);
#12=CIRCLE('',#596,0.0023);
#13=CIRCLE('',#597,0.0023);
#14=CIRCLE('',#599,0.0023);
#15=CIRCLE('',#600,0.0023);
#16=CIRCLE('',#602,0.0023);
#17=CIRCLE('',#603,0.0023);
#18=CIRCLE('',#605,0.0023);
#19=CIRCLE('',#606,0.0023);
#20=CIRCLE('',#609,0.0023);
#21=CIRCLE('',#610,0.0023);
#22=CIRCLE('',#612,0.0023);
#23=CIRCLE('',#613,0.0023);
#24=CIRCLE('',#615,0.0023);
#25=CIRCLE('',#616,0.0023);
#26=CIRCLE('',#618,0.0023);
#27=CIRCLE('',#619,0.0023);
#28=CIRCLE('',#622,0.00380442188578309);
#29=CIRCLE('',#623,0.00380442188578309);
#30=CIRCLE('',#626,0.00380442188578309);
#31=CIRCLE('',#628,0.00298022139546047);
#32=CIRCLE('',#630,0.00380442188578309);
#33=CIRCLE('',#632,0.00302101247650838);
#34=CIRCLE('',#634,0.00298022139546047);
#35=CIRCLE('',#637,0.00302101247650838);
#36=CYLINDRICAL_SURFACE('',#595,0.0023);
#37=CYLINDRICAL_SURFACE('',#598,0.0023);
#38=CYLINDRICAL_SURFACE('',#601,0.0023);
#39=CYLINDRICAL_SURFACE('',#604,0.0023);
#40=CYLINDRICAL_SURFACE('',#608,0.0023);
#41=CYLINDRICAL_SURFACE('',#611,0.0023);
#42=CYLINDRICAL_SURFACE('',#614,0.0023);
#43=CYLINDRICAL_SURFACE('',#617,0.0023);
#44=CYLINDRICAL_SURFACE('',#625,0.00380442188578309);
#45=CYLINDRICAL_SURFACE('',#629,0.00380442188578309);
#46=CYLINDRICAL_SURFACE('',#633,0.00298022139546047);
#47=CYLINDRICAL_SURFACE('',#636,0.00302101247650838);
#48=OVER_RIDING_STYLED_ITEM('',(#469),#446,#467);
#49=OVER_RIDING_STYLED_ITEM('',(#470),#447,#467);
#50=OVER_RIDING_STYLED_ITEM('',(#471),#448,#467);
#51=OVER_RIDING_STYLED_ITEM('',(#472),#449,#467);
#52=OVER_RIDING_STYLED_ITEM('',(#473),#450,#467);
#53=OVER_RIDING_STYLED_ITEM('',(#474),#451,#467);
#54=OVER_RIDING_STYLED_ITEM('',(#475),#452,#467);
#55=OVER_RIDING_STYLED_ITEM('',(#476),#453,#467);
#56=OVER_RIDING_STYLED_ITEM('',(#477),#454,#467);
#57=OVER_RIDING_STYLED_ITEM('',(#478),#455,#467);
#58=OVER_RIDING_STYLED_ITEM('',(#479),#457,#467);
#59=OVER_RIDING_STYLED_ITEM('',(#480),#458,#467);
#60=OVER_RIDING_STYLED_ITEM('',(#481),#459,#467);
#61=OVER_RIDING_STYLED_ITEM('',(#482),#460,#467);
#62=OVER_RIDING_STYLED_ITEM('',(#483),#461,#467);
#63=OVER_RIDING_STYLED_ITEM('',(#484),#463,#467);
#64=OVER_RIDING_STYLED_ITEM('',(#485),#464,#467);
#65=OVER_RIDING_STYLED_ITEM('',(#486),#465,#467);
#66=ORIENTED_EDGE('',*,*,#178,.F.);
#67=ORIENTED_EDGE('',*,*,#179,.F.);
#68=ORIENTED_EDGE('',*,*,#180,.T.);
#69=ORIENTED_EDGE('',*,*,#181,.T.);
#70=ORIENTED_EDGE('',*,*,#182,.T.);
#71=ORIENTED_EDGE('',*,*,#183,.F.);
#72=ORIENTED_EDGE('',*,*,#184,.F.);
#73=ORIENTED_EDGE('',*,*,#179,.T.);
#74=ORIENTED_EDGE('',*,*,#185,.T.);
#75=ORIENTED_EDGE('',*,*,#186,.F.);
#76=ORIENTED_EDGE('',*,*,#187,.F.);
#77=ORIENTED_EDGE('',*,*,#183,.T.);
#78=ORIENTED_EDGE('',*,*,#188,.F.);
#79=ORIENTED_EDGE('',*,*,#189,.F.);
#80=ORIENTED_EDGE('',*,*,#190,.T.);
#81=ORIENTED_EDGE('',*,*,#191,.T.);
#82=ORIENTED_EDGE('',*,*,#192,.T.);
#83=ORIENTED_EDGE('',*,*,#193,.F.);
#84=ORIENTED_EDGE('',*,*,#194,.F.);
#85=ORIENTED_EDGE('',*,*,#189,.T.);
#86=ORIENTED_EDGE('',*,*,#195,.T.);
#87=ORIENTED_EDGE('',*,*,#196,.F.);
#88=ORIENTED_EDGE('',*,*,#197,.F.);
#89=ORIENTED_EDGE('',*,*,#193,.T.);
#90=ORIENTED_EDGE('',*,*,#198,.F.);
#91=ORIENTED_EDGE('',*,*,#199,.F.);
#92=ORIENTED_EDGE('',*,*,#200,.T.);
#93=ORIENTED_EDGE('',*,*,#201,.T.);
#94=ORIENTED_EDGE('',*,*,#202,.F.);
#95=ORIENTED_EDGE('',*,*,#203,.F.);
#96=ORIENTED_EDGE('',*,*,#204,.T.);
#97=ORIENTED_EDGE('',*,*,#205,.T.);
#98=ORIENTED_EDGE('',*,*,#206,.F.);
#99=ORIENTED_EDGE('',*,*,#207,.F.);
#100=ORIENTED_EDGE('',*,*,#208,.T.);
#101=ORIENTED_EDGE('',*,*,#209,.T.);
#102=ORIENTED_EDGE('',*,*,#210,.F.);
#103=ORIENTED_EDGE('',*,*,#211,.F.);
#104=ORIENTED_EDGE('',*,*,#212,.T.);
#105=ORIENTED_EDGE('',*,*,#213,.T.);
#106=ORIENTED_EDGE('',*,*,#214,.F.);
#107=ORIENTED_EDGE('',*,*,#191,.F.);
#108=ORIENTED_EDGE('',*,*,#215,.T.);
#109=ORIENTED_EDGE('',*,*,#196,.T.);
#110=ORIENTED_EDGE('',*,*,#216,.T.);
#111=ORIENTED_EDGE('',*,*,#201,.F.);
#112=ORIENTED_EDGE('',*,*,#217,.F.);
#113=ORIENTED_EDGE('',*,*,#199,.T.);
#114=ORIENTED_EDGE('',*,*,#218,.T.);
#115=ORIENTED_EDGE('',*,*,#205,.F.);
#116=ORIENTED_EDGE('',*,*,#219,.F.);
#117=ORIENTED_EDGE('',*,*,#203,.T.);
#118=ORIENTED_EDGE('',*,*,#220,.T.);
#119=ORIENTED_EDGE('',*,*,#209,.F.);
#120=ORIENTED_EDGE('',*,*,#221,.F.);
#121=ORIENTED_EDGE('',*,*,#207,.T.);
#122=ORIENTED_EDGE('',*,*,#222,.T.);
#123=ORIENTED_EDGE('',*,*,#213,.F.);
#124=ORIENTED_EDGE('',*,*,#223,.F.);
#125=ORIENTED_EDGE('',*,*,#211,.T.);
#126=ORIENTED_EDGE('',*,*,#224,.F.);
#127=ORIENTED_EDGE('',*,*,#181,.F.);
#128=ORIENTED_EDGE('',*,*,#225,.T.);
#129=ORIENTED_EDGE('',*,*,#186,.T.);
#130=ORIENTED_EDGE('',*,*,#226,.F.);
#131=ORIENTED_EDGE('',*,*,#227,.F.);
#132=ORIENTED_EDGE('',*,*,#212,.F.);
#133=ORIENTED_EDGE('',*,*,#223,.T.);
#134=ORIENTED_EDGE('',*,*,#208,.F.);
#135=ORIENTED_EDGE('',*,*,#221,.T.);
#136=ORIENTED_EDGE('',*,*,#204,.F.);
#137=ORIENTED_EDGE('',*,*,#219,.T.);
#138=ORIENTED_EDGE('',*,*,#200,.F.);
#139=ORIENTED_EDGE('',*,*,#217,.T.);
#140=ORIENTED_EDGE('',*,*,#190,.F.);
#141=ORIENTED_EDGE('',*,*,#194,.T.);
#142=ORIENTED_EDGE('',*,*,#197,.T.);
#143=ORIENTED_EDGE('',*,*,#215,.F.);
#144=ORIENTED_EDGE('',*,*,#180,.F.);
#145=ORIENTED_EDGE('',*,*,#184,.T.);
#146=ORIENTED_EDGE('',*,*,#187,.T.);
#147=ORIENTED_EDGE('',*,*,#225,.F.);
#148=ORIENTED_EDGE('',*,*,#210,.T.);
#149=ORIENTED_EDGE('',*,*,#222,.F.);
#150=ORIENTED_EDGE('',*,*,#206,.T.);
#151=ORIENTED_EDGE('',*,*,#220,.F.);
#152=ORIENTED_EDGE('',*,*,#202,.T.);
#153=ORIENTED_EDGE('',*,*,#218,.F.);
#154=ORIENTED_EDGE('',*,*,#198,.T.);
#155=ORIENTED_EDGE('',*,*,#216,.F.);
#156=ORIENTED_EDGE('',*,*,#188,.T.);
#157=ORIENTED_EDGE('',*,*,#214,.T.);
#158=ORIENTED_EDGE('',*,*,#195,.F.);
#159=ORIENTED_EDGE('',*,*,#192,.F.);
#160=ORIENTED_EDGE('',*,*,#178,.T.);
#161=ORIENTED_EDGE('',*,*,#224,.T.);
#162=ORIENTED_EDGE('',*,*,#185,.F.);
#163=ORIENTED_EDGE('',*,*,#182,.F.);
#164=ORIENTED_EDGE('',*,*,#228,.F.);
#165=ORIENTED_EDGE('',*,*,#227,.T.);
#166=ORIENTED_EDGE('',*,*,#229,.F.);
#167=ORIENTED_EDGE('',*,*,#228,.T.);
#168=ORIENTED_EDGE('',*,*,#230,.F.);
#169=ORIENTED_EDGE('',*,*,#226,.T.);
#170=ORIENTED_EDGE('',*,*,#231,.F.);
#171=ORIENTED_EDGE('',*,*,#230,.T.);
#172=ORIENTED_EDGE('',*,*,#232,.F.);
#173=ORIENTED_EDGE('',*,*,#229,.T.);
#174=ORIENTED_EDGE('',*,*,#232,.T.);
#175=ORIENTED_EDGE('',*,*,#233,.F.);
#176=ORIENTED_EDGE('',*,*,#231,.T.);
#177=ORIENTED_EDGE('',*,*,#233,.T.);
#178=EDGE_CURVE('',#234,#235,#274,.T.);
#179=EDGE_CURVE('',#236,#234,#275,.T.);
#180=EDGE_CURVE('',#236,#237,#276,.T.);
#181=EDGE_CURVE('',#237,#235,#277,.T.);
#182=EDGE_CURVE('',#234,#238,#278,.T.);
#183=EDGE_CURVE('',#239,#238,#279,.T.);
#184=EDGE_CURVE('',#236,#239,#280,.T.);
#185=EDGE_CURVE('',#238,#240,#281,.T.);
#186=EDGE_CURVE('',#241,#240,#282,.T.);
#187=EDGE_CURVE('',#239,#241,#283,.T.);
#188=EDGE_CURVE('',#242,#243,#284,.T.);
#189=EDGE_CURVE('',#244,#242,#285,.T.);
#190=EDGE_CURVE('',#244,#245,#286,.T.);
#191=EDGE_CURVE('',#245,#243,#287,.T.);
#192=EDGE_CURVE('',#242,#246,#288,.T.);
#193=EDGE_CURVE('',#247,#246,#289,.T.);
#194=EDGE_CURVE('',#244,#247,#290,.T.);
#195=EDGE_CURVE('',#246,#248,#291,.T.);
#196=EDGE_CURVE('',#249,#248,#292,.T.);
#197=EDGE_CURVE('',#247,#249,#293,.T.);
#198=EDGE_CURVE('',#250,#251,#12,.T.);
#199=EDGE_CURVE('',#252,#250,#294,.T.);
#200=EDGE_CURVE('',#252,#253,#13,.T.);
#201=EDGE_CURVE('',#253,#251,#295,.T.);
#202=EDGE_CURVE('',#254,#255,#14,.T.);
#203=EDGE_CURVE('',#256,#254,#296,.T.);
#204=EDGE_CURVE('',#256,#257,#15,.T.);
#205=EDGE_CURVE('',#257,#255,#297,.T.);
#206=EDGE_CURVE('',#258,#259,#16,.T.);
#207=EDGE_CURVE('',#260,#258,#298,.T.);
#208=EDGE_CURVE('',#260,#261,#17,.T.);
#209=EDGE_CURVE('',#261,#259,#299,.T.);
#210=EDGE_CURVE('',#262,#263,#18,.T.);
#211=EDGE_CURVE('',#264,#262,#300,.T.);
#212=EDGE_CURVE('',#264,#265,#19,.T.);
#213=EDGE_CURVE('',#265,#263,#301,.T.);
#214=EDGE_CURVE('',#243,#248,#302,.T.);
#215=EDGE_CURVE('',#245,#249,#303,.T.);
#216=EDGE_CURVE('',#250,#251,#20,.T.);
#217=EDGE_CURVE('',#252,#253,#21,.T.);
#218=EDGE_CURVE('',#254,#255,#22,.T.);
#219=EDGE_CURVE('',#256,#257,#23,.T.);
#220=EDGE_CURVE('',#258,#259,#24,.T.);
#221=EDGE_CURVE('',#260,#261,#25,.T.);
#222=EDGE_CURVE('',#262,#263,#26,.T.);
#223=EDGE_CURVE('',#264,#265,#27,.T.);
#224=EDGE_CURVE('',#235,#240,#304,.T.);
#225=EDGE_CURVE('',#237,#241,#305,.T.);
#226=EDGE_CURVE('',#266,#266,#28,.T.);
#227=EDGE_CURVE('',#267,#267,#29,.T.);
#228=EDGE_CURVE('',#268,#268,#30,.T.);
#229=EDGE_CURVE('',#269,#269,#31,.T.);
#230=EDGE_CURVE('',#270,#270,#32,.T.);
#231=EDGE_CURVE('',#271,#271,#33,.T.);
#232=EDGE_CURVE('',#272,#272,#34,.T.);
#233=EDGE_CURVE('',#273,#273,#35,.T.);
#234=VERTEX_POINT('',#776);
#235=VERTEX_POINT('',#777);
#236=VERTEX_POINT('',#779);
#237=VERTEX_POINT('',#781);
#238=VERTEX_POINT('',#785);
#239=VERTEX_POINT('',#787);
#240=VERTEX_POINT('',#791);
#241=VERTEX_POINT('',#793);
#242=VERTEX_POINT('',#797);
#243=VERTEX_POINT('',#798);
#244=VERTEX_POINT('',#800);
#245=VERTEX_POINT('',#802);
#246=VERTEX_POINT('',#806);
#247=VERTEX_POINT('',#808);
#248=VERTEX_POINT('',#812);
#249=VERTEX_POINT('',#814);
#250=VERTEX_POINT('',#818);
#251=VERTEX_POINT('',#819);
#252=VERTEX_POINT('',#821);
#253=VERTEX_POINT('',#823);
#254=VERTEX_POINT('',#827);
#255=VERTEX_POINT('',#828);
#256=VERTEX_POINT('',#830);
#257=VERTEX_POINT('',#832);
#258=VERTEX_POINT('',#836);
#259=VERTEX_POINT('',#837);
#260=VERTEX_POINT('',#839);
#261=VERTEX_POINT('',#841);
#262=VERTEX_POINT('',#845);
#263=VERTEX_POINT('',#846);
#264=VERTEX_POINT('',#848);
#265=VERTEX_POINT('',#850);
#266=VERTEX_POINT('',#872);
#267=VERTEX_POINT('',#874);
#268=VERTEX_POINT('',#878);
#269=VERTEX_POINT('',#881);
#270=VERTEX_POINT('',#884);
#271=VERTEX_POINT('',#887);
#272=VERTEX_POINT('',#890);
#273=VERTEX_POINT('',#894);
#274=LINE('',#775,#306);
#275=LINE('',#778,#307);
#276=LINE('',#780,#308);
#277=LINE('',#782,#309);
#278=LINE('',#784,#310);
#279=LINE('',#786,#311);
#280=LINE('',#788,#312);
#281=LINE('',#790,#313);
#282=LINE('',#792,#314);
#283=LINE('',#794,#315);
#284=LINE('',#796,#316);
#285=LINE('',#799,#317);
#286=LINE('',#801,#318);
#287=LINE('',#803,#319);
#288=LINE('',#805,#320);
#289=LINE('',#807,#321);
#290=LINE('',#809,#322);
#291=LINE('',#811,#323);
#292=LINE('',#813,#324);
#293=LINE('',#815,#325);
#294=LINE('',#820,#326);
#295=LINE('',#824,#327);
#296=LINE('',#829,#328);
#297=LINE('',#833,#329);
#298=LINE('',#838,#330);
#299=LINE('',#842,#331);
#300=LINE('',#847,#332);
#301=LINE('',#851,#333);
#302=LINE('',#853,#334);
#303=LINE('',#854,#335);
#304=LINE('',#868,#336);
#305=LINE('',#869,#337);
#306=VECTOR('',#643,1.);
#307=VECTOR('',#644,1.);
#308=VECTOR('',#645,1.);
#309=VECTOR('',#646,1.);
#310=VECTOR('',#649,1.);
#311=VECTOR('',#650,1.);
#312=VECTOR('',#651,1.);
#313=VECTOR('',#654,1.);
#314=VECTOR('',#655,1.);
#315=VECTOR('',#656,1.);
#316=VECTOR('',#659,1.);
#317=VECTOR('',#660,1.);
#318=VECTOR('',#661,1.);
#319=VECTOR('',#662,1.);
#320=VECTOR('',#665,1.);
#321=VECTOR('',#666,1.);
#322=VECTOR('',#667,1.);
#323=VECTOR('',#670,1.);
#324=VECTOR('',#671,1.);
#325=VECTOR('',#672,1.);
#326=VECTOR('',#677,1.);
#327=VECTOR('',#680,1.);
#328=VECTOR('',#685,1.);
#329=VECTOR('',#688,1.);
#330=VECTOR('',#693,1.);
#331=VECTOR('',#696,1.);
#332=VECTOR('',#701,1.);
#333=VECTOR('',#704,1.);
#334=VECTOR('',#707,1.);
#335=VECTOR('',#708,1.);
#336=VECTOR('',#735,1.);
#337=VECTOR('',#736,1.);
#338=EDGE_LOOP('',(#66,#67,#68,#69));
#339=EDGE_LOOP('',(#70,#71,#72,#73));
#340=EDGE_LOOP('',(#74,#75,#76,#77));
#341=EDGE_LOOP('',(#78,#79,#80,#81));
#342=EDGE_LOOP('',(#82,#83,#84,#85));
#343=EDGE_LOOP('',(#86,#87,#88,#89));
#344=EDGE_LOOP('',(#90,#91,#92,#93));
#345=EDGE_LOOP('',(#94,#95,#96,#97));
#346=EDGE_LOOP('',(#98,#99,#100,#101));
#347=EDGE_LOOP('',(#102,#103,#104,#105));
#348=EDGE_LOOP('',(#106,#107,#108,#109));
#349=EDGE_LOOP('',(#110,#111,#112,#113));
#350=EDGE_LOOP('',(#114,#115,#116,#117));
#351=EDGE_LOOP('',(#118,#119,#120,#121));
#352=EDGE_LOOP('',(#122,#123,#124,#125));
#353=EDGE_LOOP('',(#126,#127,#128,#129));
#354=EDGE_LOOP('',(#130));
#355=EDGE_LOOP('',(#131));
#356=EDGE_LOOP('',(#132,#133));
#357=EDGE_LOOP('',(#134,#135));
#358=EDGE_LOOP('',(#136,#137));
#359=EDGE_LOOP('',(#138,#139));
#360=EDGE_LOOP('',(#140,#141,#142,#143));
#361=EDGE_LOOP('',(#144,#145,#146,#147));
#362=EDGE_LOOP('',(#148,#149));
#363=EDGE_LOOP('',(#150,#151));
#364=EDGE_LOOP('',(#152,#153));
#365=EDGE_LOOP('',(#154,#155));
#366=EDGE_LOOP('',(#156,#157,#158,#159));
#367=EDGE_LOOP('',(#160,#161,#162,#163));
#368=EDGE_LOOP('',(#164));
#369=EDGE_LOOP('',(#165));
#370=EDGE_LOOP('',(#166));
#371=EDGE_LOOP('',(#167));
#372=EDGE_LOOP('',(#168));
#373=EDGE_LOOP('',(#169));
#374=EDGE_LOOP('',(#170));
#375=EDGE_LOOP('',(#171));
#376=EDGE_LOOP('',(#172));
#377=EDGE_LOOP('',(#173));
#378=EDGE_LOOP('',(#174));
#379=EDGE_LOOP('',(#175));
#380=EDGE_LOOP('',(#176));
#381=EDGE_LOOP('',(#177));
#382=FACE_BOUND('',#338,.T.);
#383=FACE_BOUND('',#339,.T.);
#384=FACE_BOUND('',#340,.T.);
#385=FACE_BOUND('',#341,.T.);
#386=FACE_BOUND('',#342,.T.);
#387=FACE_BOUND('',#343,.T.);
#388=FACE_BOUND('',#344,.T.);
#389=FACE_BOUND('',#345,.T.);
#390=FACE_BOUND('',#346,.T.);
#391=FACE_BOUND('',#347,.T.);
#392=FACE_BOUND('',#348,.T.);
#393=FACE_BOUND('',#349,.T.);
#394=FACE_BOUND('',#350,.T.);
#395=FACE_BOUND('',#351,.T.);
#396=FACE_BOUND('',#352,.T.);
#397=FACE_BOUND('',#353,.T.);
#398=FACE_BOUND('',#354,.T.);
#399=FACE_BOUND('',#355,.T.);
#400=FACE_BOUND('',#356,.T.);
#401=FACE_BOUND('',#357,.T.);
#402=FACE_BOUND('',#358,.T.);
#403=FACE_BOUND('',#359,.T.);
#404=FACE_BOUND('',#360,.T.);
#405=FACE_BOUND('',#361,.T.);
#406=FACE_BOUND('',#362,.T.);
#407=FACE_BOUND('',#363,.T.);
#408=FACE_BOUND('',#364,.T.);
#409=FACE_BOUND('',#365,.T.);
#410=FACE_BOUND('',#366,.T.);
#411=FACE_BOUND('',#367,.T.);
#412=FACE_BOUND('',#368,.T.);
#413=FACE_BOUND('',#369,.T.);
#414=FACE_BOUND('',#370,.T.);
#415=FACE_BOUND('',#371,.T.);
#416=FACE_BOUND('',#372,.T.);
#417=FACE_BOUND('',#373,.T.);
#418=FACE_BOUND('',#374,.T.);
#419=FACE_BOUND('',#375,.T.);
#420=FACE_BOUND('',#376,.T.);
#421=FACE_BOUND('',#377,.T.);
#422=FACE_BOUND('',#378,.T.);
#423=FACE_BOUND('',#379,.T.);
#424=FACE_BOUND('',#380,.T.);
#425=FACE_BOUND('',#381,.T.);
#426=PLANE('',#589);
#427=PLANE('',#590);
#428=PLANE('',#591);
#429=PLANE('',#592);
#430=PLANE('',#593);
#431=PLANE('',#594);
#432=PLANE('',#607);
#433=PLANE('',#620);
#434=PLANE('',#621);
#435=PLANE('',#624);
#436=PLANE('',#627);
#437=PLANE('',#631);
#438=PLANE('',#635);
#439=PLANE('',#638);
#440=ADVANCED_FACE('',(#382),#426,.T.);
#441=ADVANCED_FACE('',(#383),#427,.F.);
#442=ADVANCED_FACE('',(#384),#428,.F.);
#443=ADVANCED_FACE('',(#385),#429,.T.);
#444=ADVANCED_FACE('',(#386),#430,.F.);
#445=ADVANCED_FACE('',(#387),#431,.F.);
#446=ADVANCED_FACE('Face appearance 7',(#388),#36,.F.);
#447=ADVANCED_FACE('Face appearance 7',(#389),#37,.F.);
#448=ADVANCED_FACE('Face appearance 7',(#390),#38,.F.);
#449=ADVANCED_FACE('Face appearance 7',(#391),#39,.F.);
#450=ADVANCED_FACE('Face appearance 7',(#392),#432,.T.);
#451=ADVANCED_FACE('Face appearance 7',(#393),#40,.F.);
#452=ADVANCED_FACE('Face appearance 7',(#394),#41,.F.);
#453=ADVANCED_FACE('Face appearance 7',(#395),#42,.F.);
#454=ADVANCED_FACE('Face appearance 7',(#396),#43,.F.);
#455=ADVANCED_FACE('Face appearance 7',(#397),#433,.T.);
#456=ADVANCED_FACE('',(#398,#399,#400,#401,#402,#403,#404,#405),#434,.T.);
#457=ADVANCED_FACE('Face appearance 7',(#406,#407,#408,#409,#410,#411),
#435,.F.);
#458=ADVANCED_FACE('Face appearance 6',(#412,#413),#44,.T.);
#459=ADVANCED_FACE('Face appearance 6',(#414,#415),#436,.T.);
#460=ADVANCED_FACE('Face appearance 6',(#416,#417),#45,.T.);
#461=ADVANCED_FACE('Face appearance 6',(#418,#419),#437,.T.);
#462=ADVANCED_FACE('',(#420,#421),#46,.F.);
#463=ADVANCED_FACE('Face appearance 5',(#422),#438,.T.);
#464=ADVANCED_FACE('Face appearance 6',(#423,#424),#47,.F.);
#465=ADVANCED_FACE('Face appearance 5',(#425),#439,.T.);
#466=CLOSED_SHELL('',(#440,#441,#442,#443,#444,#445,#446,#447,#448,#449,
#450,#451,#452,#453,#454,#455,#456,#457,#458,#459,#460,#461,#462,#463,#464,
#465));
#467=STYLED_ITEM('',(#468),#585);
#468=PRESENTATION_STYLE_ASSIGNMENT((#487));
#469=PRESENTATION_STYLE_ASSIGNMENT((#488));
#470=PRESENTATION_STYLE_ASSIGNMENT((#489));
#471=PRESENTATION_STYLE_ASSIGNMENT((#490));
#472=PRESENTATION_STYLE_ASSIGNMENT((#491));
#473=PRESENTATION_STYLE_ASSIGNMENT((#492));
#474=PRESENTATION_STYLE_ASSIGNMENT((#493));
#475=PRESENTATION_STYLE_ASSIGNMENT((#494));
#476=PRESENTATION_STYLE_ASSIGNMENT((#495));
#477=PRESENTATION_STYLE_ASSIGNMENT((#496));
#478=PRESENTATION_STYLE_ASSIGNMENT((#497));
#479=PRESENTATION_STYLE_ASSIGNMENT((#498));
#480=PRESENTATION_STYLE_ASSIGNMENT((#499));
#481=PRESENTATION_STYLE_ASSIGNMENT((#500));
#482=PRESENTATION_STYLE_ASSIGNMENT((#501));
#483=PRESENTATION_STYLE_ASSIGNMENT((#502));
#484=PRESENTATION_STYLE_ASSIGNMENT((#503));
#485=PRESENTATION_STYLE_ASSIGNMENT((#504));
#486=PRESENTATION_STYLE_ASSIGNMENT((#505));
#487=SURFACE_STYLE_USAGE(.BOTH.,#506);
#488=SURFACE_STYLE_USAGE(.BOTH.,#507);
#489=SURFACE_STYLE_USAGE(.BOTH.,#508);
#490=SURFACE_STYLE_USAGE(.BOTH.,#509);
#491=SURFACE_STYLE_USAGE(.BOTH.,#510);
#492=SURFACE_STYLE_USAGE(.BOTH.,#511);
#493=SURFACE_STYLE_USAGE(.BOTH.,#512);
#494=SURFACE_STYLE_USAGE(.BOTH.,#513);
#495=SURFACE_STYLE_USAGE(.BOTH.,#514);
#496=SURFACE_STYLE_USAGE(.BOTH.,#515);
#497=SURFACE_STYLE_USAGE(.BOTH.,#516);
#498=SURFACE_STYLE_USAGE(.BOTH.,#517);
#499=SURFACE_STYLE_USAGE(.BOTH.,#518);
#500=SURFACE_STYLE_USAGE(.BOTH.,#519);
#501=SURFACE_STYLE_USAGE(.BOTH.,#520);
#502=SURFACE_STYLE_USAGE(.BOTH.,#521);
#503=SURFACE_STYLE_USAGE(.BOTH.,#522);
#504=SURFACE_STYLE_USAGE(.BOTH.,#523);
#505=SURFACE_STYLE_USAGE(.BOTH.,#524);
#506=SURFACE_SIDE_STYLE('',(#525));
#507=SURFACE_SIDE_STYLE('',(#526));
#508=SURFACE_SIDE_STYLE('',(#527));
#509=SURFACE_SIDE_STYLE('',(#528));
#510=SURFACE_SIDE_STYLE('',(#529));
#511=SURFACE_SIDE_STYLE('',(#530));
#512=SURFACE_SIDE_STYLE('',(#531));
#513=SURFACE_SIDE_STYLE('',(#532));
#514=SURFACE_SIDE_STYLE('',(#533));
#515=SURFACE_SIDE_STYLE('',(#534));
#516=SURFACE_SIDE_STYLE('',(#535));
#517=SURFACE_SIDE_STYLE('',(#536));
#518=SURFACE_SIDE_STYLE('',(#537));
#519=SURFACE_SIDE_STYLE('',(#538));
#520=SURFACE_SIDE_STYLE('',(#539));
#521=SURFACE_SIDE_STYLE('',(#540));
#522=SURFACE_SIDE_STYLE('',(#541));
#523=SURFACE_SIDE_STYLE('',(#542));
#524=SURFACE_SIDE_STYLE('',(#543));
#525=SURFACE_STYLE_FILL_AREA(#544);
#526=SURFACE_STYLE_FILL_AREA(#545);
#527=SURFACE_STYLE_FILL_AREA(#546);
#528=SURFACE_STYLE_FILL_AREA(#547);
#529=SURFACE_STYLE_FILL_AREA(#548);
#530=SURFACE_STYLE_FILL_AREA(#549);
#531=SURFACE_STYLE_FILL_AREA(#550);
#532=SURFACE_STYLE_FILL_AREA(#551);
#533=SURFACE_STYLE_FILL_AREA(#552);
#534=SURFACE_STYLE_FILL_AREA(#553);
#535=SURFACE_STYLE_FILL_AREA(#554);
#536=SURFACE_STYLE_FILL_AREA(#555);
#537=SURFACE_STYLE_FILL_AREA(#556);
#538=SURFACE_STYLE_FILL_AREA(#557);
#539=SURFACE_STYLE_FILL_AREA(#558);
#540=SURFACE_STYLE_FILL_AREA(#559);
#541=SURFACE_STYLE_FILL_AREA(#560);
#542=SURFACE_STYLE_FILL_AREA(#561);
#543=SURFACE_STYLE_FILL_AREA(#562);
#544=FILL_AREA_STYLE('',(#563));
#545=FILL_AREA_STYLE('',(#564));
#546=FILL_AREA_STYLE('',(#565));
#547=FILL_AREA_STYLE('',(#566));
#548=FILL_AREA_STYLE('',(#567));
#549=FILL_AREA_STYLE('',(#568));
#550=FILL_AREA_STYLE('',(#569));
#551=FILL_AREA_STYLE('',(#570));
#552=FILL_AREA_STYLE('',(#571));
#553=FILL_AREA_STYLE('',(#572));
#554=FILL_AREA_STYLE('',(#573));
#555=FILL_AREA_STYLE('',(#574));
#556=FILL_AREA_STYLE('',(#575));
#557=FILL_AREA_STYLE('',(#576));
#558=FILL_AREA_STYLE('',(#577));
#559=FILL_AREA_STYLE('',(#578));
#560=FILL_AREA_STYLE('',(#579));
#561=FILL_AREA_STYLE('',(#580));
#562=FILL_AREA_STYLE('',(#581));
#563=FILL_AREA_STYLE_COLOUR('',#582);
#564=FILL_AREA_STYLE_COLOUR('',#583);
#565=FILL_AREA_STYLE_COLOUR('',#583);
#566=FILL_AREA_STYLE_COLOUR('',#583);
#567=FILL_AREA_STYLE_COLOUR('',#583);
#568=FILL_AREA_STYLE_COLOUR('',#583);
#569=FILL_AREA_STYLE_COLOUR('',#583);
#570=FILL_AREA_STYLE_COLOUR('',#583);
#571=FILL_AREA_STYLE_COLOUR('',#583);
#572=FILL_AREA_STYLE_COLOUR('',#583);
#573=FILL_AREA_STYLE_COLOUR('',#583);
#574=FILL_AREA_STYLE_COLOUR('',#583);
#575=FILL_AREA_STYLE_COLOUR('',#584);
#576=FILL_AREA_STYLE_COLOUR('',#584);
#577=FILL_AREA_STYLE_COLOUR('',#584);
#578=FILL_AREA_STYLE_COLOUR('',#584);
#579=FILL_AREA_STYLE_COLOUR('',#584);
#580=FILL_AREA_STYLE_COLOUR('',#584);
#581=FILL_AREA_STYLE_COLOUR('',#584);
#582=COLOUR_RGB('',0.854901960784314,0.129411764705882,0.137254901960784);
#583=COLOUR_RGB('',0.752941176470588,0.12156862745098,0.129411764705882);
#584=COLOUR_RGB('',0.0823529411764706,0.0862745098039216,0.0862745098039216);
#585=MANIFOLD_SOLID_BREP('Part 2',#466);
#586=SHAPE_DEFINITION_REPRESENTATION(#902,#587);
#587=SHAPE_REPRESENTATION('Part 2',(#588),#897);
#588=AXIS2_PLACEMENT_3D('',#773,#639,#640);
#589=AXIS2_PLACEMENT_3D('',#774,#641,#642);
#590=AXIS2_PLACEMENT_3D('',#783,#647,#648);
#591=AXIS2_PLACEMENT_3D('',#789,#652,#653);
#592=AXIS2_PLACEMENT_3D('',#795,#657,#658);
#593=AXIS2_PLACEMENT_3D('',#804,#663,#664);
#594=AXIS2_PLACEMENT_3D('',#810,#668,#669);
#595=AXIS2_PLACEMENT_3D('',#816,#673,#674);
#596=AXIS2_PLACEMENT_3D('',#817,#675,#676);
#597=AXIS2_PLACEMENT_3D('',#822,#678,#679);
#598=AXIS2_PLACEMENT_3D('',#825,#681,#682);
#599=AXIS2_PLACEMENT_3D('',#826,#683,#684);
#600=AXIS2_PLACEMENT_3D('',#831,#686,#687);
#601=AXIS2_PLACEMENT_3D('',#834,#689,#690);
#602=AXIS2_PLACEMENT_3D('',#835,#691,#692);
#603=AXIS2_PLACEMENT_3D('',#840,#694,#695);
#604=AXIS2_PLACEMENT_3D('',#843,#697,#698);
#605=AXIS2_PLACEMENT_3D('',#844,#699,#700);
#606=AXIS2_PLACEMENT_3D('',#849,#702,#703);
#607=AXIS2_PLACEMENT_3D('',#852,#705,#706);
#608=AXIS2_PLACEMENT_3D('',#855,#709,#710);
#609=AXIS2_PLACEMENT_3D('',#856,#711,#712);
#610=AXIS2_PLACEMENT_3D('',#857,#713,#714);
#611=AXIS2_PLACEMENT_3D('',#858,#715,#716);
#612=AXIS2_PLACEMENT_3D('',#859,#717,#718);
#613=AXIS2_PLACEMENT_3D('',#860,#719,#720);
#614=AXIS2_PLACEMENT_3D('',#861,#721,#722);
#615=AXIS2_PLACEMENT_3D('',#862,#723,#724);
#616=AXIS2_PLACEMENT_3D('',#863,#725,#726);
#617=AXIS2_PLACEMENT_3D('',#864,#727,#728);
#618=AXIS2_PLACEMENT_3D('',#865,#729,#730);
#619=AXIS2_PLACEMENT_3D('',#866,#731,#732);
#620=AXIS2_PLACEMENT_3D('',#867,#733,#734);
#621=AXIS2_PLACEMENT_3D('',#870,#737,#738);
#622=AXIS2_PLACEMENT_3D('',#871,#739,#740);
#623=AXIS2_PLACEMENT_3D('',#873,#741,#742);
#624=AXIS2_PLACEMENT_3D('',#875,#743,#744);
#625=AXIS2_PLACEMENT_3D('',#876,#745,#746);
#626=AXIS2_PLACEMENT_3D('',#877,#747,#748);
#627=AXIS2_PLACEMENT_3D('',#879,#749,#750);
#628=AXIS2_PLACEMENT_3D('',#880,#751,#752);
#629=AXIS2_PLACEMENT_3D('',#882,#753,#754);
#630=AXIS2_PLACEMENT_3D('',#883,#755,#756);
#631=AXIS2_PLACEMENT_3D('',#885,#757,#758);
#632=AXIS2_PLACEMENT_3D('',#886,#759,#760);
#633=AXIS2_PLACEMENT_3D('',#888,#761,#762);
#634=AXIS2_PLACEMENT_3D('',#889,#763,#764);
#635=AXIS2_PLACEMENT_3D('',#891,#765,#766);
#636=AXIS2_PLACEMENT_3D('',#892,#767,#768);
#637=AXIS2_PLACEMENT_3D('',#893,#769,#770);
#638=AXIS2_PLACEMENT_3D('',#895,#771,#772);
#639=DIRECTION('',(0.,0.,1.));
#640=DIRECTION('',(1.,0.,0.));
#641=DIRECTION('',(1.,-4.20279311377465E-32,5.55111512312578E-17));
#642=DIRECTION('',(5.55111512312578E-17,0.,-1.));
#643=DIRECTION('',(-5.05007620551162E-33,-1.,-6.66133814775094E-16));
#644=DIRECTION('',(5.55111512312578E-17,6.66133814775094E-16,-1.));
#645=DIRECTION('',(-5.05007620551162E-33,-1.,-6.66133814775094E-16));
#646=DIRECTION('',(5.55111512312578E-17,6.66133814775094E-16,-1.));
#647=DIRECTION('',(-5.86131355126727E-32,1.,6.66133814775094E-16));
#648=DIRECTION('',(0.,-6.66133814775094E-16,1.));
#649=DIRECTION('',(1.,2.16352805804378E-32,5.55111512312578E-17));
#650=DIRECTION('',(5.55111512312578E-17,6.66133814775094E-16,-1.));
#651=DIRECTION('',(1.,2.16352805804378E-32,5.55111512312578E-17));
#652=DIRECTION('',(1.,-4.20279311377465E-32,5.55111512312578E-17));
#653=DIRECTION('',(5.55111512312578E-17,0.,-1.));
#654=DIRECTION('',(-5.05007620551162E-33,-1.,-6.66133814775094E-16));
#655=DIRECTION('',(5.55111512312578E-17,6.66133814775094E-16,-1.));
#656=DIRECTION('',(-5.05007620551162E-33,-1.,-6.66133814775094E-16));
#657=DIRECTION('',(1.,1.23526972651786E-15,5.55111512312586E-17));
#658=DIRECTION('',(-1.23526972651786E-15,1.,0.));
#659=DIRECTION('',(1.23526972651786E-15,-1.,-6.66133814775094E-16));
#660=DIRECTION('',(5.55111512312578E-17,6.66133814775094E-16,-1.));
#661=DIRECTION('',(1.23526972651786E-15,-1.,-6.66133814775094E-16));
#662=DIRECTION('',(5.55111512312578E-17,6.66133814775094E-16,-1.));
#663=DIRECTION('',(1.13861214791428E-15,-1.,-6.66133814775094E-16));
#664=DIRECTION('',(1.,1.13861214791428E-15,0.));
#665=DIRECTION('',(-1.,-1.13861214791428E-15,-5.55111512312585E-17));
#666=DIRECTION('',(5.55111512312578E-17,6.66133814775094E-16,-1.));
#667=DIRECTION('',(-1.,-1.13861214791428E-15,-5.55111512312585E-17));
#668=DIRECTION('',(1.,1.00601384704006E-15,5.55111512312585E-17));
#669=DIRECTION('',(-1.00601384704006E-15,1.,0.));
#670=DIRECTION('',(1.00601384704006E-15,-1.,-6.66133814775094E-16));
#671=DIRECTION('',(5.55111512312578E-17,6.66133814775094E-16,-1.));
#672=DIRECTION('',(1.00601384704006E-15,-1.,-6.66133814775094E-16));
#673=DIRECTION('',(5.55111512312578E-17,6.66133814775094E-16,-1.));
#674=DIRECTION('',(0.,1.,6.66133814775094E-16));
#675=DIRECTION('',(-5.55111512312578E-17,-6.66133814775094E-16,1.));
#676=DIRECTION('',(1.,-9.42784497813484E-17,0.));
#677=DIRECTION('',(5.55111512312578E-17,6.66133814775094E-16,-1.));
#678=DIRECTION('',(-5.55111512312578E-17,-6.66133814775094E-16,1.));
#679=DIRECTION('',(1.,-9.42784497813484E-17,0.));
#680=DIRECTION('',(5.55111512312578E-17,6.66133814775094E-16,-1.));
#681=DIRECTION('',(5.55111512312578E-17,6.66133814775094E-16,-1.));
#682=DIRECTION('',(0.,1.,6.66133814775094E-16));
#683=DIRECTION('',(-5.55111512312578E-17,-6.66133814775094E-16,1.));
#684=DIRECTION('',(1.,-9.42784497813481E-17,0.));
#685=DIRECTION('',(5.55111512312578E-17,6.66133814775094E-16,-1.));
#686=DIRECTION('',(-5.55111512312578E-17,-6.66133814775094E-16,1.));
#687=DIRECTION('',(1.,-9.42784497813481E-17,0.));
#688=DIRECTION('',(5.55111512312578E-17,6.66133814775094E-16,-1.));
#689=DIRECTION('',(5.55111512312578E-17,6.66133814775094E-16,-1.));
#690=DIRECTION('',(0.,1.,6.66133814775094E-16));
#691=DIRECTION('',(-5.55111512312578E-17,-6.66133814775094E-16,1.));
#692=DIRECTION('',(1.,0.,0.));
#693=DIRECTION('',(5.55111512312578E-17,6.66133814775094E-16,-1.));
#694=DIRECTION('',(-5.55111512312578E-17,-6.66133814775094E-16,1.));
#695=DIRECTION('',(1.,0.,0.));
#696=DIRECTION('',(5.55111512312578E-17,6.66133814775094E-16,-1.));
#697=DIRECTION('',(5.55111512312578E-17,6.66133814775094E-16,-1.));
#698=DIRECTION('',(0.,1.,6.66133814775094E-16));
#699=DIRECTION('',(-5.55111512312578E-17,-6.66133814775094E-16,1.));
#700=DIRECTION('',(1.,0.,0.));
#701=DIRECTION('',(5.55111512312578E-17,6.66133814775094E-16,-1.));
#702=DIRECTION('',(-5.55111512312578E-17,-6.66133814775094E-16,1.));
#703=DIRECTION('',(1.,0.,0.));
#704=DIRECTION('',(5.55111512312578E-17,6.66133814775094E-16,-1.));
#705=DIRECTION('',(-1.21365914830467E-16,-1.,-6.66133814775094E-16));
#706=DIRECTION('',(0.,6.66133814775094E-16,-1.));
#707=DIRECTION('',(-1.,1.21365914830467E-16,-5.55111512312577E-17));
#708=DIRECTION('',(-1.,1.21365914830467E-16,-5.55111512312577E-17));
#709=DIRECTION('',(5.55111512312578E-17,6.66133814775094E-16,-1.));
#710=DIRECTION('',(0.,1.,6.66133814775094E-16));
#711=DIRECTION('',(5.55111512312578E-17,6.66133814775094E-16,-1.));
#712=DIRECTION('',(1.,9.42784497813484E-17,0.));
#713=DIRECTION('',(5.55111512312578E-17,6.66133814775094E-16,-1.));
#714=DIRECTION('',(1.,9.42784497813484E-17,0.));
#715=DIRECTION('',(5.55111512312578E-17,6.66133814775094E-16,-1.));
#716=DIRECTION('',(0.,1.,6.66133814775094E-16));
#717=DIRECTION('',(5.55111512312578E-17,6.66133814775094E-16,-1.));
#718=DIRECTION('',(1.,9.42784497813481E-17,0.));
#719=DIRECTION('',(5.55111512312578E-17,6.66133814775094E-16,-1.));
#720=DIRECTION('',(1.,9.42784497813481E-17,0.));
#721=DIRECTION('',(5.55111512312578E-17,6.66133814775094E-16,-1.));
#722=DIRECTION('',(0.,1.,6.66133814775094E-16));
#723=DIRECTION('',(5.55111512312578E-17,6.66133814775094E-16,-1.));
#724=DIRECTION('',(1.,0.,0.));
#725=DIRECTION('',(5.55111512312578E-17,6.66133814775094E-16,-1.));
#726=DIRECTION('',(1.,0.,0.));
#727=DIRECTION('',(5.55111512312578E-17,6.66133814775094E-16,-1.));
#728=DIRECTION('',(0.,1.,6.66133814775094E-16));
#729=DIRECTION('',(5.55111512312578E-17,6.66133814775094E-16,-1.));
#730=DIRECTION('',(1.,0.,0.));
#731=DIRECTION('',(5.55111512312578E-17,6.66133814775094E-16,-1.));
#732=DIRECTION('',(1.,0.,0.));
#733=DIRECTION('',(-5.86131355126727E-32,1.,6.66133814775094E-16));
#734=DIRECTION('',(0.,-6.66133814775094E-16,1.));
#735=DIRECTION('',(1.,2.16352805804378E-32,5.55111512312578E-17));
#736=DIRECTION('',(1.,2.16352805804378E-32,5.55111512312578E-17));
#737=DIRECTION('',(-5.55111512312578E-17,-6.66133814775094E-16,1.));
#738=DIRECTION('',(1.,-3.69778549322349E-32,5.55111512312578E-17));
#739=DIRECTION('',(-5.55111512312578E-17,-6.66133814775094E-16,1.));
#740=DIRECTION('',(1.,0.,0.));
#741=DIRECTION('',(-5.55111512312578E-17,-6.66133814775094E-16,1.));
#742=DIRECTION('',(1.,0.,0.));
#743=DIRECTION('',(-5.55111512312578E-17,-6.66133814775094E-16,1.));
#744=DIRECTION('',(1.,-3.69778549322349E-32,5.55111512312578E-17));
#745=DIRECTION('',(5.55111512312578E-17,6.66133814775094E-16,-1.));
#746=DIRECTION('',(0.,1.,6.66133814775094E-16));
#747=DIRECTION('',(-5.55111512312578E-17,-6.66133814775094E-16,1.));
#748=DIRECTION('',(1.,0.,0.));
#749=DIRECTION('',(-5.55111512312578E-17,-6.66133814775094E-16,1.));
#750=DIRECTION('',(1.,-3.69778549322349E-32,5.55111512312578E-17));
#751=DIRECTION('',(-5.55111512312578E-17,-6.66133814775094E-16,1.));
#752=DIRECTION('',(1.,0.,7.27598408720226E-17));
#753=DIRECTION('',(5.55111512312578E-17,6.66133814775094E-16,-1.));
#754=DIRECTION('',(0.,1.,6.66133814775094E-16));
#755=DIRECTION('',(-5.55111512312578E-17,-6.66133814775094E-16,1.));
#756=DIRECTION('',(1.,0.,0.));
#757=DIRECTION('',(-5.55111512312578E-17,-6.66133814775094E-16,1.));
#758=DIRECTION('',(1.,-3.69778549322349E-32,5.55111512312578E-17));
#759=DIRECTION('',(-5.55111512312578E-17,-6.66133814775094E-16,1.));
#760=DIRECTION('',(1.,0.,7.17774044904707E-17));
#761=DIRECTION('',(-5.55111512312578E-17,-6.66133814775094E-16,1.));
#762=DIRECTION('',(0.,-1.,-6.66133814775094E-16));
#763=DIRECTION('',(-5.55111512312578E-17,-6.66133814775094E-16,1.));
#764=DIRECTION('',(1.,0.,7.27598408720226E-17));
#765=DIRECTION('',(-5.55111512312578E-17,-6.66133814775094E-16,1.));
#766=DIRECTION('',(1.,-3.69778549322349E-32,5.55111512312578E-17));
#767=DIRECTION('',(-5.55111512312578E-17,-6.66133814775094E-16,1.));
#768=DIRECTION('',(0.,-1.,-6.66133814775094E-16));
#769=DIRECTION('',(-5.55111512312578E-17,-6.66133814775094E-16,1.));
#770=DIRECTION('',(1.,0.,7.17774044904707E-17));
#771=DIRECTION('',(-5.55111512312578E-17,-6.66133814775094E-16,1.));
#772=DIRECTION('',(1.,-3.69778549322349E-32,5.55111512312578E-17));
#773=CARTESIAN_POINT('',(0.,0.,0.));
#774=CARTESIAN_POINT('',(-0.0310326200279592,0.0233138513424994,-0.0267187982434034));
#775=CARTESIAN_POINT('',(-0.0310326200279592,0.0233138513424994,-0.0297187982434034));
#776=CARTESIAN_POINT('',(-0.0310326200279592,0.0324788513424994,-0.0297187982434034));
#777=CARTESIAN_POINT('',(-0.0310326200279592,0.0141488513424994,-0.0297187982434034));
#778=CARTESIAN_POINT('',(-0.0310326200279592,0.0324788513424994,-0.0267187982434034));
#779=CARTESIAN_POINT('',(-0.0310326200279592,0.0324788513424994,-0.0267187982434034));
#780=CARTESIAN_POINT('',(-0.0310326200279592,0.0233138513424994,-0.0267187982434034));
#781=CARTESIAN_POINT('',(-0.0310326200279592,0.0141488513424994,-0.0267187982434034));
#782=CARTESIAN_POINT('',(-0.0310326200279592,0.0141488513424994,-0.0267187982434034));
#783=CARTESIAN_POINT('',(0.00839737997204083,0.0324788513424994,-0.0267187982434034));
#784=CARTESIAN_POINT('',(0.00839737997204083,0.0324788513424994,-0.0297187982434034));
#785=CARTESIAN_POINT('',(0.0478273799720409,0.0324788513424994,-0.0297187982434034));
#786=CARTESIAN_POINT('',(0.0478273799720409,0.0324788513424994,-0.0267187982434034));
#787=CARTESIAN_POINT('',(0.0478273799720409,0.0324788513424994,-0.0267187982434034));
#788=CARTESIAN_POINT('',(0.00839737997204083,0.0324788513424994,-0.0267187982434034));
#789=CARTESIAN_POINT('',(0.0478273799720409,0.0233138513424994,-0.0267187982434034));
#790=CARTESIAN_POINT('',(0.0478273799720409,0.0233138513424994,-0.0297187982434034));
#791=CARTESIAN_POINT('',(0.0478273799720409,0.0141488513424994,-0.0297187982434034));
#792=CARTESIAN_POINT('',(0.0478273799720409,0.0141488513424994,-0.0267187982434034));
#793=CARTESIAN_POINT('',(0.0478273799720409,0.0141488513424994,-0.0267187982434034));
#794=CARTESIAN_POINT('',(0.0478273799720409,0.0233138513424994,-0.0267187982434034));
#795=CARTESIAN_POINT('',(0.0624973799720408,0.0287709530039691,-0.0267187982434034));
#796=CARTESIAN_POINT('',(0.0624973799720408,0.0287709530039691,-0.0297187982434034));
#797=CARTESIAN_POINT('',(0.0624973799720408,0.0632488513424994,-0.0297187982434034));
#798=CARTESIAN_POINT('',(0.0624973799720409,-0.00572528777420523,-0.0297187982434034));
#799=CARTESIAN_POINT('',(0.0624973799720408,0.0632488513424994,-0.0267187982434034));
#800=CARTESIAN_POINT('',(0.0624973799720408,0.0632488513424994,-0.0267187982434034));
#801=CARTESIAN_POINT('',(0.0624973799720408,0.0287709530039691,-0.0267187982434034));
#802=CARTESIAN_POINT('',(0.0624973799720409,-0.00572528777420523,-0.0267187982434034));
#803=CARTESIAN_POINT('',(0.0624973799720409,-0.00572528777420523,-0.0267187982434034));
#804=CARTESIAN_POINT('',(0.00405072529067601,0.0632488513424994,-0.0267187982434034));
#805=CARTESIAN_POINT('',(0.00405072529067601,0.0632488513424994,-0.0297187982434034));
#806=CARTESIAN_POINT('',(-0.0447026200279593,0.0632488513424993,-0.0297187982434034));
#807=CARTESIAN_POINT('',(-0.0447026200279593,0.0632488513424993,-0.0267187982434034));
#808=CARTESIAN_POINT('',(-0.0447026200279593,0.0632488513424993,-0.0267187982434034));
#809=CARTESIAN_POINT('',(0.00405072529067601,0.0632488513424994,-0.0267187982434034));
#810=CARTESIAN_POINT('',(-0.0447026200279592,0.028761781784147,-0.0267187982434034));
#811=CARTESIAN_POINT('',(-0.0447026200279592,0.028761781784147,-0.0297187982434034));
#812=CARTESIAN_POINT('',(-0.0447026200279593,-0.00572528777420522,-0.0297187982434034));
#813=CARTESIAN_POINT('',(-0.0447026200279593,-0.00572528777420522,-0.0267187982434034));
#814=CARTESIAN_POINT('',(-0.0447026200279593,-0.00572528777420522,-0.0267187982434034));
#815=CARTESIAN_POINT('',(-0.0447026200279592,0.028761781784147,-0.0267187982434034));
#816=CARTESIAN_POINT('',(-0.040101068943739,-0.00108827445395291,-0.0267187982434034));
#817=CARTESIAN_POINT('',(-0.040101068943739,-0.00108827445395291,-0.0297187982434034));
#818=CARTESIAN_POINT('',(-0.0394918884847242,0.00112958468683004,-0.0297187982434034));
#819=CARTESIAN_POINT('',(-0.0406907113651334,-0.00331140778663723,-0.0297187982434034));
#820=CARTESIAN_POINT('',(-0.0394918884847242,0.00112958468683004,-0.0267187982434034));
#821=CARTESIAN_POINT('',(-0.0394918884847242,0.00112958468683004,-0.0267187982434034));
#822=CARTESIAN_POINT('',(-0.040101068943739,-0.00108827445395291,-0.0267187982434034));
#823=CARTESIAN_POINT('',(-0.0406907113651334,-0.00331140778663723,-0.0267187982434034));
#824=CARTESIAN_POINT('',(-0.0406907113651334,-0.00331140778663723,-0.0267187982434034));
#825=CARTESIAN_POINT('',(0.0574027979397774,-0.00108827445395291,-0.0267187982434034));
#826=CARTESIAN_POINT('',(0.0574027979397774,-0.00108827445395291,-0.0297187982434034));
#827=CARTESIAN_POINT('',(0.0596980906555725,-0.000941198457210546,-0.0297187982434034));
#828=CARTESIAN_POINT('',(0.0551087778935161,-0.00125402133130356,-0.0297187982434034));
#829=CARTESIAN_POINT('',(0.0596980906555725,-0.000941198457210548,-0.0267187982434034));
#830=CARTESIAN_POINT('',(0.0596980906555725,-0.000941198457210548,-0.0267187982434034));
#831=CARTESIAN_POINT('',(0.0574027979397774,-0.00108827445395291,-0.0267187982434034));
#832=CARTESIAN_POINT('',(0.0551087778935161,-0.00125402133130356,-0.0267187982434034));
#833=CARTESIAN_POINT('',(0.0551087778935161,-0.00125402133130356,-0.0267187982434034));
#834=CARTESIAN_POINT('',(0.0574027979397774,0.0586548854533161,-0.0267187982434034));
#835=CARTESIAN_POINT('',(0.0574027979397774,0.0586548854533161,-0.0297187982434034));
#836=CARTESIAN_POINT('',(0.0596539213896583,0.059126524312398,-0.0297187982434034));
#837=CARTESIAN_POINT('',(0.0551529471594303,0.0581772124834175,-0.0297187982434034));
#838=CARTESIAN_POINT('',(0.0596539213896583,0.059126524312398,-0.0267187982434034));
#839=CARTESIAN_POINT('',(0.0596539213896583,0.059126524312398,-0.0267187982434034));
#840=CARTESIAN_POINT('',(0.0574027979397774,0.0586548854533161,-0.0267187982434034));
#841=CARTESIAN_POINT('',(0.0551529471594303,0.0581772124834175,-0.0267187982434034));
#842=CARTESIAN_POINT('',(0.0551529471594303,0.0581772124834175,-0.0267187982434034));
#843=CARTESIAN_POINT('',(-0.040101068943739,0.0586548854533161,-0.0267187982434034));
#844=CARTESIAN_POINT('',(-0.040101068943739,0.0586548854533161,-0.0297187982434034));
#845=CARTESIAN_POINT('',(-0.0384998017667588,0.0603059285865885,-0.0297187982434034));
#846=CARTESIAN_POINT('',(-0.0416923470801275,0.0569942127303957,-0.0297187982434034));
#847=CARTESIAN_POINT('',(-0.0384998017667588,0.0603059285865885,-0.0267187982434034));
#848=CARTESIAN_POINT('',(-0.0384998017667588,0.0603059285865885,-0.0267187982434034));
#849=CARTESIAN_POINT('',(-0.040101068943739,0.0586548854533161,-0.0267187982434034));
#850=CARTESIAN_POINT('',(-0.0416923470801275,0.0569942127303957,-0.0267187982434034));
#851=CARTESIAN_POINT('',(-0.0416923470801275,0.0569942127303957,-0.0267187982434034));
#852=CARTESIAN_POINT('',(0.00889737997204079,-0.00572528777420523,-0.0267187982434034));
#853=CARTESIAN_POINT('',(0.00889737997204079,-0.00572528777420523,-0.0297187982434034));
#854=CARTESIAN_POINT('',(0.00889737997204079,-0.00572528777420523,-0.0267187982434034));
#855=CARTESIAN_POINT('',(-0.0400815309061186,-0.00109354864585427,-0.0267187982434034));
#856=CARTESIAN_POINT('',(-0.0400815309061186,-0.00109354864585427,-0.0297187982434034));
#857=CARTESIAN_POINT('',(-0.0400815309061186,-0.00109354864585427,-0.0267187982434034));
#858=CARTESIAN_POINT('',(0.0574040706093113,-0.00110694533456119,-0.0267187982434034));
#859=CARTESIAN_POINT('',(0.0574040706093113,-0.00110694533456119,-0.0297187982434034));
#860=CARTESIAN_POINT('',(0.0574040706093113,-0.00110694533456119,-0.0267187982434034));
#861=CARTESIAN_POINT('',(0.0574040706093113,0.0586488513424994,-0.0267187982434034));
#862=CARTESIAN_POINT('',(0.0574040706093113,0.0586488513424994,-0.0297187982434034));
#863=CARTESIAN_POINT('',(0.0574040706093113,0.0586488513424994,-0.0267187982434034));
#864=CARTESIAN_POINT('',(-0.0400910799031457,0.0586452558636665,-0.0267187982434034));
#865=CARTESIAN_POINT('',(-0.0400910799031457,0.0586452558636665,-0.0297187982434034));
#866=CARTESIAN_POINT('',(-0.0400910799031457,0.0586452558636665,-0.0267187982434034));
#867=CARTESIAN_POINT('',(0.00839737997204083,0.0141488513424994,-0.0267187982434034));
#868=CARTESIAN_POINT('',(0.00839737997204083,0.0141488513424994,-0.0297187982434034));
#869=CARTESIAN_POINT('',(0.00839737997204083,0.0141488513424994,-0.0267187982434034));
#870=CARTESIAN_POINT('',(0.00889737997204082,0.0287617817841471,-0.0267187982434034));
#871=CARTESIAN_POINT('',(0.0418225415050983,0.0480813719332218,-0.0267187982434034));
#872=CARTESIAN_POINT('',(0.0456269633908814,0.0480813719332218,-0.0267187982434034));
#873=CARTESIAN_POINT('',(-0.0256,0.0480813719332218,-0.0267187982434034));
#874=CARTESIAN_POINT('',(-0.0217955781142169,0.0480813719332218,-0.0267187982434034));
#875=CARTESIAN_POINT('',(0.00889737997204082,0.0287617817841471,-0.0297187982434034));
#876=CARTESIAN_POINT('',(-0.0256,0.0480813719332218,-0.00171879824340338));
#877=CARTESIAN_POINT('',(-0.0256,0.0480813719332218,-0.00171879824340338));
#878=CARTESIAN_POINT('',(-0.0217955781142169,0.0480813719332218,-0.00171879824340338));
#879=CARTESIAN_POINT('',(0.00889737997204082,0.0287617817841471,-0.00171879824340339));
#880=CARTESIAN_POINT('',(-0.0256,0.0480813719332218,-0.00171879824340338));
#881=CARTESIAN_POINT('',(-0.0226197786045395,0.0480813719332218,-0.00171879824340337));
#882=CARTESIAN_POINT('',(0.0418225415050983,0.0480813719332218,-0.00171879824340337));
#883=CARTESIAN_POINT('',(0.0418225415050983,0.0480813719332218,-0.00171879824340337));
#884=CARTESIAN_POINT('',(0.0456269633908814,0.0480813719332218,-0.00171879824340337));
#885=CARTESIAN_POINT('',(0.00889737997204082,0.0287617817841471,-0.00171879824340339));
#886=CARTESIAN_POINT('',(0.0418225415050983,0.0480813719332218,-0.00171879824340337));
#887=CARTESIAN_POINT('',(0.0448435539816067,0.0480813719332218,-0.00171879824340337));
#888=CARTESIAN_POINT('',(-0.0256,0.0480813719332218,-0.0267187982434034));
#889=CARTESIAN_POINT('',(-0.0256,0.0480813719332218,-0.0267187982434034));
#890=CARTESIAN_POINT('',(-0.0226197786045395,0.0480813719332218,-0.0267187982434034));
#891=CARTESIAN_POINT('',(0.00771956604791183,0.0480813719332218,-0.0267187982434034));
#892=CARTESIAN_POINT('',(0.0418225415050983,0.0480813719332218,-0.0267187982434034));
#893=CARTESIAN_POINT('',(0.0418225415050983,0.0480813719332218,-0.0267187982434034));
#894=CARTESIAN_POINT('',(0.0448435539816067,0.0480813719332218,-0.0267187982434034));
#895=CARTESIAN_POINT('',(0.00771956604791183,0.0480813719332218,-0.0267187982434034));
#896=MECHANICAL_DESIGN_GEOMETRIC_PRESENTATION_REPRESENTATION('',(#467,#48,
#49,#50,#51,#52,#53,#54,#55,#56,#57,#58,#59,#60,#61,#62,#63,#64,#65),#897);
#897=(
GEOMETRIC_REPRESENTATION_CONTEXT(3)
GLOBAL_UNCERTAINTY_ASSIGNED_CONTEXT((#898))
GLOBAL_UNIT_ASSIGNED_CONTEXT((#901,#900,#899))
REPRESENTATION_CONTEXT('Part 2','TOP_LEVEL_ASSEMBLY_PART')
);
#898=UNCERTAINTY_MEASURE_WITH_UNIT(LENGTH_MEASURE(1.E-8),#901,
'DISTANCE_ACCURACY_VALUE','Maximum Tolerance applied to model');
#899=(
NAMED_UNIT(*)
SI_UNIT($,.STERADIAN.)
SOLID_ANGLE_UNIT()
);
#900=(
NAMED_UNIT(*)
PLANE_ANGLE_UNIT()
SI_UNIT($,.RADIAN.)
);
#901=(
LENGTH_UNIT()
NAMED_UNIT(*)
SI_UNIT($,.METRE.)
);
#902=PRODUCT_DEFINITION_SHAPE('','',#903);
#903=PRODUCT_DEFINITION('','',#905,#904);
#904=PRODUCT_DEFINITION_CONTEXT('',#911,'design');
#905=PRODUCT_DEFINITION_FORMATION_WITH_SPECIFIED_SOURCE('','',#907,
 .NOT_KNOWN.);
#906=PRODUCT_RELATED_PRODUCT_CATEGORY('','',(#907));
#907=PRODUCT('Part 2','Part 2','Part 2',(#909));
#908=PRODUCT_CATEGORY('','');
#909=PRODUCT_CONTEXT('',#911,'mechanical');
#910=APPLICATION_PROTOCOL_DEFINITION('international standard',
'ap242_managed_model_based_3d_engineering',2020,#911);
#911=APPLICATION_CONTEXT('managed model based 3d engineering');
ENDSEC;
END-ISO-10303-21;
