G04 #@! TF.GenerationSoftware,KiCad,Pcbnew,10.0.6*
G04 #@! TF.CreationDate,2026-09-10T22:31:49-04:00*
G04 #@! TF.ProjectId,Blare-stardance,426c6172-652d-4737-9461-7264616e6365,rev?*
G04 #@! TF.SameCoordinates,Original*
G04 #@! TF.FileFunction,Copper,L2,Bot*
G04 #@! TF.FilePolarity,Positive*
%FSLAX46Y46*%
G04 Gerber Fmt 4.6, Leading zero omitted, Abs format (unit mm)*
G04 Created by KiCad (PCBNEW 10.0.6) date 2026-09-10 22:31:49*
%MOMM*%
%LPD*%
G01*
G04 APERTURE LIST*
G04 Aperture macros list*
%AMRoundRect*
0 Rectangle with rounded corners*
0 $1 Rounding radius*
0 $2 $3 $4 $5 $6 $7 $8 $9 X,Y pos of 4 corners*
0 Add a 4 corners polygon primitive as box body*
4,1,4,$2,$3,$4,$5,$6,$7,$8,$9,$2,$3,0*
0 Add four circle primitives for the rounded corners*
1,1,$1+$1,$2,$3*
1,1,$1+$1,$4,$5*
1,1,$1+$1,$6,$7*
1,1,$1+$1,$8,$9*
0 Add four rect primitives between the rounded corners*
20,1,$1+$1,$2,$3,$4,$5,0*
20,1,$1+$1,$4,$5,$6,$7,0*
20,1,$1+$1,$6,$7,$8,$9,0*
20,1,$1+$1,$8,$9,$2,$3,0*%
G04 Aperture macros list end*
G04 #@! TA.AperFunction,ComponentPad*
%ADD10R,2.000000X2.000000*%
G04 #@! TD*
G04 #@! TA.AperFunction,ComponentPad*
%ADD11C,2.000000*%
G04 #@! TD*
G04 #@! TA.AperFunction,ComponentPad*
%ADD12C,2.200000*%
G04 #@! TD*
G04 #@! TA.AperFunction,ComponentPad*
%ADD13R,1.700000X1.700000*%
G04 #@! TD*
G04 #@! TA.AperFunction,ComponentPad*
%ADD14C,1.700000*%
G04 #@! TD*
G04 #@! TA.AperFunction,ComponentPad*
%ADD15C,1.524000*%
G04 #@! TD*
G04 #@! TA.AperFunction,SMDPad,CuDef*
%ADD16RoundRect,0.152400X-1.063600X-0.609600X1.063600X-0.609600X1.063600X0.609600X-1.063600X0.609600X0*%
G04 #@! TD*
G04 #@! TA.AperFunction,SMDPad,CuDef*
%ADD17RoundRect,0.152400X1.063600X0.609600X-1.063600X0.609600X-1.063600X-0.609600X1.063600X-0.609600X0*%
G04 #@! TD*
G04 #@! TA.AperFunction,ViaPad*
%ADD18C,0.600000*%
G04 #@! TD*
G04 #@! TA.AperFunction,Conductor*
%ADD19C,0.200000*%
G04 #@! TD*
G04 APERTURE END LIST*
D10*
X194490000Y-110610000D03*
D11*
X194490000Y-103010000D03*
D12*
X175040000Y-117420000D03*
X168690000Y-119960000D03*
X194040000Y-117420000D03*
X187690000Y-119960000D03*
X156110000Y-117310000D03*
X149760000Y-119850000D03*
D13*
X148700000Y-109500000D03*
D14*
X146160000Y-109500000D03*
X143620000Y-109500000D03*
X141080000Y-109500000D03*
X138540000Y-109500000D03*
X136000000Y-109500000D03*
X133460000Y-109500000D03*
X130920000Y-109500000D03*
D12*
X137040000Y-117420000D03*
X130690000Y-119960000D03*
D15*
X170550000Y-94700000D03*
D16*
X171385000Y-94700000D03*
D15*
X170550000Y-97240000D03*
D16*
X171385000Y-97240000D03*
D15*
X170550000Y-99780000D03*
D16*
X171385000Y-99780000D03*
D15*
X170550000Y-102320000D03*
D16*
X171385000Y-102320000D03*
D15*
X170550000Y-104860000D03*
D16*
X171385000Y-104860000D03*
D15*
X170550000Y-107400000D03*
D16*
X171385000Y-107400000D03*
D15*
X170550000Y-109940000D03*
D16*
X171385000Y-109940000D03*
D17*
X154475000Y-109940000D03*
D15*
X155310000Y-109940000D03*
D17*
X154475000Y-107400000D03*
D15*
X155310000Y-107400000D03*
D17*
X154475000Y-104860000D03*
D15*
X155310000Y-104860000D03*
D17*
X154475000Y-102320000D03*
D15*
X155310000Y-102320000D03*
D17*
X154475000Y-99780000D03*
D15*
X155310000Y-99780000D03*
D17*
X154475000Y-97240000D03*
D15*
X155310000Y-97240000D03*
D17*
X154475000Y-94700000D03*
D15*
X155310000Y-94700000D03*
D18*
X150000000Y-99500000D03*
D19*
X193600000Y-111500000D02*
X194490000Y-110610000D01*
X155310000Y-109940000D02*
X156870000Y-111500000D01*
X156870000Y-111500000D02*
X193600000Y-111500000D01*
X194040000Y-117420000D02*
X195790000Y-115670000D01*
X195790000Y-115670000D02*
X195790000Y-104310000D01*
X148700000Y-109900000D02*
X156110000Y-117310000D01*
X195790000Y-104310000D02*
X194490000Y-103010000D01*
X156620000Y-117420000D02*
X194040000Y-117420000D01*
X148700000Y-102772370D02*
X148700000Y-109500000D01*
X140780000Y-117420000D02*
X137040000Y-117420000D01*
X148700000Y-109500000D02*
X148700000Y-109900000D01*
X155310000Y-97240000D02*
X154232370Y-97240000D01*
X154232370Y-97240000D02*
X148700000Y-102772370D01*
X148700000Y-109500000D02*
X140780000Y-117420000D01*
X156620000Y-117420000D02*
X175040000Y-117420000D01*
X148700000Y-109500000D02*
X156620000Y-117420000D01*
X150000000Y-99500000D02*
X146160000Y-103340000D01*
X146160000Y-103340000D02*
X146160000Y-109500000D01*
M02*
