G04 #@! TF.GenerationSoftware,KiCad,Pcbnew,10.0.6*
G04 #@! TF.CreationDate,2026-09-10T22:31:49-04:00*
G04 #@! TF.ProjectId,Blare-stardance,426c6172-652d-4737-9461-7264616e6365,rev?*
G04 #@! TF.SameCoordinates,Original*
G04 #@! TF.FileFunction,Legend,Bot*
G04 #@! TF.FilePolarity,Positive*
%FSLAX46Y46*%
G04 Gerber Fmt 4.6, Leading zero omitted, Abs format (unit mm)*
G04 Created by KiCad (PCBNEW 10.0.6) date 2026-09-10 22:31:49*
%MOMM*%
%LPD*%
G01*
G04 APERTURE LIST*
%ADD10C,0.101600*%
%ADD11C,0.127000*%
%ADD12C,0.100000*%
%ADD13C,0.504000*%
G04 APERTURE END LIST*
D10*
X173551520Y-103078809D02*
X173037473Y-103078809D01*
X173037473Y-103078809D02*
X172976997Y-103048571D01*
X172976997Y-103048571D02*
X172946759Y-103018333D01*
X172946759Y-103018333D02*
X172916520Y-102957857D01*
X172916520Y-102957857D02*
X172916520Y-102836904D01*
X172916520Y-102836904D02*
X172946759Y-102776428D01*
X172946759Y-102776428D02*
X172976997Y-102746190D01*
X172976997Y-102746190D02*
X173037473Y-102715952D01*
X173037473Y-102715952D02*
X173551520Y-102715952D01*
X172916520Y-102080952D02*
X172916520Y-102443809D01*
X172916520Y-102262381D02*
X173551520Y-102262381D01*
X173551520Y-102262381D02*
X173460806Y-102322857D01*
X173460806Y-102322857D02*
X173400330Y-102383333D01*
X173400330Y-102383333D02*
X173370092Y-102443809D01*
D11*
X154040000Y-110829000D02*
X154040000Y-93684000D01*
D12*
X155945000Y-91779000D02*
X169915000Y-91779000D01*
D11*
X155945000Y-91779000D02*
X169915000Y-91779000D01*
X158426000Y-90769000D02*
X158426000Y-91779000D01*
X166921272Y-90269000D02*
X158926000Y-90269000D01*
X167425000Y-91779000D02*
X167421272Y-90768728D01*
X169915000Y-112734000D02*
X155945000Y-112734000D01*
X171820000Y-110829000D02*
X171820000Y-93684000D01*
X154040000Y-93684000D02*
G75*
G02*
X155945000Y-91779000I1905000J0D01*
G01*
X155945000Y-112734000D02*
G75*
G02*
X154040000Y-110829000I1J1905001D01*
G01*
X158426000Y-90769000D02*
G75*
G02*
X158926000Y-90269000I500000J0D01*
G01*
X166921272Y-90269000D02*
G75*
G02*
X167421300Y-90768728I28J-500000D01*
G01*
X169915000Y-91779000D02*
G75*
G02*
X171820000Y-93684000I0J-1905000D01*
G01*
X171820000Y-110829000D02*
G75*
G02*
X169915000Y-112734000I-1905001J1D01*
G01*
D13*
X171039000Y-92950000D02*
G75*
G02*
X170535000Y-92950000I-252000J0D01*
G01*
X170535000Y-92950000D02*
G75*
G02*
X171039000Y-92950000I252000J0D01*
G01*
X172182000Y-92070000D02*
G75*
G02*
X171678000Y-92070000I-252000J0D01*
G01*
X171678000Y-92070000D02*
G75*
G02*
X172182000Y-92070000I252000J0D01*
G01*
M02*
