M48
; DRILL file KiCad 10.0.6 date 2026-09-10T22:29:21
; FORMAT={-:-/ absolute / metric / decimal}
; #@! TF.CreationDate,2026-09-10T22:29:21-04:00
; #@! TF.GenerationSoftware,Kicad,Pcbnew,10.0.6
; #@! TF.FileFunction,Plated,1,2,PTH
FMAT,2
METRIC
; #@! TA.AperFunction,Plated,PTH,ViaDrill
T1C0.300
; #@! TA.AperFunction,Plated,PTH,ComponentDrill
T2C0.889
; #@! TA.AperFunction,Plated,PTH,ComponentDrill
T3C1.000
; #@! TA.AperFunction,Plated,PTH,ComponentDrill
T4C1.500
%
G90
G05
T1
X150.0Y-99.5
T2
X155.31Y-94.7
X155.31Y-97.24
X155.31Y-99.78
X155.31Y-102.32
X155.31Y-104.86
X155.31Y-107.4
X155.31Y-109.94
X170.55Y-94.7
X170.55Y-97.24
X170.55Y-99.78
X170.55Y-102.32
X170.55Y-104.86
X170.55Y-107.4
X170.55Y-109.94
T3
X130.92Y-109.5
X133.46Y-109.5
X136.0Y-109.5
X138.54Y-109.5
X141.08Y-109.5
X143.62Y-109.5
X146.16Y-109.5
X148.7Y-109.5
X194.49Y-103.01
X194.49Y-110.61
T4
X130.69Y-119.96
X137.04Y-117.42
X149.76Y-119.85
X156.11Y-117.31
X168.69Y-119.96
X175.04Y-117.42
X187.69Y-119.96
X194.04Y-117.42
M30
