G04 #@! TF.GenerationSoftware,KiCad,Pcbnew,10.0.6*
G04 #@! TF.CreationDate,2026-09-10T22:31:49-04:00*
G04 #@! TF.ProjectId,Blare-stardance,426c6172-652d-4737-9461-7264616e6365,rev?*
G04 #@! TF.SameCoordinates,Original*
G04 #@! TF.FileFunction,Legend,Top*
G04 #@! TF.FilePolarity,Positive*
%FSLAX46Y46*%
G04 Gerber Fmt 4.6, Leading zero omitted, Abs format (unit mm)*
G04 Created by KiCad (PCBNEW 10.0.6) date 2026-09-10 22:31:49*
%MOMM*%
%LPD*%
G01*
G04 APERTURE LIST*
%ADD10C,0.100000*%
%ADD11C,0.150000*%
%ADD12C,0.120000*%
G04 APERTURE END LIST*
D10*
G36*
X129347941Y-134019176D02*
G01*
X129290544Y-134003789D01*
X129199563Y-133988401D01*
X128894382Y-134002445D01*
X128731143Y-134020213D01*
X128611549Y-134041646D01*
X128626936Y-134465774D01*
X128634019Y-135074794D01*
X128629745Y-135374480D01*
X128617166Y-135578789D01*
X128605358Y-135606159D01*
X128579309Y-135629225D01*
X128546363Y-135644016D01*
X128513607Y-135648764D01*
X128495584Y-135644697D01*
X128479902Y-135632034D01*
X128465980Y-135592833D01*
X128468789Y-135494769D01*
X128481028Y-135263637D01*
X128485642Y-134957191D01*
X128480024Y-134432191D01*
X128468789Y-134066803D01*
X127955626Y-134133575D01*
X127721161Y-134181598D01*
X127645568Y-134192833D01*
X127597017Y-134184136D01*
X127547627Y-134156441D01*
X127510787Y-134116753D01*
X127500000Y-134078039D01*
X127504521Y-134053027D01*
X127516730Y-134037372D01*
X127558740Y-134024794D01*
X127827651Y-134007941D01*
X128454745Y-133937965D01*
X128458897Y-133814867D01*
X128467023Y-133784978D01*
X128477215Y-133778353D01*
X128526955Y-133788563D01*
X128572348Y-133820362D01*
X128586392Y-133863838D01*
X128592009Y-133910000D01*
X128793632Y-133882034D01*
X129072826Y-133843601D01*
X129207990Y-133834406D01*
X129330209Y-133844888D01*
X129387142Y-133867990D01*
X129409378Y-133897169D01*
X129418039Y-133949200D01*
X129413530Y-133970941D01*
X129398377Y-133995362D01*
X129376008Y-134013218D01*
X129347941Y-134019176D01*
G37*
G36*
X130755879Y-135780411D02*
G01*
X130708251Y-135767833D01*
X130693552Y-135752701D01*
X130688712Y-135732784D01*
X130694330Y-135539588D01*
X130708251Y-134976852D01*
X130701695Y-134760725D01*
X130685327Y-134618370D01*
X130663433Y-134530254D01*
X130626227Y-134449910D01*
X130592238Y-134413091D01*
X130559874Y-134402759D01*
X130507217Y-134417578D01*
X130439483Y-134472454D01*
X130349211Y-134592023D01*
X130229413Y-134810157D01*
X130037459Y-135228506D01*
X129845830Y-135699200D01*
X129808094Y-135774794D01*
X129782080Y-135803420D01*
X129759124Y-135811186D01*
X129721566Y-135805682D01*
X129703375Y-135792516D01*
X129697452Y-135771985D01*
X129683408Y-135132313D01*
X129661060Y-134514745D01*
X129632573Y-134059952D01*
X129613433Y-133895956D01*
X129591085Y-133770048D01*
X129598381Y-133746054D01*
X129621859Y-133728039D01*
X129655103Y-133717826D01*
X129700261Y-133713995D01*
X129717942Y-133724330D01*
X129737760Y-133770415D01*
X129757658Y-133891803D01*
X129784281Y-134346828D01*
X129787090Y-134425230D01*
X129795516Y-134922264D01*
X129798325Y-135525544D01*
X130040491Y-134951695D01*
X130163327Y-134706520D01*
X130302320Y-134479818D01*
X130387171Y-134370073D01*
X130459282Y-134304145D01*
X130521368Y-134270209D01*
X130576727Y-134260000D01*
X130622756Y-134268946D01*
X130666960Y-134297159D01*
X130711257Y-134350273D01*
X130755879Y-134437808D01*
X130792805Y-134559369D01*
X130818723Y-134731565D01*
X130828663Y-134968426D01*
X130834281Y-135405254D01*
X130837090Y-135699200D01*
X130831435Y-135730435D01*
X130814619Y-135756598D01*
X130789173Y-135774289D01*
X130755879Y-135780411D01*
G37*
G36*
X131970724Y-134308548D02*
G01*
X132047923Y-134342676D01*
X132087808Y-134378200D01*
X132111218Y-134421608D01*
X132119364Y-134475544D01*
X132108536Y-134536349D01*
X132073878Y-134598988D01*
X132008722Y-134666053D01*
X131886869Y-134749885D01*
X131721737Y-134828475D01*
X131542627Y-134888638D01*
X131357815Y-134929225D01*
X131332472Y-135057742D01*
X131324232Y-135181161D01*
X131333841Y-135286874D01*
X131360175Y-135369189D01*
X131401168Y-135433220D01*
X131458127Y-135481973D01*
X131529888Y-135512081D01*
X131620987Y-135522857D01*
X131725822Y-135512807D01*
X131817471Y-135483823D01*
X131898597Y-135436305D01*
X131970987Y-135368862D01*
X132093664Y-135205817D01*
X132194958Y-135021549D01*
X132214497Y-134978196D01*
X132229867Y-134951617D01*
X132239776Y-134945956D01*
X132253244Y-134954042D01*
X132259438Y-134987965D01*
X132246394Y-135051399D01*
X132185188Y-135209249D01*
X132128452Y-135318381D01*
X132054280Y-135423664D01*
X131961095Y-135525666D01*
X131881882Y-135589394D01*
X131795272Y-135634423D01*
X131699705Y-135661808D01*
X131593021Y-135671235D01*
X131477924Y-135658290D01*
X131379262Y-135620988D01*
X131293335Y-135559249D01*
X131243327Y-135499740D01*
X131205951Y-135424938D01*
X131181807Y-135331424D01*
X131173046Y-135214745D01*
X131183986Y-135071291D01*
X131217157Y-134927599D01*
X131257956Y-134822857D01*
X131385781Y-134822857D01*
X131515086Y-134798442D01*
X131657379Y-134750073D01*
X131792655Y-134686238D01*
X131896737Y-134621235D01*
X131958076Y-134569778D01*
X131985960Y-134533130D01*
X131993335Y-134506441D01*
X131982300Y-134467315D01*
X131947173Y-134436465D01*
X131898201Y-134417759D01*
X131839340Y-134411186D01*
X131770553Y-134418706D01*
X131702856Y-134441581D01*
X131634909Y-134481284D01*
X131544801Y-134558452D01*
X131471144Y-134649200D01*
X131414664Y-134746295D01*
X131385781Y-134822857D01*
X131257956Y-134822857D01*
X131273796Y-134782191D01*
X131349440Y-134645590D01*
X131437110Y-134529646D01*
X131536967Y-134432191D01*
X131650755Y-134354450D01*
X131761841Y-134310610D01*
X131873046Y-134296392D01*
X131970724Y-134308548D01*
G37*
G36*
X134216525Y-134314254D02*
G01*
X134264672Y-134335593D01*
X134308325Y-134368730D01*
X134345882Y-134413995D01*
X134370943Y-134467481D01*
X134379466Y-134528789D01*
X134367720Y-134612948D01*
X134331838Y-134694019D01*
X134379466Y-134679975D01*
X134401261Y-134693921D01*
X134415858Y-134755568D01*
X134422819Y-134937651D01*
X134429902Y-135164431D01*
X134435519Y-135343583D01*
X134441137Y-135480847D01*
X134463363Y-135521392D01*
X134483025Y-135556441D01*
X134476806Y-135590313D01*
X134455059Y-135633499D01*
X134424703Y-135667787D01*
X134399127Y-135676852D01*
X134358635Y-135663380D01*
X134326221Y-135618112D01*
X134307679Y-135556119D01*
X134301064Y-135480847D01*
X134309490Y-135077602D01*
X134312299Y-134971235D01*
X134302999Y-134913484D01*
X134278715Y-134878789D01*
X134153081Y-135083626D01*
X134043510Y-135248450D01*
X133921878Y-135398291D01*
X133766294Y-135543862D01*
X133648661Y-135622774D01*
X133532000Y-135667674D01*
X133413485Y-135682348D01*
X133356240Y-135675630D01*
X133310968Y-135656842D01*
X133274877Y-135626416D01*
X133238738Y-135563720D01*
X133225907Y-135480847D01*
X133229932Y-135447142D01*
X133374284Y-135447142D01*
X133383750Y-135495386D01*
X133408693Y-135521590D01*
X133452686Y-135531161D01*
X133549806Y-135519324D01*
X133646097Y-135483027D01*
X133743824Y-135419176D01*
X133875581Y-135297341D01*
X133994417Y-135151852D01*
X134106071Y-134986253D01*
X134239515Y-134769612D01*
X134264539Y-134682991D01*
X134273098Y-134587651D01*
X134264215Y-134532315D01*
X134238049Y-134485436D01*
X134197473Y-134452985D01*
X134144260Y-134441960D01*
X134100147Y-134450050D01*
X134042159Y-134478741D01*
X133965108Y-134537215D01*
X133841135Y-134655522D01*
X133699005Y-134821392D01*
X133568842Y-135001326D01*
X133466608Y-135172857D01*
X133410510Y-135292364D01*
X133382298Y-135381456D01*
X133374284Y-135447142D01*
X133229932Y-135447142D01*
X133234646Y-135407659D01*
X133265435Y-135308064D01*
X133326657Y-135174200D01*
X133439058Y-134981932D01*
X133584333Y-134779382D01*
X133745755Y-134592192D01*
X133897819Y-134450387D01*
X133997947Y-134375305D01*
X134063049Y-134337058D01*
X134123770Y-134314301D01*
X134172226Y-134307627D01*
X134216525Y-134314254D01*
G37*
G36*
X134916922Y-135645956D02*
G01*
X134888649Y-135631038D01*
X134853907Y-135566210D01*
X134833221Y-135475856D01*
X134824598Y-135324043D01*
X134834368Y-134559685D01*
X134846946Y-133884842D01*
X134855856Y-133805686D01*
X134876378Y-133733656D01*
X134899594Y-133693609D01*
X134930119Y-133671249D01*
X134970167Y-133663558D01*
X134988441Y-133669329D01*
X134999476Y-133687372D01*
X135006559Y-133778353D01*
X135005094Y-133796671D01*
X135003750Y-133851259D01*
X134965752Y-134583434D01*
X134953314Y-135287651D01*
X134962959Y-135377673D01*
X134993859Y-135478039D01*
X135034525Y-135584406D01*
X135026337Y-135608436D01*
X134998133Y-135629225D01*
X134960196Y-135641656D01*
X134916922Y-135645956D01*
G37*
G36*
X136256441Y-134314254D02*
G01*
X136304588Y-134335593D01*
X136348241Y-134368730D01*
X136385799Y-134413995D01*
X136410860Y-134467481D01*
X136419382Y-134528789D01*
X136407637Y-134612948D01*
X136371755Y-134694019D01*
X136419382Y-134679975D01*
X136441177Y-134693921D01*
X136455774Y-134755568D01*
X136462735Y-134937651D01*
X136469818Y-135164431D01*
X136475436Y-135343583D01*
X136481053Y-135480847D01*
X136503279Y-135521392D01*
X136522941Y-135556441D01*
X136516722Y-135590313D01*
X136494975Y-135633499D01*
X136464620Y-135667787D01*
X136439043Y-135676852D01*
X136398551Y-135663380D01*
X136366137Y-135618112D01*
X136347596Y-135556119D01*
X136340980Y-135480847D01*
X136349406Y-135077602D01*
X136352215Y-134971235D01*
X136342916Y-134913484D01*
X136318632Y-134878789D01*
X136192998Y-135083626D01*
X136083426Y-135248450D01*
X135961794Y-135398291D01*
X135806210Y-135543862D01*
X135688578Y-135622774D01*
X135571917Y-135667674D01*
X135453401Y-135682348D01*
X135396156Y-135675630D01*
X135350884Y-135656842D01*
X135314794Y-135626416D01*
X135278654Y-135563720D01*
X135265823Y-135480847D01*
X135269848Y-135447142D01*
X135414200Y-135447142D01*
X135423666Y-135495386D01*
X135448609Y-135521590D01*
X135492602Y-135531161D01*
X135589723Y-135519324D01*
X135686013Y-135483027D01*
X135783740Y-135419176D01*
X135915497Y-135297341D01*
X136034333Y-135151852D01*
X136145988Y-134986253D01*
X136279431Y-134769612D01*
X136304455Y-134682991D01*
X136313014Y-134587651D01*
X136304131Y-134532315D01*
X136277965Y-134485436D01*
X136237389Y-134452985D01*
X136184176Y-134441960D01*
X136140063Y-134450050D01*
X136082075Y-134478741D01*
X136005024Y-134537215D01*
X135881052Y-134655522D01*
X135738921Y-134821392D01*
X135608758Y-135001326D01*
X135506524Y-135172857D01*
X135450426Y-135292364D01*
X135422215Y-135381456D01*
X135414200Y-135447142D01*
X135269848Y-135447142D01*
X135274563Y-135407659D01*
X135305352Y-135308064D01*
X135366573Y-135174200D01*
X135478974Y-134981932D01*
X135624249Y-134779382D01*
X135785671Y-134592192D01*
X135937735Y-134450387D01*
X136037863Y-134375305D01*
X136102965Y-134337058D01*
X136163687Y-134314301D01*
X136212142Y-134307627D01*
X136256441Y-134314254D01*
G37*
G36*
X137668073Y-134570799D02*
G01*
X137649447Y-134566868D01*
X137630338Y-134554068D01*
X137589672Y-134506441D01*
X137537892Y-134458813D01*
X137504835Y-134443924D01*
X137472069Y-134439152D01*
X137424778Y-134454379D01*
X137355789Y-134514755D01*
X137253593Y-134653353D01*
X137123538Y-134883868D01*
X136984926Y-135192397D01*
X136994696Y-135354818D01*
X137004466Y-135500387D01*
X137012892Y-135612372D01*
X137008525Y-135649750D01*
X136996039Y-135681004D01*
X136973475Y-135702493D01*
X136934490Y-135710436D01*
X136910968Y-135700924D01*
X136889815Y-135665649D01*
X136872819Y-135583063D01*
X136862345Y-135440861D01*
X136856088Y-135212058D01*
X136851814Y-135035593D01*
X136844853Y-134761186D01*
X136836427Y-134416803D01*
X136844876Y-134381483D01*
X136868878Y-134360631D01*
X136914829Y-134352445D01*
X136953549Y-134363014D01*
X136972226Y-134393112D01*
X136978993Y-134442868D01*
X136982117Y-134548450D01*
X136982117Y-134993583D01*
X137072314Y-134787225D01*
X137164078Y-134621235D01*
X137266058Y-134476821D01*
X137355931Y-134381877D01*
X137421986Y-134332302D01*
X137476488Y-134306785D01*
X137522505Y-134299200D01*
X137582529Y-134306194D01*
X137639986Y-134327288D01*
X137691159Y-134359690D01*
X137729623Y-134398607D01*
X137755627Y-134442737D01*
X137763328Y-134481161D01*
X137756013Y-134505711D01*
X137728279Y-134538681D01*
X137693132Y-134564091D01*
X137668073Y-134570799D01*
G37*
G36*
X139647173Y-135713244D02*
G01*
X139618541Y-135707328D01*
X139602654Y-135691441D01*
X139596737Y-135662808D01*
X139586194Y-135130578D01*
X139560345Y-134796235D01*
X139531059Y-134632336D01*
X139498631Y-134545380D01*
X139466591Y-134506170D01*
X139434316Y-134495205D01*
X139395385Y-134510886D01*
X139340416Y-134575286D01*
X139260726Y-134729671D01*
X139147826Y-135031103D01*
X138991992Y-135550823D01*
X138991992Y-135553632D01*
X138986338Y-135584866D01*
X138969521Y-135611029D01*
X138944076Y-135628720D01*
X138910781Y-135634842D01*
X138882149Y-135628926D01*
X138866261Y-135613039D01*
X138860345Y-135584406D01*
X138871580Y-135237215D01*
X138882815Y-134822857D01*
X138878945Y-134628089D01*
X138870115Y-134524637D01*
X138855764Y-134469057D01*
X138837359Y-134443724D01*
X138815526Y-134436343D01*
X138778856Y-134448116D01*
X138730454Y-134493192D01*
X138664276Y-134594809D01*
X138574703Y-134785000D01*
X138430928Y-135150508D01*
X138269521Y-135606755D01*
X138244364Y-135679539D01*
X138212124Y-135727166D01*
X138189682Y-135742081D01*
X138165963Y-135746828D01*
X138121144Y-135741210D01*
X138112927Y-135731846D01*
X138107222Y-135707627D01*
X138084752Y-135340774D01*
X138073517Y-135147578D01*
X138043808Y-134712406D01*
X138023080Y-134507784D01*
X138000732Y-134321549D01*
X138005555Y-134298968D01*
X138023080Y-134268426D01*
X138046772Y-134244000D01*
X138065212Y-134237651D01*
X138103455Y-134251734D01*
X138137997Y-134302009D01*
X138149351Y-134354470D01*
X138168771Y-134548450D01*
X138196737Y-135083220D01*
X138210781Y-135511622D01*
X138371153Y-135047939D01*
X138529884Y-134647857D01*
X138630927Y-134442464D01*
X138712100Y-134328466D01*
X138777411Y-134274945D01*
X138832379Y-134260000D01*
X138884421Y-134273137D01*
X138925918Y-134314011D01*
X138958408Y-134394455D01*
X138982227Y-134543838D01*
X138991992Y-134783656D01*
X138986374Y-135170048D01*
X138983565Y-135298764D01*
X139103031Y-134915852D01*
X139211688Y-134626852D01*
X139281134Y-134486251D01*
X139340953Y-134405991D01*
X139392795Y-134366731D01*
X139439933Y-134355254D01*
X139494317Y-134367815D01*
X139545487Y-134408242D01*
X139595748Y-134487552D01*
X139643869Y-134623904D01*
X139685992Y-134840741D01*
X139716483Y-135166028D01*
X139728384Y-135632034D01*
X139722730Y-135663268D01*
X139705914Y-135689431D01*
X139680468Y-135707122D01*
X139647173Y-135713244D01*
G37*
G36*
X141169173Y-135755254D02*
G01*
X141058917Y-135748194D01*
X141006873Y-135732784D01*
X140974806Y-135705388D01*
X140964863Y-135671235D01*
X140975999Y-135643696D01*
X141029221Y-135583063D01*
X141090627Y-135530612D01*
X141116050Y-135520048D01*
X141143439Y-135524580D01*
X141149633Y-135533970D01*
X141135589Y-135556441D01*
X141121667Y-135575980D01*
X141127670Y-135585296D01*
X141156594Y-135598450D01*
X141242079Y-135609563D01*
X141358957Y-135598919D01*
X141478628Y-135566210D01*
X141589266Y-135514719D01*
X141673168Y-135452882D01*
X141717049Y-135402564D01*
X141741157Y-135353622D01*
X141748883Y-135304382D01*
X141736522Y-135235347D01*
X141701256Y-135183970D01*
X141648632Y-135145636D01*
X141582187Y-135118147D01*
X141342829Y-135057941D01*
X141055844Y-134983813D01*
X140960484Y-134945750D01*
X140891957Y-134902602D01*
X140857364Y-134866432D01*
X140837256Y-134825506D01*
X140830408Y-134778039D01*
X140843959Y-134694036D01*
X140885896Y-134612854D01*
X140961933Y-134531598D01*
X141102376Y-134432105D01*
X141264427Y-134355254D01*
X141427248Y-134304141D01*
X141527599Y-134290774D01*
X141586244Y-134298870D01*
X141614029Y-134317899D01*
X141622854Y-134346828D01*
X141617699Y-134380622D01*
X141600383Y-134421078D01*
X141572267Y-134451577D01*
X141533217Y-134461622D01*
X141496702Y-134449043D01*
X141457623Y-134436343D01*
X141394381Y-134443691D01*
X141281158Y-134472857D01*
X141166047Y-134518536D01*
X141062805Y-134582034D01*
X141006775Y-134636058D01*
X140975297Y-134694056D01*
X140964863Y-134758377D01*
X140972953Y-134798263D01*
X140997206Y-134830792D01*
X141041800Y-134857784D01*
X141136026Y-134889333D01*
X141328785Y-134937651D01*
X141379221Y-134950230D01*
X141424040Y-134960000D01*
X141625564Y-135017854D01*
X141754378Y-135074794D01*
X141818908Y-135125716D01*
X141856236Y-135188755D01*
X141869173Y-135267990D01*
X141858776Y-135346667D01*
X141826723Y-135424861D01*
X141769766Y-135504661D01*
X141698499Y-135573656D01*
X141611961Y-135634337D01*
X141508060Y-135686622D01*
X141398073Y-135724791D01*
X141285433Y-135747605D01*
X141169173Y-135755254D01*
G37*
G36*
X143040530Y-134314254D02*
G01*
X143088677Y-134335593D01*
X143132330Y-134368730D01*
X143169888Y-134413995D01*
X143194949Y-134467481D01*
X143203471Y-134528789D01*
X143191726Y-134612948D01*
X143155844Y-134694019D01*
X143203471Y-134679975D01*
X143225267Y-134693921D01*
X143239863Y-134755568D01*
X143246824Y-134937651D01*
X143253907Y-135164431D01*
X143259525Y-135343583D01*
X143265143Y-135480847D01*
X143287369Y-135521392D01*
X143307030Y-135556441D01*
X143300812Y-135590313D01*
X143279064Y-135633499D01*
X143248709Y-135667787D01*
X143223133Y-135676852D01*
X143182640Y-135663380D01*
X143150226Y-135618112D01*
X143131685Y-135556119D01*
X143125069Y-135480847D01*
X143133496Y-135077602D01*
X143136304Y-134971235D01*
X143127005Y-134913484D01*
X143102721Y-134878789D01*
X142977087Y-135083626D01*
X142867515Y-135248450D01*
X142745884Y-135398291D01*
X142590300Y-135543862D01*
X142472667Y-135622774D01*
X142356006Y-135667674D01*
X142237491Y-135682348D01*
X142180245Y-135675630D01*
X142134973Y-135656842D01*
X142098883Y-135626416D01*
X142062743Y-135563720D01*
X142049912Y-135480847D01*
X142053937Y-135447142D01*
X142198290Y-135447142D01*
X142207756Y-135495386D01*
X142232698Y-135521590D01*
X142276692Y-135531161D01*
X142373812Y-135519324D01*
X142470103Y-135483027D01*
X142567829Y-135419176D01*
X142699586Y-135297341D01*
X142818422Y-135151852D01*
X142930077Y-134986253D01*
X143063520Y-134769612D01*
X143088545Y-134682991D01*
X143097103Y-134587651D01*
X143088220Y-134532315D01*
X143062055Y-134485436D01*
X143021479Y-134452985D01*
X142968265Y-134441960D01*
X142924152Y-134450050D01*
X142866165Y-134478741D01*
X142789113Y-134537215D01*
X142665141Y-134655522D01*
X142523011Y-134821392D01*
X142392848Y-135001326D01*
X142290614Y-135172857D01*
X142234515Y-135292364D01*
X142206304Y-135381456D01*
X142198290Y-135447142D01*
X142053937Y-135447142D01*
X142058652Y-135407659D01*
X142089441Y-135308064D01*
X142150662Y-135174200D01*
X142263064Y-134981932D01*
X142408339Y-134779382D01*
X142569761Y-134592192D01*
X142721824Y-134450387D01*
X142821952Y-134375305D01*
X142887055Y-134337058D01*
X142947776Y-134314301D01*
X142996231Y-134307627D01*
X143040530Y-134314254D01*
G37*
G36*
X144482937Y-134702445D02*
G01*
X144446545Y-134979539D01*
X144394766Y-135504661D01*
X144379378Y-135830847D01*
X144384555Y-135944944D01*
X144397575Y-136021235D01*
X144436775Y-136131755D01*
X144457780Y-136180847D01*
X144448621Y-136202445D01*
X144412962Y-136225544D01*
X144367288Y-136240322D01*
X144320516Y-136245205D01*
X144301830Y-136237928D01*
X144282702Y-136210585D01*
X144263119Y-136147142D01*
X144248364Y-136035537D01*
X144242114Y-135841960D01*
X144248852Y-135671702D01*
X144273011Y-135419176D01*
X144315020Y-135032784D01*
X144231270Y-135174332D01*
X144128785Y-135311465D01*
X144048477Y-135389790D01*
X143973433Y-135431442D01*
X143900540Y-135444455D01*
X143853382Y-135435159D01*
X143806163Y-135405343D01*
X143756768Y-135348470D01*
X143704535Y-135254068D01*
X143628626Y-135055418D01*
X143568736Y-134822857D01*
X143529740Y-134597366D01*
X143519766Y-134470048D01*
X143525793Y-134427002D01*
X143540018Y-134406500D01*
X143561775Y-134399951D01*
X143594411Y-134410089D01*
X143620682Y-134443589D01*
X143640177Y-134514745D01*
X143693432Y-134831061D01*
X143747345Y-135040729D01*
X143799373Y-135171183D01*
X143847931Y-135245570D01*
X143892999Y-135282220D01*
X143936933Y-135293147D01*
X144007159Y-135278493D01*
X144069923Y-135233063D01*
X144127590Y-135163182D01*
X144205722Y-135046828D01*
X144284124Y-134890024D01*
X144348604Y-134727602D01*
X144368143Y-134444769D01*
X144384996Y-134353789D01*
X144401339Y-134334111D01*
X144429815Y-134327166D01*
X144456187Y-134334334D01*
X144485746Y-134359406D01*
X144507307Y-134392629D01*
X144513712Y-134422421D01*
X144482937Y-134702445D01*
G37*
G36*
X145084874Y-135755254D02*
G01*
X144974619Y-135748194D01*
X144922575Y-135732784D01*
X144890507Y-135705388D01*
X144880565Y-135671235D01*
X144891700Y-135643696D01*
X144944923Y-135583063D01*
X145006328Y-135530612D01*
X145031751Y-135520048D01*
X145059140Y-135524580D01*
X145065334Y-135533970D01*
X145051290Y-135556441D01*
X145037369Y-135575980D01*
X145043372Y-135585296D01*
X145072295Y-135598450D01*
X145157780Y-135609563D01*
X145274658Y-135598919D01*
X145394330Y-135566210D01*
X145504968Y-135514719D01*
X145588869Y-135452882D01*
X145632751Y-135402564D01*
X145656859Y-135353622D01*
X145664584Y-135304382D01*
X145652223Y-135235347D01*
X145616957Y-135183970D01*
X145564333Y-135145636D01*
X145497889Y-135118147D01*
X145258531Y-135057941D01*
X144971545Y-134983813D01*
X144876186Y-134945750D01*
X144807658Y-134902602D01*
X144773065Y-134866432D01*
X144752957Y-134825506D01*
X144746109Y-134778039D01*
X144759661Y-134694036D01*
X144801597Y-134612854D01*
X144877634Y-134531598D01*
X145018077Y-134432105D01*
X145180129Y-134355254D01*
X145342949Y-134304141D01*
X145443300Y-134290774D01*
X145501945Y-134298870D01*
X145529731Y-134317899D01*
X145538555Y-134346828D01*
X145533400Y-134380622D01*
X145516085Y-134421078D01*
X145487968Y-134451577D01*
X145448918Y-134461622D01*
X145412404Y-134449043D01*
X145373325Y-134436343D01*
X145310082Y-134443691D01*
X145196859Y-134472857D01*
X145081749Y-134518536D01*
X144978506Y-134582034D01*
X144922476Y-134636058D01*
X144890998Y-134694056D01*
X144880565Y-134758377D01*
X144888654Y-134798263D01*
X144912907Y-134830792D01*
X144957501Y-134857784D01*
X145051727Y-134889333D01*
X145244487Y-134937651D01*
X145294923Y-134950230D01*
X145339741Y-134960000D01*
X145541265Y-135017854D01*
X145670080Y-135074794D01*
X145734610Y-135125716D01*
X145771937Y-135188755D01*
X145784874Y-135267990D01*
X145774477Y-135346667D01*
X145742424Y-135424861D01*
X145685467Y-135504661D01*
X145614200Y-135573656D01*
X145527662Y-135634337D01*
X145423761Y-135686622D01*
X145313775Y-135724791D01*
X145201135Y-135747605D01*
X145084874Y-135755254D01*
G37*
G36*
X147827110Y-133744769D02*
G01*
X147821493Y-133964588D01*
X147815875Y-134293583D01*
X147829797Y-134944612D01*
X147852267Y-135379975D01*
X147855076Y-135416489D01*
X147860694Y-135452759D01*
X147871807Y-135548014D01*
X147863109Y-135573306D01*
X147831140Y-135601259D01*
X147792011Y-135621335D01*
X147768248Y-135626416D01*
X147742182Y-135620157D01*
X147727581Y-135602602D01*
X147717812Y-135536779D01*
X147726238Y-135214745D01*
X147729047Y-135057941D01*
X147726238Y-134852166D01*
X147717812Y-134637965D01*
X147612605Y-134941665D01*
X147504473Y-135192817D01*
X147394434Y-135398171D01*
X147310881Y-135519380D01*
X147231087Y-135603687D01*
X147154359Y-135658471D01*
X147079312Y-135689235D01*
X147003890Y-135699200D01*
X146944740Y-135689628D01*
X146891775Y-135660829D01*
X146842812Y-135609685D01*
X146808346Y-135546463D01*
X146785569Y-135462505D01*
X146777110Y-135352009D01*
X146792126Y-135208001D01*
X146840024Y-135048808D01*
X146926831Y-134870484D01*
X147033505Y-134701872D01*
X147147375Y-134553032D01*
X147268405Y-134422421D01*
X147405510Y-134302720D01*
X147495117Y-134248695D01*
X147552704Y-134234842D01*
X147606969Y-134242992D01*
X147633495Y-134262633D01*
X147642219Y-134293583D01*
X147636237Y-134333571D01*
X147615596Y-134384563D01*
X147556856Y-134478353D01*
X147518998Y-134520362D01*
X147506420Y-134516210D01*
X147499459Y-134506441D01*
X147513381Y-134458813D01*
X147527424Y-134413995D01*
X147524616Y-134394455D01*
X147507885Y-134388838D01*
X147471350Y-134399511D01*
X147406378Y-134444369D01*
X147296371Y-134549794D01*
X147200198Y-134661322D01*
X147109185Y-134788286D01*
X147023429Y-134932034D01*
X146953878Y-135083114D01*
X146915209Y-135219305D01*
X146903018Y-135343583D01*
X146910061Y-135408906D01*
X146930983Y-135469612D01*
X146954133Y-135502628D01*
X146984193Y-135521690D01*
X147023429Y-135528353D01*
X147094746Y-135517561D01*
X147166409Y-135483800D01*
X147240825Y-135422327D01*
X147319452Y-135325345D01*
X147402861Y-135182627D01*
X147511346Y-134948833D01*
X147612852Y-134687791D01*
X147706699Y-134397142D01*
X147701081Y-134162058D01*
X147692655Y-133831598D01*
X147696909Y-133675477D01*
X147706699Y-133590774D01*
X147719277Y-133551695D01*
X147729047Y-133543700D01*
X147748709Y-133540460D01*
X147776051Y-133544809D01*
X147804640Y-133558656D01*
X147825767Y-133580266D01*
X147832606Y-133607627D01*
X147827110Y-133744769D01*
G37*
G36*
X149018527Y-134570799D02*
G01*
X148999900Y-134566868D01*
X148980792Y-134554068D01*
X148940125Y-134506441D01*
X148888346Y-134458813D01*
X148855289Y-134443924D01*
X148822522Y-134439152D01*
X148775231Y-134454379D01*
X148706243Y-134514755D01*
X148604047Y-134653353D01*
X148473991Y-134883868D01*
X148335380Y-135192397D01*
X148345150Y-135354818D01*
X148354919Y-135500387D01*
X148363346Y-135612372D01*
X148358979Y-135649750D01*
X148346493Y-135681004D01*
X148323929Y-135702493D01*
X148284944Y-135710436D01*
X148261421Y-135700924D01*
X148240269Y-135665649D01*
X148223272Y-135583063D01*
X148212798Y-135440861D01*
X148206542Y-135212058D01*
X148202267Y-135035593D01*
X148195307Y-134761186D01*
X148186880Y-134416803D01*
X148195330Y-134381483D01*
X148219332Y-134360631D01*
X148265282Y-134352445D01*
X148304003Y-134363014D01*
X148322679Y-134393112D01*
X148329446Y-134442868D01*
X148332571Y-134548450D01*
X148332571Y-134993583D01*
X148422767Y-134787225D01*
X148514532Y-134621235D01*
X148616511Y-134476821D01*
X148706385Y-134381877D01*
X148772439Y-134332302D01*
X148826942Y-134306785D01*
X148872958Y-134299200D01*
X148932983Y-134306194D01*
X148990439Y-134327288D01*
X149041613Y-134359690D01*
X149080076Y-134398607D01*
X149106081Y-134442737D01*
X149113782Y-134481161D01*
X149106467Y-134505711D01*
X149078733Y-134538681D01*
X149043585Y-134564091D01*
X149018527Y-134570799D01*
G37*
G36*
X149404431Y-133949200D02*
G01*
X149358190Y-133940087D01*
X149307833Y-133910000D01*
X149268222Y-133870323D01*
X149258862Y-133845642D01*
X149265675Y-133816529D01*
X149288171Y-133786779D01*
X149319030Y-133765307D01*
X149348377Y-133758813D01*
X149387170Y-133777209D01*
X149418475Y-133803632D01*
X149468789Y-133862372D01*
X149496877Y-133907191D01*
X149489308Y-133927792D01*
X149463313Y-133942564D01*
X149404431Y-133949200D01*
G37*
G36*
X149488450Y-135724357D02*
G01*
X149469228Y-135714503D01*
X149449708Y-135679725D01*
X149431053Y-135598450D01*
X149414798Y-135447680D01*
X149393196Y-135130847D01*
X149373656Y-134687058D01*
X149362421Y-134352445D01*
X149372191Y-134306161D01*
X149385505Y-134295086D01*
X149410048Y-134290774D01*
X149449078Y-134297224D01*
X149474936Y-134314706D01*
X149491137Y-134344019D01*
X149502660Y-134409323D01*
X149507990Y-134548450D01*
X149505181Y-134878789D01*
X149509928Y-135147429D01*
X149522034Y-135332348D01*
X149547191Y-135511622D01*
X149566852Y-135668426D01*
X149560921Y-135693207D01*
X149543039Y-135711779D01*
X149517781Y-135722548D01*
X149488450Y-135724357D01*
G37*
G36*
X150014061Y-133949200D02*
G01*
X149967820Y-133940087D01*
X149917463Y-133910000D01*
X149877853Y-133870323D01*
X149868492Y-133845642D01*
X149875305Y-133816529D01*
X149897801Y-133786779D01*
X149928661Y-133765307D01*
X149958007Y-133758813D01*
X149996801Y-133777209D01*
X150028105Y-133803632D01*
X150078419Y-133862372D01*
X150106507Y-133907191D01*
X150098938Y-133927792D01*
X150072943Y-133942564D01*
X150014061Y-133949200D01*
G37*
G36*
X150098080Y-135724357D02*
G01*
X150078858Y-135714503D01*
X150059338Y-135679725D01*
X150040683Y-135598450D01*
X150024428Y-135447680D01*
X150002826Y-135130847D01*
X149983286Y-134687058D01*
X149972051Y-134352445D01*
X149981821Y-134306161D01*
X149995135Y-134295086D01*
X150019678Y-134290774D01*
X150058708Y-134297224D01*
X150084566Y-134314706D01*
X150100767Y-134344019D01*
X150112290Y-134409323D01*
X150117620Y-134548450D01*
X150114811Y-134878789D01*
X150119558Y-135147429D01*
X150131664Y-135332348D01*
X150156821Y-135511622D01*
X150176482Y-135668426D01*
X150170551Y-135693207D01*
X150152669Y-135711779D01*
X150127412Y-135722548D01*
X150098080Y-135724357D01*
G37*
G36*
X150623691Y-133949200D02*
G01*
X150577450Y-133940087D01*
X150527093Y-133910000D01*
X150487483Y-133870323D01*
X150478122Y-133845642D01*
X150484936Y-133816529D01*
X150507431Y-133786779D01*
X150538291Y-133765307D01*
X150567637Y-133758813D01*
X150606431Y-133777209D01*
X150637735Y-133803632D01*
X150688049Y-133862372D01*
X150716137Y-133907191D01*
X150708568Y-133927792D01*
X150682573Y-133942564D01*
X150623691Y-133949200D01*
G37*
G36*
X150707711Y-135724357D02*
G01*
X150688488Y-135714503D01*
X150668968Y-135679725D01*
X150650314Y-135598450D01*
X150634058Y-135447680D01*
X150612456Y-135130847D01*
X150592916Y-134687058D01*
X150581681Y-134352445D01*
X150591451Y-134306161D01*
X150604766Y-134295086D01*
X150629309Y-134290774D01*
X150668338Y-134297224D01*
X150694196Y-134314706D01*
X150710397Y-134344019D01*
X150721921Y-134409323D01*
X150727250Y-134548450D01*
X150724441Y-134878789D01*
X150729188Y-135147429D01*
X150741294Y-135332348D01*
X150766451Y-135511622D01*
X150786113Y-135668426D01*
X150780181Y-135693207D01*
X150762299Y-135711779D01*
X150737042Y-135722548D01*
X150707711Y-135724357D01*
G37*
G36*
X151233321Y-133949200D02*
G01*
X151187080Y-133940087D01*
X151136723Y-133910000D01*
X151097113Y-133870323D01*
X151087752Y-133845642D01*
X151094566Y-133816529D01*
X151117062Y-133786779D01*
X151147921Y-133765307D01*
X151177267Y-133758813D01*
X151216061Y-133777209D01*
X151247365Y-133803632D01*
X151297679Y-133862372D01*
X151325767Y-133907191D01*
X151318198Y-133927792D01*
X151292204Y-133942564D01*
X151233321Y-133949200D01*
G37*
G36*
X151317341Y-135724357D02*
G01*
X151298118Y-135714503D01*
X151278598Y-135679725D01*
X151259944Y-135598450D01*
X151243688Y-135447680D01*
X151222086Y-135130847D01*
X151202547Y-134687058D01*
X151191311Y-134352445D01*
X151201081Y-134306161D01*
X151214396Y-134295086D01*
X151238939Y-134290774D01*
X151277968Y-134297224D01*
X151303826Y-134314706D01*
X151320027Y-134344019D01*
X151331551Y-134409323D01*
X151336880Y-134548450D01*
X151334071Y-134878789D01*
X151338818Y-135147429D01*
X151350924Y-135332348D01*
X151376081Y-135511622D01*
X151395743Y-135668426D01*
X151389811Y-135693207D01*
X151371929Y-135711779D01*
X151346672Y-135722548D01*
X151317341Y-135724357D01*
G37*
G36*
X151842951Y-133949200D02*
G01*
X151796710Y-133940087D01*
X151746353Y-133910000D01*
X151706743Y-133870323D01*
X151697383Y-133845642D01*
X151704196Y-133816529D01*
X151726692Y-133786779D01*
X151757551Y-133765307D01*
X151786898Y-133758813D01*
X151825691Y-133777209D01*
X151856995Y-133803632D01*
X151907309Y-133862372D01*
X151935397Y-133907191D01*
X151927828Y-133927792D01*
X151901834Y-133942564D01*
X151842951Y-133949200D01*
G37*
G36*
X151926971Y-135724357D02*
G01*
X151907748Y-135714503D01*
X151888228Y-135679725D01*
X151869574Y-135598450D01*
X151853319Y-135447680D01*
X151831716Y-135130847D01*
X151812177Y-134687058D01*
X151800942Y-134352445D01*
X151810711Y-134306161D01*
X151824026Y-134295086D01*
X151848569Y-134290774D01*
X151887598Y-134297224D01*
X151913457Y-134314706D01*
X151929658Y-134344019D01*
X151941181Y-134409323D01*
X151946510Y-134548450D01*
X151943702Y-134878789D01*
X151948449Y-135147429D01*
X151960554Y-135332348D01*
X151985711Y-135511622D01*
X152005373Y-135668426D01*
X151999442Y-135693207D01*
X151981559Y-135711779D01*
X151956302Y-135722548D01*
X151926971Y-135724357D01*
G37*
G36*
X154165701Y-133744769D02*
G01*
X154160083Y-133964588D01*
X154154466Y-134293583D01*
X154168387Y-134944612D01*
X154190858Y-135379975D01*
X154193667Y-135416489D01*
X154199284Y-135452759D01*
X154210397Y-135548014D01*
X154201699Y-135573306D01*
X154169731Y-135601259D01*
X154130601Y-135621335D01*
X154106838Y-135626416D01*
X154080773Y-135620157D01*
X154066172Y-135602602D01*
X154056402Y-135536779D01*
X154064829Y-135214745D01*
X154067637Y-135057941D01*
X154064829Y-134852166D01*
X154056402Y-134637965D01*
X153951195Y-134941665D01*
X153843064Y-135192817D01*
X153733025Y-135398171D01*
X153649471Y-135519380D01*
X153569677Y-135603687D01*
X153492950Y-135658471D01*
X153417903Y-135689235D01*
X153342480Y-135699200D01*
X153283330Y-135689628D01*
X153230366Y-135660829D01*
X153181402Y-135609685D01*
X153146936Y-135546463D01*
X153124160Y-135462505D01*
X153115701Y-135352009D01*
X153130716Y-135208001D01*
X153178615Y-135048808D01*
X153265422Y-134870484D01*
X153372095Y-134701872D01*
X153485966Y-134553032D01*
X153606995Y-134422421D01*
X153744100Y-134302720D01*
X153833707Y-134248695D01*
X153891294Y-134234842D01*
X153945559Y-134242992D01*
X153972086Y-134262633D01*
X153980809Y-134293583D01*
X153974828Y-134333571D01*
X153954187Y-134384563D01*
X153895446Y-134478353D01*
X153857588Y-134520362D01*
X153845010Y-134516210D01*
X153838049Y-134506441D01*
X153851971Y-134458813D01*
X153866015Y-134413995D01*
X153863206Y-134394455D01*
X153846475Y-134388838D01*
X153809941Y-134399511D01*
X153744968Y-134444369D01*
X153634961Y-134549794D01*
X153538789Y-134661322D01*
X153447775Y-134788286D01*
X153362020Y-134932034D01*
X153292468Y-135083114D01*
X153253800Y-135219305D01*
X153241608Y-135343583D01*
X153248651Y-135408906D01*
X153269574Y-135469612D01*
X153292724Y-135502628D01*
X153322784Y-135521690D01*
X153362020Y-135528353D01*
X153433336Y-135517561D01*
X153505000Y-135483800D01*
X153579415Y-135422327D01*
X153658043Y-135325345D01*
X153741451Y-135182627D01*
X153849936Y-134948833D01*
X153951442Y-134687791D01*
X154045289Y-134397142D01*
X154039672Y-134162058D01*
X154031245Y-133831598D01*
X154035500Y-133675477D01*
X154045289Y-133590774D01*
X154057868Y-133551695D01*
X154067637Y-133543700D01*
X154087299Y-133540460D01*
X154114642Y-133544809D01*
X154143230Y-133558656D01*
X154164357Y-133580266D01*
X154171196Y-133607627D01*
X154165701Y-133744769D01*
G37*
G36*
X155357117Y-134570799D02*
G01*
X155338491Y-134566868D01*
X155319382Y-134554068D01*
X155278715Y-134506441D01*
X155226936Y-134458813D01*
X155193879Y-134443924D01*
X155161113Y-134439152D01*
X155113822Y-134454379D01*
X155044833Y-134514755D01*
X154942637Y-134653353D01*
X154812582Y-134883868D01*
X154673970Y-135192397D01*
X154683740Y-135354818D01*
X154693510Y-135500387D01*
X154701936Y-135612372D01*
X154697569Y-135649750D01*
X154685083Y-135681004D01*
X154662519Y-135702493D01*
X154623534Y-135710436D01*
X154600012Y-135700924D01*
X154578859Y-135665649D01*
X154561863Y-135583063D01*
X154551389Y-135440861D01*
X154545132Y-135212058D01*
X154540858Y-135035593D01*
X154533897Y-134761186D01*
X154525471Y-134416803D01*
X154533920Y-134381483D01*
X154557922Y-134360631D01*
X154603872Y-134352445D01*
X154642593Y-134363014D01*
X154661270Y-134393112D01*
X154668037Y-134442868D01*
X154671161Y-134548450D01*
X154671161Y-134993583D01*
X154761358Y-134787225D01*
X154853122Y-134621235D01*
X154955102Y-134476821D01*
X155044975Y-134381877D01*
X155111030Y-134332302D01*
X155165532Y-134306785D01*
X155211549Y-134299200D01*
X155271573Y-134306194D01*
X155329030Y-134327288D01*
X155380203Y-134359690D01*
X155418667Y-134398607D01*
X155444671Y-134442737D01*
X155452372Y-134481161D01*
X155445057Y-134505711D01*
X155417323Y-134538681D01*
X155382176Y-134564091D01*
X155357117Y-134570799D01*
G37*
G36*
X155743021Y-133949200D02*
G01*
X155696780Y-133940087D01*
X155646423Y-133910000D01*
X155606813Y-133870323D01*
X155597452Y-133845642D01*
X155604266Y-133816529D01*
X155626762Y-133786779D01*
X155657621Y-133765307D01*
X155686967Y-133758813D01*
X155725761Y-133777209D01*
X155757065Y-133803632D01*
X155807379Y-133862372D01*
X155835467Y-133907191D01*
X155827898Y-133927792D01*
X155801904Y-133942564D01*
X155743021Y-133949200D01*
G37*
G36*
X155827041Y-135724357D02*
G01*
X155807818Y-135714503D01*
X155788298Y-135679725D01*
X155769644Y-135598450D01*
X155753388Y-135447680D01*
X155731786Y-135130847D01*
X155712247Y-134687058D01*
X155701011Y-134352445D01*
X155710781Y-134306161D01*
X155724096Y-134295086D01*
X155748639Y-134290774D01*
X155787668Y-134297224D01*
X155813526Y-134314706D01*
X155829727Y-134344019D01*
X155841251Y-134409323D01*
X155846580Y-134548450D01*
X155843771Y-134878789D01*
X155848518Y-135147429D01*
X155860624Y-135332348D01*
X155885781Y-135511622D01*
X155905443Y-135668426D01*
X155899511Y-135693207D01*
X155881629Y-135711779D01*
X155856372Y-135722548D01*
X155827041Y-135724357D01*
G37*
G36*
X156352651Y-133949200D02*
G01*
X156306410Y-133940087D01*
X156256053Y-133910000D01*
X156216443Y-133870323D01*
X156207083Y-133845642D01*
X156213896Y-133816529D01*
X156236392Y-133786779D01*
X156267251Y-133765307D01*
X156296598Y-133758813D01*
X156335391Y-133777209D01*
X156366695Y-133803632D01*
X156417009Y-133862372D01*
X156445097Y-133907191D01*
X156437528Y-133927792D01*
X156411534Y-133942564D01*
X156352651Y-133949200D01*
G37*
G36*
X156436671Y-135724357D02*
G01*
X156417448Y-135714503D01*
X156397928Y-135679725D01*
X156379274Y-135598450D01*
X156363019Y-135447680D01*
X156341416Y-135130847D01*
X156321877Y-134687058D01*
X156310642Y-134352445D01*
X156320411Y-134306161D01*
X156333726Y-134295086D01*
X156358269Y-134290774D01*
X156397298Y-134297224D01*
X156423156Y-134314706D01*
X156439357Y-134344019D01*
X156450881Y-134409323D01*
X156456210Y-134548450D01*
X156453401Y-134878789D01*
X156458149Y-135147429D01*
X156470254Y-135332348D01*
X156495411Y-135511622D01*
X156515073Y-135668426D01*
X156509142Y-135693207D01*
X156491259Y-135711779D01*
X156466002Y-135722548D01*
X156436671Y-135724357D01*
G37*
G36*
X156962281Y-133949200D02*
G01*
X156916040Y-133940087D01*
X156865683Y-133910000D01*
X156826073Y-133870323D01*
X156816713Y-133845642D01*
X156823526Y-133816529D01*
X156846022Y-133786779D01*
X156876881Y-133765307D01*
X156906228Y-133758813D01*
X156945021Y-133777209D01*
X156976325Y-133803632D01*
X157026639Y-133862372D01*
X157054727Y-133907191D01*
X157047158Y-133927792D01*
X157021164Y-133942564D01*
X156962281Y-133949200D01*
G37*
G36*
X157046301Y-135724357D02*
G01*
X157027079Y-135714503D01*
X157007558Y-135679725D01*
X156988904Y-135598450D01*
X156972649Y-135447680D01*
X156951046Y-135130847D01*
X156931507Y-134687058D01*
X156920272Y-134352445D01*
X156930041Y-134306161D01*
X156943356Y-134295086D01*
X156967899Y-134290774D01*
X157006929Y-134297224D01*
X157032787Y-134314706D01*
X157048988Y-134344019D01*
X157060511Y-134409323D01*
X157065840Y-134548450D01*
X157063032Y-134878789D01*
X157067779Y-135147429D01*
X157079884Y-135332348D01*
X157105041Y-135511622D01*
X157124703Y-135668426D01*
X157118772Y-135693207D01*
X157100889Y-135711779D01*
X157075632Y-135722548D01*
X157046301Y-135724357D01*
G37*
G36*
X157571912Y-133949200D02*
G01*
X157525670Y-133940087D01*
X157475314Y-133910000D01*
X157435703Y-133870323D01*
X157426343Y-133845642D01*
X157433156Y-133816529D01*
X157455652Y-133786779D01*
X157486511Y-133765307D01*
X157515858Y-133758813D01*
X157554651Y-133777209D01*
X157585956Y-133803632D01*
X157636270Y-133862372D01*
X157664357Y-133907191D01*
X157656788Y-133927792D01*
X157630794Y-133942564D01*
X157571912Y-133949200D01*
G37*
G36*
X157655931Y-135724357D02*
G01*
X157636709Y-135714503D01*
X157617188Y-135679725D01*
X157598534Y-135598450D01*
X157582279Y-135447680D01*
X157560676Y-135130847D01*
X157541137Y-134687058D01*
X157529902Y-134352445D01*
X157539672Y-134306161D01*
X157552986Y-134295086D01*
X157577529Y-134290774D01*
X157616559Y-134297224D01*
X157642417Y-134314706D01*
X157658618Y-134344019D01*
X157670141Y-134409323D01*
X157675471Y-134548450D01*
X157672662Y-134878789D01*
X157677409Y-135147429D01*
X157689515Y-135332348D01*
X157714672Y-135511622D01*
X157734333Y-135668426D01*
X157728402Y-135693207D01*
X157710519Y-135711779D01*
X157685262Y-135722548D01*
X157655931Y-135724357D01*
G37*
G36*
X158181542Y-133949200D02*
G01*
X158135301Y-133940087D01*
X158084944Y-133910000D01*
X158045333Y-133870323D01*
X158035973Y-133845642D01*
X158042786Y-133816529D01*
X158065282Y-133786779D01*
X158096141Y-133765307D01*
X158125488Y-133758813D01*
X158164281Y-133777209D01*
X158195586Y-133803632D01*
X158245900Y-133862372D01*
X158273988Y-133907191D01*
X158266419Y-133927792D01*
X158240424Y-133942564D01*
X158181542Y-133949200D01*
G37*
G36*
X158265561Y-135724357D02*
G01*
X158246339Y-135714503D01*
X158226819Y-135679725D01*
X158208164Y-135598450D01*
X158191909Y-135447680D01*
X158170307Y-135130847D01*
X158150767Y-134687058D01*
X158139532Y-134352445D01*
X158149302Y-134306161D01*
X158162616Y-134295086D01*
X158187159Y-134290774D01*
X158226189Y-134297224D01*
X158252047Y-134314706D01*
X158268248Y-134344019D01*
X158279771Y-134409323D01*
X158285101Y-134548450D01*
X158282292Y-134878789D01*
X158287039Y-135147429D01*
X158299145Y-135332348D01*
X158324302Y-135511622D01*
X158343963Y-135668426D01*
X158338032Y-135693207D01*
X158320150Y-135711779D01*
X158294892Y-135722548D01*
X158265561Y-135724357D01*
G37*
G36*
X158791172Y-133949200D02*
G01*
X158744931Y-133940087D01*
X158694574Y-133910000D01*
X158654964Y-133870323D01*
X158645603Y-133845642D01*
X158652416Y-133816529D01*
X158674912Y-133786779D01*
X158705772Y-133765307D01*
X158735118Y-133758813D01*
X158773912Y-133777209D01*
X158805216Y-133803632D01*
X158855530Y-133862372D01*
X158883618Y-133907191D01*
X158876049Y-133927792D01*
X158850054Y-133942564D01*
X158791172Y-133949200D01*
G37*
G36*
X158875191Y-135724357D02*
G01*
X158855969Y-135714503D01*
X158836449Y-135679725D01*
X158817794Y-135598450D01*
X158801539Y-135447680D01*
X158779937Y-135130847D01*
X158760397Y-134687058D01*
X158749162Y-134352445D01*
X158758932Y-134306161D01*
X158772246Y-134295086D01*
X158796789Y-134290774D01*
X158835819Y-134297224D01*
X158861677Y-134314706D01*
X158877878Y-134344019D01*
X158889401Y-134409323D01*
X158894731Y-134548450D01*
X158891922Y-134878789D01*
X158896669Y-135147429D01*
X158908775Y-135332348D01*
X158933932Y-135511622D01*
X158953593Y-135668426D01*
X158947662Y-135693207D01*
X158929780Y-135711779D01*
X158904523Y-135722548D01*
X158875191Y-135724357D01*
G37*
G36*
X161113921Y-133744769D02*
G01*
X161108304Y-133964588D01*
X161102686Y-134293583D01*
X161116608Y-134944612D01*
X161139078Y-135379975D01*
X161141887Y-135416489D01*
X161147505Y-135452759D01*
X161158618Y-135548014D01*
X161149920Y-135573306D01*
X161117951Y-135601259D01*
X161078822Y-135621335D01*
X161055059Y-135626416D01*
X161028993Y-135620157D01*
X161014392Y-135602602D01*
X161004623Y-135536779D01*
X161013049Y-135214745D01*
X161015858Y-135057941D01*
X161013049Y-134852166D01*
X161004623Y-134637965D01*
X160899416Y-134941665D01*
X160791284Y-135192817D01*
X160681245Y-135398171D01*
X160597692Y-135519380D01*
X160517898Y-135603687D01*
X160441170Y-135658471D01*
X160366123Y-135689235D01*
X160290701Y-135699200D01*
X160231550Y-135689628D01*
X160178586Y-135660829D01*
X160129623Y-135609685D01*
X160095157Y-135546463D01*
X160072380Y-135462505D01*
X160063921Y-135352009D01*
X160078937Y-135208001D01*
X160126835Y-135048808D01*
X160213642Y-134870484D01*
X160320315Y-134701872D01*
X160434186Y-134553032D01*
X160555216Y-134422421D01*
X160692321Y-134302720D01*
X160781928Y-134248695D01*
X160839515Y-134234842D01*
X160893780Y-134242992D01*
X160920306Y-134262633D01*
X160929030Y-134293583D01*
X160923048Y-134333571D01*
X160902407Y-134384563D01*
X160843667Y-134478353D01*
X160805809Y-134520362D01*
X160793230Y-134516210D01*
X160786270Y-134506441D01*
X160800191Y-134458813D01*
X160814235Y-134413995D01*
X160811427Y-134394455D01*
X160794696Y-134388838D01*
X160758161Y-134399511D01*
X160693188Y-134444369D01*
X160583182Y-134549794D01*
X160487009Y-134661322D01*
X160395996Y-134788286D01*
X160310240Y-134932034D01*
X160240689Y-135083114D01*
X160202020Y-135219305D01*
X160189829Y-135343583D01*
X160196872Y-135408906D01*
X160217794Y-135469612D01*
X160240944Y-135502628D01*
X160271004Y-135521690D01*
X160310240Y-135528353D01*
X160381557Y-135517561D01*
X160453220Y-135483800D01*
X160527636Y-135422327D01*
X160606263Y-135325345D01*
X160689672Y-135182627D01*
X160798157Y-134948833D01*
X160899663Y-134687791D01*
X160993510Y-134397142D01*
X160987892Y-134162058D01*
X160979466Y-133831598D01*
X160983720Y-133675477D01*
X160993510Y-133590774D01*
X161006088Y-133551695D01*
X161015858Y-133543700D01*
X161035519Y-133540460D01*
X161062862Y-133544809D01*
X161091451Y-133558656D01*
X161112578Y-133580266D01*
X161119417Y-133607627D01*
X161113921Y-133744769D01*
G37*
G36*
X162305338Y-134570799D02*
G01*
X162286711Y-134566868D01*
X162267602Y-134554068D01*
X162226936Y-134506441D01*
X162175157Y-134458813D01*
X162142099Y-134443924D01*
X162109333Y-134439152D01*
X162062042Y-134454379D01*
X161993054Y-134514755D01*
X161890858Y-134653353D01*
X161760802Y-134883868D01*
X161622191Y-135192397D01*
X161631960Y-135354818D01*
X161641730Y-135500387D01*
X161650157Y-135612372D01*
X161645790Y-135649750D01*
X161633304Y-135681004D01*
X161610740Y-135702493D01*
X161571755Y-135710436D01*
X161548232Y-135700924D01*
X161527080Y-135665649D01*
X161510083Y-135583063D01*
X161499609Y-135440861D01*
X161493353Y-135212058D01*
X161489078Y-135035593D01*
X161482117Y-134761186D01*
X161473691Y-134416803D01*
X161482141Y-134381483D01*
X161506143Y-134360631D01*
X161552093Y-134352445D01*
X161590814Y-134363014D01*
X161609490Y-134393112D01*
X161616257Y-134442868D01*
X161619382Y-134548450D01*
X161619382Y-134993583D01*
X161709578Y-134787225D01*
X161801343Y-134621235D01*
X161903322Y-134476821D01*
X161993196Y-134381877D01*
X162059250Y-134332302D01*
X162113753Y-134306785D01*
X162159769Y-134299200D01*
X162219794Y-134306194D01*
X162277250Y-134327288D01*
X162328424Y-134359690D01*
X162366887Y-134398607D01*
X162392892Y-134442737D01*
X162400593Y-134481161D01*
X162393278Y-134505711D01*
X162365544Y-134538681D01*
X162330396Y-134564091D01*
X162305338Y-134570799D01*
G37*
G36*
X162691242Y-133949200D02*
G01*
X162645001Y-133940087D01*
X162594644Y-133910000D01*
X162555033Y-133870323D01*
X162545673Y-133845642D01*
X162552486Y-133816529D01*
X162574982Y-133786779D01*
X162605841Y-133765307D01*
X162635188Y-133758813D01*
X162673981Y-133777209D01*
X162705286Y-133803632D01*
X162755600Y-133862372D01*
X162783688Y-133907191D01*
X162776119Y-133927792D01*
X162750124Y-133942564D01*
X162691242Y-133949200D01*
G37*
G36*
X162775261Y-135724357D02*
G01*
X162756039Y-135714503D01*
X162736518Y-135679725D01*
X162717864Y-135598450D01*
X162701609Y-135447680D01*
X162680006Y-135130847D01*
X162660467Y-134687058D01*
X162649232Y-134352445D01*
X162659002Y-134306161D01*
X162672316Y-134295086D01*
X162696859Y-134290774D01*
X162735889Y-134297224D01*
X162761747Y-134314706D01*
X162777948Y-134344019D01*
X162789471Y-134409323D01*
X162794801Y-134548450D01*
X162791992Y-134878789D01*
X162796739Y-135147429D01*
X162808845Y-135332348D01*
X162834002Y-135511622D01*
X162853663Y-135668426D01*
X162847732Y-135693207D01*
X162829849Y-135711779D01*
X162804592Y-135722548D01*
X162775261Y-135724357D01*
G37*
G36*
X163300872Y-133949200D02*
G01*
X163254631Y-133940087D01*
X163204274Y-133910000D01*
X163164663Y-133870323D01*
X163155303Y-133845642D01*
X163162116Y-133816529D01*
X163184612Y-133786779D01*
X163215471Y-133765307D01*
X163244818Y-133758813D01*
X163283611Y-133777209D01*
X163314916Y-133803632D01*
X163365230Y-133862372D01*
X163393318Y-133907191D01*
X163385749Y-133927792D01*
X163359754Y-133942564D01*
X163300872Y-133949200D01*
G37*
G36*
X163384891Y-135724357D02*
G01*
X163365669Y-135714503D01*
X163346149Y-135679725D01*
X163327494Y-135598450D01*
X163311239Y-135447680D01*
X163289637Y-135130847D01*
X163270097Y-134687058D01*
X163258862Y-134352445D01*
X163268632Y-134306161D01*
X163281946Y-134295086D01*
X163306489Y-134290774D01*
X163345519Y-134297224D01*
X163371377Y-134314706D01*
X163387578Y-134344019D01*
X163399101Y-134409323D01*
X163404431Y-134548450D01*
X163401622Y-134878789D01*
X163406369Y-135147429D01*
X163418475Y-135332348D01*
X163443632Y-135511622D01*
X163463293Y-135668426D01*
X163457362Y-135693207D01*
X163439480Y-135711779D01*
X163414223Y-135722548D01*
X163384891Y-135724357D01*
G37*
G36*
X163910502Y-133949200D02*
G01*
X163864261Y-133940087D01*
X163813904Y-133910000D01*
X163774294Y-133870323D01*
X163764933Y-133845642D01*
X163771747Y-133816529D01*
X163794242Y-133786779D01*
X163825102Y-133765307D01*
X163854448Y-133758813D01*
X163893242Y-133777209D01*
X163924546Y-133803632D01*
X163974860Y-133862372D01*
X164002948Y-133907191D01*
X163995379Y-133927792D01*
X163969384Y-133942564D01*
X163910502Y-133949200D01*
G37*
G36*
X163994521Y-135724357D02*
G01*
X163975299Y-135714503D01*
X163955779Y-135679725D01*
X163937124Y-135598450D01*
X163920869Y-135447680D01*
X163899267Y-135130847D01*
X163879727Y-134687058D01*
X163868492Y-134352445D01*
X163878262Y-134306161D01*
X163891576Y-134295086D01*
X163916120Y-134290774D01*
X163955149Y-134297224D01*
X163981007Y-134314706D01*
X163997208Y-134344019D01*
X164008731Y-134409323D01*
X164014061Y-134548450D01*
X164011252Y-134878789D01*
X164015999Y-135147429D01*
X164028105Y-135332348D01*
X164053262Y-135511622D01*
X164072923Y-135668426D01*
X164066992Y-135693207D01*
X164049110Y-135711779D01*
X164023853Y-135722548D01*
X163994521Y-135724357D01*
G37*
G36*
X164520132Y-133949200D02*
G01*
X164473891Y-133940087D01*
X164423534Y-133910000D01*
X164383924Y-133870323D01*
X164374563Y-133845642D01*
X164381377Y-133816529D01*
X164403872Y-133786779D01*
X164434732Y-133765307D01*
X164464078Y-133758813D01*
X164502872Y-133777209D01*
X164534176Y-133803632D01*
X164584490Y-133862372D01*
X164612578Y-133907191D01*
X164605009Y-133927792D01*
X164579015Y-133942564D01*
X164520132Y-133949200D01*
G37*
G36*
X164604152Y-135724357D02*
G01*
X164584929Y-135714503D01*
X164565409Y-135679725D01*
X164546755Y-135598450D01*
X164530499Y-135447680D01*
X164508897Y-135130847D01*
X164489357Y-134687058D01*
X164478122Y-134352445D01*
X164487892Y-134306161D01*
X164501207Y-134295086D01*
X164525750Y-134290774D01*
X164564779Y-134297224D01*
X164590637Y-134314706D01*
X164606838Y-134344019D01*
X164618362Y-134409323D01*
X164623691Y-134548450D01*
X164620882Y-134878789D01*
X164625629Y-135147429D01*
X164637735Y-135332348D01*
X164662892Y-135511622D01*
X164682554Y-135668426D01*
X164676622Y-135693207D01*
X164658740Y-135711779D01*
X164633483Y-135722548D01*
X164604152Y-135724357D01*
G37*
G36*
X165129762Y-133949200D02*
G01*
X165083521Y-133940087D01*
X165033164Y-133910000D01*
X164993554Y-133870323D01*
X164984193Y-133845642D01*
X164991007Y-133816529D01*
X165013503Y-133786779D01*
X165044362Y-133765307D01*
X165073709Y-133758813D01*
X165112502Y-133777209D01*
X165143806Y-133803632D01*
X165194120Y-133862372D01*
X165222208Y-133907191D01*
X165214639Y-133927792D01*
X165188645Y-133942564D01*
X165129762Y-133949200D01*
G37*
G36*
X165213782Y-135724357D02*
G01*
X165194559Y-135714503D01*
X165175039Y-135679725D01*
X165156385Y-135598450D01*
X165140129Y-135447680D01*
X165118527Y-135130847D01*
X165098988Y-134687058D01*
X165087752Y-134352445D01*
X165097522Y-134306161D01*
X165110837Y-134295086D01*
X165135380Y-134290774D01*
X165174409Y-134297224D01*
X165200267Y-134314706D01*
X165216468Y-134344019D01*
X165227992Y-134409323D01*
X165233321Y-134548450D01*
X165230512Y-134878789D01*
X165235259Y-135147429D01*
X165247365Y-135332348D01*
X165272522Y-135511622D01*
X165292184Y-135668426D01*
X165286252Y-135693207D01*
X165268370Y-135711779D01*
X165243113Y-135722548D01*
X165213782Y-135724357D01*
G37*
G36*
X165739392Y-133949200D02*
G01*
X165693151Y-133940087D01*
X165642794Y-133910000D01*
X165603184Y-133870323D01*
X165593824Y-133845642D01*
X165600637Y-133816529D01*
X165623133Y-133786779D01*
X165653992Y-133765307D01*
X165683339Y-133758813D01*
X165722132Y-133777209D01*
X165753436Y-133803632D01*
X165803750Y-133862372D01*
X165831838Y-133907191D01*
X165824269Y-133927792D01*
X165798275Y-133942564D01*
X165739392Y-133949200D01*
G37*
G36*
X165823412Y-135724357D02*
G01*
X165804189Y-135714503D01*
X165784669Y-135679725D01*
X165766015Y-135598450D01*
X165749760Y-135447680D01*
X165728157Y-135130847D01*
X165708618Y-134687058D01*
X165697383Y-134352445D01*
X165707152Y-134306161D01*
X165720467Y-134295086D01*
X165745010Y-134290774D01*
X165784039Y-134297224D01*
X165809898Y-134314706D01*
X165826099Y-134344019D01*
X165837622Y-134409323D01*
X165842951Y-134548450D01*
X165840143Y-134878789D01*
X165844890Y-135147429D01*
X165856995Y-135332348D01*
X165882152Y-135511622D01*
X165901814Y-135668426D01*
X165895883Y-135693207D01*
X165878000Y-135711779D01*
X165852743Y-135722548D01*
X165823412Y-135724357D01*
G37*
G36*
X166503018Y-135729975D02*
G01*
X166454429Y-135716251D01*
X166406420Y-135669769D01*
X166367503Y-135606569D01*
X166336444Y-135535436D01*
X166309822Y-135438838D01*
X166316635Y-135409726D01*
X166339131Y-135379975D01*
X166370007Y-135358510D01*
X166399459Y-135352009D01*
X166416974Y-135355882D01*
X166430233Y-135367397D01*
X166463817Y-135419176D01*
X166492382Y-135464055D01*
X166511444Y-135483656D01*
X166542479Y-135519815D01*
X166571650Y-135587215D01*
X166595464Y-135687965D01*
X166587895Y-135708567D01*
X166561900Y-135723339D01*
X166503018Y-135729975D01*
G37*
D11*
X121238095Y-130304819D02*
X121238095Y-129304819D01*
X121238095Y-129781009D02*
X121809523Y-129781009D01*
X121809523Y-130304819D02*
X121809523Y-129304819D01*
X122190476Y-129304819D02*
X122809523Y-129304819D01*
X122809523Y-129304819D02*
X122476190Y-129685771D01*
X122476190Y-129685771D02*
X122619047Y-129685771D01*
X122619047Y-129685771D02*
X122714285Y-129733390D01*
X122714285Y-129733390D02*
X122761904Y-129781009D01*
X122761904Y-129781009D02*
X122809523Y-129876247D01*
X122809523Y-129876247D02*
X122809523Y-130114342D01*
X122809523Y-130114342D02*
X122761904Y-130209580D01*
X122761904Y-130209580D02*
X122714285Y-130257200D01*
X122714285Y-130257200D02*
X122619047Y-130304819D01*
X122619047Y-130304819D02*
X122333333Y-130304819D01*
X122333333Y-130304819D02*
X122238095Y-130257200D01*
X122238095Y-130257200D02*
X122190476Y-130209580D01*
X187221009Y-107690952D02*
X187268628Y-107548095D01*
X187268628Y-107548095D02*
X187316247Y-107500476D01*
X187316247Y-107500476D02*
X187411485Y-107452857D01*
X187411485Y-107452857D02*
X187554342Y-107452857D01*
X187554342Y-107452857D02*
X187649580Y-107500476D01*
X187649580Y-107500476D02*
X187697200Y-107548095D01*
X187697200Y-107548095D02*
X187744819Y-107643333D01*
X187744819Y-107643333D02*
X187744819Y-108024285D01*
X187744819Y-108024285D02*
X186744819Y-108024285D01*
X186744819Y-108024285D02*
X186744819Y-107690952D01*
X186744819Y-107690952D02*
X186792438Y-107595714D01*
X186792438Y-107595714D02*
X186840057Y-107548095D01*
X186840057Y-107548095D02*
X186935295Y-107500476D01*
X186935295Y-107500476D02*
X187030533Y-107500476D01*
X187030533Y-107500476D02*
X187125771Y-107548095D01*
X187125771Y-107548095D02*
X187173390Y-107595714D01*
X187173390Y-107595714D02*
X187221009Y-107690952D01*
X187221009Y-107690952D02*
X187221009Y-108024285D01*
X186744819Y-107119523D02*
X186744819Y-106452857D01*
X186744819Y-106452857D02*
X187744819Y-107119523D01*
X187744819Y-107119523D02*
X187744819Y-106452857D01*
X187744819Y-105548095D02*
X187744819Y-106119523D01*
X187744819Y-105833809D02*
X186744819Y-105833809D01*
X186744819Y-105833809D02*
X186887676Y-105929047D01*
X186887676Y-105929047D02*
X186982914Y-106024285D01*
X186982914Y-106024285D02*
X187030533Y-106119523D01*
X192023866Y-111000951D02*
X192023866Y-110239047D01*
X192404819Y-110619999D02*
X191642914Y-110619999D01*
X121238095Y-91804819D02*
X121238095Y-90804819D01*
X121238095Y-91281009D02*
X121809523Y-91281009D01*
X121809523Y-91804819D02*
X121809523Y-90804819D01*
X122809523Y-91804819D02*
X122238095Y-91804819D01*
X122523809Y-91804819D02*
X122523809Y-90804819D01*
X122523809Y-90804819D02*
X122428571Y-90947676D01*
X122428571Y-90947676D02*
X122333333Y-91042914D01*
X122333333Y-91042914D02*
X122238095Y-91090533D01*
X171166667Y-115033200D02*
X171309524Y-115080819D01*
X171309524Y-115080819D02*
X171547619Y-115080819D01*
X171547619Y-115080819D02*
X171642857Y-115033200D01*
X171642857Y-115033200D02*
X171690476Y-114985580D01*
X171690476Y-114985580D02*
X171738095Y-114890342D01*
X171738095Y-114890342D02*
X171738095Y-114795104D01*
X171738095Y-114795104D02*
X171690476Y-114699866D01*
X171690476Y-114699866D02*
X171642857Y-114652247D01*
X171642857Y-114652247D02*
X171547619Y-114604628D01*
X171547619Y-114604628D02*
X171357143Y-114557009D01*
X171357143Y-114557009D02*
X171261905Y-114509390D01*
X171261905Y-114509390D02*
X171214286Y-114461771D01*
X171214286Y-114461771D02*
X171166667Y-114366533D01*
X171166667Y-114366533D02*
X171166667Y-114271295D01*
X171166667Y-114271295D02*
X171214286Y-114176057D01*
X171214286Y-114176057D02*
X171261905Y-114128438D01*
X171261905Y-114128438D02*
X171357143Y-114080819D01*
X171357143Y-114080819D02*
X171595238Y-114080819D01*
X171595238Y-114080819D02*
X171738095Y-114128438D01*
X172071429Y-114080819D02*
X172309524Y-115080819D01*
X172309524Y-115080819D02*
X172500000Y-114366533D01*
X172500000Y-114366533D02*
X172690476Y-115080819D01*
X172690476Y-115080819D02*
X172928572Y-114080819D01*
X173214286Y-114080819D02*
X173833333Y-114080819D01*
X173833333Y-114080819D02*
X173500000Y-114461771D01*
X173500000Y-114461771D02*
X173642857Y-114461771D01*
X173642857Y-114461771D02*
X173738095Y-114509390D01*
X173738095Y-114509390D02*
X173785714Y-114557009D01*
X173785714Y-114557009D02*
X173833333Y-114652247D01*
X173833333Y-114652247D02*
X173833333Y-114890342D01*
X173833333Y-114890342D02*
X173785714Y-114985580D01*
X173785714Y-114985580D02*
X173738095Y-115033200D01*
X173738095Y-115033200D02*
X173642857Y-115080819D01*
X173642857Y-115080819D02*
X173357143Y-115080819D01*
X173357143Y-115080819D02*
X173261905Y-115033200D01*
X173261905Y-115033200D02*
X173214286Y-114985580D01*
X190166667Y-115033200D02*
X190309524Y-115080819D01*
X190309524Y-115080819D02*
X190547619Y-115080819D01*
X190547619Y-115080819D02*
X190642857Y-115033200D01*
X190642857Y-115033200D02*
X190690476Y-114985580D01*
X190690476Y-114985580D02*
X190738095Y-114890342D01*
X190738095Y-114890342D02*
X190738095Y-114795104D01*
X190738095Y-114795104D02*
X190690476Y-114699866D01*
X190690476Y-114699866D02*
X190642857Y-114652247D01*
X190642857Y-114652247D02*
X190547619Y-114604628D01*
X190547619Y-114604628D02*
X190357143Y-114557009D01*
X190357143Y-114557009D02*
X190261905Y-114509390D01*
X190261905Y-114509390D02*
X190214286Y-114461771D01*
X190214286Y-114461771D02*
X190166667Y-114366533D01*
X190166667Y-114366533D02*
X190166667Y-114271295D01*
X190166667Y-114271295D02*
X190214286Y-114176057D01*
X190214286Y-114176057D02*
X190261905Y-114128438D01*
X190261905Y-114128438D02*
X190357143Y-114080819D01*
X190357143Y-114080819D02*
X190595238Y-114080819D01*
X190595238Y-114080819D02*
X190738095Y-114128438D01*
X191071429Y-114080819D02*
X191309524Y-115080819D01*
X191309524Y-115080819D02*
X191500000Y-114366533D01*
X191500000Y-114366533D02*
X191690476Y-115080819D01*
X191690476Y-115080819D02*
X191928572Y-114080819D01*
X192738095Y-114414152D02*
X192738095Y-115080819D01*
X192500000Y-114033200D02*
X192261905Y-114747485D01*
X192261905Y-114747485D02*
X192880952Y-114747485D01*
X152236667Y-114923200D02*
X152379524Y-114970819D01*
X152379524Y-114970819D02*
X152617619Y-114970819D01*
X152617619Y-114970819D02*
X152712857Y-114923200D01*
X152712857Y-114923200D02*
X152760476Y-114875580D01*
X152760476Y-114875580D02*
X152808095Y-114780342D01*
X152808095Y-114780342D02*
X152808095Y-114685104D01*
X152808095Y-114685104D02*
X152760476Y-114589866D01*
X152760476Y-114589866D02*
X152712857Y-114542247D01*
X152712857Y-114542247D02*
X152617619Y-114494628D01*
X152617619Y-114494628D02*
X152427143Y-114447009D01*
X152427143Y-114447009D02*
X152331905Y-114399390D01*
X152331905Y-114399390D02*
X152284286Y-114351771D01*
X152284286Y-114351771D02*
X152236667Y-114256533D01*
X152236667Y-114256533D02*
X152236667Y-114161295D01*
X152236667Y-114161295D02*
X152284286Y-114066057D01*
X152284286Y-114066057D02*
X152331905Y-114018438D01*
X152331905Y-114018438D02*
X152427143Y-113970819D01*
X152427143Y-113970819D02*
X152665238Y-113970819D01*
X152665238Y-113970819D02*
X152808095Y-114018438D01*
X153141429Y-113970819D02*
X153379524Y-114970819D01*
X153379524Y-114970819D02*
X153570000Y-114256533D01*
X153570000Y-114256533D02*
X153760476Y-114970819D01*
X153760476Y-114970819D02*
X153998572Y-113970819D01*
X154331905Y-114066057D02*
X154379524Y-114018438D01*
X154379524Y-114018438D02*
X154474762Y-113970819D01*
X154474762Y-113970819D02*
X154712857Y-113970819D01*
X154712857Y-113970819D02*
X154808095Y-114018438D01*
X154808095Y-114018438D02*
X154855714Y-114066057D01*
X154855714Y-114066057D02*
X154903333Y-114161295D01*
X154903333Y-114161295D02*
X154903333Y-114256533D01*
X154903333Y-114256533D02*
X154855714Y-114399390D01*
X154855714Y-114399390D02*
X154284286Y-114970819D01*
X154284286Y-114970819D02*
X154903333Y-114970819D01*
X150924819Y-109833333D02*
X151639104Y-109833333D01*
X151639104Y-109833333D02*
X151781961Y-109880952D01*
X151781961Y-109880952D02*
X151877200Y-109976190D01*
X151877200Y-109976190D02*
X151924819Y-110119047D01*
X151924819Y-110119047D02*
X151924819Y-110214285D01*
X151924819Y-108833333D02*
X151924819Y-109404761D01*
X151924819Y-109119047D02*
X150924819Y-109119047D01*
X150924819Y-109119047D02*
X151067676Y-109214285D01*
X151067676Y-109214285D02*
X151162914Y-109309523D01*
X151162914Y-109309523D02*
X151210533Y-109404761D01*
X203238095Y-91804819D02*
X203238095Y-90804819D01*
X203238095Y-91281009D02*
X203809523Y-91281009D01*
X203809523Y-91804819D02*
X203809523Y-90804819D01*
X204238095Y-90900057D02*
X204285714Y-90852438D01*
X204285714Y-90852438D02*
X204380952Y-90804819D01*
X204380952Y-90804819D02*
X204619047Y-90804819D01*
X204619047Y-90804819D02*
X204714285Y-90852438D01*
X204714285Y-90852438D02*
X204761904Y-90900057D01*
X204761904Y-90900057D02*
X204809523Y-90995295D01*
X204809523Y-90995295D02*
X204809523Y-91090533D01*
X204809523Y-91090533D02*
X204761904Y-91233390D01*
X204761904Y-91233390D02*
X204190476Y-91804819D01*
X204190476Y-91804819D02*
X204809523Y-91804819D01*
X203238095Y-130304819D02*
X203238095Y-129304819D01*
X203238095Y-129781009D02*
X203809523Y-129781009D01*
X203809523Y-130304819D02*
X203809523Y-129304819D01*
X204714285Y-129638152D02*
X204714285Y-130304819D01*
X204476190Y-129257200D02*
X204238095Y-129971485D01*
X204238095Y-129971485D02*
X204857142Y-129971485D01*
X133166667Y-115033200D02*
X133309524Y-115080819D01*
X133309524Y-115080819D02*
X133547619Y-115080819D01*
X133547619Y-115080819D02*
X133642857Y-115033200D01*
X133642857Y-115033200D02*
X133690476Y-114985580D01*
X133690476Y-114985580D02*
X133738095Y-114890342D01*
X133738095Y-114890342D02*
X133738095Y-114795104D01*
X133738095Y-114795104D02*
X133690476Y-114699866D01*
X133690476Y-114699866D02*
X133642857Y-114652247D01*
X133642857Y-114652247D02*
X133547619Y-114604628D01*
X133547619Y-114604628D02*
X133357143Y-114557009D01*
X133357143Y-114557009D02*
X133261905Y-114509390D01*
X133261905Y-114509390D02*
X133214286Y-114461771D01*
X133214286Y-114461771D02*
X133166667Y-114366533D01*
X133166667Y-114366533D02*
X133166667Y-114271295D01*
X133166667Y-114271295D02*
X133214286Y-114176057D01*
X133214286Y-114176057D02*
X133261905Y-114128438D01*
X133261905Y-114128438D02*
X133357143Y-114080819D01*
X133357143Y-114080819D02*
X133595238Y-114080819D01*
X133595238Y-114080819D02*
X133738095Y-114128438D01*
X134071429Y-114080819D02*
X134309524Y-115080819D01*
X134309524Y-115080819D02*
X134500000Y-114366533D01*
X134500000Y-114366533D02*
X134690476Y-115080819D01*
X134690476Y-115080819D02*
X134928572Y-114080819D01*
X135833333Y-115080819D02*
X135261905Y-115080819D01*
X135547619Y-115080819D02*
X135547619Y-114080819D01*
X135547619Y-114080819D02*
X135452381Y-114223676D01*
X135452381Y-114223676D02*
X135357143Y-114318914D01*
X135357143Y-114318914D02*
X135261905Y-114366533D01*
D12*
X200590000Y-106810000D02*
G75*
G02*
X188390000Y-106810000I-6100000J0D01*
G01*
X188390000Y-106810000D02*
G75*
G02*
X200590000Y-106810000I6100000J0D01*
G01*
X165515000Y-115515000D02*
X179485000Y-115515000D01*
X165515000Y-129485000D02*
X165515000Y-115515000D01*
X179485000Y-115515000D02*
X179485000Y-129485000D01*
X179485000Y-129485000D02*
X165515000Y-129485000D01*
X184515000Y-115515000D02*
X198485000Y-115515000D01*
X184515000Y-129485000D02*
X184515000Y-115515000D01*
X198485000Y-115515000D02*
X198485000Y-129485000D01*
X198485000Y-129485000D02*
X184515000Y-129485000D01*
X146585000Y-115405000D02*
X160555000Y-115405000D01*
X146585000Y-129375000D02*
X146585000Y-115405000D01*
X160555000Y-115405000D02*
X160555000Y-129375000D01*
X160555000Y-129375000D02*
X146585000Y-129375000D01*
X129590000Y-108170000D02*
X129590000Y-110830000D01*
X147430000Y-108170000D02*
X129590000Y-108170000D01*
X147430000Y-108170000D02*
X147430000Y-110830000D01*
X147430000Y-110830000D02*
X129590000Y-110830000D01*
X150030000Y-109500000D02*
X150030000Y-110830000D01*
X150030000Y-110830000D02*
X148700000Y-110830000D01*
X127515000Y-115515000D02*
X141485000Y-115515000D01*
X127515000Y-129485000D02*
X127515000Y-115515000D01*
X141485000Y-115515000D02*
X141485000Y-129485000D01*
X141485000Y-129485000D02*
X127515000Y-129485000D01*
M02*
